<?xml version="1.0" encoding="utf-8"?>
<!-- Generator: Adobe Illustrator 23.0.3, SVG Export Plug-In . SVG Version: 6.00 Build 0)  -->
<svg version="1.1" id="Layer_1" xmlns="http://www.w3.org/2000/svg" xmlns:xlink="http://www.w3.org/1999/xlink" x="0px" y="0px"
	 viewBox="0 0 324.5 324.5" style="enable-background:new 0 0 324.5 324.5;" xml:space="preserve">
<style type="text/css">
	.st0{fill:#202020;}
</style>
<image style="display:none;overflow:visible;" width="1038" height="822" xlink:href="../../../../../../../../../../../Desktop/Screenshot 2019-05-24 at 14.52.48.png"  transform="matrix(0.5 0 0 0.5 -102.3246 -54.4256)">
</image>
<g>
	<path class="st0" d="M132.8,32.8c0.1,0.2,0.4,0.4,0.4,0.3l-0.4-0.5L132.8,32.8z"/>
	<path class="st0" d="M134.2,33.1c-0.1-0.3-0.4-0.8-0.9-1.2c0.4,0.5,0.1,0.4,0.6,1c0,0.1-0.3,0-0.5-0.2c0.1,0.1-0.2,0,0,0.4
		c0.5,0.3,0.6,0.1,0.5-0.3C134,32.8,134.1,33,134.2,33.1z"/>
	<path class="st0" d="M143.1,25.6l-0.1,0C143,25.7,143.1,25.7,143.1,25.6z"/>
	<path class="st0" d="M148.4,20.8c0,0,0,0.1,0,0.2C148.5,20.9,148.5,20.9,148.4,20.8z"/>
	<path class="st0" d="M149.8,20.5C149.8,20.5,149.7,20.5,149.8,20.5C149.8,20.5,149.8,20.5,149.8,20.5z"/>
	<path class="st0" d="M143.1,25.6l0.3,0C143.2,25.5,143.2,25.6,143.1,25.6z"/>
	<path class="st0" d="M134.2,30.8c0,0.1,0,0.1,0,0.2C134.2,31,134.2,30.9,134.2,30.8C134.2,30.9,134.2,30.9,134.2,30.8z"/>
	<path class="st0" d="M141.2,28.3L141.2,28.3c0,0.1,0.1,0.2,0.1,0.3L141.2,28.3z"/>
	<path class="st0" d="M139.6,30c0.1,0-0.3-0.4-0.5-0.6c0.1,0.2,0.2,0.3,0.2,0.4C139.4,29.9,139.5,29.9,139.6,30z"/>
	<path class="st0" d="M136.2,32.1l0,0.1C136.2,32.1,136.2,32.1,136.2,32.1z"/>
	<path class="st0" d="M142.5,27.1c0.1,0.1,0.1,0.1,0.2,0.1C142.7,27.2,142.6,27.2,142.5,27.1z"/>
	<path class="st0" d="M191.2,29.9C191.2,29.9,191.2,29.9,191.2,29.9C191.2,29.9,191.2,29.9,191.2,29.9z"/>
	<polygon class="st0" points="191.2,33.8 191.2,33.8 190.9,34 	"/>
	<path class="st0" d="M151.9,19.4L151.9,19.4C151.9,19.5,151.9,19.5,151.9,19.4z"/>
	<path class="st0" d="M163.1,8.8c0.2-0.5,0.5-0.4,0.7-1C163.7,8,163.2,8.4,163.1,8.8z"/>
	<path class="st0" d="M134.3,30.8C134.3,30.8,134.3,30.8,134.3,30.8C134.3,30.8,134.3,30.8,134.3,30.8z"/>
	<path class="st0" d="M163.8,7.8L163.8,7.8L163.8,7.8C163.8,7.8,163.8,7.8,163.8,7.8z"/>
	<path class="st0" d="M155.3,15.5c-0.1-0.1-0.1-0.1-0.2-0.1C155.1,15.4,155.2,15.5,155.3,15.5z"/>
	<path class="st0" d="M152,17.7l0.1,0C152.1,17.7,152,17.7,152,17.7z"/>
	<path class="st0" d="M156.1,13.6c0.1,0,0.1,0,0.1-0.1c0,0,0,0-0.1,0C156.2,13.5,156.2,13.6,156.1,13.6z"/>
	<path class="st0" d="M157.6,12.1c0,0-0.1,0-0.1-0.1l0,0.1L157.6,12.1z"/>
	<path class="st0" d="M186.6,25.6c-0.1,0.1-0.2,0.3-0.3,0.4C186.5,25.7,186.8,25.8,186.6,25.6z"/>
	<path class="st0" d="M134.4,31.1c-0.1-0.1-0.1-0.2-0.1-0.2c0,0,0,0,0,0.1C134.3,31,134.4,31,134.4,31.1z"/>
	<path class="st0" d="M153.1,10.4l0.3-0.2C153.2,10.2,153.1,10.3,153.1,10.4z"/>
	<path class="st0" d="M176,15.1l0.1,0C176.1,15.1,176,15.1,176,15.1z"/>
	<path class="st0" d="M154,9.4c0.2,0.1,0.3,0.1,0.4,0.1c0,0,0-0.1-0.1-0.1L154,9.4z"/>
	<path class="st0" d="M186.3,26L186.3,26L186.3,26z"/>
	<path class="st0" d="M188.7,26.6c-0.2-0.2-0.6,0.4-1,0.7c-0.4-0.1,0.3-0.5,0.4-0.9c-0.3,0-0.9,0.3-1,0.2c0.1-0.1,0.1-0.2,0.2-0.2
		c-0.6,0.2-0.5-0.5-1.3-0.2c0-0.1,0.1-0.1,0.1-0.2c-0.2,0.3-0.5,0.6-0.7,0.7c-0.1-0.1-0.5,0.1-0.2-0.2c0.1,0.1,0.2-0.1,0.3-0.1
		l-0.3,0c0.4-0.6,0.3,0,0.7-0.4c-0.4,0-1,0.1-1-0.2c0.4-0.5,0.5,0.2,0.7-0.4l0.1,0.4c0.6-0.9,0.1,0.2,0.7-0.8
		c-0.2-0.5-0.6-0.1-0.8-0.6c-0.3,0.2-0.4,0.4-0.7,0.6c-0.9,0,0.9-1.6-0.1-1.3c-0.4,0.2-1,0.8-1,0.3l0.6-0.5c-0.3-0.4-1,0.6-0.9-0.1
		c0.3-0.2,0.4,0.1,0.4,0c0.2-0.6-0.5,0.2-0.6,0L184,23c-0.4-0.3-1.1-0.3-1.6-0.5c0.2-0.1,0.4-0.2,0.4-0.4c-0.7-0.2-0.9-1-1.1-1.8
		l-0.6,0.2c0,0,0.1-0.3,0.2-0.3c0-0.3-0.3,0.3-0.5,0.3c-0.1-0.1,0.1-0.4,0.3-0.4c-0.7,0-1.6-0.1-1.5-0.9l0.2-0.1
		c-0.1-0.4-1.1,0.6-1,0l0.1,0c-0.4-0.7-1.3-0.9-1.1-2c-0.7,0.5-0.3-0.8-1.1,0c0.1-0.7,0.3-0.8,0.2-1.5c-0.1-0.2-0.7,0.3-0.9,0.3
		l0.4-0.4l-0.7,0.3l0.4-0.6l-0.2,0c0,0.1-0.1,0.3-0.2,0.4c-0.4,0-0.2-0.8,0-1l-0.9-0.1c0.2-0.2,0.3-0.1,0.5-0.2
		c-0.7,0.2,0.4-0.5-0.2-0.3c-0.1,0.1-0.3,0.2-0.4,0.3c0.1-0.4-0.1-0.7-0.4-0.8l0.3-0.3c-0.3-0.4-0.9-0.6-1.3-1.1
		c0,0.3-0.5,0.8-0.7,0.7l0.4-0.5c-0.4,0.2,0,0.3-0.6,0.5c-0.1-0.2,0.4-0.6,0.7-0.7l-0.3,0c0.1-0.1,0.2-0.2,0.4-0.3
		c-0.4,0.2,0.1-0.8-0.5-0.4l0.1-0.1c-0.4-0.4-0.8-0.4-1.1-0.8c-0.4,0.4-0.4,0.2-0.9,0.4c-0.1-0.4-0.1-1-0.4-1.2
		c-0.4,0-0.4,0.3-0.7,0.4c0.3-0.4,0-0.6,0.4-0.7c-0.4-0.3-0.5-0.4-1.3-0.5c-0.1,0.2-0.1,0.3-0.3,0.4c-0.1,0,0-0.3,0.2-0.5l0.1,0
		c-1.1,0-0.1-2.2-1.3-1.9l0.1,0l-0.8,0c-0.1-0.3,0.4-0.2,0.5-0.5c-0.5,0.1-0.7-0.1-0.8-0.3c-0.1-0.1-0.1-0.2-0.2-0.3
		c-0.1-0.1-0.3-0.3-0.6-0.3c0.2-0.8-0.3-1.3-0.8-1.7c-0.5-0.4-1.1-0.7-1.3-1.7l0,0.5c-0.2,0.3-0.2-0.5-0.3-0.7c0,0.4,0.2,0.6,0,0.7
		c-0.3-0.2-0.5-0.4-0.8-0.6c-0.6,0.6-1.2,1-2,1.5c-0.7,0.4-1.6,0.9-2.4,1.6c-0.1,0.1-0.1,0.2-0.2,0.2c0,0.1,0,0.1,0.1,0.2
		c0.1,0.1,0.2,0.3,0.3,0.5c0.2,0.3,0.3,0.6-0.2,0.5l-0.4-0.6c-0.1,1.2-1.3,1.3-1.5,2.4c-0.1-0.1-0.2-0.3-0.1-0.3
		c-0.5-0.2-0.5,0.5-0.2,0.8c-0.1,0.1-0.3-0.2-0.5-0.3c-0.3-0.1,0.1,0.8-0.3,0.5c-0.1,0-0.1-0.1-0.1-0.2c0.1,0.3-0.4,0.4,0,0.7
		c-0.4,0.1-0.3,0.6-0.7,0.6c0.3,0.6-0.6,0.2,0,0.9c-0.6-0.7-0.9-0.1-0.8,0.4c-0.1-0.2-0.3-0.1-0.5-0.4c-0.2,0.2-0.2,0.5,0.2,0.8
		c-1.1-0.5,0,1.2-1.2,0.4c-0.2,0.9-0.4,1.6-0.7,2.2c-0.6-0.7,0.4-0.6-0.2-1.2c-0.2,0.7,0.1,1.5-0.5,1.8c-0.2,0-0.2-0.3-0.3-0.5
		c-0.2,0.7-0.9,0.8-0.9,1.5c-0.1-0.1-0.1-0.2-0.1-0.3c-0.1,0.1-0.3,0.1,0,0.4l0-0.2c0.5,0.3,0.6,1.2,0.8,1.4c-0.7-1-0.6,0.2-1.4-1.1
		c0,0.1,0.1,0.3,0.3,0.5c-0.1,0-0.3-0.1-0.4-0.4c-0.1,0.4,0.3,0.6,0,0.9c-0.1-0.1-0.1-0.2-0.3-0.4c0.1,0.4,0.3,0.8,0,0.9
		c-0.1-0.1-0.2-0.2-0.1-0.2c-0.3,0.4,0.1,1.3-0.5,1.5c-0.5-0.7-0.3-0.1-0.9-0.6l-0.1,0.4l0.3,0.2c-0.2,0.2,0,0.7-0.3,0.7l-0.1-0.4
		l-0.2,0.4l0.4,0c0.1,0.5,0.7,0.6,0.3,0.7c0-0.1-0.2,0.2-0.6,0l0,0c0.1,0.3,0.2,0.5-0.1,0.5c-0.2-0.1-0.6-0.6-0.7-0.7
		c0.4,0.5-0.3,0.6,0,1.1c-0.1-0.1-0.3-0.4-0.4-0.5l0.3,0.4c-0.2,0-0.3-0.1-0.5-0.3c-0.3,0.2,0.8,0.6,0.2,0.6c0-0.1-0.1-0.1-0.1-0.2
		c-0.5,0.2-0.4,0.8-0.8,0.9c-0.6-0.4,0.1-0.4-0.4-0.7c-0.3,0.5-0.2,1.5-0.7,1.7l0.1,0c0.7,0.8-0.7-0.1-0.5,0.5
		c0-0.1-0.4-0.5-0.3-0.4c-0.4,0.1-0.4,0.7-0.5,1.4l-0.1-0.2c-0.3,0-0.5,0.3-0.8,0.4c0.1,0.2,0,0.3,0.4,0.5c-1.6-0.6-0.4,1.6-1.8,1.2
		c0.1-0.1,0-0.3-0.1-0.3l-0.2,0.6c0.4,0.3,0.3,0.1,0.6,0.3c0.1,0.2,0.2,0.5,0.1,0.6c0-0.4-0.5-0.5-0.8-0.6c0.1,0.1,0.2,0.2,0.3,0.3
		c-0.8-0.4,0.6,0.7-0.1,0.6l-0.2-0.2c0,0.2,0.1,0.5-0.1,0.6c-0.4-0.3-0.1-0.3-0.4-0.6c-0.1,0.2,0.4,1-0.1,0.8c0-0.2,0.1-0.3,0-0.4
		c-0.6-0.3-0.5-0.2-0.7-0.1l0,0l-0.5,0.1l0.2,0.1c0.8,1.2-0.2,0.6,0.1,1.5c-0.3-0.9-0.3-0.4-0.7-0.8c-0.2,0-0.4-0.1-0.5-0.2
		c0.2,0.5-0.5-0.1-0.2,0.6c-0.1-0.1-0.2,0.1-0.5-0.3c-0.1,0.3,0.3,0.2,0.4,0.4c0.2,0.7-1.2,0-0.9,1.1c-0.1,0.6,0.4,1.1,0.3,1.6
		c-0.3-0.1-0.4-0.6-0.4-0.6c-0.4,0-0.4,0.1-0.4,0.4c-0.1-0.2-0.2-0.2-0.4-0.3c-0.1,0.2,0.4,0.6,0.1,0.5c-0.1-0.2-0.3-0.5-0.4-0.7
		c0,0.3,0.1,0.7,0.1,0.9c-0.3-0.2-0.3-0.5-0.4-0.7c-0.1,0.3-0.2,0.7,0.1,1.1l0.2,0c0,0.1-0.4-0.3-0.4-0.4c-0.2-0.4,0.3-0.1,0.5,0.1
		l0,0.2c0.9,0.7,0.3-0.6,0.6-0.7l0.5,0.7l-0.3-0.7c0.2,0.1,0.6,0.4,0.5,0.6c0.4,0.1-0.1-0.3,0.4-0.2c0.1,0,0.1,0.1,0.1,0.1l0-0.3
		c0.1,0.2,0.4,0.4,0.3,0.4c0.6,0.1,0-0.9,0.5-0.5l0,0.1c0.2-0.6-0.4-0.5-0.6-1.3l1.3,0.9l-0.4-0.5c0.1,0,0.2-0.1,0.3,0.1
		c-0.2-0.4-0.2-0.2-0.4-0.5c0.6,0.2,0.3-0.7,1.1,0c-0.3-0.4-0.4-0.1-0.5-0.5c0.8,0.7,0.1-0.4,0.6-0.2c0.3,0.4,0,0.4,0.5,0.6
		c-0.5-0.7,0.5-0.2,0.5-0.5c-0.5-0.5,0.1-0.5,0.2-0.9c0.2,0.2,0.7-0.2,1.1-0.2l0.1,0.1c-0.5-0.6-0.1-0.7-0.1-1
		c0.3,0.3,0.4,0.5,0.4,0.7l0.2-0.2c-0.1-0.2-0.2-0.3-0.1-0.5l0.3,0.4c0.2-0.2,0-0.9,0.5-0.9c-0.3-0.4-1.2-0.8-1.2-1.3
		c0.2,0.2,0.6,0.5,0.6,0.7c0-0.1-0.1-0.2,0.1-0.2l0.2,0.4c0.3,0-0.2-0.3-0.1-0.4c0.3,0.3,0.3,0.1,0.5,0.4c0,0.1-0.2,0-0.1,0.1
		c0.2-0.1,0.5,0,0.7,0.1c-0.2-0.1-0.4-0.4-0.3-0.5c0.2-0.2,0.4,0.3,0.7,0.3c-0.1-0.2,0.2-0.2-0.2-0.6c0.1-0.1,0.3,0.1,0.4,0.2
		c-0.1-0.3,0.5-0.6-0.1-0.9l-0.1,0c0,0,0,0,0,0l0,0l0,0c-0.1-0.8,1-0.5,1.1-1l0.1,0.1c0.1-0.4,0.4-0.6,0.2-1
		c0.1-0.1,0.4,0.1,0.5,0.3c0.1-0.3-0.1-0.4,0.4-0.4c0.1,0.4,0.3,0.2,0,0.3c0.3-0.1,0.6,0.1,0.4-0.5c0.3,0.4,0.6,0.3,0.6,0.1
		l-0.4-0.1c0.1-0.2,0.2-0.2,0.3-0.3l0.4,0.5c1,0.1-0.2-1.7,1.1-1.1c-0.2-0.4-0.5,0-0.7-0.5c0.3-0.1,1.1,0.3,1.2,0.3
		c0.5,0-0.4-0.9,0-1c-0.2-0.1-0.7-0.5-0.6-0.9c0.3-0.1,0.9,0.5,1,0.7c0,0.1-0.1,0-0.2,0c0,0.1,0,0.3,0.2,0.4l-0.1-0.2
		c0.3,0.1,0.5-0.2,0.7,0.1c0-0.3-0.2-0.3-0.4-0.3c0.5,0,0.4-0.4,0.8-0.5c-0.1-0.1-0.4-0.2-0.3-0.2c0.6-0.2-0.2-0.5,0-0.8
		c0.4,0.1,0.6,0.7,0.6,0.2c0.3,0,0.5,0.4,0.6,0.6c-0.1-0.6,0.7-0.2,0.9-0.3l0,0.3c0-0.2,0.1-0.2,0.1-0.3l-0.4-0.3
		c0.1,0,0.2-0.1,0.3,0.1c-0.1-0.3-0.6-0.5-0.8-1c0.3,0.1,0.1-0.5,0.6-0.1c-0.5,0.2,0.5,0.4,0.3,0.7c0-0.1,0.1-0.2,0.2-0.2
		c0.1,0,0.1,0.1,0.1,0.1c0.7,0.1-0.4-0.6-0.1-0.9c0.2,0.3,0.5,0.4,0.5,0.3c-0.1,0.1-0.5-0.4-0.6-0.7c0.4,0,0.1-0.4,0.2-0.4l-0.2,0
		c-0.2-0.3-0.1-0.4,0-0.6c0.2,0.2,0,0.3,0.1,0.3c-0.3-0.6,0.8,0.1,0.7-0.4c0.3,0.1,0.5,0.5,0.7,0.5c-0.1-0.6,0.6,0.1,0.6-0.4
		c-0.4-0.3-0.3-0.2-0.5-0.7l-0.2,0.6l-0.2-0.8c-0.1,0.1,0,0.5-0.2,0.5c-0.2-0.4-0.1-0.3-0.4-0.5c0.7,0.3,0-0.6,0.6-0.5l0.8,0.8
		c0.7,0.1,0.1-0.9,0.7-1.1l-0.3,0c-0.3-0.4,0.2-0.3,0.2-0.5c0.3,0.3,0.4,0.3,0.7,0.4c-0.2-0.2,0.3-0.3-0.2-0.9l0.5,0.2
		c0.5-0.2-0.4-1.1-0.1-1.3c0.2,0.4,0.5,0.5,0.6,0.9c0.1-0.1,0.2-0.1,0-0.3c0.2,0.1-0.1-0.6,0.3-0.5c-0.1-0.2-0.4-0.5-0.2-0.6
		c0.1,0,0.1,0.1,0.1,0.1c-0.1-0.1,0-0.4-0.4-0.6c1.2,0.6,0.8-0.9,1.8-0.4c0.1-0.3,0.3-0.7,0.5-0.9c0.1,0.1,0.1,0.1,0.1,0.1
		c0.5,0-0.6-1,0-1c0.6,0.3,0.1,0.4,0.3,0.5c1,0.9,0.2-0.5,1-0.2l0,0.1c0.5,0.2,0-0.7,0.4-0.9c0,0,0.1,0.1,0.1,0.1
		c-0.3-0.6-0.1-1.1,0-1.5c0.3,0.4,0.1,0.3,0.5,0.6c0.1-0.2-0.6-0.6-0.5-0.9c0.3,0.1,0.6,0.1,1,0.5l-0.2,0.2c0.6,0.4,0.3-0.3,0.5-0.3
		l0.2,0.2c0.3-0.4-0.3-0.9,0-1.1l-0.2-0.2c-0.3-0.8,0.4,0.3,0.2-0.4c0.1,0.2,0.3,0.5,0.4,0.7c0-0.2-0.1-1,0.1-1.4
		c0.1,0.8,0,1.2,0.1,1.6c0.1,0,0.1-0.2,0.1-0.7c0,0.1,0,0.4,0,0.3c-0.1-0.7,0-1.3,0.2-1.5c0.1,1.3,0.3,0.9,0.4,1
		c0.1,0.2,0.1,0.4,0.1,1c0.1-0.3,0.2-0.1,0.2,0.1c0,0.2,0,0.5,0.1,0.5c0.5-1.1,0.1,0,0.7-1c0.1,0,0.1,0.1,0.1,0.1
		c-0.1,0.3-0.2,0.5-0.3,0.8c-0.1,0.2-0.2,0.2-0.2,0.2c-0.1,0-0.1,0-0.2,0.1c0.1,0.2-0.3,0.5-0.4,0.8c0.3-0.3,0.5-0.4,0.6-0.1
		l0.2-0.6c0.8-0.1-0.4,1,0.4,0.9l-0.4,0.2c0.3,0,0.7,0.7,1.6,0.2c-0.1,0.1-0.3,0.4-0.4,0.4c0.3,0.6,1.7,0.3,1.7,1l-0.2,0.2
		c0.1,0,0.5-0.3,0.4,0.1c-0.1,0.1-0.2,0.2-0.2,0.2c0.1,0,0.6-0.1,0.6,0.1l-0.3,0.1c0.2,0.7,1.2,0.1,1.8,0.3
		c-0.6,0.6-0.5,1.2-0.4,1.4l-0.1,0.1c0.4,0.6,1.4,0.3,2.1,0.6c-0.4,1,0.7,1.3,0.8,2.1c0-0.2,0.5-0.5,0.6-0.5c0,0.2,0.7-0.1,0.1,0.4
		l0,0c-0.5,0.6-0.1,0.7,0.1,0.9l0.8-0.7c-0.6,1.5,1.6,0.8,0.9,2c0.3-0.1,0.4,0.1,0.7,0l-0.4,0.4c0.2,0.4,0.3,0.6,0.8,0.9l-0.4,0.2
		c0.2,0.2,1.4-0.9,1.6-0.7l-0.5,0.7c0.4,0.4,0.2,1.3,1.2,1.1c-0.1,0.1-0.3,0.2-0.4,0.2c0.2,0.2,0.3,1.1,1,0.2
		c-0.5,0.5,0.3,0.4,0.8,0.4l-0.4,0.4c0.7-0.3,0.8-0.5,1.2-0.4c0,0.1-0.3,0.4-0.2,0.2c0,0.4,0.5-0.2,0.5,0.2l-0.3,0.2
		c0.2,0.2,0.3,0.1,0.7-0.1c0.3,0,0.3,0.5-0.1,0.9c0.2-0.2,0.6-0.4,0.7-0.2c-0.1,0.2-0.2,0.2-0.3,0.2c0.1,0.6,0.9,0,0.8,0.6
		c-0.1,0.1-0.2,0.2-0.2,0.3c-0.2-0.3-0.4-0.5-0.4-0.5c-0.4,0.4-0.2,0.6-0.9,1c0.4-0.1,1.3-0.4,1.4,0c0,0-0.1,0.1-0.1,0.2l-0.1,0
		c0,0.1,0.1,0.1,0.2,0.1c0,0.1,0,0.2,0.1,0.3c-0.3,0.3,0.1,0.4,0.2,0.5c0.4-0.4,0.5-0.2,0.7-0.7c0,0-0.1,0-0.2,0c0,0-0.1,0-0.1,0
		l0,0c-0.1-0.1-0.2-0.1-0.3-0.2c0.3-0.1,0.5-0.2,0.4,0.1c0.3-0.2,0.6-0.4,0.8-0.5c-0.4,0.7-0.4,1.3-0.7,1.6c0.5,0.1,0.9,0.6,1.8,0.1
		c0.2,0-0.1,0.3-0.2,0.5c-0.1,0-0.2-0.1-0.3,0c0.4,0,0.6,0.5,1.2,0c0,0.5-0.6,0.4-0.2,0.6l-0.2,0.1c-0.2,1.4,2.3-0.3,1.9,1.4
		c0-0.1,0-0.2,0.1-0.3c0.3,1.2,2,1.2,2.1,2.7c0.1,0.4,0.4,0.1,0.8-0.1l-0.4,0.5l0.7-0.3c0.7,0-0.5,1.6,0.6,1.3l0.2-0.3
		c0.1,0.2,0.6,0.3,0.3,0.6c0.1,0,0.3-0.3,0.3,0l-0.2,0.2l0.7,0c0.1,0.4-0.9,0.8-0.6,1.3c0.2,0.1,1.1-0.2,1.2-0.4
		c-0.1-0.1,0-0.3,0.2-0.5l0.3,0c0.7-0.6,1.5-1.2,1.6-2l-0.6,0.2l0.2-0.4l0.2,0.2c0.2-0.4-0.1-0.2-0.4-0.1c0.2-0.2,0.2-0.3,0.3-0.5
		l-0.9,0.4c0.2-0.3,0.6-0.4,0.6-0.7c-0.4,0.2-0.5,0.7-0.8,0.7c0.2-0.4,0.5-0.6,0.1-0.5c0.2-0.2,0.3-0.3,0.4-0.3
		c-0.3,0.1-0.4-0.2-0.8,0.1c0.3-0.5-0.5-0.3,0.1-0.9c-0.2,0.1-0.7,0.3-0.8,0.2c0.9-0.5-0.4-0.5,0.5-1.2c-0.8,0.5-0.8-0.2-1.5-0.1
		c0.1,0,0.2-0.1,0.2-0.1c-0.1-0.2,0.1-0.4,0.1-0.7c-0.6,0.5-0.9,0.4-1.4,0.7c0.4-0.7,0.8-0.5,1.2-1.1c-0.4,0.5-0.8,0.1-1.1,0.6
		c0.2-0.5,0-0.3,0.4-0.8c-0.7,0.7-0.2,0-0.8,0.3c0.1-0.5,0.6-0.7,0.2-0.7C188.3,26.7,188.7,26.6,188.7,26.6z M182.4,22.6
		C182.4,22.6,182.4,22.6,182.4,22.6c0.1,0,0.1,0.1,0.1,0.1C182.5,22.7,182.4,22.7,182.4,22.6z M181.9,22.2c0,0.1,0.1,0.1,0.2,0.2
		c-0.1,0.2-0.3,0.3-0.3,0.2C181.9,22.6,181.9,22.4,181.9,22.2z M180.1,25.9c-0.1,0-0.1-0.1,0-0.2c0,0,0.1,0.1,0.2,0.1c0,0,0,0,0.1,0
		C180.2,25.8,180.1,25.8,180.1,25.9z"/>
	<path class="st0" d="M180.7,25.5C180.7,25.5,180.8,25.5,180.7,25.5c0.1,0,0.1-0.1,0.1-0.1L180.7,25.5L180.7,25.5z"/>
	<path class="st0" d="M143,25.6L143,25.6C143,25.6,142.9,25.6,143,25.6C142.9,25.6,142.9,25.6,143,25.6z"/>
	<polygon class="st0" points="176.6,15.4 176.5,15.5 176.7,15.5 	"/>
	<path class="st0" d="M139.2,26.7c0,0-0.1-0.1-0.1-0.1C139.1,26.6,139.1,26.7,139.2,26.7z"/>
	<path class="st0" d="M138.1,27.6l-0.3,0C137.9,27.7,138,27.6,138.1,27.6z"/>
	<path class="st0" d="M137.1,28.2c0.1,0.1,0.1,0.1,0.2,0.2l0,0L137.1,28.2z"/>
	<path class="st0" d="M149.3,15.1C149.3,15.1,149.3,15.1,149.3,15.1C149.3,14.9,149.3,15,149.3,15.1z"/>
	<path class="st0" d="M146.4,19.8c0-0.1-0.1-0.2-0.1-0.3C146.3,19.5,146.2,19.6,146.4,19.8z"/>
	<path class="st0" d="M153,10.4L153,10.4C153,10.4,153,10.4,153,10.4L153,10.4z"/>
	<path class="st0" d="M146.6,19.3c-0.1,0-0.2,0.1-0.2,0.2C146.5,19.4,146.6,19.4,146.6,19.3z"/>
	<path class="st0" d="M133.4,31.5L133.4,31.5C133.4,31.6,133.4,31.6,133.4,31.5L133.4,31.5z"/>
	<path class="st0" d="M133.4,31.6L133.4,31.6C133.5,31.7,133.5,31.7,133.4,31.6z"/>
	<path class="st0" d="M133.5,31.9l0-0.2C133.4,31.7,133.4,31.7,133.5,31.9z"/>
	<path class="st0" d="M134.7,30.6l-0.1-0.2C134.6,30.5,134.6,30.6,134.7,30.6z"/>
	<path class="st0" d="M135,30.3c-0.1,0-0.5-0.1-0.5,0.1l0.1,0.1C134.4,30.2,135.1,30.6,135,30.3z"/>
	<path class="st0" d="M138.1,30.7l-0.4,0.2c0.2,0.1,0.5,0.3,0.4,0.4C138.9,31.4,137.7,31,138.1,30.7z"/>
	<path class="st0" d="M139.1,30.1c-0.1,0.2,0.2,0.2,0.3,0.3C139.4,30.2,139.4,30.1,139.1,30.1z"/>
	<path class="st0" d="M145.2,24.1l0.3,0.4C145.6,24.3,145.4,24.3,145.2,24.1z"/>
	<polygon class="st0" points="144.4,21.1 144.1,20.9 144.4,21.3 	"/>
	<polygon class="st0" points="147.7,23 147.7,23.1 147.8,22.7 	"/>
	<path class="st0" d="M157.7,12.7l-0.5-0.4C157.2,12.5,157.7,13,157.7,12.7z"/>
	<path class="st0" d="M161.4,8c0.2,0.2,0.4,0.4,0.2,0.1C161.6,8.1,161.4,7.9,161.4,8z"/>
	<polygon class="st0" points="171.9,17.8 171.7,17.9 172,17.9 	"/>
</g>
<g>
	<path class="st0" d="M192.8,291.7c-0.1-0.2-0.4-0.4-0.4-0.3l0.4,0.5L192.8,291.7z"/>
	<path class="st0" d="M191.3,291.4c0.1,0.3,0.4,0.8,0.9,1.2c-0.4-0.5-0.1-0.4-0.6-1c0-0.1,0.3,0,0.5,0.2c-0.1-0.1,0.2,0,0-0.4
		c-0.5-0.3-0.6-0.1-0.5,0.3C191.5,291.7,191.4,291.5,191.3,291.4z"/>
	<path class="st0" d="M182.4,298.9l0.1,0C182.5,298.9,182.5,298.9,182.4,298.9z"/>
	<path class="st0" d="M177.1,303.7c0,0,0-0.1,0-0.2C177.1,303.6,177.1,303.6,177.1,303.7z"/>
	<path class="st0" d="M175.7,304C175.8,304,175.8,304,175.7,304C175.7,304,175.7,304,175.7,304z"/>
	<path class="st0" d="M182.4,298.9l-0.3,0C182.3,299,182.3,298.9,182.4,298.9z"/>
	<path class="st0" d="M191.3,293.7c0-0.1,0-0.1,0-0.2C191.3,293.5,191.3,293.6,191.3,293.7C191.3,293.6,191.3,293.7,191.3,293.7z"/>
	<path class="st0" d="M184.3,296.3L184.3,296.3c0-0.1-0.1-0.2-0.1-0.3L184.3,296.3z"/>
	<path class="st0" d="M185.9,294.5c-0.1,0,0.3,0.4,0.5,0.6c-0.1-0.2-0.2-0.3-0.2-0.4C186.1,294.7,186,294.6,185.9,294.5z"/>
	<path class="st0" d="M189.3,292.5l0-0.1C189.3,292.4,189.3,292.4,189.3,292.5z"/>
	<path class="st0" d="M183,297.4c-0.1-0.1-0.1-0.1-0.2-0.1C182.9,297.3,182.9,297.4,183,297.4z"/>
	<path class="st0" d="M134.3,294.6C134.3,294.6,134.4,294.6,134.3,294.6C134.3,294.6,134.3,294.6,134.3,294.6z"/>
	<polygon class="st0" points="134.3,290.7 134.3,290.7 134.6,290.5 	"/>
	<path class="st0" d="M173.6,305.1L173.6,305.1C173.6,305,173.6,305,173.6,305.1z"/>
	<path class="st0" d="M162.5,315.8c-0.2,0.5-0.5,0.4-0.7,1C161.9,316.6,162.3,316.1,162.5,315.8z"/>
	<path class="st0" d="M191.2,293.7C191.2,293.7,191.2,293.7,191.2,293.7C191.2,293.7,191.2,293.7,191.2,293.7z"/>
	<path class="st0" d="M161.7,316.7L161.7,316.7L161.7,316.7C161.7,316.8,161.7,316.7,161.7,316.7z"/>
	<path class="st0" d="M170.2,309c0.1,0.1,0.1,0.1,0.2,0.1C170.4,309.1,170.3,309,170.2,309z"/>
	<path class="st0" d="M173.5,306.8l-0.1,0C173.5,306.9,173.5,306.8,173.5,306.8z"/>
	<path class="st0" d="M169.4,310.9c-0.1,0-0.1,0-0.1,0.1c0,0,0,0,0.1,0C169.3,311,169.3,310.9,169.4,310.9z"/>
	<path class="st0" d="M167.9,312.4c0,0,0.1,0,0.1,0.1l0-0.1L167.9,312.4z"/>
	<path class="st0" d="M139,298.9c0.1-0.1,0.2-0.3,0.3-0.4C139,298.8,138.7,298.7,139,298.9z"/>
	<path class="st0" d="M191.1,293.5c0.1,0.1,0.1,0.2,0.1,0.2c0,0,0,0,0-0.1C191.2,293.5,191.2,293.5,191.1,293.5z"/>
	<path class="st0" d="M172.5,314.1l-0.3,0.2C172.3,314.3,172.4,314.2,172.5,314.1z"/>
	<path class="st0" d="M149.5,309.4l-0.1,0C149.5,309.4,149.5,309.4,149.5,309.4z"/>
	<path class="st0" d="M171.5,315.1c-0.2-0.1-0.3-0.1-0.4-0.1c0,0,0,0.1,0.1,0.1L171.5,315.1z"/>
	<path class="st0" d="M139.3,298.5L139.3,298.5L139.3,298.5z"/>
	<path class="st0" d="M136.8,297.9c0.2,0.2,0.6-0.4,1-0.7c0.4,0.1-0.3,0.5-0.4,0.9c0.3,0,0.9-0.3,1-0.2c-0.1,0.1-0.1,0.2-0.2,0.2
		c0.6-0.2,0.5,0.5,1.3,0.2c0,0.1-0.1,0.1-0.1,0.2c0.2-0.3,0.5-0.6,0.7-0.7c0.1,0.1,0.5-0.1,0.2,0.2c-0.1-0.1-0.2,0.1-0.3,0.1l0.3,0
		c-0.4,0.6-0.3,0-0.7,0.4c0.4,0,1-0.1,1,0.2c-0.4,0.5-0.5-0.2-0.7,0.4l-0.1-0.4c-0.6,0.9-0.1-0.2-0.7,0.8c0.2,0.5,0.6,0.1,0.8,0.6
		c0.3-0.2,0.4-0.4,0.7-0.6c0.9,0-0.9,1.6,0.1,1.3c0.4-0.2,1-0.8,1-0.3l-0.6,0.5c0.3,0.4,1-0.6,0.9,0.1c-0.3,0.2-0.4-0.1-0.4,0
		c-0.2,0.6,0.5-0.2,0.6,0l-0.4,0.5c0.4,0.3,1.1,0.3,1.6,0.5c-0.2,0.1-0.4,0.2-0.4,0.4c0.7,0.2,0.9,1,1.1,1.8l0.6-0.2
		c0,0-0.1,0.3-0.2,0.3c0,0.3,0.3-0.3,0.5-0.3c0.1,0.1-0.1,0.4-0.3,0.4c0.7,0,1.6,0.1,1.5,0.9l-0.2,0.1c0.1,0.4,1.1-0.6,1,0l-0.1,0
		c0.4,0.7,1.3,0.9,1.1,2c0.7-0.5,0.3,0.8,1.1,0c-0.1,0.7-0.3,0.8-0.2,1.5c0.1,0.2,0.7-0.3,0.9-0.3L149,309l0.7-0.3l-0.4,0.6l0.2,0
		c0-0.1,0.1-0.3,0.2-0.4c0.4,0,0.2,0.8,0,1l0.9,0.1c-0.2,0.2-0.3,0.1-0.5,0.2c0.7-0.2-0.4,0.5,0.2,0.3c0.1-0.1,0.3-0.2,0.4-0.3
		c-0.1,0.4,0.1,0.7,0.4,0.8l-0.3,0.3c0.3,0.4,0.9,0.6,1.3,1.1c0-0.3,0.5-0.8,0.7-0.7l-0.4,0.5c0.4-0.2,0-0.3,0.6-0.5
		c0.1,0.2-0.4,0.6-0.7,0.7l0.3,0c-0.1,0.1-0.2,0.2-0.4,0.3c0.4-0.2-0.1,0.8,0.5,0.4l-0.1,0.1c0.4,0.4,0.8,0.4,1.1,0.8
		c0.4-0.4,0.4-0.2,0.9-0.4c0.1,0.4,0.1,1,0.4,1.2c0.4,0,0.4-0.3,0.7-0.4c-0.3,0.4,0,0.6-0.4,0.7c0.4,0.3,0.5,0.4,1.3,0.5
		c0.1-0.2,0.1-0.3,0.3-0.4c0.1,0,0,0.3-0.2,0.5l-0.1,0c1.1,0,0.1,2.2,1.3,1.9l-0.1,0l0.8,0c0.1,0.3-0.4,0.2-0.5,0.5
		c0.5-0.1,0.7,0.1,0.8,0.3c0.1,0.1,0.1,0.2,0.2,0.3c0.1,0.1,0.3,0.3,0.6,0.3c-0.2,0.8,0.3,1.3,0.8,1.7c0.5,0.4,1.1,0.7,1.3,1.7
		l0-0.5c0.2-0.3,0.2,0.5,0.3,0.7c0-0.4-0.2-0.6,0-0.7c0.3,0.2,0.5,0.4,0.8,0.6c0.6-0.6,1.2-1,2-1.5c0.7-0.4,1.6-0.9,2.4-1.6
		c0.1-0.1,0.1-0.2,0.2-0.2c0-0.1,0-0.1-0.1-0.2c-0.1-0.1-0.2-0.3-0.3-0.5c-0.2-0.3-0.3-0.6,0.2-0.5l0.4,0.6c0.1-1.2,1.3-1.3,1.5-2.4
		c0.1,0.1,0.2,0.3,0.1,0.3c0.5,0.2,0.5-0.5,0.2-0.8c0.1-0.1,0.3,0.2,0.5,0.3c0.3,0.1-0.1-0.8,0.3-0.5c0.1,0,0.1,0.1,0.1,0.2
		c-0.1-0.3,0.4-0.4,0-0.7c0.4-0.1,0.3-0.6,0.7-0.6c-0.3-0.6,0.6-0.2,0-0.9c0.6,0.7,0.9,0.1,0.8-0.4c0.1,0.2,0.3,0.1,0.5,0.4
		c0.2-0.2,0.2-0.5-0.2-0.8c1.1,0.5,0-1.2,1.2-0.4c0.2-0.9,0.4-1.6,0.7-2.2c0.6,0.7-0.4,0.6,0.2,1.2c0.2-0.7-0.1-1.5,0.5-1.8
		c0.2,0,0.2,0.3,0.3,0.5c0.2-0.7,0.9-0.8,0.9-1.5c0.1,0.1,0.1,0.2,0.1,0.3c0.1-0.1,0.3-0.1,0-0.4l0,0.2c-0.5-0.3-0.6-1.2-0.8-1.4
		c0.7,1,0.6-0.2,1.4,1.1c0-0.1-0.1-0.3-0.3-0.5c0.1,0,0.3,0.1,0.4,0.4c0.1-0.4-0.3-0.6,0-0.9c0.1,0.1,0.1,0.2,0.3,0.4
		c-0.1-0.4-0.3-0.8,0-0.9c0.1,0.1,0.2,0.2,0.1,0.2c0.3-0.4-0.1-1.3,0.5-1.5c0.5,0.7,0.3,0.1,0.9,0.6l0.1-0.4l-0.3-0.2
		c0.2-0.2,0-0.7,0.3-0.7l0.1,0.4l0.2-0.4l-0.4,0c-0.1-0.5-0.7-0.6-0.3-0.7c0,0.1,0.2-0.2,0.6,0l0,0c-0.1-0.3-0.2-0.5,0.1-0.5
		c0.2,0.1,0.6,0.6,0.7,0.7c-0.4-0.5,0.3-0.6,0-1.1c0.1,0.1,0.3,0.4,0.4,0.5l-0.3-0.4c0.2,0,0.3,0.1,0.5,0.3c0.3-0.2-0.8-0.6-0.2-0.6
		c0,0.1,0.1,0.1,0.1,0.2c0.5-0.2,0.4-0.8,0.8-0.9c0.6,0.4-0.1,0.4,0.4,0.7c0.3-0.5,0.2-1.5,0.7-1.7l-0.1,0c-0.7-0.8,0.7,0.1,0.5-0.5
		c0,0.1,0.4,0.5,0.3,0.4c0.4-0.1,0.4-0.7,0.5-1.4l0.1,0.2c0.3,0,0.5-0.3,0.8-0.4c-0.1-0.2,0-0.3-0.4-0.5c1.6,0.6,0.4-1.6,1.8-1.2
		c-0.1,0.1,0,0.3,0.1,0.3l0.2-0.6c-0.4-0.3-0.3-0.1-0.6-0.3c-0.1-0.2-0.2-0.5-0.1-0.6c0,0.4,0.5,0.5,0.8,0.6
		c-0.1-0.1-0.2-0.2-0.3-0.3c0.8,0.4-0.6-0.7,0.1-0.6l0.2,0.2c0-0.2-0.1-0.5,0.1-0.6c0.4,0.3,0.1,0.3,0.4,0.6c0.1-0.2-0.4-1,0.1-0.8
		c0,0.2-0.1,0.3,0,0.4c0.6,0.3,0.5,0.2,0.7,0.1l0,0l0.5-0.1l-0.2-0.1c-0.8-1.2,0.2-0.6-0.1-1.5c0.3,0.9,0.3,0.4,0.7,0.8
		c0.2,0,0.4,0.1,0.5,0.2c-0.2-0.5,0.5,0.1,0.2-0.6c0.1,0.1,0.2-0.1,0.5,0.3c0.1-0.3-0.3-0.2-0.4-0.4c-0.2-0.7,1.2,0,0.9-1.1
		c0.1-0.6-0.4-1.1-0.3-1.6c0.3,0.1,0.4,0.6,0.4,0.6c0.4,0,0.4-0.1,0.4-0.4c0.1,0.2,0.2,0.2,0.4,0.3c0.1-0.2-0.4-0.6-0.1-0.5
		c0.1,0.2,0.3,0.5,0.4,0.7c0-0.3-0.1-0.7-0.1-0.9c0.3,0.2,0.3,0.5,0.4,0.7c0.1-0.3,0.2-0.7-0.1-1.1l-0.2,0c0-0.1,0.4,0.3,0.4,0.4
		c0.2,0.4-0.3,0.1-0.5-0.1l0-0.2c-0.9-0.7-0.3,0.6-0.6,0.7l-0.5-0.7l0.3,0.7c-0.2-0.1-0.6-0.4-0.5-0.6c-0.4-0.1,0.1,0.3-0.4,0.2
		c-0.1,0-0.1-0.1-0.1-0.1l0,0.3c-0.1-0.2-0.4-0.4-0.3-0.4c-0.6-0.1,0,0.9-0.5,0.5l0-0.1c-0.2,0.6,0.4,0.5,0.6,1.3l-1.3-0.9l0.4,0.5
		c-0.1,0-0.2,0.1-0.3-0.1c0.2,0.4,0.2,0.2,0.4,0.5c-0.6-0.2-0.3,0.7-1.1,0c0.3,0.4,0.4,0.1,0.5,0.5c-0.8-0.7-0.1,0.4-0.6,0.2
		c-0.3-0.4,0-0.4-0.5-0.6c0.5,0.7-0.5,0.2-0.5,0.5c0.5,0.5-0.1,0.5-0.2,0.9c-0.2-0.2-0.7,0.2-1.1,0.2l-0.1-0.1
		c0.5,0.6,0.1,0.7,0.1,1c-0.3-0.3-0.4-0.5-0.4-0.7l-0.2,0.2c0.1,0.2,0.2,0.3,0.1,0.5l-0.3-0.4c-0.2,0.2,0,0.9-0.5,0.9
		c0.3,0.4,1.2,0.8,1.2,1.3c-0.2-0.2-0.6-0.5-0.6-0.7c0,0.1,0.1,0.2-0.1,0.2l-0.2-0.4c-0.3,0,0.2,0.3,0.1,0.4
		c-0.3-0.3-0.3-0.1-0.5-0.4c0-0.1,0.2,0,0.1-0.1c-0.2,0.1-0.5,0-0.7-0.1c0.2,0.1,0.4,0.4,0.3,0.5c-0.2,0.2-0.4-0.3-0.7-0.3
		c0.1,0.2-0.2,0.2,0.2,0.6c-0.1,0.1-0.3-0.1-0.4-0.2c0.1,0.3-0.5,0.6,0.1,0.9l0.1,0c0,0,0,0,0,0l0,0l0,0c0.1,0.8-1,0.5-1.1,1
		l-0.1-0.1c-0.1,0.4-0.4,0.6-0.2,1c-0.1,0.1-0.4-0.1-0.5-0.3c-0.1,0.3,0.1,0.4-0.4,0.4c-0.1-0.4-0.3-0.2,0-0.3
		c-0.3,0.1-0.6-0.1-0.4,0.5c-0.3-0.4-0.6-0.3-0.6-0.1l0.4,0.1c-0.1,0.2-0.2,0.2-0.3,0.3l-0.4-0.5c-1-0.1,0.2,1.7-1.1,1.1
		c0.2,0.4,0.5,0,0.7,0.5c-0.3,0.1-1.1-0.3-1.2-0.3c-0.5,0,0.4,0.9,0,1c0.2,0.1,0.7,0.5,0.6,0.9c-0.3,0.1-0.9-0.5-1-0.7
		c0-0.1,0.1,0,0.2,0c0-0.1,0-0.3-0.2-0.4l0.1,0.2c-0.3-0.1-0.5,0.2-0.7-0.1c0,0.3,0.2,0.3,0.4,0.3c-0.5,0-0.4,0.4-0.8,0.5
		c0.1,0.1,0.4,0.2,0.3,0.2c-0.6,0.2,0.2,0.5,0,0.8c-0.4-0.1-0.6-0.7-0.6-0.2c-0.3,0-0.5-0.4-0.6-0.6c0.1,0.6-0.7,0.2-0.9,0.3l0-0.3
		c0,0.2-0.1,0.2-0.1,0.3l0.4,0.3c-0.1,0-0.2,0.1-0.3-0.1c0.1,0.3,0.6,0.5,0.8,1c-0.3-0.1-0.1,0.5-0.6,0.1c0.5-0.2-0.5-0.4-0.3-0.7
		c0,0.1-0.1,0.2-0.2,0.2c-0.1,0-0.1-0.1-0.1-0.1c-0.7-0.1,0.4,0.6,0.1,0.9c-0.2-0.3-0.5-0.4-0.5-0.3c0.1-0.1,0.5,0.4,0.6,0.7
		c-0.4,0-0.1,0.4-0.2,0.4l0.2,0c0.2,0.3,0.1,0.4,0,0.6c-0.2-0.2,0-0.3-0.1-0.3c0.3,0.6-0.8-0.1-0.7,0.4c-0.3-0.1-0.5-0.5-0.7-0.5
		c0.1,0.6-0.6-0.1-0.6,0.4c0.4,0.3,0.3,0.2,0.5,0.7l0.2-0.6l0.2,0.8c0.1-0.1,0-0.5,0.2-0.5c0.2,0.4,0.1,0.3,0.4,0.5
		c-0.7-0.3,0,0.6-0.6,0.5l-0.8-0.8c-0.7-0.1-0.1,0.9-0.7,1.1l0.3,0c0.3,0.4-0.2,0.3-0.2,0.5c-0.3-0.3-0.4-0.3-0.7-0.4
		c0.2,0.2-0.3,0.3,0.2,0.9l-0.5-0.2c-0.5,0.2,0.4,1.1,0.1,1.3c-0.2-0.4-0.5-0.5-0.6-0.9c-0.1,0.1-0.2,0.1,0,0.3
		c-0.2-0.1,0.1,0.6-0.3,0.5c0.1,0.2,0.4,0.5,0.2,0.6c-0.1,0-0.1-0.1-0.1-0.1c0.1,0.1,0,0.4,0.4,0.6c-1.2-0.6-0.8,0.9-1.8,0.4
		c-0.1,0.3-0.3,0.7-0.5,0.9c-0.1-0.1-0.1-0.1-0.1-0.1c-0.5,0,0.6,1,0,1c-0.6-0.3-0.1-0.4-0.3-0.5c-1-0.9-0.2,0.5-1,0.2l0-0.1
		c-0.5-0.2,0,0.7-0.4,0.9c0,0-0.1-0.1-0.1-0.1c0.3,0.6,0.1,1.1,0,1.5c-0.3-0.4-0.1-0.3-0.5-0.6c-0.1,0.2,0.6,0.6,0.5,0.9
		c-0.3-0.1-0.6-0.1-1-0.5l0.2-0.2c-0.6-0.4-0.3,0.3-0.5,0.3l-0.2-0.2c-0.3,0.4,0.3,0.9,0,1.1l0.2,0.2c0.3,0.8-0.4-0.3-0.2,0.4
		c-0.1-0.2-0.3-0.5-0.4-0.7c0,0.2,0.1,1-0.1,1.4c-0.1-0.8,0-1.2-0.1-1.6c-0.1,0-0.1,0.2-0.1,0.7c0-0.1,0-0.4,0-0.3
		c0.1,0.7,0,1.3-0.2,1.5c-0.1-1.3-0.3-0.9-0.4-1c-0.1-0.2-0.1-0.4-0.1-1c-0.1,0.3-0.2,0.1-0.2-0.1c0-0.2,0-0.5-0.1-0.5
		c-0.5,1.1-0.1,0-0.7,1c-0.1,0-0.1-0.1-0.1-0.1c0.1-0.3,0.2-0.5,0.3-0.8c0.1-0.2,0.2-0.2,0.2-0.2c0.1,0,0.1,0,0.2-0.1
		c-0.1-0.2,0.3-0.5,0.4-0.8c-0.3,0.3-0.5,0.4-0.6,0.1l-0.2,0.6c-0.8,0.1,0.4-1-0.4-0.9l0.4-0.2c-0.3,0-0.7-0.7-1.6-0.2
		c0.1-0.1,0.3-0.4,0.4-0.4c-0.3-0.6-1.7-0.3-1.7-1l0.2-0.2c-0.1,0-0.5,0.3-0.4-0.1c0.1-0.1,0.2-0.2,0.2-0.2c-0.1,0-0.6,0.1-0.6-0.1
		l0.3-0.1c-0.2-0.7-1.2-0.1-1.8-0.3c0.6-0.6,0.5-1.2,0.4-1.4l0.1-0.1c-0.4-0.6-1.4-0.3-2.1-0.6c0.4-1-0.7-1.3-0.8-2.1
		c0,0.2-0.5,0.5-0.6,0.5c0-0.2-0.7,0.1-0.1-0.4l0,0c0.5-0.6,0.1-0.7-0.1-0.9l-0.8,0.7c0.6-1.5-1.6-0.8-0.9-2c-0.3,0.1-0.4-0.1-0.7,0
		l0.4-0.4c-0.2-0.4-0.3-0.6-0.8-0.9l0.4-0.2c-0.2-0.2-1.4,0.9-1.6,0.7l0.5-0.7c-0.4-0.4-0.2-1.3-1.2-1.1c0.1-0.1,0.3-0.2,0.4-0.2
		c-0.2-0.2-0.3-1.1-1-0.2c0.5-0.5-0.3-0.4-0.8-0.4l0.4-0.4c-0.7,0.3-0.8,0.5-1.2,0.4c0-0.1,0.3-0.4,0.2-0.2c0-0.4-0.5,0.2-0.5-0.2
		l0.3-0.2c-0.2-0.2-0.3-0.1-0.7,0.1c-0.3,0-0.3-0.5,0.1-0.9c-0.2,0.2-0.6,0.4-0.7,0.2c0.1-0.2,0.2-0.2,0.3-0.2
		c-0.1-0.6-0.9,0-0.8-0.6c0.1-0.1,0.2-0.2,0.2-0.3c0.2,0.3,0.4,0.5,0.4,0.5c0.4-0.4,0.2-0.6,0.9-1c-0.4,0.1-1.3,0.4-1.4,0
		c0,0,0.1-0.1,0.1-0.2l0.1,0c0-0.1-0.1-0.1-0.2-0.1c0-0.1,0-0.2-0.1-0.3c0.3-0.3-0.1-0.4-0.2-0.5c-0.4,0.4-0.5,0.2-0.7,0.7
		c0,0,0.1,0,0.2,0c0,0,0.1,0,0.1,0l0,0c0.1,0.1,0.2,0.1,0.3,0.2c-0.3,0.1-0.5,0.2-0.4-0.1c-0.3,0.2-0.6,0.4-0.8,0.5
		c0.4-0.7,0.4-1.3,0.7-1.6c-0.5-0.1-0.9-0.6-1.8-0.1c-0.2,0,0.1-0.3,0.2-0.5c0.1,0,0.2,0.1,0.3,0c-0.4,0-0.6-0.5-1.2,0
		c0-0.5,0.6-0.4,0.2-0.6l0.2-0.1c0.2-1.4-2.3,0.3-1.9-1.4c0,0.1,0,0.2-0.1,0.3c-0.3-1.2-2-1.2-2.1-2.7c-0.1-0.4-0.4-0.1-0.8,0.1
		l0.4-0.5l-0.7,0.3c-0.7,0,0.5-1.6-0.6-1.3l-0.2,0.3c-0.1-0.2-0.6-0.3-0.3-0.6c-0.1,0-0.3,0.3-0.3,0l0.2-0.2l-0.7,0
		c-0.1-0.4,0.9-0.8,0.6-1.3c-0.2-0.1-1.1,0.2-1.2,0.4c0.1,0.1,0,0.3-0.2,0.5l-0.3,0c-0.7,0.6-1.5,1.2-1.6,2l0.6-0.2l-0.2,0.4
		l-0.2-0.2c-0.2,0.4,0.1,0.2,0.4,0.1c-0.2,0.2-0.2,0.3-0.3,0.5l0.9-0.4c-0.2,0.3-0.6,0.4-0.6,0.7c0.4-0.2,0.5-0.7,0.8-0.7
		c-0.2,0.4-0.5,0.6-0.1,0.5c-0.2,0.2-0.3,0.3-0.4,0.3c0.3-0.1,0.4,0.2,0.8-0.1c-0.3,0.5,0.5,0.3-0.1,0.9c0.2-0.1,0.7-0.3,0.8-0.2
		c-0.9,0.5,0.4,0.5-0.5,1.2c0.8-0.5,0.8,0.2,1.5,0.1c-0.1,0-0.2,0.1-0.2,0.1c0.1,0.2-0.1,0.4-0.1,0.7c0.6-0.5,0.9-0.4,1.4-0.7
		c-0.4,0.7-0.8,0.5-1.2,1.1c0.4-0.5,0.8-0.1,1.1-0.6c-0.2,0.5,0,0.3-0.4,0.8c0.7-0.7,0.2,0,0.8-0.3c-0.1,0.5-0.6,0.7-0.2,0.7
		C137.2,297.8,136.8,297.9,136.8,297.9z M143.2,301.9C143.2,301.9,143.2,301.9,143.2,301.9c-0.1,0-0.1-0.1-0.1-0.1
		C143.1,301.8,143.1,301.8,143.2,301.9z M143.6,302.3c0-0.1-0.1-0.1-0.2-0.2c0.1-0.2,0.3-0.3,0.3-0.2
		C143.6,301.9,143.7,302.1,143.6,302.3z M145.4,298.6c0.1,0,0.1,0.1,0,0.2c0,0-0.1-0.1-0.2-0.1c0,0,0,0-0.1,0
		C145.3,298.7,145.4,298.7,145.4,298.6z"/>
	<path class="st0" d="M144.8,299C144.8,299,144.7,299,144.8,299c-0.1,0-0.1,0.1-0.1,0.1L144.8,299L144.8,299z"/>
	<path class="st0" d="M182.6,298.9L182.6,298.9C182.6,298.9,182.6,298.9,182.6,298.9C182.6,298.9,182.6,298.9,182.6,298.9z"/>
	<polygon class="st0" points="148.9,309.1 149,309 148.8,309 	"/>
	<path class="st0" d="M186.3,297.8c0,0,0.1,0.1,0.1,0.1C186.4,297.9,186.4,297.9,186.3,297.8z"/>
	<path class="st0" d="M187.4,296.9l0.3,0C187.6,296.9,187.5,296.9,187.4,296.9z"/>
	<path class="st0" d="M188.4,296.3c-0.1-0.1-0.1-0.1-0.2-0.2l0,0L188.4,296.3z"/>
	<path class="st0" d="M176.2,309.4C176.2,309.4,176.2,309.5,176.2,309.4C176.2,309.6,176.2,309.6,176.2,309.4z"/>
	<path class="st0" d="M179.1,304.7c0,0.1,0.1,0.2,0.1,0.3C179.2,305,179.3,305,179.1,304.7z"/>
	<path class="st0" d="M172.5,314.1L172.5,314.1C172.5,314.1,172.5,314.1,172.5,314.1L172.5,314.1z"/>
	<path class="st0" d="M179,305.2c0.1,0,0.2-0.1,0.2-0.2C179.1,305.1,178.9,305.1,179,305.2z"/>
	<path class="st0" d="M192.1,293L192.1,293C192.1,293,192.1,292.9,192.1,293L192.1,293z"/>
	<path class="st0" d="M192.1,292.9L192.1,292.9C192.1,292.8,192,292.9,192.1,292.9z"/>
	<path class="st0" d="M192.1,292.6l0,0.2C192.1,292.8,192.2,292.8,192.1,292.6z"/>
	<path class="st0" d="M190.8,293.9l0.1,0.2C190.9,294,190.9,293.9,190.8,293.9z"/>
	<path class="st0" d="M190.6,294.2c0.1,0,0.5,0.1,0.5-0.1L191,294C191.1,294.3,190.4,293.9,190.6,294.2z"/>
	<path class="st0" d="M187.4,293.8l0.4-0.2c-0.2-0.1-0.5-0.3-0.4-0.4C186.6,293.1,187.9,293.5,187.4,293.8z"/>
	<path class="st0" d="M186.4,294.4c0.1-0.2-0.2-0.2-0.3-0.3C186.1,294.3,186.1,294.4,186.4,294.4z"/>
	<path class="st0" d="M180.4,300.4l-0.3-0.4C179.9,300.2,180.1,300.2,180.4,300.4z"/>
	<polygon class="st0" points="181.1,303.5 181.4,303.6 181.1,303.2 	"/>
	<polygon class="st0" points="177.8,301.6 177.8,301.5 177.8,301.8 	"/>
	<path class="st0" d="M167.8,311.8l0.5,0.4C168.3,312.1,167.8,311.5,167.8,311.8z"/>
	<path class="st0" d="M164.1,316.5c-0.2-0.2-0.4-0.4-0.2-0.1C163.9,316.4,164.1,316.6,164.1,316.5z"/>
	<polygon class="st0" points="153.6,306.7 153.8,306.6 153.5,306.6 	"/>
</g>
<g>
	<path class="st0" d="M33.3,192.3c0.2-0.1,0.4-0.4,0.3-0.4l-0.5,0.4L33.3,192.3z"/>
	<path class="st0" d="M33.6,190.8c-0.3,0.1-0.8,0.4-1.2,0.9c0.5-0.4,0.4-0.1,1-0.6c0.1,0,0,0.3-0.2,0.5c0.1-0.1,0,0.2,0.4,0
		c0.3-0.5,0.1-0.6-0.3-0.5C33.3,191,33.5,190.9,33.6,190.8z"/>
	<path class="st0" d="M26.1,181.9l0,0.1C26.2,182,26.2,182,26.1,181.9z"/>
	<path class="st0" d="M21.3,176.6c0,0,0.1,0,0.2,0C21.4,176.6,21.4,176.6,21.3,176.6z"/>
	<path class="st0" d="M21,175.2C21,175.3,21,175.3,21,175.2C21,175.2,21,175.2,21,175.2z"/>
	<path class="st0" d="M26.1,181.9l0-0.3C26,181.8,26.1,181.8,26.1,181.9z"/>
	<path class="st0" d="M31.3,190.8c0.1,0,0.1,0,0.2,0C31.5,190.8,31.4,190.8,31.3,190.8C31.4,190.8,31.4,190.8,31.3,190.8z"/>
	<path class="st0" d="M28.8,183.8L28.8,183.8c0.1,0,0.2-0.1,0.3-0.1L28.8,183.8z"/>
	<path class="st0" d="M30.5,185.4c0-0.1-0.4,0.3-0.6,0.5c0.2-0.1,0.3-0.2,0.4-0.2C30.4,185.6,30.4,185.5,30.5,185.4z"/>
	<path class="st0" d="M32.6,188.8l0.1,0C32.6,188.8,32.6,188.8,32.6,188.8z"/>
	<path class="st0" d="M27.6,182.5c0.1-0.1,0.1-0.1,0.1-0.2C27.7,182.4,27.7,182.4,27.6,182.5z"/>
	<path class="st0" d="M30.4,133.8C30.4,133.8,30.4,133.9,30.4,133.8C30.4,133.8,30.4,133.8,30.4,133.8z"/>
	<polygon class="st0" points="34.3,133.8 34.3,133.8 34.5,134.1 	"/>
	<path class="st0" d="M19.9,173.1L19.9,173.1C20,173.1,20,173.1,19.9,173.1z"/>
	<path class="st0" d="M9.3,162c-0.5-0.2-0.4-0.5-1-0.7C8.5,161.4,8.9,161.8,9.3,162z"/>
	<path class="st0" d="M31.3,190.7C31.3,190.7,31.3,190.7,31.3,190.7C31.3,190.7,31.3,190.7,31.3,190.7z"/>
	<path class="st0" d="M8.3,161.2L8.3,161.2L8.3,161.2C8.3,161.2,8.3,161.2,8.3,161.2z"/>
	<path class="st0" d="M16,169.7c-0.1,0.1-0.1,0.1-0.1,0.2C15.9,169.9,16,169.8,16,169.7z"/>
	<path class="st0" d="M18.2,173l0-0.1C18.2,173,18.2,173,18.2,173z"/>
	<path class="st0" d="M14.1,168.9c0-0.1,0-0.1-0.1-0.1c0,0,0,0,0,0.1C14,168.8,14.1,168.8,14.1,168.9z"/>
	<path class="st0" d="M12.6,167.4c0,0,0,0.1-0.1,0.1l0.1,0L12.6,167.4z"/>
	<path class="st0" d="M26.1,138.5c0.1,0.1,0.3,0.2,0.4,0.3C26.2,138.5,26.3,138.2,26.1,138.5z"/>
	<path class="st0" d="M31.6,190.6c-0.1,0.1-0.2,0.1-0.2,0.1c0,0,0,0,0.1,0C31.5,190.7,31.5,190.7,31.6,190.6z"/>
	<path class="st0" d="M10.9,172l-0.2-0.3C10.7,171.8,10.8,171.9,10.9,172z"/>
	<path class="st0" d="M15.6,149l0-0.1C15.6,149,15.6,149,15.6,149z"/>
	<path class="st0" d="M9.9,171c0.1-0.2,0.1-0.3,0.1-0.4c0,0-0.1,0-0.1,0.1L9.9,171z"/>
	<path class="st0" d="M26.5,138.8L26.5,138.8L26.5,138.8z"/>
	<path class="st0" d="M27.1,136.3c-0.2,0.2,0.4,0.6,0.7,1c-0.1,0.4-0.5-0.3-0.9-0.4c0,0.3,0.3,0.9,0.2,1c-0.1-0.1-0.2-0.1-0.2-0.2
		c0.2,0.6-0.5,0.5-0.2,1.3c-0.1,0-0.1-0.1-0.2-0.1c0.3,0.2,0.6,0.5,0.7,0.7c-0.1,0.1,0.1,0.5-0.2,0.2c0.1-0.1-0.1-0.2-0.1-0.3l0,0.3
		c-0.6-0.4,0-0.3-0.4-0.7c0,0.4,0.1,1-0.2,1c-0.5-0.4,0.2-0.5-0.4-0.7l0.4-0.1c-0.9-0.6,0.2-0.1-0.8-0.7c-0.5,0.2-0.1,0.6-0.6,0.8
		c0.2,0.3,0.4,0.4,0.6,0.7c0,0.9-1.6-0.9-1.3,0.1c0.2,0.4,0.8,1,0.3,1l-0.5-0.6c-0.4,0.3,0.6,1-0.1,0.9c-0.2-0.3,0.1-0.4,0-0.4
		c-0.6-0.2,0.2,0.5,0,0.6l-0.5-0.4c-0.3,0.4-0.3,1.1-0.5,1.6c-0.1-0.2-0.2-0.4-0.4-0.4c-0.2,0.7-1,0.9-1.8,1.1l0.2,0.6
		c0,0-0.3-0.1-0.3-0.2c-0.3,0,0.3,0.3,0.3,0.5c-0.1,0.1-0.4-0.1-0.4-0.3c0,0.7-0.1,1.6-0.9,1.5l-0.1-0.2c-0.4,0.1,0.6,1.1,0,1l0-0.1
		c-0.7,0.4-0.9,1.3-2,1.1c0.5,0.7-0.8,0.3,0,1.1c-0.7-0.1-0.8-0.3-1.5-0.2c-0.2,0.1,0.3,0.7,0.3,0.9l-0.4-0.4l0.3,0.7l-0.6-0.4
		l0,0.2c0.1,0,0.3,0.1,0.4,0.2c0,0.4-0.8,0.2-1,0l-0.1,0.9c-0.2-0.2-0.1-0.3-0.2-0.5c0.2,0.7-0.5-0.4-0.3,0.2
		c0.1,0.1,0.2,0.3,0.3,0.4c-0.4-0.1-0.7,0.1-0.8,0.4l-0.3-0.3c-0.4,0.3-0.6,0.9-1.1,1.3c0.3,0,0.8,0.5,0.7,0.7l-0.5-0.4
		c0.2,0.4,0.3,0,0.5,0.6c-0.2,0.1-0.6-0.4-0.7-0.7l0,0.3c-0.1-0.1-0.2-0.2-0.3-0.4c0.2,0.4-0.8-0.1-0.4,0.5l-0.1-0.1
		c-0.4,0.4-0.4,0.8-0.8,1.1c0.4,0.4,0.2,0.4,0.4,0.9c-0.4,0.1-1,0.1-1.2,0.4c0,0.4,0.3,0.4,0.4,0.7c-0.4-0.3-0.6,0-0.7-0.4
		c-0.3,0.4-0.4,0.5-0.5,1.3c0.2,0.1,0.3,0.1,0.4,0.3c0,0.1-0.3,0-0.5-0.2l0-0.1c0,1.1-2.2,0.1-1.9,1.3l0-0.1l0,0.8
		c-0.3,0.1-0.2-0.4-0.5-0.5c0.1,0.5-0.1,0.7-0.3,0.8c-0.1,0.1-0.2,0.1-0.3,0.2c-0.1,0.1-0.3,0.3-0.3,0.6c-0.8-0.2-1.3,0.3-1.7,0.8
		c-0.4,0.5-0.7,1.1-1.7,1.3l0.5,0c0.3,0.2-0.5,0.2-0.7,0.3c0.4,0,0.6-0.2,0.7,0c-0.2,0.3-0.4,0.5-0.6,0.8c0.6,0.6,1,1.2,1.5,2
		c0.4,0.7,0.9,1.6,1.6,2.4c0.1,0.1,0.2,0.1,0.2,0.2c0.1,0,0.1,0,0.2-0.1c0.1-0.1,0.3-0.2,0.5-0.3c0.3-0.2,0.6-0.3,0.5,0.2L6,167.2
		c1.2,0.1,1.3,1.3,2.4,1.5c-0.1,0.1-0.3,0.2-0.3,0.1c-0.2,0.5,0.5,0.5,0.8,0.2c0.1,0.1-0.2,0.3-0.3,0.5c-0.1,0.3,0.8-0.1,0.5,0.3
		c0,0.1-0.1,0.1-0.2,0.1c0.3-0.1,0.4,0.4,0.7,0c0.1,0.4,0.6,0.3,0.6,0.7c0.6-0.3,0.2,0.6,0.9,0c-0.7,0.6-0.1,0.9,0.4,0.8
		c-0.2,0.1-0.1,0.3-0.4,0.5c0.2,0.2,0.5,0.2,0.8-0.2c-0.5,1.1,1.2,0,0.4,1.2c0.9,0.2,1.6,0.4,2.2,0.7c-0.7,0.6-0.6-0.4-1.2,0.2
		c0.7,0.2,1.5-0.1,1.8,0.5c0,0.2-0.3,0.2-0.5,0.3c0.7,0.2,0.8,0.9,1.5,0.9c-0.1,0.1-0.2,0.1-0.3,0.1c0.1,0.1,0.1,0.3,0.4,0l-0.2,0
		c0.3-0.5,1.2-0.6,1.4-0.8c-1,0.7,0.2,0.6-1.1,1.4c0.1,0,0.3-0.1,0.5-0.3c0,0.1-0.1,0.3-0.4,0.4c0.4,0.1,0.6-0.3,0.9,0
		c-0.1,0.1-0.2,0.1-0.4,0.3c0.4-0.1,0.8-0.3,0.9,0c-0.1,0.1-0.2,0.2-0.2,0.1c0.4,0.3,1.3-0.1,1.5,0.5c-0.7,0.5-0.1,0.3-0.6,0.9
		l0.4,0.1l0.2-0.3c0.2,0.2,0.7,0,0.7,0.3l-0.4,0.1l0.4,0.2l0-0.4c0.5-0.1,0.6-0.7,0.7-0.3c-0.1,0,0.2,0.2,0,0.6l0,0
		c0.3-0.1,0.5-0.2,0.5,0.1c-0.1,0.2-0.6,0.6-0.7,0.7c0.5-0.4,0.6,0.3,1.1,0c-0.1,0.1-0.4,0.3-0.5,0.4l0.4-0.3c0,0.2-0.1,0.3-0.3,0.5
		c0.2,0.3,0.6-0.8,0.6-0.2c-0.1,0-0.1,0.1-0.2,0.1c0.2,0.5,0.8,0.4,0.9,0.8c-0.4,0.6-0.4-0.1-0.7,0.4c0.5,0.3,1.5,0.2,1.7,0.7l0-0.1
		c0.8-0.7-0.1,0.7,0.5,0.5c-0.1,0-0.5,0.4-0.4,0.3c0.1,0.4,0.7,0.4,1.4,0.5l-0.2,0.1c0,0.3,0.3,0.5,0.4,0.8c0.2-0.1,0.3,0,0.5-0.4
		c-0.6,1.6,1.6,0.4,1.2,1.8c-0.1-0.1-0.3,0-0.3,0.1l0.6,0.2c0.3-0.4,0.1-0.3,0.3-0.6c0.2-0.1,0.5-0.2,0.6-0.1
		c-0.4,0-0.5,0.5-0.6,0.8c0.1-0.1,0.2-0.2,0.3-0.3c-0.4,0.8,0.7-0.6,0.6,0.1l-0.2,0.2c0.2,0,0.5-0.1,0.6,0.1
		c-0.3,0.4-0.3,0.1-0.6,0.4c0.2,0.1,1-0.4,0.8,0.1c-0.2,0-0.3-0.1-0.4,0c-0.3,0.6-0.2,0.5-0.1,0.7l0,0l0.1,0.5l0.1-0.2
		c1.2-0.8,0.6,0.2,1.5-0.1c-0.9,0.3-0.4,0.3-0.8,0.7c0,0.2-0.1,0.4-0.2,0.5c0.5-0.2-0.1,0.5,0.6,0.2c-0.1,0.1,0.1,0.2-0.3,0.5
		c0.3,0.1,0.2-0.3,0.4-0.4c0.7-0.2,0,1.2,1.1,0.9c0.6,0.1,1.1-0.4,1.6-0.3c-0.1,0.3-0.6,0.4-0.6,0.4c0,0.4,0.1,0.4,0.4,0.4
		c-0.2,0.1-0.2,0.2-0.3,0.4c0.2,0.1,0.6-0.4,0.5-0.1c-0.2,0.1-0.5,0.3-0.7,0.4c0.3,0,0.7-0.1,0.9-0.1c-0.2,0.3-0.5,0.3-0.7,0.4
		c0.3,0.1,0.7,0.2,1.1-0.1l0-0.2c0.1,0-0.3,0.4-0.4,0.4c-0.4,0.2-0.1-0.3,0.1-0.5l0.2,0c0.7-0.9-0.6-0.3-0.7-0.6l0.7-0.5l-0.7,0.3
		c0.1-0.2,0.4-0.6,0.6-0.5c0.1-0.4-0.3,0.1-0.2-0.4c0-0.1,0.1-0.1,0.1-0.1l-0.3,0c0.2-0.1,0.4-0.4,0.4-0.3c0.1-0.6-0.9,0-0.5-0.5
		l0.1,0c-0.6-0.2-0.5,0.4-1.3,0.6l0.9-1.3l-0.5,0.4c0-0.1-0.1-0.2,0.1-0.3c-0.4,0.2-0.2,0.2-0.5,0.4c0.2-0.6-0.7-0.3,0-1.1
		c-0.4,0.3-0.1,0.4-0.5,0.5c0.7-0.8-0.4-0.1-0.2-0.6c0.4-0.3,0.4,0,0.6-0.5c-0.7,0.5-0.2-0.5-0.5-0.5c-0.5,0.5-0.5-0.1-0.9-0.2
		c0.2-0.2-0.2-0.7-0.2-1.1l0.1-0.1c-0.6,0.5-0.7,0.1-1,0.1c0.3-0.3,0.5-0.4,0.7-0.4l-0.2-0.2c-0.2,0.1-0.3,0.2-0.5,0.1l0.4-0.3
		c-0.2-0.2-0.9,0-0.9-0.5c-0.4,0.3-0.8,1.2-1.3,1.2c0.2-0.2,0.5-0.6,0.7-0.6c-0.1,0-0.2,0.1-0.2-0.1l0.4-0.2c0-0.3-0.3,0.2-0.4,0.1
		c0.3-0.3,0.1-0.3,0.4-0.5c0.1,0,0,0.2,0.1,0.1c-0.1-0.2,0-0.5,0.1-0.7c-0.1,0.2-0.4,0.4-0.5,0.3c-0.2-0.2,0.3-0.4,0.3-0.7
		c-0.2,0.1-0.2-0.2-0.6,0.2c-0.1-0.1,0.1-0.3,0.2-0.4c-0.3,0.1-0.6-0.5-0.9,0.1l0,0.1c0,0,0,0,0,0l0,0l0,0c-0.8,0.1-0.5-1-1-1.1
		l0.1-0.1c-0.4-0.1-0.6-0.4-1-0.2c-0.1-0.1,0.1-0.4,0.3-0.5c-0.3-0.1-0.4,0.1-0.4-0.4c0.4-0.1,0.2-0.3,0.3,0
		c-0.1-0.3,0.1-0.6-0.5-0.4c0.4-0.3,0.3-0.6,0.1-0.6l-0.1,0.4c-0.2-0.1-0.2-0.2-0.3-0.3l0.5-0.4c0.1-1-1.7,0.2-1.1-1.1
		c-0.4,0.2,0,0.5-0.5,0.7c-0.1-0.3,0.3-1.1,0.3-1.2c0-0.5-0.9,0.4-1,0c-0.1,0.2-0.5,0.7-0.9,0.6c-0.1-0.3,0.5-0.9,0.7-1
		c0.1,0,0,0.1,0,0.2c0.1,0,0.3,0,0.4-0.2l-0.2,0.1c0.1-0.3-0.2-0.5,0.1-0.7c-0.3,0-0.3,0.2-0.3,0.4c0-0.5-0.4-0.4-0.5-0.8
		c-0.1,0.1-0.2,0.4-0.2,0.3c-0.2-0.6-0.5,0.2-0.8,0c0.1-0.4,0.7-0.6,0.2-0.6c0-0.3,0.4-0.5,0.6-0.6c-0.6,0.1-0.2-0.7-0.3-0.9l0.3,0
		c-0.2,0-0.2-0.1-0.3-0.1l-0.3,0.4c0-0.1-0.1-0.2,0.1-0.3c-0.3,0.1-0.5,0.6-1,0.8c0.1-0.3-0.5-0.1-0.1-0.6c0.2,0.5,0.4-0.5,0.7-0.3
		c-0.1,0-0.2-0.1-0.2-0.2c0-0.1,0.1-0.1,0.1-0.1c0.1-0.7-0.6,0.4-0.9,0.1c0.3-0.2,0.4-0.5,0.3-0.5c0.1,0.1-0.4,0.5-0.7,0.6
		c0-0.4-0.4-0.1-0.4-0.2l0,0.2c-0.3,0.2-0.4,0.1-0.6,0c0.2-0.2,0.3,0,0.3-0.1c-0.6,0.3,0.1-0.8-0.4-0.7c0.1-0.3,0.5-0.5,0.5-0.7
		c-0.6,0.1,0.1-0.6-0.4-0.6c-0.3,0.4-0.2,0.3-0.7,0.5l0.6,0.2l-0.8,0.2c0.1,0.1,0.5,0,0.5,0.2c-0.4,0.2-0.3,0.1-0.5,0.4
		c0.3-0.7-0.6,0-0.5-0.6l0.8-0.8c0.1-0.7-0.9-0.1-1.1-0.7l0,0.3c-0.4,0.3-0.3-0.2-0.5-0.2c0.3-0.3,0.3-0.4,0.4-0.7
		c-0.2,0.2-0.3-0.3-0.9,0.2l0.2-0.5c-0.2-0.5-1.1,0.4-1.3,0.1c0.4-0.2,0.5-0.5,0.9-0.6c-0.1-0.1-0.1-0.2-0.3,0
		c0.1-0.2-0.6,0.1-0.5-0.3c-0.2,0.1-0.5,0.4-0.6,0.2c0-0.1,0.1-0.1,0.1-0.1c-0.1,0.1-0.4,0-0.6,0.4c0.6-1.2-0.9-0.8-0.4-1.8
		c-0.3-0.1-0.7-0.3-0.9-0.5c0.1-0.1,0.1-0.1,0.1-0.1c0-0.5-1,0.6-1,0c0.3-0.6,0.4-0.1,0.5-0.3c0.9-1-0.5-0.2-0.2-1l0.1,0
		c0.2-0.5-0.7,0-0.9-0.4c0,0,0.1-0.1,0.1-0.1c-0.6,0.3-1.1,0.1-1.5,0c0.4-0.3,0.3-0.1,0.6-0.5c-0.2-0.1-0.6,0.6-0.9,0.5
		c0.1-0.3,0.1-0.6,0.5-1l0.2,0.2c0.4-0.6-0.3-0.3-0.3-0.5l0.2-0.2c-0.4-0.3-0.9,0.3-1.1,0l-0.2,0.2c-0.8,0.3,0.3-0.4-0.4-0.2
		c0.2-0.1,0.5-0.3,0.7-0.4c-0.2,0-1,0.1-1.4-0.1c0.8-0.1,1.2,0,1.6-0.1c0-0.1-0.2-0.1-0.7-0.1c0.1,0,0.4,0,0.3,0
		c-0.7,0.1-1.3,0-1.5-0.2c1.3-0.1,0.9-0.3,1-0.4c0.2-0.1,0.4-0.1,1-0.1c-0.3-0.1-0.1-0.2,0.1-0.2c0.2,0,0.5,0,0.5-0.1
		c-1.1-0.5,0-0.1-1-0.7c0-0.1,0.1-0.1,0.1-0.1c0.3,0.1,0.5,0.2,0.8,0.3c0.2,0.1,0.2,0.2,0.2,0.2c0,0.1,0,0.1,0.1,0.2
		c0.2-0.1,0.5,0.3,0.8,0.4c-0.3-0.3-0.4-0.5-0.1-0.6l-0.6-0.2c-0.1-0.8,1,0.4,0.9-0.4l0.2,0.4c0-0.3,0.7-0.7,0.2-1.6
		c0.1,0.1,0.4,0.3,0.4,0.4c0.6-0.3,0.3-1.7,1-1.7l0.2,0.2c0-0.1-0.3-0.5,0.1-0.4c0.1,0.1,0.2,0.2,0.2,0.2c0-0.1-0.1-0.6,0.1-0.6
		l0.1,0.3c0.7-0.2,0.1-1.2,0.3-1.8c0.6,0.6,1.2,0.5,1.4,0.4l0.1,0.1c0.6-0.4,0.3-1.4,0.6-2.1c1,0.4,1.3-0.7,2.1-0.8
		c-0.2,0-0.5-0.5-0.5-0.6c0.2,0-0.1-0.7,0.4-0.1l0,0c0.6,0.5,0.7,0.1,0.9-0.1l-0.7-0.8c1.5,0.6,0.8-1.6,2-0.9
		c-0.1-0.3,0.1-0.4,0-0.7l0.4,0.4c0.4-0.2,0.6-0.3,0.9-0.8l0.2,0.4c0.2-0.2-0.9-1.4-0.7-1.6L21,150c0.4-0.4,1.3-0.2,1.1-1.2
		c0.1,0.1,0.2,0.3,0.2,0.4c0.2-0.2,1.1-0.3,0.2-1c0.5,0.5,0.4-0.3,0.4-0.8l0.4,0.4c-0.3-0.7-0.5-0.8-0.4-1.2c0.1,0,0.4,0.3,0.2,0.2
		c0.4,0-0.2-0.5,0.2-0.5l0.2,0.3c0.2-0.2,0.1-0.3-0.1-0.7c0-0.3,0.5-0.3,0.9,0.1c-0.2-0.2-0.4-0.6-0.2-0.7c0.2,0.1,0.2,0.2,0.2,0.3
		c0.6-0.1,0-0.9,0.6-0.8c0.1,0.1,0.2,0.2,0.3,0.2c-0.3,0.2-0.5,0.4-0.5,0.4c0.4,0.4,0.6,0.2,1,0.9c-0.1-0.4-0.4-1.3,0-1.4
		c0,0,0.1,0.1,0.2,0.1l0,0.1c0.1,0,0.1-0.1,0.1-0.2c0.1,0,0.2,0,0.3-0.1c0.3,0.3,0.4-0.1,0.5-0.2c-0.4-0.4-0.2-0.5-0.7-0.7
		c0,0,0,0.1,0,0.2c0,0,0,0.1,0,0.1l0,0c-0.1,0.1-0.1,0.2-0.2,0.3c-0.1-0.3-0.2-0.5,0.1-0.4c-0.2-0.3-0.4-0.6-0.5-0.8
		c0.7,0.4,1.3,0.4,1.6,0.7c0.1-0.5,0.6-0.9,0.1-1.8c0-0.2,0.3,0.1,0.5,0.2c0,0.1-0.1,0.2,0,0.3c0-0.4,0.5-0.6,0-1.2
		c0.5,0,0.4,0.6,0.6,0.2l0.1,0.2c1.4,0.2-0.3-2.3,1.4-1.9c-0.1,0-0.2,0-0.3-0.1c1.2-0.3,1.2-2,2.7-2.1c0.4-0.1,0.1-0.4-0.1-0.8
		l0.5,0.4l-0.3-0.7c0-0.7,1.6,0.5,1.3-0.6l-0.3-0.2c0.2-0.1,0.3-0.6,0.6-0.3c0-0.1-0.3-0.3,0-0.3l0.2,0.2l0-0.7
		c0.4-0.1,0.8,0.9,1.3,0.6c0.1-0.2-0.2-1.1-0.4-1.2c-0.1,0.1-0.3,0-0.5-0.2l0-0.3c-0.6-0.7-1.2-1.5-2-1.6l0.2,0.6l-0.4-0.2l0.2-0.2
		c-0.4-0.2-0.2,0.1-0.1,0.4c-0.2-0.2-0.3-0.2-0.5-0.3l0.4,0.9c-0.3-0.2-0.4-0.6-0.7-0.6c0.2,0.4,0.7,0.5,0.7,0.8
		c-0.4-0.2-0.6-0.5-0.5-0.1c-0.2-0.2-0.3-0.3-0.3-0.4c0.1,0.3-0.2,0.4,0.1,0.8c-0.5-0.3-0.3,0.5-0.9-0.1c0.1,0.2,0.3,0.7,0.2,0.8
		c-0.5-0.9-0.5,0.4-1.2-0.5c0.5,0.8-0.2,0.8-0.1,1.5c0-0.1-0.1-0.2-0.1-0.2c-0.2,0.1-0.4-0.1-0.7-0.1c0.5,0.6,0.4,0.9,0.7,1.4
		c-0.7-0.4-0.5-0.8-1.1-1.2c0.5,0.4,0.1,0.8,0.6,1.1c-0.5-0.2-0.3,0-0.8-0.4c0.7,0.7,0,0.2,0.3,0.8c-0.5-0.1-0.7-0.6-0.7-0.2
		C27.2,136.7,27.1,136.3,27.1,136.3z M23.1,142.7C23.1,142.7,23.1,142.7,23.1,142.7c0-0.1,0.1-0.1,0.1-0.1
		C23.2,142.6,23.2,142.6,23.1,142.7z M22.7,143.1c0.1,0,0.1-0.1,0.2-0.2c0.2,0.1,0.3,0.3,0.2,0.3C23.1,143.1,22.9,143.2,22.7,143.1z
		 M26.4,144.9c0,0.1-0.1,0.1-0.2,0c0,0,0.1-0.1,0.1-0.2c0,0,0,0,0-0.1C26.3,144.8,26.3,144.9,26.4,144.9z"/>
	<path class="st0" d="M26,144.3C26,144.3,26,144.2,26,144.3c0-0.1-0.1-0.1-0.1-0.1L26,144.3L26,144.3z"/>
	<path class="st0" d="M26.1,182.1L26.1,182.1C26.1,182.1,26.1,182.1,26.1,182.1C26.1,182.1,26.1,182.1,26.1,182.1z"/>
	<polygon class="st0" points="15.9,148.4 16,148.5 16,148.3 	"/>
	<path class="st0" d="M27.2,185.8c0,0-0.1,0.1-0.1,0.1C27.1,185.9,27.2,185.9,27.2,185.8z"/>
	<path class="st0" d="M28.1,186.9l0,0.3C28.2,187.1,28.1,187,28.1,186.9z"/>
	<path class="st0" d="M28.7,187.9c0.1-0.1,0.1-0.1,0.2-0.2l0,0L28.7,187.9z"/>
	<path class="st0" d="M15.6,175.7C15.6,175.7,15.6,175.7,15.6,175.7C15.4,175.7,15.5,175.7,15.6,175.7z"/>
	<path class="st0" d="M20.3,178.6c-0.1,0-0.2,0.1-0.3,0.1C20,178.7,20.1,178.8,20.3,178.6z"/>
	<path class="st0" d="M10.9,172L10.9,172C10.9,172,10.9,172,10.9,172L10.9,172z"/>
	<path class="st0" d="M19.8,178.5c0,0.1,0.1,0.2,0.2,0.2C19.9,178.6,19.9,178.4,19.8,178.5z"/>
	<path class="st0" d="M32,191.6L32,191.6C32.1,191.6,32.1,191.6,32,191.6L32,191.6z"/>
	<path class="st0" d="M32.1,191.6L32.1,191.6C32.2,191.6,32.2,191.5,32.1,191.6z"/>
	<path class="st0" d="M32.4,191.6l-0.2,0C32.2,191.6,32.2,191.7,32.4,191.6z"/>
	<path class="st0" d="M31.1,190.3l-0.2,0.1C31,190.4,31.1,190.4,31.1,190.3z"/>
	<path class="st0" d="M30.8,190.1c0,0.1-0.1,0.5,0.1,0.5l0.1-0.1C30.7,190.6,31.1,189.9,30.8,190.1z"/>
	<path class="st0" d="M31.2,186.9l0.2,0.4c0.1-0.2,0.3-0.5,0.4-0.4C31.9,186.1,31.5,187.4,31.2,186.9z"/>
	<path class="st0" d="M30.6,185.9c0.2,0.1,0.2-0.2,0.3-0.3C30.7,185.6,30.6,185.6,30.6,185.9z"/>
	<path class="st0" d="M24.6,179.9l0.4-0.3C24.8,179.4,24.8,179.6,24.6,179.9z"/>
	<polygon class="st0" points="21.6,180.6 21.4,180.9 21.8,180.6 	"/>
	<polygon class="st0" points="23.5,177.3 23.6,177.3 23.2,177.3 	"/>
	<path class="st0" d="M13.2,167.3l-0.4,0.5C13,167.8,13.5,167.3,13.2,167.3z"/>
	<path class="st0" d="M8.5,163.6c0.2-0.2,0.4-0.4,0.1-0.2C8.6,163.4,8.4,163.6,8.5,163.6z"/>
	<polygon class="st0" points="18.3,153.1 18.4,153.3 18.4,153 	"/>
</g>
<g>
	<path class="st0" d="M292.2,132.3c-0.2,0.1-0.4,0.4-0.3,0.4l0.5-0.4L292.2,132.3z"/>
	<path class="st0" d="M291.9,133.7c0.3-0.1,0.8-0.4,1.2-0.9c-0.5,0.4-0.4,0.1-1,0.6c-0.1,0,0-0.3,0.2-0.5c-0.1,0.1,0-0.2-0.4,0
		c-0.3,0.5-0.1,0.6,0.3,0.5C292.2,133.5,292,133.6,291.9,133.7z"/>
	<path class="st0" d="M299.4,142.6l0-0.1C299.4,142.5,299.4,142.6,299.4,142.6z"/>
	<path class="st0" d="M304.2,147.9c0,0-0.1,0-0.2,0C304.1,148,304.1,148,304.2,147.9z"/>
	<path class="st0" d="M304.5,149.3C304.5,149.3,304.5,149.2,304.5,149.3C304.5,149.3,304.5,149.3,304.5,149.3z"/>
	<path class="st0" d="M299.4,142.6l0,0.3C299.5,142.7,299.4,142.7,299.4,142.6z"/>
	<path class="st0" d="M294.2,133.7c-0.1,0-0.1,0-0.2,0C294,133.7,294.1,133.7,294.2,133.7C294.1,133.7,294.2,133.7,294.2,133.7z"/>
	<path class="st0" d="M296.8,140.7L296.8,140.7c-0.1,0-0.2,0.1-0.3,0.1L296.8,140.7z"/>
	<path class="st0" d="M295,139.1c0,0.1,0.4-0.3,0.6-0.5c-0.2,0.1-0.3,0.2-0.4,0.2C295.2,138.9,295.1,139,295,139.1z"/>
	<path class="st0" d="M293,135.7l-0.1,0C292.9,135.7,292.9,135.7,293,135.7z"/>
	<path class="st0" d="M297.9,142c-0.1,0.1-0.1,0.1-0.1,0.2C297.8,142.2,297.9,142.1,297.9,142z"/>
	<path class="st0" d="M295.1,190.7C295.1,190.7,295.1,190.7,295.1,190.7C295.1,190.7,295.1,190.7,295.1,190.7z"/>
	<polygon class="st0" points="291.2,190.7 291.2,190.7 291,190.4 	"/>
	<path class="st0" d="M305.6,151.4L305.6,151.4C305.5,151.4,305.5,151.4,305.6,151.4z"/>
	<path class="st0" d="M316.3,162.6c0.5,0.2,0.4,0.5,1,0.7C317.1,163.2,316.6,162.7,316.3,162.6z"/>
	<path class="st0" d="M294.2,133.8C294.2,133.8,294.2,133.8,294.2,133.8C294.2,133.8,294.2,133.8,294.2,133.8z"/>
	<path class="st0" d="M317.2,163.3L317.2,163.3L317.2,163.3C317.3,163.3,317.2,163.3,317.2,163.3z"/>
	<path class="st0" d="M309.5,154.8c0.1-0.1,0.1-0.1,0.1-0.2C309.6,154.6,309.5,154.7,309.5,154.8z"/>
	<path class="st0" d="M307.3,151.5l0,0.1C307.4,151.6,307.3,151.5,307.3,151.5z"/>
	<path class="st0" d="M311.4,155.6c0,0.1,0,0.1,0.1,0.1c0,0,0,0,0-0.1C311.5,155.7,311.4,155.7,311.4,155.6z"/>
	<path class="st0" d="M312.9,157.1c0,0,0-0.1,0.1-0.1l-0.1,0L312.9,157.1z"/>
	<path class="st0" d="M299.4,186.1c-0.1-0.1-0.3-0.2-0.4-0.3C299.3,186,299.2,186.3,299.4,186.1z"/>
	<path class="st0" d="M294,133.9c0.1-0.1,0.2-0.1,0.2-0.1c0,0,0,0-0.1,0C294,133.8,294,133.9,294,133.9z"/>
	<path class="st0" d="M314.6,152.6l0.2,0.3C314.8,152.7,314.7,152.6,314.6,152.6z"/>
	<path class="st0" d="M309.9,175.5l0,0.1C309.9,175.6,309.9,175.5,309.9,175.5z"/>
	<path class="st0" d="M315.6,153.5c-0.1,0.2-0.1,0.3-0.1,0.4c0,0,0.1,0,0.1-0.1L315.6,153.5z"/>
	<path class="st0" d="M299,185.8L299,185.8L299,185.8z"/>
	<path class="st0" d="M298.4,188.2c0.2-0.2-0.4-0.6-0.7-1c0.1-0.4,0.5,0.3,0.9,0.4c0-0.3-0.3-0.9-0.2-1c0.1,0.1,0.2,0.1,0.2,0.2
		c-0.2-0.6,0.5-0.5,0.2-1.3c0.1,0,0.1,0.1,0.2,0.1c-0.3-0.2-0.6-0.5-0.7-0.7c0.1-0.1-0.1-0.5,0.2-0.2c-0.1,0.1,0.1,0.2,0.1,0.3
		l0-0.3c0.6,0.4,0,0.3,0.4,0.7c0-0.4-0.1-1,0.2-1c0.5,0.4-0.2,0.5,0.4,0.7l-0.4,0.1c0.9,0.6-0.2,0.1,0.8,0.7
		c0.5-0.2,0.1-0.6,0.6-0.8c-0.2-0.3-0.4-0.4-0.6-0.7c0-0.9,1.6,0.9,1.3-0.1c-0.2-0.4-0.8-1-0.3-1l0.5,0.6c0.4-0.3-0.6-1,0.1-0.9
		c0.2,0.3-0.1,0.4,0,0.4c0.6,0.2-0.2-0.5,0-0.6l0.5,0.4c0.3-0.4,0.3-1.1,0.5-1.6c0.1,0.2,0.2,0.4,0.4,0.4c0.2-0.7,1-0.9,1.8-1.1
		l-0.2-0.6c0,0,0.3,0.1,0.3,0.2c0.3,0-0.3-0.3-0.3-0.5c0.1-0.1,0.4,0.1,0.4,0.3c0-0.7,0.1-1.6,0.9-1.5l0.1,0.2c0.4-0.1-0.6-1.1,0-1
		l0,0.1c0.7-0.4,0.9-1.3,2-1.1c-0.5-0.7,0.8-0.3,0-1.1c0.7,0.1,0.8,0.3,1.5,0.2c0.2-0.1-0.3-0.7-0.3-0.9l0.4,0.4l-0.3-0.7l0.6,0.4
		l0-0.2c-0.1,0-0.3-0.1-0.4-0.2c0-0.4,0.8-0.2,1,0l0.1-0.9c0.2,0.2,0.1,0.3,0.2,0.5c-0.2-0.7,0.5,0.4,0.3-0.2
		c-0.1-0.1-0.2-0.3-0.3-0.4c0.4,0.1,0.7-0.1,0.8-0.4l0.3,0.3c0.4-0.3,0.6-0.9,1.1-1.3c-0.3,0-0.8-0.5-0.7-0.7l0.5,0.4
		c-0.2-0.4-0.3,0-0.5-0.6c0.2-0.1,0.6,0.4,0.7,0.7l0-0.3c0.1,0.1,0.2,0.2,0.3,0.4c-0.2-0.4,0.8,0.1,0.4-0.5l0.1,0.1
		c0.4-0.4,0.4-0.8,0.8-1.1c-0.4-0.4-0.2-0.4-0.4-0.9c0.4-0.1,1-0.1,1.2-0.4c0-0.4-0.3-0.4-0.4-0.7c0.4,0.3,0.6,0,0.7,0.4
		c0.3-0.4,0.4-0.5,0.5-1.3c-0.2-0.1-0.3-0.1-0.4-0.3c0-0.1,0.3,0,0.5,0.2l0,0.1c0-1.1,2.2-0.1,1.9-1.3l0,0.1l0-0.8
		c0.3-0.1,0.2,0.4,0.5,0.5c-0.1-0.5,0.1-0.7,0.3-0.8c0.1-0.1,0.2-0.1,0.3-0.2c0.1-0.1,0.3-0.3,0.3-0.6c0.8,0.2,1.3-0.3,1.7-0.8
		c0.4-0.5,0.7-1.1,1.7-1.3l-0.5,0c-0.3-0.2,0.5-0.2,0.7-0.3c-0.4,0-0.6,0.2-0.7,0c0.2-0.3,0.4-0.5,0.6-0.8c-0.6-0.6-1-1.2-1.5-2
		c-0.4-0.7-0.9-1.6-1.6-2.4c-0.1-0.1-0.2-0.1-0.2-0.2c-0.1,0-0.1,0-0.2,0.1c-0.1,0.1-0.3,0.2-0.5,0.3c-0.3,0.2-0.6,0.3-0.5-0.2
		l0.6-0.4c-1.2-0.1-1.3-1.3-2.4-1.5c0.1-0.1,0.3-0.2,0.3-0.1c0.2-0.5-0.5-0.5-0.8-0.2c-0.1-0.1,0.2-0.3,0.3-0.5
		c0.1-0.3-0.8,0.1-0.5-0.3c0-0.1,0.1-0.1,0.2-0.1c-0.3,0.1-0.4-0.4-0.7,0c-0.1-0.4-0.6-0.3-0.6-0.7c-0.6,0.3-0.2-0.6-0.9,0
		c0.7-0.6,0.1-0.9-0.4-0.8c0.2-0.1,0.1-0.3,0.4-0.5c-0.2-0.2-0.5-0.2-0.8,0.2c0.5-1.1-1.2,0-0.4-1.2c-0.9-0.2-1.6-0.4-2.2-0.7
		c0.7-0.6,0.6,0.4,1.2-0.2c-0.7-0.2-1.5,0.1-1.8-0.5c0-0.2,0.3-0.2,0.5-0.3c-0.7-0.2-0.8-0.9-1.5-0.9c0.1-0.1,0.2-0.1,0.3-0.1
		c-0.1-0.1-0.1-0.3-0.4,0l0.2,0c-0.3,0.5-1.2,0.6-1.4,0.8c1-0.7-0.2-0.6,1.1-1.4c-0.1,0-0.3,0.1-0.5,0.3c0-0.1,0.1-0.3,0.4-0.4
		c-0.4-0.1-0.6,0.3-0.9,0c0.1-0.1,0.2-0.1,0.4-0.3c-0.4,0.1-0.8,0.3-0.9,0c0.1-0.1,0.2-0.2,0.2-0.1c-0.4-0.3-1.3,0.1-1.5-0.5
		c0.7-0.5,0.1-0.3,0.6-0.9l-0.4-0.1l-0.2,0.3c-0.2-0.2-0.7,0-0.7-0.3l0.4-0.1l-0.4-0.2l0,0.4c-0.5,0.1-0.6,0.7-0.7,0.3
		c0.1,0-0.2-0.2,0-0.6l0,0c-0.3,0.1-0.5,0.2-0.5-0.1c0.1-0.2,0.6-0.6,0.7-0.7c-0.5,0.4-0.6-0.3-1.1,0c0.1-0.1,0.4-0.3,0.5-0.4
		l-0.4,0.3c0-0.2,0.1-0.3,0.3-0.5c-0.2-0.3-0.6,0.8-0.6,0.2c0.1,0,0.1-0.1,0.2-0.1c-0.2-0.5-0.8-0.4-0.9-0.8
		c0.4-0.6,0.4,0.1,0.7-0.4c-0.5-0.3-1.5-0.2-1.7-0.7l0,0.1c-0.8,0.7,0.1-0.7-0.5-0.5c0.1,0,0.5-0.4,0.4-0.3
		c-0.1-0.4-0.7-0.4-1.4-0.5l0.2-0.1c0-0.3-0.3-0.5-0.4-0.8c-0.2,0.1-0.3,0-0.5,0.4c0.6-1.6-1.6-0.4-1.2-1.8c0.1,0.1,0.3,0,0.3-0.1
		l-0.6-0.2c-0.3,0.4-0.1,0.3-0.3,0.6c-0.2,0.1-0.5,0.2-0.6,0.1c0.4,0,0.5-0.5,0.6-0.8c-0.1,0.1-0.2,0.2-0.3,0.3
		c0.4-0.8-0.7,0.6-0.6-0.1l0.2-0.2c-0.2,0-0.5,0.1-0.6-0.1c0.3-0.4,0.3-0.1,0.6-0.4c-0.2-0.1-1,0.4-0.8-0.1c0.2,0,0.3,0.1,0.4,0
		c0.3-0.6,0.2-0.5,0.1-0.7l0,0l-0.1-0.5l-0.1,0.2c-1.2,0.8-0.6-0.2-1.5,0.1c0.9-0.3,0.4-0.3,0.8-0.7c0-0.2,0.1-0.4,0.2-0.5
		c-0.5,0.2,0.1-0.5-0.6-0.2c0.1-0.1-0.1-0.2,0.3-0.5c-0.3-0.1-0.2,0.3-0.4,0.4c-0.7,0.2,0-1.2-1.1-0.9c-0.6-0.1-1.1,0.4-1.6,0.3
		c0.1-0.3,0.6-0.4,0.6-0.4c0-0.4-0.1-0.4-0.4-0.4c0.2-0.1,0.2-0.2,0.3-0.4c-0.2-0.1-0.6,0.4-0.5,0.1c0.2-0.1,0.5-0.3,0.7-0.4
		c-0.3,0-0.7,0.1-0.9,0.1c0.2-0.3,0.5-0.3,0.7-0.4c-0.3-0.1-0.7-0.2-1.1,0.1l0,0.2c-0.1,0,0.3-0.4,0.4-0.4c0.4-0.2,0.1,0.3-0.1,0.5
		l-0.2,0c-0.7,0.9,0.6,0.3,0.7,0.6l-0.7,0.5l0.7-0.3c-0.1,0.2-0.4,0.6-0.6,0.5c-0.1,0.4,0.3-0.1,0.2,0.4c0,0.1-0.1,0.1-0.1,0.1
		l0.3,0c-0.2,0.1-0.4,0.4-0.4,0.3c-0.1,0.6,0.9,0,0.5,0.5l-0.1,0c0.6,0.2,0.5-0.4,1.3-0.6l-0.9,1.3l0.5-0.4c0,0.1,0.1,0.2-0.1,0.3
		c0.4-0.2,0.2-0.2,0.5-0.4c-0.2,0.6,0.7,0.3,0,1.1c0.4-0.3,0.1-0.4,0.5-0.5c-0.7,0.8,0.4,0.1,0.2,0.6c-0.4,0.3-0.4,0-0.6,0.5
		c0.7-0.5,0.2,0.5,0.5,0.5c0.5-0.5,0.5,0.1,0.9,0.2c-0.2,0.2,0.2,0.7,0.2,1.1l-0.1,0.1c0.6-0.5,0.7-0.1,1-0.1
		c-0.3,0.3-0.5,0.4-0.7,0.4l0.2,0.2c0.2-0.1,0.3-0.2,0.5-0.1l-0.4,0.3c0.2,0.2,0.9,0,0.9,0.5c0.4-0.3,0.8-1.2,1.3-1.2
		c-0.2,0.2-0.5,0.6-0.7,0.6c0.1,0,0.2-0.1,0.2,0.1l-0.4,0.2c0,0.3,0.3-0.2,0.4-0.1c-0.3,0.3-0.1,0.3-0.4,0.5c-0.1,0,0-0.2-0.1-0.1
		c0.1,0.2,0,0.5-0.1,0.7c0.1-0.2,0.4-0.4,0.5-0.3c0.2,0.2-0.3,0.4-0.3,0.7c0.2-0.1,0.2,0.2,0.6-0.2c0.1,0.1-0.1,0.3-0.2,0.4
		c0.3-0.1,0.6,0.5,0.9-0.1l0-0.1c0,0,0,0,0,0l0,0l0,0c0.8-0.1,0.5,1,1,1.1l-0.1,0.1c0.4,0.1,0.6,0.4,1,0.2c0.1,0.1-0.1,0.4-0.3,0.5
		c0.3,0.1,0.4-0.1,0.4,0.4c-0.4,0.1-0.2,0.3-0.3,0c0.1,0.3-0.1,0.6,0.5,0.4c-0.4,0.3-0.3,0.6-0.1,0.6l0.1-0.4
		c0.2,0.1,0.2,0.2,0.3,0.3l-0.5,0.4c-0.1,1,1.7-0.2,1.1,1.1c0.4-0.2,0-0.5,0.5-0.7c0.1,0.3-0.3,1.1-0.3,1.2c0,0.5,0.9-0.4,1,0
		c0.1-0.2,0.5-0.7,0.9-0.6c0.1,0.3-0.5,0.9-0.7,1c-0.1,0,0-0.1,0-0.2c-0.1,0-0.3,0-0.4,0.2l0.2-0.1c-0.1,0.3,0.2,0.5-0.1,0.7
		c0.3,0,0.3-0.2,0.3-0.4c0,0.5,0.4,0.4,0.5,0.8c0.1-0.1,0.2-0.4,0.2-0.3c0.2,0.6,0.5-0.2,0.8,0c-0.1,0.4-0.7,0.6-0.2,0.6
		c0,0.3-0.4,0.5-0.6,0.6c0.6-0.1,0.2,0.7,0.3,0.9l-0.3,0c0.2,0,0.2,0.1,0.3,0.1l0.3-0.4c0,0.1,0.1,0.2-0.1,0.3
		c0.3-0.1,0.5-0.6,1-0.8c-0.1,0.3,0.5,0.1,0.1,0.6c-0.2-0.5-0.4,0.5-0.7,0.3c0.1,0,0.2,0.1,0.2,0.2c0,0.1-0.1,0.1-0.1,0.1
		c-0.1,0.7,0.6-0.4,0.9-0.1c-0.3,0.2-0.4,0.5-0.3,0.5c-0.1-0.1,0.4-0.5,0.7-0.6c0,0.4,0.4,0.1,0.4,0.2l0-0.2c0.3-0.2,0.4-0.1,0.6,0
		c-0.2,0.2-0.3,0-0.3,0.1c0.6-0.3-0.1,0.8,0.4,0.7c-0.1,0.3-0.5,0.5-0.5,0.7c0.6-0.1-0.1,0.6,0.4,0.6c0.3-0.4,0.2-0.3,0.7-0.5
		l-0.6-0.2l0.8-0.2c-0.1-0.1-0.5,0-0.5-0.2c0.4-0.2,0.3-0.1,0.5-0.4c-0.3,0.7,0.6,0,0.5,0.6l-0.8,0.8c-0.1,0.7,0.9,0.1,1.1,0.7
		l0-0.3c0.4-0.3,0.3,0.2,0.5,0.2c-0.3,0.3-0.3,0.4-0.4,0.7c0.2-0.2,0.3,0.3,0.9-0.2l-0.2,0.5c0.2,0.5,1.1-0.4,1.3-0.1
		c-0.4,0.2-0.5,0.5-0.9,0.6c0.1,0.1,0.1,0.2,0.3,0c-0.1,0.2,0.6-0.1,0.5,0.3c0.2-0.1,0.5-0.4,0.6-0.2c0,0.1-0.1,0.1-0.1,0.1
		c0.1-0.1,0.4,0,0.6-0.4c-0.6,1.2,0.9,0.8,0.4,1.8c0.3,0.1,0.7,0.3,0.9,0.5c-0.1,0.1-0.1,0.1-0.1,0.1c0,0.5,1-0.6,1,0
		c-0.3,0.6-0.4,0.1-0.5,0.3c-0.9,1,0.5,0.2,0.2,1l-0.1,0c-0.2,0.5,0.7,0,0.9,0.4c0,0-0.1,0.1-0.1,0.1c0.6-0.3,1.1-0.1,1.5,0
		c-0.4,0.3-0.3,0.1-0.6,0.5c0.2,0.1,0.6-0.6,0.9-0.5c-0.1,0.3-0.1,0.6-0.5,1l-0.2-0.2c-0.4,0.6,0.3,0.3,0.3,0.5l-0.2,0.2
		c0.4,0.3,0.9-0.3,1.1,0l0.2-0.2c0.8-0.3-0.3,0.4,0.4,0.2c-0.2,0.1-0.5,0.3-0.7,0.4c0.2,0,1-0.1,1.4,0.1c-0.8,0.1-1.2,0-1.6,0.1
		c0,0.1,0.2,0.1,0.7,0.1c-0.1,0-0.4,0-0.3,0c0.7-0.1,1.3,0,1.5,0.2c-1.3,0.1-0.9,0.3-1,0.4c-0.2,0.1-0.4,0.1-1,0.1
		c0.3,0.1,0.1,0.2-0.1,0.2c-0.2,0-0.5,0-0.5,0.1c1.1,0.5,0,0.1,1,0.7c0,0.1-0.1,0.1-0.1,0.1c-0.3-0.1-0.5-0.2-0.8-0.3
		c-0.2-0.1-0.2-0.2-0.2-0.2c0-0.1,0-0.1-0.1-0.2c-0.2,0.1-0.5-0.3-0.8-0.4c0.3,0.3,0.4,0.5,0.1,0.6l0.6,0.2c0.1,0.8-1-0.4-0.9,0.4
		l-0.2-0.4c0,0.3-0.7,0.7-0.2,1.6c-0.1-0.1-0.4-0.3-0.4-0.4c-0.6,0.3-0.3,1.7-1,1.7l-0.2-0.2c0,0.1,0.3,0.5-0.1,0.4
		c-0.1-0.1-0.2-0.2-0.2-0.2c0,0.1,0.1,0.6-0.1,0.6l-0.1-0.3c-0.7,0.2-0.1,1.2-0.3,1.8c-0.6-0.6-1.2-0.5-1.4-0.4l-0.1-0.1
		c-0.6,0.4-0.3,1.4-0.6,2.1c-1-0.4-1.3,0.7-2.1,0.8c0.2,0,0.5,0.5,0.5,0.6c-0.2,0,0.1,0.7-0.4,0.1l0,0c-0.6-0.5-0.7-0.1-0.9,0.1
		l0.7,0.8c-1.5-0.6-0.8,1.6-2,0.9c0.1,0.3-0.1,0.4,0,0.7l-0.4-0.4c-0.4,0.2-0.6,0.3-0.9,0.8l-0.2-0.4c-0.2,0.2,0.9,1.4,0.7,1.6
		l-0.7-0.5c-0.4,0.4-1.3,0.2-1.1,1.2c-0.1-0.1-0.2-0.3-0.2-0.4c-0.2,0.2-1.1,0.3-0.2,1c-0.5-0.5-0.4,0.3-0.4,0.8l-0.4-0.4
		c0.3,0.7,0.5,0.8,0.4,1.2c-0.1,0-0.4-0.3-0.2-0.2c-0.4,0,0.2,0.5-0.2,0.5l-0.2-0.3c-0.2,0.2-0.1,0.3,0.1,0.7c0,0.3-0.5,0.3-0.9-0.1
		c0.2,0.2,0.4,0.6,0.2,0.7c-0.2-0.1-0.2-0.2-0.2-0.3c-0.6,0.1,0,0.9-0.6,0.8c-0.1-0.1-0.2-0.2-0.3-0.2c0.3-0.2,0.5-0.4,0.5-0.4
		c-0.4-0.4-0.6-0.2-1-0.9c0.1,0.4,0.4,1.3,0,1.4c0,0-0.1-0.1-0.2-0.1l0-0.1c-0.1,0-0.1,0.1-0.1,0.2c-0.1,0-0.2,0-0.3,0.1
		c-0.3-0.3-0.4,0.1-0.5,0.2c0.4,0.4,0.2,0.5,0.7,0.7c0,0,0-0.1,0-0.2c0,0,0-0.1,0-0.1l0,0c0.1-0.1,0.1-0.2,0.2-0.3
		c0.1,0.3,0.2,0.5-0.1,0.4c0.2,0.3,0.4,0.6,0.5,0.8c-0.7-0.4-1.3-0.4-1.6-0.7c-0.1,0.5-0.6,0.9-0.1,1.8c0,0.2-0.3-0.1-0.5-0.2
		c0-0.1,0.1-0.2,0-0.3c0,0.4-0.5,0.6,0,1.2c-0.5,0-0.4-0.6-0.6-0.2l-0.1-0.2c-1.4-0.2,0.3,2.3-1.4,1.9c0.1,0,0.2,0,0.3,0.1
		c-1.2,0.3-1.2,2-2.7,2.1c-0.4,0.1-0.1,0.4,0.1,0.8L293,187l0.3,0.7c0,0.7-1.6-0.5-1.3,0.6l0.3,0.2c-0.2,0.1-0.3,0.6-0.6,0.3
		c0,0.1,0.3,0.3,0,0.3l-0.2-0.2l0,0.7c-0.4,0.1-0.8-0.9-1.3-0.6c-0.1,0.2,0.2,1.1,0.4,1.2c0.1-0.1,0.3,0,0.5,0.2l0,0.3
		c0.6,0.7,1.2,1.5,2,1.6l-0.2-0.6l0.4,0.2l-0.2,0.2c0.4,0.2,0.2-0.1,0.1-0.4c0.2,0.2,0.3,0.2,0.5,0.3l-0.4-0.9
		c0.3,0.2,0.4,0.6,0.7,0.6c-0.2-0.4-0.7-0.5-0.7-0.8c0.4,0.2,0.6,0.5,0.5,0.1c0.2,0.2,0.3,0.3,0.3,0.4c-0.1-0.3,0.2-0.4-0.1-0.8
		c0.5,0.3,0.3-0.5,0.9,0.1c-0.1-0.2-0.3-0.7-0.2-0.8c0.5,0.9,0.5-0.4,1.2,0.5c-0.5-0.8,0.2-0.8,0.1-1.5c0,0.1,0.1,0.2,0.1,0.2
		c0.2-0.1,0.4,0.1,0.7,0.1c-0.5-0.6-0.4-0.9-0.7-1.4c0.7,0.4,0.5,0.8,1.1,1.2c-0.5-0.4-0.1-0.8-0.6-1.1c0.5,0.2,0.3,0,0.8,0.4
		c-0.7-0.7,0-0.2-0.3-0.8c0.5,0.1,0.7,0.6,0.7,0.2C298.3,187.8,298.4,188.2,298.4,188.2z M302.4,181.9
		C302.4,181.9,302.4,181.9,302.4,181.9c0,0.1-0.1,0.1-0.1,0.1C302.3,182,302.3,181.9,302.4,181.9z M302.8,181.4
		c-0.1,0-0.1,0.1-0.2,0.2c-0.2-0.1-0.3-0.3-0.2-0.3C302.4,181.4,302.6,181.4,302.8,181.4z M299.1,179.6c0-0.1,0.1-0.1,0.2,0
		c0,0-0.1,0.1-0.1,0.2c0,0,0,0,0,0.1C299.2,179.7,299.2,179.6,299.1,179.6z"/>
	<path class="st0" d="M299.5,180.2C299.5,180.2,299.5,180.3,299.5,180.2c0,0.1,0.1,0.1,0.1,0.1L299.5,180.2L299.5,180.2z"/>
	<path class="st0" d="M299.4,142.5L299.4,142.5C299.4,142.5,299.4,142.4,299.4,142.5C299.4,142.4,299.4,142.4,299.4,142.5z"/>
	<polygon class="st0" points="309.6,176.2 309.5,176.1 309.5,176.2 	"/>
	<path class="st0" d="M298.3,138.7c0,0,0.1-0.1,0.1-0.1C298.4,138.6,298.4,138.6,298.3,138.7z"/>
	<path class="st0" d="M297.4,137.6l0-0.3C297.4,137.4,297.4,137.5,297.4,137.6z"/>
	<path class="st0" d="M296.8,136.6c-0.1,0.1-0.1,0.1-0.2,0.2l0,0L296.8,136.6z"/>
	<path class="st0" d="M309.9,148.8C309.9,148.8,310,148.8,309.9,148.8C310.1,148.8,310.1,148.8,309.9,148.8z"/>
	<path class="st0" d="M305.2,145.9c0.1,0,0.2-0.1,0.3-0.1C305.5,145.8,305.5,145.7,305.2,145.9z"/>
	<path class="st0" d="M314.6,152.5L314.6,152.5C314.6,152.5,314.6,152.6,314.6,152.5L314.6,152.5z"/>
	<path class="st0" d="M305.7,146.1c0-0.1-0.1-0.2-0.2-0.2C305.6,146,305.6,146.1,305.7,146.1z"/>
	<path class="st0" d="M293.5,132.9L293.5,132.9C293.5,132.9,293.4,132.9,293.5,132.9L293.5,132.9z"/>
	<path class="st0" d="M293.4,132.9L293.4,132.9C293.3,133,293.4,133,293.4,132.9z"/>
	<path class="st0" d="M293.1,133l0.2,0C293.3,132.9,293.3,132.9,293.1,133z"/>
	<path class="st0" d="M294.4,134.2l0.2-0.1C294.5,134.1,294.4,134.1,294.4,134.2z"/>
	<path class="st0" d="M294.7,134.5c0-0.1,0.1-0.5-0.1-0.5l-0.1,0.1C294.8,133.9,294.4,134.6,294.7,134.5z"/>
	<path class="st0" d="M294.3,137.6l-0.2-0.4c-0.1,0.2-0.3,0.5-0.4,0.4C293.6,138.4,294,137.2,294.3,137.6z"/>
	<path class="st0" d="M294.9,138.6c-0.2-0.1-0.2,0.2-0.3,0.3C294.8,138.9,294.9,138.9,294.9,138.6z"/>
	<path class="st0" d="M300.9,144.7l-0.4,0.3C300.7,145.1,300.7,144.9,300.9,144.7z"/>
	<polygon class="st0" points="304,143.9 304.1,143.6 303.7,143.9 	"/>
	<polygon class="st0" points="302.1,147.2 302,147.2 302.3,147.3 	"/>
	<path class="st0" d="M312.3,157.2l0.4-0.5C312.6,156.7,312,157.2,312.3,157.2z"/>
	<path class="st0" d="M317,160.9c-0.2,0.2-0.4,0.4-0.1,0.2C316.9,161.1,317.1,160.9,317,160.9z"/>
	<polygon class="st0" points="307.2,171.4 307.1,171.2 307.1,171.5 	"/>
</g>
</svg>
