<?xml version="1.0" encoding="utf-8"?>
<!-- Generator: Adobe Illustrator 22.1.0, SVG Export Plug-In . SVG Version: 6.00 Build 0)  -->
<svg version="1.1" id="Layer_1" xmlns="http://www.w3.org/2000/svg" xmlns:xlink="http://www.w3.org/1999/xlink" x="0px" y="0px"
	 viewBox="0 0 163.4 164.1" style="enable-background:new 0 0 163.4 164.1;" xml:space="preserve">
<style type="text/css">
	.st0{fill:#f3765a;}
</style>
<g>
	<path class="st0" d="M8.9,49.8c0-0.3-0.3-0.3-0.6,0.4l0.3,0.7L8.9,49.8z"/>
	<path class="st0" d="M6.2,53.9c-0.1,0.9,0,2,0.6,1.6c-0.2-1,0.1-1.1-0.1-2.1c0.2-0.7,0.6-1.1,0.8-0.9c0-0.3,0.5-1,0.4-1.5
		c-0.7,0.7-1.2,1.8-1.3,3.1C6.3,54.3,6.2,54,6.2,53.9z"/>
	<path class="st0" d="M11.3,122.9l-0.2-0.4C11.1,122.6,11.2,122.8,11.3,122.9z"/>
	<path class="st0" d="M42.9,153.6c-0.3-0.2-0.5-0.2-0.5-0.1C42.7,153.6,42.9,153.7,42.9,153.6z"/>
	<path class="st0" d="M49.6,157.4c-0.1-0.1-0.3-0.1-0.4-0.2C49.3,157.3,49.4,157.4,49.6,157.4z"/>
	<path class="st0" d="M11.3,122.9l0.5,1.1C11.9,124,11.5,123.4,11.3,122.9z"/>
	<path class="st0" d="M4.4,63.6c0-0.2,0-0.4,0-0.6C4.4,63.1,4.4,63.3,4.4,63.6C4.4,63.5,4.4,63.6,4.4,63.6z"/>
	<path class="st0" d="M3.1,105.1L3,104.7c-0.1-0.1-0.2-0.2-0.3-0.2L3.1,105.1z"/>
	<path class="st0" d="M0.2,90.2c0,0.3,0.4,0.4,0.6,0.5c-0.2-0.2-0.3-0.4-0.4-0.7C0.4,90.1,0.3,90.1,0.2,90.2z"/>
	<path class="st0" d="M2,66.5l0-0.4C2.1,66.2,2.1,66.3,2,66.5z"/>
	<path class="st0" d="M6.8,115.3c0,0-0.1,0.1-0.1,0.2C6.8,115.4,6.8,115.4,6.8,115.3z"/>
	<path class="st0" d="M18.3,35.6C18.3,35.6,18.3,35.6,18.3,35.6C18.2,35.7,18.2,35.7,18.3,35.6z"/>
	<path class="st0" d="M7.9,49.3l0.1-0.2C7.9,49,7.8,49,7.8,49L7.9,49.3z"/>
	<path class="st0" d="M62.8,162.2C62.8,162.2,62.8,162.2,62.8,162.2C62.4,162.1,62.6,162.2,62.8,162.2z"/>
	<path class="st0" d="M160.8,99.2c-0.7,1.4,0-2.4-0.8-0.4C160.2,98.7,160.2,100.9,160.8,99.2z"/>
	<path class="st0" d="M4.3,63.9c0,0.2-0.1,0.4-0.1,0.6C4.2,64.3,4.3,64.1,4.3,63.9z"/>
	<path class="st0" d="M160,98.8L160,98.8l-0.1,0.2C159.9,99,160,98.9,160,98.8z"/>
	<path class="st0" d="M95.1,162.7c-0.1-0.1-0.2-0.1-0.4-0.1C94.8,162.6,94.9,162.7,95.1,162.7z"/>
	<path class="st0" d="M71.1,162.8l0.6,0.1C71.4,162.8,71.3,162.8,71.1,162.8z"/>
	<path class="st0" d="M107.1,159c0.3-0.1,0.4-0.1,0.8-0.3c0,0-0.1,0-0.1,0C107.7,158.9,107.5,158.9,107.1,159z"/>
	<path class="st0" d="M119,153.8c-0.1,0-0.2,0-0.3,0c-0.1,0.1-0.2,0.1-0.4,0.2L119,153.8z"/>
	<path class="st0" d="M47.2,11.6c-0.3,0-0.5,0-0.7-0.1C46.8,11.7,45.2,12.6,47.2,11.6z"/>
	<path class="st0" d="M4.2,63.5c0.1,0.1,0.1,0.2,0.1,0.4c0-0.1,0.1-0.3,0.1-0.4C4.3,63.5,4.3,63.5,4.2,63.5z"/>
	<path class="st0" d="M106.5,155.7l1.9-0.6C107.9,155.2,107.2,155.5,106.5,155.7z"/>
	<path class="st0" d="M131.5,22.5l-0.4-0.3C131.2,22.3,131.4,22.4,131.5,22.5z"/>
	<path class="st0" d="M113.8,152.7c0.4,0,0.8-0.1,1.1-0.2c0.1-0.1,0.1-0.1,0.2-0.2L113.8,152.7z"/>
	<path class="st0" d="M46.5,11.5L46.5,11.5L46.5,11.5z"/>
	<path class="st0" d="M35.8,19.1c1.5-1.1,0.4-1,0.6-1.5c1.8-1.4,1.1-0.2,1.9-0.4c0.5-0.4,1-0.9,1.4-1.4c0.4-0.4,0.8-0.8,1.3-1
		c0.1,0,0.3,0,0.2,0.2c1-1.2,3.9-2.2,5.2-3.5c0.1,0,0.2,0,0.3,0c-0.4-0.1-0.5-0.4-0.6-0.6c0.8-0.4,1.3-1,1.8-0.8
		c-0.5,0.2-0.5,0.4-0.6,0.6l0.8-0.5c1,0.1-1,0.7-0.9,1c0.8-0.4,1.6-1,2.3-1.5c0.8-0.4,1.5-0.8,2.2-1c0.4,0.4-2.8,1.3-1,1.1
		c-0.7,0.2-1.3,0.4-2,0.6c1.8,0.1-1.2,0.5,0.5,0.7c1.2-0.5,1.9-0.8,2.6-1.2c0.7-0.3,1.3-0.7,2.6-1.1c0.5-0.5-0.3-0.3,0.1-0.8
		c1.7-0.9,2.6-0.8,3.3-0.7c0.7,0.1,1.2,0.2,2.5-0.5c0.6-0.5,0.7-1.2,2.8-1.4l-0.5,0.7c2.6-0.6,1.3-1.2,4.1-1.3
		c-0.4,0.3-2,0.6-1.6,0.6c1.8,0.1,1.2-0.6,2.5-0.8l0.4,0.5c2.7-0.5,5.8-1.3,8.9-1.5c-0.2,0.2-0.7,0.3,0,0.5c1.9-0.3,4-0.2,6.1-0.1
		c2.1,0.2,4.1,0.4,5.9,0.8l1.5-0.3c0.3,0,0.6,0.3,0.2,0.3c1.4,0.4,0.1-0.3,0.8-0.3c0.8,0.1,1.1,0.4,0.5,0.5c2.6-0.1,7.4,0.5,10,1.7
		l-0.6,0c2,0.7,2.6-0.2,4.3,0.8l-0.4,0c4.3,1.6,9.2,3.3,12,5.5c0.4-0.1,1.4,0.5,2.4,1c1,0.5,1.8,1.1,2.2,0.8c2,1.8,1.3,1.5,4.2,3.8
		c0.8,0.6,1.5,0.4,2.6,1.1l-0.3,0.4l1.6,0.6c0.1,0.3,0.2,0.7,0.3,1l1,0.6c-0.3-0.3-0.6-0.8-0.5-0.8c0.8,0.5,1.5,1.3,2.1,1.9
		c0.6,0.7,0.9,1.3,0.8,1.4c1.1,0.9,2.3,1.7,3.3,2.7c-0.2,0.1-0.7-0.4-1.2-0.7c1.9,1.3-0.1,0.6,1.7,1.8c-0.1-0.3,0.3-0.1,0.4-0.1
		c0.3,0.5,0.8,1.1,1.4,1.9c0.6,0.7,1.3,1.4,1.9,2.1l-0.5-0.1c1.9,2.5,4.2,5.1,6.1,8.1c-0.6-1.1,0.1-1.2,0.7-0.4l-0.2,0.6
		c0.6,0.4-0.4-1,0.6,0c0.6,1.2,0,1.1-0.5,0.5l1,1.3c-0.1,0.2-0.3-0.1-0.5-0.1c0.6,0.4,1,2.6,1.9,3.2l-0.1,0.1c0.4,0.8,0.8,1.4,1.1,2
		c0.3,0.6,0.6,1.2,0.9,1.7c0.5,1.1,1.1,2.1,1.6,3.4c0.4-0.1,0.7,1,1.4,1.6c0.3,1,0.6,2.1,0.8,3.3c0.3,1.1,0.5,2.3,0.9,3.5
		c0.7,1.7,0.5,0.4,0.9,1.1c-0.3,0.2,0.3,2.7-0.3,1.5c0.4,1.5,0.6,2.4,0.9,3.5c0.1,0.5,0.3,1.1,0.4,1.7c0.1,0.7,0.3,1.4,0.5,2.4
		c0.1-0.4,0.1-0.9,0.3-0.7c0.2,0.7,0.1,1.6-0.1,1.5l-0.1-0.2c0.6,2.1,0.5,4.7,0.4,7.1c0,1.2-0.2,2.4-0.2,3.4c0,0.5,0,1.1,0,1.6
		c0,0.5,0,1,0.1,1.4l0-0.2c0.1,1.2,0.2,2.4,0.2,3.6c-0.2,1.6-0.2-1-0.5,0.2c0.1,1,0.1,1.8,0,2.6c-0.1,0.8-0.2,1.5-0.3,2.2
		c-0.2,1.4-0.6,2.7-0.7,4.3c-0.2,0.3-0.4,0.6-0.5,1c-0.2,0.4-0.3,0.8-0.5,1.3c-0.3,0.9-0.5,2-0.8,3.1c-0.3,1.1-0.6,2.2-0.9,3.3
		c-0.4,1-0.8,2-1.2,2.7l0.3-0.1c0,0.9-0.5,0.9-0.8,1.5c0.2,0,0.6-0.8,0.5-0.2c-1.2,3.4-2.9,6.8-4.9,10c-2,3.2-4.3,6.2-6.7,9.1
		c-1.7,2.1,0.1,2.1-2.6,4.3l0.3-1.1c-3.1,4.6-7.8,8.1-11.8,11.7c0.2-0.3,0.1-0.4,0.5-0.7c-1.1,0.4-3.4,2.5-3.2,2.7
		c-0.7,0.4-0.3-0.1-0.8,0c-1.1,0.4-2.1,2-2.9,2c-0.1,0,0.2-0.3,0.4-0.4c-0.5,0.5-3,1.7-2.2,1.7c-0.9,0.4-1.8,0.9-2.5,1.4
		c-0.8,0.4-1.5,0.9-2.3,1.1c-0.8,0.9-3.2,1.3-3.3,2c-0.1-0.7-3.5,0.9-4.6,1.5c0.3-0.3-1.1,0.2-0.7-0.3c-1.4,0.5-2.6,1-2.3,1.3
		c-2.8,0-5.1,2.1-6.8,1.4c-4.1,1.3-8.1,2-12,2.4c0.1-0.4,1.1-0.4,2.2-0.5c1-0.1,2-0.2,1.9-0.6c-0.9,0.2-1.7,0.3-2.5,0.5
		c-0.8,0.1-1.5,0.3-2.2,0.4c-1.4,0.3-2.9,0.4-4.8,0.3c-1-0.1,0.5-0.3,0.9-0.4c-1.9,0.2-3.6,0-5.4-0.1c-0.9-0.1-1.7-0.2-2.6-0.2
		c-0.8,0-1.7-0.1-2.5-0.1c0-0.1,0.4-0.1,0.7-0.1c-0.6-0.1-1.5-0.3-1.5,0l0.6,0c1,0.6-2.7,0.5-2.9,0.8c1.2-0.7-3.2-0.9-1.2-1.6
		c-0.4,0-1,0-0.9,0.2c-0.6-0.2-0.8-0.3-0.1-0.4c-1.2-0.1-1.6-0.1-1.9-0.1c-0.4,0-0.7,0-1.7-0.2c0-0.1,0.5-0.1,0.7-0.2
		c-1.1,0-2.2,0.1-3.9-0.6c0.1-0.1,0-0.2,0.5-0.1c-1.5-0.4-2.8-0.6-4.1-1c-1.3-0.3-2.7-0.7-4.2-1.5c1.2-0.2-1-0.6-0.9-1.2
		c-0.6-0.2-1.1-0.4-1.7-0.6l0.5,0.6c-1.4-0.7-2.9-0.9-4-1.7c0.4,0.1,0.8,0.2,1.2,0.3c-0.9-0.4-1.8-0.9-2.7-1.3l1.4,1
		c-1.6-0.5-0.2,0.7-2-0.5c0.4,0.2-1.4-0.8-1.9-1.5l0,0c-0.8-0.3-1.6-0.5-2.5-1.3c-0.2-0.3,0.5-0.4,0.4-0.6c-0.9,0-3.2-2-4.2-2.2
		c0.3,0.1,0.5-0.1,0.5-0.2l-0.7-0.1c-0.5-0.5-0.6-0.7-0.3-0.8c-1.7-1.4,0.1,1-1.8-0.8c0.2,0.1,0.1,0,0.5,0.2c-2-1.8-4.1-3.1-5.8-4.9
		c-0.1-0.9,1.7,1.3,1.4,0.4c-2.7-2.2-5.6-4.6-7.7-7.3l0.3,0.5c-0.9,0.1-1.3-2.2-2.6-3.3c0.3,0.3,0.7,0.2,0.5,0.1
		c-0.6-1-1.4-1.9-2.2-2.9c-0.8-1.1-1.8-2.2-2.8-3.7l0.4,0.3c-0.5-1.3-1.8-3.1-2.3-4.5c-0.4-0.3-0.7-1.1-0.8-0.5
		c-0.1-0.6-0.3-1.1-0.5-1.6c-0.2-0.5-0.4-1-0.6-1.5c-0.4-1-1-1.9-1.5-2.9c-0.5-0.9-1-1.9-1.3-2.8c-0.4-1-0.6-2-0.7-3
		c0.2,0.5,0.6,1,0.4,0.7c-0.5-1.1-0.8-2.2-1.2-3.2c-0.3,0.4-0.1,0.5-0.1,1.3c-0.3-0.4-0.8-1.3-1-2.1c0.7,1.4,0.5-0.2,0.5-0.9
		c-0.1,0.1-0.2-0.1-0.3,0c0.2-1.9-0.7-0.1-0.9-2.6l0.2,0.1c-0.3-0.9-0.7-1.7-0.8-2.7c0.3-0.5,0.4,0.9,0.7,0.9
		c-0.3-1.4-1.3-2.6-1.1-3.9c0.2,0.6,0.3,1.4,0.6,2c0.2-1.4,0.1-1.6,0-2.6l0,0.1c0-0.8-0.1-1.6-0.1-2.4c0,0.2,0,0.4-0.1,0.6
		c-0.6-0.8-0.8-1.7-0.9-2.7c0-0.5-0.1-1-0.2-1.5c-0.1-0.5-0.2-1.1-0.4-1.7c0.8,2.3,0.4,0.4,0.9,0.5c0.1-0.6,0.2-1.5,0.3-1.3
		c-0.4-1.1,0.2-1.8-0.3-3.4c0.1-0.1,0-1.2,0.4-0.9c-0.1-1.4-0.3,0.3-0.4,0.2c-0.5-2.3,0.8-5.2,0.4-8.4c0-1.4,0-2.2-0.1-3
		c-0.1-0.8-0.1-1.6,0-2.9c0.4-0.8,0.4,0.8,0.4,0.8c0.5-1.3,0.6-2.4,0.8-3.7c0.1,0.3,0.2,0,0.5-0.3c0.2-1-0.3-0.8,0.2-2.1
		c0.1,0.3,0.3,0.6,0.3,1.2c0.1-0.6,0.1-1.2,0.2-1.9c0.1-0.6,0.2-1.3,0.3-1.9c0.3-0.3,0.1,0.9,0.2,1.3c0.3-1.4,0.9-3.7,0.7-4.2
		l-0.5,0.8c0.2-0.5,0.4-0.1,0.4,0.2c-0.1,1.3-0.7,1.7-0.8,1.7l0.2-0.9c-0.5,0.3-0.8,1.2-1,2.3c-0.2,1-0.2,2.2-0.4,3.1l-0.4-0.9l0,2
		C3,65,2.6,65.2,2.7,64.3c-0.6,1.2,0,1.2-0.6,2.3C2.1,66.6,2,66.6,2,66.5L2,67.8c-0.1-0.3-0.5,0.1-0.2-0.6c-0.4,1.1-0.4,2.1-0.5,2.9
		c0,0.8,0,1.4-0.3,1.8l0-0.2c-0.2,3.3,0.4,0.4,0.7,2.9L0.4,76l0.4,0.4c0,0.3-0.1,1-0.3,0.9C0.8,78.5,0.7,77,1,77.8
		c-0.2,0.8-0.3,1.9-0.3,2.9c0,1,0,1.8-0.4,1.9c0.3,0.6,0.3-1.6,0.5,0.2c-0.4,0.2-0.4,0.8-0.3,1.4c0.1,0.6,0.3,1.4,0.1,2.1
		c-0.4-0.4-0.3-1.9-0.6-0.4c0.4,0.4,0.4,1.2,0.3,1.9c-0.1,0.8-0.1,1.6,0,2.2c0.3,0,0.4,0.7,0.5,1.6c0.1,0.9,0.3,2.1,0.5,3.1
		c-0.2-0.1,0.4,4,0.7,5.9l-0.1,0c0.6,0.2,1,2.2,1.5,3.6c-0.3,0-0.5-0.2-0.9-0.9c0.1,0.4,0.3,0.9,0.4,1.3c0.3,0.3,0.5,0.7,0.8,1.5
		L3.3,106c0.3,0.9,0.7,1.7,1.1,2.6c0.4,0.9,0.8,1.9,1.1,3.1c0.4,0,0.3-2.1,1.5,0.1c-0.2,0.2-0.5,0.4-0.8-0.2
		c0.1,0.2,0.4,0.6,0.5,1.1l-0.7-0.8c0.3,1.1,0.5,0.4,0.8,1.2c-0.3,0.1,0,0.7-0.2,0.6c-0.1-0.2-0.2-0.7-0.4-1
		c0.3,0.9,0.6,2.1,0.6,2.5c0.1-0.1,0.4-0.2,0.7,0.5c0.8,1.7-0.1,0.7,0.3,1.8c0.4,0.3,0.7,1.5,1.1,1.3c0.2,0.5,0.1,0.7,0.1,0.9
		c0.3,0.4,0.8,1.4,1.3,2.1c0.5,0.7,0.9,1.2,0.8,0.6l-0.1-0.2c0,0,0.1,0.1,0.1,0.1c0,0,0,0,0,0l0,0c0.5,0.6,0.9,1.3,1.3,2
		c0.4,0.7,0.8,1.4,1.2,2.1c0.8,1.4,1.7,2.8,2.6,4l-0.1,0.1c0.6,0.7,1.3,1.5,1.9,2.2c0.6,0.7,1.2,1.4,1.8,1.8
		c0.4,0.4,0.6,1.1,0.4,1.1c1,1,1.2,1,2.5,2.6c-1.2-0.8,0.2,0.5-1.2-0.9c1.2,1.4,1.3,1.9,3,3c-0.8-0.2,0.7,1.3,1.4,1.8l-0.8-1.1
		c0.8,0.6,1.4,1.2,2,1.9l-0.7,0c1.2,1.5,2.7,2.4,4.1,3.2c1.4,0.8,2.6,1.6,3.6,2.8c1,0.3-1.6-1.4-0.6-1.2c1.4,1,2.5,2.7,3,3
		c1.9,1.5,2.3,0.6,4.3,2c-0.2-0.3-0.2-0.9,1.5-0.1c1.5,0.9,1.5,1.7,0.5,1.3c-0.4-0.2-0.5-0.3-0.5-0.4c-0.5-0.2-1.2-0.5-0.7,0l0.3,0
		c0.3,0.3,1,0.7,1.6,1.1c0.5,0.3,0.9,0.6,0.6,0.6c1.3,0.4,0.6,0-0.2-0.5c1.9,1.2,3.1,1.6,5.2,2.6c-0.3-0.2-0.5-0.6-0.2-0.4
		c3,1.5,1.5,0.3,3.6,1c1.1,0.7-0.7,0.4,1.6,1c1.3,0.7,0.1,0.5-0.5,0.5c0.5,0.1,1,0.2,1.5,0.4c0.5,0.1,0.9,0.3,1.3,0.5
		c0.8,0.4,1.5,0.7,2.1,0.9l-1.1-0.2c0.7,0.1,1.2,0.3,1.7,0.4c-0.2-0.2-0.3-0.3-0.5-0.5c0.6,0.3,1.2,0.4,1.1,0.5
		c0.7-0.1-0.3-0.7,1-0.7c0.8,0.4,2.6,0.5,2.8,1c-2.6-0.8,0.2,0.5-2.1,0.1c0.4,0.1,1,0.2,1.6,0.4c0.1,0.1-0.1,0.1-0.3,0.1
		c2.5,0.9,1.3-0.3,4,0.3c-0.4,0.2,0.5,0.6,1,0.6c-1.1-0.2-0.4-0.5,0.6-0.6c1.7,0.5,1.9,0.1,2.8,0.3l-1-0.2c0.4-0.2,1.2,0,2.4,0
		c0.1,0.2-1.1,0-0.7,0.2c1.4-0.4,3,0.8,4.9,0.6c0.9,0.2,0.1,0.5,0.8,0.7c2.1-0.2,2.3,0.4,4.5,0.1c-0.6-0.4-0.7-0.3,0.8-0.6l-3.6,0.3
		l2.3-0.5c-1.1,0-2.3,0.3-3,0.1c1.1-0.2,1-0.2,0.5-0.5c1.5,0.5,2.9-0.3,4.7,0l0,0.9c1.3,0.1,2.5,0,3.7-0.3c1.2-0.3,2.6-0.5,4.3-0.6
		c-0.4,0-0.7,0-1.1,0c0.4-0.4,2.1-0.3,3.1-0.6c-0.1,0.3,0.6,0.3,1.1,0.4c-0.1-0.2,2.4-0.5,2.6-1.1c0.5,0,1,0.1,1.6,0.1
		c2.7-0.5,2.8-1.5,5.3-2.2c-0.7,0.5,0.5,0.4-1.1,1.1c0.8-0.2,1.6-0.4,1.6-0.6c0.3,0,0.8-0.2,1.4-0.5c0.6-0.3,1.2-0.6,1.6-0.6
		c0.3-0.2,0.3-0.6,1.2-0.9c0.1,0,0,0.1,0,0.1c0-0.1,1.4-0.7,0.4-0.7c2.8-0.1,6.9-2.9,9.2-3.4c1.7-0.9,3.6-2.2,5-3.1
		c0,0.1,0.1,0.1-0.2,0.3c2.1-1.1,0.8-1.5,3.2-2.7c1.4-0.4-1,1-0.2,0.7c0.9,0.6,2.6-2,4.4-2.7l-0.3,0.3c1.3-0.6,2.5-2.4,4.2-3.9
		c0,0,0,0.1,0.1,0.1c0.4-0.7,1.2-1.6,1.9-2.5c0.8-0.9,1.7-1.8,2.3-2.7c-0.2,0.8-0.5,0.9,0,0.8c0.6-0.8-0.6-0.2,0.6-1.7
		c0.6-0.3,1.7-1.2,2.1-1.1c-0.4,0.5-0.8,0.9-1.2,1.4c0.5-0.2,0.9-0.6,1.3-1.1c0.3-0.5,0.6-1,1-1.4l0.1,0.2c1.8-2.2,1.3-2.7,3.2-5
		l-0.3,0.1c0.5-1.7,1.1-0.9,1.7-2.6l0.8-0.1c0.3-0.5,0.7-1.4,1.1-2.4c0.4-1,1-2,1.4-2.9c-0.1,1.2-1.2,3.3-1.7,4.6
		c0.6-0.9,1.9-3.2,2-3.8c-0.2,0.4-0.3,1-0.6,1.3c0.3-1.4,0.9-3,2-4.9c0.9,0.9,2.7-4.9,4.1-6.1c0.1-0.5,0.3-0.9,0.5-1.4
		c0.1-0.5,0.3-0.9,0.5-1.4c0.3-0.9,0.7-1.8,1.1-2.8c0.7-1.9,1.4-3.8,1.9-6c-1.3,1.3,0.3-1.3-0.7-1.2c0.2-1,0.3-1.4,0.3-1.5l1.1-3
		c0.4-0.7,0,1,0.2,1c0.5-2.3,0.5-0.9,1-2.4c-0.4,0.3-0.3-0.9,0-2.2l-0.7,1.8c0-1.6,0.3-2.3,0.5-3c0.3-0.7,0.5-1.4,0.4-3l0.2,1
		c0-1.7,0.3-6.2-0.4-7.8c0.1-0.3,0.4-0.7,0.4,0c0.1-4-1.2-8.8-1.3-11.9l0.3,0.3c-0.2-0.7-0.6-1.2-0.6-2.2c0.1,0,0.3,0.3,0.2-0.1
		c-0.2-0.4-0.8-1.9-0.8-2.8l0.4,0.8c-0.2-1.9-0.8-3.3-1.3-4.7c-0.6-1.3-1.2-2.5-1.8-4c0.6-0.2-0.1-3.2-0.6-4.6l0.1,0
		c-1.6-4.3-3.6-6.8-5.8-10.3c-0.6-2.7-4.4-7.6-6.7-11.1c0.3,0.6-0.5,0.2-1-0.3c-0.5-0.9-2.1-1.7-1.5-2l0.2,0.3
		c0-0.9-1.5-2.4-2.6-3.5l-0.8,0.4c-1-1.9-3-3.7-5-5.2c-1-0.7-1.9-1.5-2.7-2.1c-0.8-0.6-1.4-1.2-1.7-1.7c-0.9-0.5-1.9-1.1-2.8-1.5
		l0.3-0.3c-1.1-0.8-1.9-1.4-2.9-2c-1-0.6-1.9-1.3-3.5-2l0.8,0.1c-1.7-0.9-2.7-0.1-4.3-0.9l-0.2-0.8c-1.5-0.7-3-1.6-4.5-2.3
		c-0.8-0.4-1.5-0.7-2.3-1c-0.8-0.3-1.6-0.5-2.4-0.6c0.1-0.1,0.2-0.2,0.8,0c-1.4-0.6-5.7-2.3-5.4-1.3c0.1-0.6-3.3-0.9-5.1-1.1
		l0.4-0.4c-1.6,0.2-1.7,0.4-3.8,0.1c-0.5-0.1-0.4-0.4,0.3-0.2c-1.6-0.5-1.3,0.2-3.3-0.3l0.8-0.2C90.9,1.6,91,1.7,90,1.9
		C89,2,86.8,1.5,86.6,1.1c-0.2,0.2-1.2,0.5-2.2,0.3c-0.1-0.1,0.2-0.2,0.4-0.3c-1.4-0.2-2.5-0.1-3.5,0c-1,0.1-1.8,0.2-2.8,0
		c0-0.1-0.2-0.2-0.3-0.2c2.3-0.1,4.1,0,3.9,0c0-0.4-1.9-0.5-0.4-1c-0.8,0.1-1.8,0.4-2.8,0.6c-1,0.2-2.1,0.4-3,0.3
		c-0.1,0-0.2-0.1-0.2-0.1l0.2-0.1c-0.4,0-0.8,0-1.1,0.1c-0.6,0-0.9,0-1.5,0c-0.2-0.3-2.1,0-3.1,0.1c0.1,0.4-1.1,0.5,0.1,0.7
		c-0.1,0,0.2-0.1,0.8-0.2c0.1,0,0.3,0,0.4-0.1c0,0,0,0-0.1,0c0.6-0.1,1.4-0.2,2.3-0.3c-0.7,0.3-1.4,0.5-2.5,0.4
		c-0.4,0.3-0.9,0.7-1.2,0.9c-1.3-0.4-3.8-0.4-4.2-0.6c-1.4,0.4-3,0.7-4.4,1.2c-0.7,0.2-1.4,0.5-2,0.7c-0.6,0.3-1.1,0.6-1.5,0.9
		c-0.7,0.3-0.9,0-1.3,0c0.4-0.2,0.9-0.4,1.2-0.5c-1.5,0.6-4.5,1.5-4.6,2.2c-2,0.4,0.9-0.9-1.7,0.2l0.3-0.3c-1.3,0.3-2.5,0.7-3.6,1.3
		c-1,0.6-2,1.2-3,1.8c-1,0.6-1.9,1.3-3,1.9c-1.1,0.6-2.2,1.3-3.7,1.8c0.4-0.2,0.6-0.2,0.7-0.2c-0.8,0.4-1.5,0.8-2.3,1.3
		c-0.7,0.5-1.5,0.9-2.2,1.4c-1.4,1-2.8,2.1-4.2,3.2c-2.7,2.2-5.2,4.6-7.9,6.7c-1.4,1.3-1.3,1.7-1.9,2.7l-0.6,0
		c-0.3,0.6-0.6,1.2-0.9,1.9c-0.4,0.6-0.8,1.1-1.3,1.5c-0.5,0.5-0.9,0.9-1.4,1.3c-0.5,0.5-1,0.9-1.5,1.5c-0.5,0.6-0.9,1.3-1.2,2.1
		l0.5-0.2c-0.4,0.5-0.9,1.4-1.4,2.1c-0.4,0.7-0.8,1.2-0.9,1.1c0,0.1,0.1,0.5-0.3,0.9l-0.2-0.1c-0.5,1-0.8,2-1.2,2.9
		c-1.3,2.1-0.7-0.8-2.4,2.4c-0.5,1.3-1,3.7-0.7,3.3c0.2-0.5,0.7-1.2,1-1.1l-0.4,1.1c0.5,0.5,0.8,1.6,2.5-0.8l0.5-2l0.6-0.4
		c-0.3,0.5-0.5,1-0.7,1.5c0.7-0.7,0.7-1.4,0.9-2.1c0.2-0.1,0.5-0.2,0.7-0.6l0.4-2.1c0.4-0.1,0,1,0.8,0c0.2-1-1,0.5-0.4-1
		c0.8-0.7,0.9-0.3,1.2-1.4c0.2,0,0.2,0.2,0,0.7c0.3-1,1.4-2.3,1.4-2.9c0.4-0.3,0.9-1,1.3-1.6c0.4-0.6,0.8-1,1.1-0.8
		c0.1-0.3,0.7-1.7,1.2-2.5c-0.5,1.8,2.3-2.6,2.6-1.7c0.1-0.7,0.8-1.6,1.7-2.5c0.4-0.5,0.8-1,1.3-1.4c0.4-0.5,0.8-0.9,1.2-1.4
		c0,0.1-0.1,0.4-0.3,0.5c0.9-0.8,1.3-0.9,2-1.4c-0.3-0.5,1.1-1.9,1.6-2.9c1.5-0.6-0.3,1.1,0.5,1.2c-0.2-0.2,0.2-0.7,0.6-1.2
		c0.4-0.5,0.8-0.9,0.4-0.9c1.1-0.5,0.9-0.5,1.7-0.5c-0.3-0.7,0.8-0.8,1.3-1.7c1.6-0.7,0.8,0.3,2.1-1C37,17.9,35.8,19.1,35.8,19.1z
		 M76.6,3.5L76.6,3.5c-0.4,0-0.7,0.1-0.9,0.1C75.9,3.5,76.2,3.5,76.6,3.5z M80.4,3.3c-0.5,0-1,0-1.6,0c-0.1-0.1,0-0.3,0.4-0.3
		C78.9,3.1,79.8,3.2,80.4,3.3z M72.1,0.9c0.6-0.1,0.8-0.1,0.9,0c-0.3,0-0.6,0.1-1.1,0.2c0,0-0.1,0-0.1,0.1C72,1,72,0.9,72.1,0.9z"/>
	<path class="st0" d="M71.1,1.5c-0.1,0-0.1,0-0.2,0.1c0.1,0,0.3,0,0.4,0.1c0.1-0.1,0.1-0.1,0.2-0.2C71.3,1.5,71.2,1.5,71.1,1.5z"/>
	<path class="st0" d="M11.1,122.4L11.1,122.4c0,0,0-0.1,0-0.1C11.1,122.4,11.1,122.4,11.1,122.4z"/>
	<polygon class="st0" points="128.1,20.1 128.2,20 127.9,19.8 	"/>
	<path class="st0" d="M4.4,102.6c0,0,0-0.1,0-0.3C4.4,102.3,4.4,102.5,4.4,102.6z"/>
	<path class="st0" d="M2.7,93.8l0-1.3C2.7,93.1,2.7,93.5,2.7,93.8z"/>
	<path class="st0" d="M2.2,87c-0.1-0.1-0.1-0.1-0.2-0.1c0,0,0,0,0,0L2.2,87z"/>
	<path class="st0" d="M71,159.9c0.1,0,0.2,0,0.3,0C71.9,159.9,71.4,159.9,71,159.9z"/>
	<path class="st0" d="M40.2,150.3c0.3,0.1,0.7,0.2,1,0.4C40.7,150.3,40.3,150.1,40.2,150.3z"/>
	<path class="st0" d="M106.3,155.8C106.3,155.8,106.3,155.8,106.3,155.8c0.1,0,0.1,0,0.2-0.1L106.3,155.8z"/>
	<path class="st0" d="M42.5,151.4c-0.5-0.4-0.9-0.6-1.3-0.7C41.6,150.9,42.1,151.2,42.5,151.4z"/>
	<path class="st0" d="M6.1,57.7l0.1-0.3c0,0,0,0-0.1-0.1L6.1,57.7z"/>
	<path class="st0" d="M6.2,57.4L6.3,57C6.2,57.2,6.2,57.3,6.2,57.4z"/>
	<path class="st0" d="M6.4,56.2L6.3,57C6.4,56.7,6.5,56.4,6.4,56.2z"/>
	<path class="st0" d="M3.6,66.4l0.1,0.1C3.7,66.5,3.7,66.5,3.6,66.4z"/>
	<path class="st0" d="M3.2,69.2c0.1-0.6,0.6-1.6,0.7-2.5l-0.1-0.1C3.9,67,3,68.5,3.2,69.2z"/>
	<path class="st0" d="M0.2,80.6c0.1-0.8,0.1-1.6,0.2-2.4C0.2,78.6,0,79.2,0,78.1C-0.6,81,0.4,77.5,0.2,80.6z"/>
	<path class="st0" d="M0.1,87.9c-0.1-1.3-0.2,0-0.3,0C0,88.7,0.1,88.9,0.1,87.9z"/>
	<path class="st0" d="M20.5,136l-0.4,0.2C20.8,136.9,20.2,136.1,20.5,136z"/>
	<path class="st0" d="M29,141.7c-0.2-0.3-0.4-0.5-0.5-0.8l-0.6,0C28.2,141.2,28.6,141.4,29,141.7z"/>
	<polygon class="st0" points="31.9,147.6 31.5,147.3 32.9,148.2 	"/>
	<path class="st0" d="M117.1,155.3l-0.5-0.3C116.1,155.3,116.2,155.9,117.1,155.3z"/>
	<path class="st0" d="M146.2,130.2c0.5-0.2,1.2-1,1.4-1.7C147.1,129.2,146.4,129.8,146.2,130.2z"/>
	<path class="st0" d="M138.3,23.8l0.7,0.4c-0.4-0.3-0.7-0.7-1.1-0.9C137.9,23.4,138.1,23.6,138.3,23.8z"/>
</g>
</svg>
