<svg id="Layer_1" data-name="Layer 1" xmlns="http://www.w3.org/2000/svg" viewBox="0 0 140.2 140.2"><defs><style>.cls-1{fill:#f3765a;}</style></defs><title>Artboard 2</title><path class="cls-1" d="M59.86,29.7c0-.09,0-.27-.15-.21v.34Z"/><path class="cls-1" d="M59,29.27A.85.85,0,0,0,59,30c.06-.34.12-.21.17-.61.1-.07.21.06.22.18,0-.09.19,0,.2-.18-.2-.22-.38-.19-.52.06A.3.3,0,0,1,59,29.27Z"/><path class="cls-1" d="M49.34,30.42l0,.09A.19.19,0,0,0,49.34,30.42Z"/><path class="cls-1" d="M48.93,24a.07.07,0,0,0,.08.06S49,24,48.93,24Z"/><path class="cls-1" d="M49.19,22.83l0,.07S49.21,22.85,49.19,22.83Z"/><path class="cls-1" d="M49.34,30.42l.09-.2C49.32,30.29,49.36,30.34,49.34,30.42Z"/><path class="cls-1" d="M57.7,30.38a.3.3,0,0,0,.07-.11l-.08.05Z"/><path class="cls-1" d="M51.08,30.23h.06s0-.09,0-.14Z"/><path class="cls-1" d="M53.3,29.68s0,.28,0,.41a.27.27,0,0,1,.07-.22A.76.76,0,0,0,53.3,29.68Z"/><path class="cls-1" d="M57,29.38l0-.06Z"/><path class="cls-1" d="M50,30.41l0-.12A.56.56,0,0,0,50,30.41Z"/><path class="cls-1" d="M60.76,26.29h0S60.76,26.3,60.76,26.29Z"/><polygon class="cls-1" points="59.64 29.06 59.62 29.03 59.46 29.04 59.64 29.06"/><path class="cls-1" d="M49.35,20.7h0C49.38,20.76,49.37,20.73,49.35,20.7Z"/><path class="cls-1" d="M48,4c-.19-.25.08-.32-.17-.6C47.82,3.48,47.8,3.81,48,4Z"/><path class="cls-1" d="M57.63,30.35l-.09,0A.12.12,0,0,0,57.63,30.35Z"/><path class="cls-1" d="M47.79,3.37h0l0,0Z"/><path class="cls-1" d="M48.73,15.87a.29.29,0,0,0-.11.06A.24.24,0,0,0,48.73,15.87Z"/><path class="cls-1" d="M48.67,19.52l0-.1A.22.22,0,0,0,48.67,19.52Z"/><path class="cls-1" d="M48.16,14s.06-.07,0-.13l0,0S48.2,14,48.16,14Z"/><path class="cls-1" d="M48,12.08l0,0,0,.06Z"/><path class="cls-1" d="M60,20.38a.88.88,0,0,1-.24.11C60,20.44,60.08,20.72,60,20.38Z"/><path class="cls-1" d="M57.66,30.22c0,.07,0,.11,0,.13l.06,0A.15.15,0,0,0,57.66,30.22Z"/><path class="cls-1" d="M46,14.16v-.32A1.12,1.12,0,0,0,46,14.16Z"/><path class="cls-1" d="M58.57,6.4l0,.07S58.61,6.42,58.57,6.4Z"/><path class="cls-1" d="M45.84,12.93a.57.57,0,0,0,.17-.19.15.15,0,0,0-.07,0Z"/><path class="cls-1" d="M59.78,20.49Z"/><path class="cls-1" d="M60.65,22.47c0-.3-.37-.11-.59-.15-.14-.34.25-.19.43-.33-.12-.21-.48-.34-.48-.51.06,0,.08-.05.16,0-.32-.2-.08-.69-.48-.92l.09-.05a1.76,1.76,0,0,1-.5.1c0-.13-.26-.23,0-.3,0,.08.1.08.17.11l-.11-.13c.33-.16.13.18.39.15-.14-.26-.46-.54-.38-.76.33-.08.16.47.44.17l-.1.33c.51-.3,0,.2.53-.08,0-.43-.22-.46-.17-.89-.19-.07-.27.06-.47,0-.4-.57.8-.56.31-.95-.24-.1-.67-.1-.47-.43l.39.07c0-.42-.57-.18-.36-.64.16.07.16.31.2.25.27-.31-.24-.18-.26-.39L59.7,17c-.09-.43-.39-.88-.5-1.36.11,0,.22.09.31,0a3.28,3.28,0,0,1,.06-1.91l-.32-.19s.12-.11.19-.06c.08-.24-.19,0-.32-.09s.15-.19.25-.12c-.29-.37-.65-1.09-.38-1.55l.1.08c.08-.34-.64-.31-.4-.65l.06,0c0-.72-.29-1.49.09-2.08-.43-.06.12-.73-.47-.72.24-.44.36-.33.5-.93,0-.15-.39-.19-.47-.37l.3,0-.34-.22.35-.18-.1-.17a.23.23,0,0,1-.21.16c-.17-.26.15-.7.3-.72l-.32-.63c.12,0,.18.1.26.18-.35-.32.32-.09,0-.39-.07,0-.19,0-.25,0a.82.82,0,0,0,0-.81l.22,0a1.41,1.41,0,0,0,0-.2l0-.36c0-.23-.07-.47-.11-.72-.08-.48-.17-.94-.22-1.44,0,.45-.4.67-.45.47L58,1.78l.07-.13c-.19.11-.12.14-.12.18s0,.08-.07.09l-.2.1c-.27,0,.06-.37.37-.47l-.52.11c0-.1.18-.15.3-.27-.17.1-.31,0-.49,0a.6.6,0,0,0-.61.07V1.32H56l-.5,0a5,5,0,0,1-.59.07c0,.28-.19.22-.32.45a3.49,3.49,0,0,0-1.1-.29c-.27.14-.08.24-.2.41,0-.26-.42-.23-.21-.42a4,4,0,0,0-1.22.26C52,2,52,2,52,2.09s-.25-.11-.23-.23l0,0c-.68.39-1.57-.74-2.11-.21l0,0-.56.28c-.26,0,.16-.2,0-.35-.66.42-.81-.07-1.74.22-.63-.53-1.69-.28-2.51-.26a1.4,1.4,0,0,1-.08.88l.19.07c.2.35-.09.22-.11.4.14,0,.14-.18.26,0a11.4,11.4,0,0,1,.19,1.5v.58l0,.44c-.05.6-.16,1.21-.18,1.8,0,.43.94.15.56.73l-.34-.12c.47.82.15,1.75.56,2.56-.08,0-.18,0-.18-.12-.23.2,0,.66.24.64,0,.14-.17.05-.27.14s.35.42.12.54c0,0-.08-.05-.1-.08s0,.55.28.41c-.1.33.18.59,0,.86.33.13-.1.55.35.56-.46,0-.32.59-.09.77-.14-.06-.12.18-.32.12,0,.23.13.43.36.37-.5.47.51.8-.16,1.1a10.65,10.65,0,0,1,.69,1.86c-.45,0-.11-.67-.57-.6.23.56.65.86.59,1.44,0,.16-.2-.06-.28-.11.24.56.06,1.12.36,1.61,0,0-.1-.05-.14-.1s0,.24.16.21l-.06-.09c.28-.19.65.34.81.35-.6-.12-.1.52-.86.31a.26.26,0,0,0,.28.11c0,.1-.11.14-.27.06.14.35.35.2.38.53-.1,0-.15-.06-.27-.08.21.15.42.3.36.58-.06,0-.13,0-.14,0,.07.47.59.76.45,1.3-.44-.11-.13.19-.49.25l.13.27.17-.13c0,.25.31.44.21.66l-.17-.16.11.45.12-.27c.21.23.47-.07.39.26,0-.06,0,.25-.19.4h0c.13.11.27.22.19.41s-.41,0-.49,0c.32.09.14.57.49.69a.51.51,0,0,0-.32,0l.26.08c-.07.12-.11.14-.26.14,0,.34.46-.16.29.27,0,0-.06,0-.1-.08-.07.42.23.78.14,1.16-.36.15-.12-.31-.42-.16.11.54.55,1.08.51,1.61l0-.1c.54,0-.22.41,0,.66,0-.07-.3-.06-.24-.05a.89.89,0,0,0,0,.28,2.63,2.63,0,0,0,.11.39c.09.28.21.55.32.83h-.14a8.1,8.1,0,0,0,0,1.21c.13-.06.13.13.29-.21l0,.07c.13.34.76.09,1.19-.13s.81-.44,1.21-.2c0,0-.17.16-.09.14l.5-.24c-.09-.21-.1-.12-.25-.27a.43.43,0,0,1,.29-.31c-.2.2.08.36.21.46,0-.06,0-.15,0-.22.37.34,0-.46.38-.27V31c.12-.09.22-.28.37-.28.12.25-.12.16-.08.38.21-.07.31-.59.55-.37-.07.09-.2.12-.27.21.28.26.28.18.45.19h0l.39.06-.11-.07c.11-.73.51-.24.76-.76-.25.49,0,.25,0,.55.11.07.27.13.25.22.11-.28.32.12.48-.28,0,.1.18,0,.2.22.2-.12-.09-.15-.1-.28.26-.4.88.22,1.26-.33.38-.28.38-.62.74-.87.16.13,0,.37,0,.37a.47.47,0,0,0,.57-.12c0,.1,0,.16.12.25s0-.37.27-.28a1.56,1.56,0,0,1-.08.42c.17-.13.32-.35.49-.48.09.16-.06.28-.1.4.2-.12.53-.27.54-.55l-.16-.06c.07,0,.09.21,0,.27-.14.25-.29,0-.32-.12l.12-.09c-.26-.53-.53.21-.82.24l0-.43-.22.4c-.08-.09-.17-.31,0-.4-.24-.16-.14.18-.36,0,0,0,0-.05,0-.07l-.17.16c0-.09-.1-.28,0-.25-.41-.15-.5.43-.7.16l0,0c-.45.25,0,.31-.27.74l-.41-.68,0,.31s-.15,0-.16-.12c-.14.25.06.12,0,.34-.3-.22-.63.27-.8-.19,0,.25.27.13.05.34-.19-.49-.28.15-.55,0,0-.28.25-.19,0-.37,0,.47-.45,0-.62.12.07.36-.37.24-.66.43,0-.12-.63-.06-1-.13v-.06c0,.37-.3.37-.5.49a.44.44,0,0,1,.08-.43l-.2,0a.39.39,0,0,1-.2.27v-.28c-.3.08-.43.43-.65.29-.08.28.22.68-.22.95a.8.8,0,0,1,.15-.47s-.13.14-.18.09a2.11,2.11,0,0,0,.18-.27c-.1-.09-.11.22-.22.22.06-.21,0-.14,0-.31s0,.07.11,0c-.1,0-.17-.12-.12-.28-.05.12-.12.3-.21.34s.08-.26.06-.36c-.13.17-.11,0-.36.38t0-.06l.14-.23c-.12.08-.07-.33-.35,0v.05h0c-.15-.06-.13-.32-.09-.54s.12-.35,0-.61h.1c-.14-.27-.13-.62-.36-.8a.26.26,0,0,1,.28-.18c-.09-.21-.2-.22-.07-.55.19.2.15-.09.15.21.06-.29.21-.36-.09-.64.26.08.3-.24.21-.36l-.16.21a1,1,0,0,1,0-.41l.34,0c.35-.61-.78-1-.15-1.46-.24-.13-.13.33-.42.22,0-.27.47-.59.47-.67.15-.37-.52-.29-.43-.67a.42.42,0,0,1-.56-.14c0-.27.47-.37.58-.21s0,.09-.06.09.11.19.23.08l-.12,0c.1-.14.06-.5.26-.43-.13-.19-.2-.07-.25.09.14-.36,0-.53,0-.89C49.11,23,49,23,49,23c.1-.52-.24-.2-.33-.54.17-.21.44,0,.26-.3.1-.22.31-.07.41,0-.26-.29.1-.6.12-.79l.11.16a.52.52,0,0,1-.08-.26l-.22.12c0-.1,0-.18.12-.19-.16-.09-.39.11-.62-.07.11-.14-.16-.38.15-.45-.07.41.31-.08.39.26a.28.28,0,0,1,0-.24.07.07,0,0,1,.09,0c.24-.42-.37-.15-.4-.55.18,0,.33-.13.28-.19,0,.16-.29.1-.44,0,.12-.28-.12-.28-.12-.41l-.05.16c-.18,0-.17-.17-.24-.35.13,0,.11.16.16.09-.33-.17.28-.49,0-.75.11-.14.34,0,.41-.16-.26-.3.21-.37,0-.68-.23.12-.17.13-.42-.08l.21.53L48.39,18c0,.16.19.33.15.43-.2-.14-.14-.13-.33,0,.33-.25-.25-.42,0-.7l.59,0c.23-.41-.36-.66-.26-1.18l-.09.17c-.24-.05-.06-.31-.17-.47.2,0,.26-.11.38-.19-.15,0,0-.37-.42-.38l.24-.25c.06-.42-.61-.41-.58-.81.23.09.35-.1.53.15,0-.13,0-.25-.12-.24.11-.09-.3-.34-.13-.48-.09,0-.3,0-.29-.19a.16.16,0,0,1,.09,0c-.09,0-.15-.22-.36-.07.58-.46-.14-1.13.35-1.53a6.25,6.25,0,0,1-.23-.87c.06,0,.1,0,.09,0,.15-.38-.59-.17-.42-.6.3-.23.19.21.3.06.64-.11-.14-.48.22-.79l0,.06c.2-.23-.29-.49-.28-.83a.19.19,0,0,0,.1,0,1.73,1.73,0,0,1-.62-1c.26.08.14.14.39,0-.05-.14-.4.08-.5-.2.13-.11.23-.34.5-.39l0,.28c.34-.18-.05-.36,0-.52h.16c-.09-.42-.48-.39-.5-.85l-.11.05c-.41-.21.2-.23-.11-.45l.38-.11a4.42,4.42,0,0,1-.53-.83c.31.14.49.47.68.67,0-.17-.08-.56-.28-.62,0,.06.15.13.09.2a.9.9,0,0,1-.53-.75c.76-.08.13-.71.74-.56-.16-.17-.14-.3-.08-.34s.32.15.39.13c-.41-.6.06,0-.22-.63.08,0,.13,0,.15,0a1.73,1.73,0,0,1,.32.36c.06.09,0,.13,0,.15a.16.16,0,0,0,0,.13s.15.08.15.16a.38.38,0,0,0,.14.26c-.05-.22.12-.32.32-.23l-.28-.29c.48-.32.42.52.9.19l-.15.2c.25-.12.92,0,1.16-.49,0,.07.1.24,0,.28.6.07,1.33-.52,1.79-.22L52,4c.11,0,.19-.28.33-.13s0,.15,0,.16.29-.27.44-.18L52.69,4c.58.19.89-.41,1.38-.51,0,.44.46.58.68.65v.06a1.51,1.51,0,0,0,.86-.18A.84.84,0,0,1,56,3.7c0,.16,0,.24,0,.28s0,.3-.16.41c.08,0,.34-.1.4,0s.34.37-.06.39v0c-.38.15-.25.44-.24.67h.53c-.7.69.45,1.57-.21,2,.15.13.17.32.31.45l-.28,0A3.13,3.13,0,0,0,56.36,9l-.21-.08c0,.29.85.28.89.54l-.41.12c.06.5-.26,1,.17,1.49-.06,0-.18,0-.21-.08,0,.24-.19.94.38.79-.38.05,0,.52.2.77h-.28c.38.19.48.19.61.49,0,.08-.22.09-.16,0-.12.26.29.16.17.48l-.19-.09c0,.26.1.23.32.35s0,.49-.27.56c.16,0,.38.14.32.3a.19.19,0,0,1-.19,0c-.14.45.39.61.15.93a.3.3,0,0,0-.17.07,2.19,2.19,0,0,1,0-.6c-.26,0-.28.31-.65.13.21.2.67.54.58.82l-.09,0,0,0a.15.15,0,0,0,.06.16.5.5,0,0,0-.05.23c-.21.06-.09.33-.08.47.28,0,.25.15.46-.05,0,0,0,0-.05-.11a.1.1,0,0,0,0-.05h0l-.06-.34c.16.1.29.2.15.37l.47.14c-.37.23-.55.62-.78.69.2.41.2,1,.75,1.19.08.12-.13.16-.21.21s-.06-.15-.14-.18c.16.23.12.71.5.73-.14.31-.36-.14-.26.27l-.11-.05c-.51.88,1.07,1.23.4,2.21,0-.06.06-.1.12-.12-.23,1.07.53,2.1.11,3.16-.08.3.16.31.35.47l-.29.09.37.27c.3.4-.66.81-.12,1.31l.19-.09c0,.2.18.6,0,.59,0,0,.21,0,.12.13l-.16,0,.32.45c-.08.38-.63,0-.61.55.08.2.52.53.61.44a.27.27,0,0,1,.24-.24l.1.18c.47,0,1,.08,1.23-.41l-.31-.28.21-.13,0,.27c.2-.17,0-.25-.14-.34a.41.41,0,0,0,.24-.16l-.48-.26c.18-.06.38.1.46-.12-.22-.12-.4.18-.55-.05.19-.17.37-.14.17-.3a.2.2,0,0,1,.25.06c-.15-.14-.1-.41-.35-.47.24-.18-.12-.52.32-.55-.11,0-.38-.24-.41-.38.55.21,0-.55.55-.53-.49-.15-.28-.69-.58-1,0,0,.12,0,.1.07,0-.19.16-.27.23-.4-.39,0-.51-.28-.77-.42.35-.27.48.1.83,0-.32,0-.36-.38-.61-.27.21-.21.09-.17.41-.3-.49,0-.1-.16-.42-.28.22-.29.45-.12.28-.39C60.45,22.23,60.65,22.47,60.65,22.47Zm-1.54-6.81h0l0,.14Zm-.06-.58a1.19,1.19,0,0,0,0,.26c-.09,0-.19,0-.19-.05S59,15.18,59.05,15.08ZM57.23,16.5c0-.08,0-.12.06-.14l.05.16h0A.57.57,0,0,1,57.23,16.5Z"/><path class="cls-1" d="M57.62,16.63s0,0,0,0l.06-.06-.09,0Z"/><path class="cls-1" d="M49.3,30.52h0l0,0Z"/><polygon class="cls-1" points="58.78 7.03 58.7 7.04 58.77 7.09 58.78 7.03"/><path class="cls-1" d="M51.66,31.41a.12.12,0,0,0,.06.06Z"/><path class="cls-1" d="M53,31.17l.21.06A.87.87,0,0,0,53,31.17Z"/><path class="cls-1" d="M54.1,31.08c0-.06,0-.09,0-.13h0Z"/><path class="cls-1" d="M46.8,19.76a.06.06,0,0,0,0,0C46.72,19.63,46.75,19.69,46.8,19.76Z"/><path class="cls-1" d="M47.92,24.72c-.05,0-.11-.1-.15-.15S47.76,24.73,47.92,24.72Z"/><polygon class="cls-1" points="45.95 14.19 45.95 14.19 45.95 14.16 45.95 14.19"/><path class="cls-1" d="M47.76,24.33a.23.23,0,0,0,0,.24A.29.29,0,0,0,47.76,24.33Z"/><path class="cls-1" d="M58.63,30.2h0s0,0,0-.05Z"/><path class="cls-1" d="M58.68,30.15l0,0A0,0,0,0,0,58.68,30.15Z"/><path class="cls-1" d="M58.83,30l-.11.1C58.77,30.1,58.82,30.09,58.83,30Z"/><path class="cls-1" d="M57.22,30.38v.1A.41.41,0,0,0,57.22,30.38Z"/><path class="cls-1" d="M56.81,30.5c.11,0,.3.15.42.06v-.08C57.2,30.64,56.87,30.31,56.81,30.5Z"/><path class="cls-1" d="M54.79,29.66h.37c-.08-.09-.2-.22,0-.28C54.61,29.16,55.26,29.6,54.79,29.66Z"/><path class="cls-1" d="M53.67,29.75c.18-.1,0-.16,0-.22C53.54,29.65,53.51,29.68,53.67,29.75Z"/><path class="cls-1" d="M49.33,28.33h.25C49.53,28.18,49.48,28.33,49.33,28.33Z"/><polygon class="cls-1" points="47.87 26.92 47.72 27.08 47.96 27.12 47.87 26.92"/><polygon class="cls-1" points="49.6 25.85 49.64 25.91 49.52 25.67 49.6 25.85"/><path class="cls-1" d="M48.26,12.41l-.31.07C48,12.58,48.37,12.56,48.26,12.41Z"/><path class="cls-1" d="M47.4,6.63c.16-.08.24-.25.08-.34C47.47,6.43,47.36,6.57,47.4,6.63Z"/><polygon class="cls-1" points="56.11 5.75 55.99 5.64 56.1 5.85 56.11 5.75"/><path class="cls-1" d="M40.75,34.4c0-.09-.14-.24-.22-.15l.12.32Z"/><path class="cls-1" d="M39.76,34.32a.85.85,0,0,0,.24.74c-.06-.34,0-.25,0-.64.08-.1.23,0,.28.08,0-.09.19,0,.13-.24-.27-.13-.44,0-.48.25C39.8,34.48,39.79,34.38,39.76,34.32Z"/><path class="cls-1" d="M32.35,33v.09A.14.14,0,0,0,32.35,33Z"/><path class="cls-1" d="M28.88,26.86a.08.08,0,0,0,.1,0C28.93,26.86,28.9,26.84,28.88,26.86Z"/><path class="cls-1" d="M28.57,25.65l0,.07S28.6,25.65,28.57,25.65Z"/><path class="cls-1" d="M32.35,33v-.21C32.24,32.79,32.32,32.87,32.35,33Z"/><path class="cls-1" d="M38.91,35.86a.28.28,0,0,0,0-.13l-.06.08Z"/><path class="cls-1" d="M34.18,35.47l0,.05.14,0Z"/><path class="cls-1" d="M35,36.5s-.09.38-.14.56a1.57,1.57,0,0,1,.11-.31Z"/><path class="cls-1" d="M37.83,35.21l0-.07Z"/><path class="cls-1" d="M33.35,34l.08-.07A.18.18,0,0,0,33.35,34Z"/><path class="cls-1" d="M40.56,30.8l-.05,0S40.56,30.82,40.56,30.8Z"/><polygon class="cls-1" points="40.31 33.88 40.28 33.85 40.13 33.9 40.31 33.88"/><path class="cls-1" d="M27.74,23.58h0C27.8,23.63,27.78,23.6,27.74,23.58Z"/><path class="cls-1" d="M23.4,9.91c-.32-.11.18-.46-.26-.54C23.22,9.45,23.08,9.9,23.4,9.91Z"/><path class="cls-1" d="M38.83,35.86l-.08.06A.14.14,0,0,0,38.83,35.86Z"/><path class="cls-1" d="M23.14,9.37Z"/><path class="cls-1" d="M25,19.34a.59.59,0,0,0-.08.11A.21.21,0,0,0,25,19.34Z"/><path class="cls-1" d="M26.59,22.77l0-.1A.22.22,0,0,0,26.59,22.77Z"/><path class="cls-1" d="M23.64,17.88c0-.06,0-.09-.06-.13s0,0,0,0S23.64,17.8,23.64,17.88Z"/><path class="cls-1" d="M22.58,16.14l0,.06.05,0Z"/><path class="cls-1" d="M38.08,25.13a.81.81,0,0,1-.19.18C38.06,25.21,38.24,25.46,38.08,25.13Z"/><path class="cls-1" d="M38.82,35.73c0,.06,0,.1,0,.13l.05,0A.18.18,0,0,0,38.82,35.73Z"/><path class="cls-1" d="M21.69,19l-.13-.3A1.94,1.94,0,0,0,21.69,19Z"/><path class="cls-1" d="M32.51,11.64l.06.06A.07.07,0,0,0,32.51,11.64Z"/><path class="cls-1" d="M21,17.85a.45.45,0,0,0,.07-.25.21.21,0,0,0-.08,0Z"/><path class="cls-1" d="M37.88,25.32h0Z"/><path class="cls-1" d="M39.31,27c-.11-.29-.39,0-.61,0-.24-.3.19-.26.31-.45-.17-.18-.55-.21-.61-.38s.06-.07.15-.06c-.37-.12-.29-.66-.74-.79l.07-.06a1.6,1.6,0,0,1-.45.23c-.06-.13-.31-.15-.11-.29,0,.08.12,0,.21.06l-.16-.1c.27-.25.19.14.43,0-.21-.21-.6-.41-.6-.65.3-.17.3.43.47.05V25c.4-.44,0,.2.48-.24-.07-.44-.35-.39-.42-.83-.21,0-.25.14-.46.12-.55-.45.61-.78,0-1-.25,0-.67.1-.58-.29l.4,0c-.13-.41-.61,0-.54-.53.17,0,.25.26.27.19.17-.39-.28-.11-.37-.32l.3-.17c-.22-.4-.64-.77-.89-1.21.11,0,.24,0,.29-.12a3.61,3.61,0,0,1-.52-1.91l-.36-.1c0-.05.08-.15.16-.11,0-.27-.18.06-.33,0s.09-.23.2-.18c-.39-.29-1-.9-.82-1.43l.11,0c0-.36-.7-.13-.57-.53l.07,0c-.17-.74-.73-1.41-.54-2.1-.43.06-.1-.76-.67-.58.11-.51.25-.43.21-1.07,0-.15-.43-.08-.57-.24l.29-.12-.4-.13.28-.27-.14-.14a.24.24,0,0,1-.16.22.62.62,0,0,1,.08-.81L32,10.58c.12,0,.21.05.31.11-.43-.22.28-.19-.11-.39,0,.07-.18,0-.24.06a.92.92,0,0,0-.22-.81l.22,0c-.15-.49-.51-1-.72-1.49,0,.23-.37.33-.47.18L31,8c-.23,0-.05.21-.36.09-.05-.21.29-.27.43-.2l-.2-.19c.08-.06.15,0,.27-.05-.22,0,.13-.54-.25-.55l.09,0-.18-.39-.26-.52c-.16-.33-.32-.61-.48-1-.21.25-.29-.11-.51-.06l-.21-1a3.43,3.43,0,0,0-.93.37c-.45.4-.15.35-.34.64,0-.28-.63.08-.33-.29A5.25,5.25,0,0,0,26.31,6c.11.06.2.06.21.16s-.28,0-.33-.09l0,0c-.44.67-1.79.11-2,.85l0,0-.38.52c-.26.09.05-.24-.2-.29-.35.67-.91.42-1.23.91-.71-.47-1.22.72-1.93.55l.12.14c0,.22-.2,0-.31,0,.08.11.21.07.18.19a3.33,3.33,0,0,1-.56.36l-.3.15-.54.25c-.72.32-1.55.65-2.44,1,.22.49.47,1,.75,1.57.41.78,1.18.18,1.23,1.07a1,1,0,0,1-.41,0c.17.19.22.2.31.3a1.86,1.86,0,0,1,.23.26,5.65,5.65,0,0,1,.36.58,3.6,3.6,0,0,0,.82,1.08c-.1,0-.18,0-.22,0-.11.28.34.59.51.49,0,.13-.14.12-.18.24s.51.25.35.45c0,0-.09,0-.13,0,.17,0,.27.5.45.25.05.35.43.48.42.79.36,0,.17.56.57.38-.4.21,0,.68.28.75-.16,0,0,.23-.24.25.13.2.32.35.49.19-.23.65.83.53.36,1.1A11.81,11.81,0,0,1,24,21.7c-.4.22-.4-.57-.79-.3.47.41,1,.51,1.2,1.08,0,.16-.22,0-.31,0,.47.42.57,1,1.05,1.35,0,0-.1,0-.16,0s.07.25.24.13l-.1-.06c.17-.3.75,0,.89,0-.59.15.15.53-.63.67a.28.28,0,0,0,.3,0c0,.11,0,.18-.22.17.29.26.41,0,.58.33-.08.05-.15,0-.27,0,.25.05.51.1.59.39-.06,0-.11.09-.15,0,.28.41.87.46,1,1-.46.09,0,.23-.34.45l.25.19.1-.19c.12.22.47.28.48.53l-.23-.09.31.38,0-.31c.3.13.39-.27.48.08-.07,0,.13.22,0,.45h0c.16.05.34.09.36.31s-.38.17-.43.24c.33-.05.39.47.75.44a.43.43,0,0,0-.28.13L29,29c0,.15,0,.18-.18.25.15.33.35-.34.39.12,0,0-.06,0-.13,0,.13.42.57.62.66,1-.26.29-.25-.24-.46,0,.35.45,1,.77,1.2,1.28l0-.11c.5-.21,0,.49.35.6-.07,0-.3.07-.24.06.12.36.51.58.94,1h-.15c0,.25.24.54.31.77.15,0,.2.12.33,0-.29,1,1.08,1,.86,1.87,0-.06-.2-.1-.16,0l.39.41c.18-.16.08-.14.18-.33a.44.44,0,0,1,.39.19c-.26-.14-.31.19-.37.35,0,0,.14-.06.2-.11-.19.49.41-.2.4.31l-.1.06c.14.11.32.1.38.27-.13.31-.17,0-.32.14.17.26.55-.06.53.41-.09,0-.17-.14-.27-.16a1.13,1.13,0,0,0,.13.77v0l.23.65-.05-.24.14-.16a1.1,1.1,0,0,1,.44-.51,1,1,0,0,0,.42-.52c-.31.72,0,.33,0,.69.12,0,.32,0,.28.13.16-.4.46-.08.64-.63,0,.08.23-.14.32.1.19-.22-.15-.11-.2-.22.16-.51.93-.14,1.12-.81.26-.41.15-.73.4-1.09.2,0,.1.36.1.36a.53.53,0,0,0,.51-.33c0,.09.09.13.2.18.13-.11-.1-.36.16-.36a1.36,1.36,0,0,1,.08.42c.12-.19.18-.45.3-.64.14.11,0,.29,0,.42.16-.19.42-.46.33-.73h-.18c.07-.06.17.16.14.24,0,.29-.29.08-.35,0l.09-.14c-.45-.39-.45.41-.71.54L38.47,35l-.06.46c-.11-.06-.28-.23-.19-.36-.29-.05-.08.23-.36.14t0-.06l-.1.21c0-.09-.2-.22-.06-.24-.44,0-.32.59-.62.41l0,0c-.36.4.12.28,0,.79l-.64-.48.13.29c-.05,0-.15.06-.2-.06,0,.29.1.09.11.32-.36-.09-.54.52-.78.1,0,.26.26,0,.12.33-.25-.46-.21.25-.46.13,0-.34.16-.27,0-.44,0,.28-.09.31-.16.27s-.13-.14-.19,0a.54.54,0,0,1-.21.42c-.07-.09-.13-.24-.22-.28.06-.13-.15-.62-.14-.86l.05,0c-.15.11-.24.1-.32,0s-.16-.19-.25-.26a.41.41,0,0,1,.43-.06l-.11-.19a.33.33,0,0,1-.32-.11l.26-.09c-.16-.24-.58-.34-.62-.75-.23.11-.45.62-.8.37.11-.08.3-.22.4-.16s-.16,0-.14-.13h.28c0-.2-.21,0-.27-.1.18-.1.07-.16.22-.22s0,.14.08.15a.62.62,0,0,1,.05-.5c-.09.07-.22.13-.3,0-.17-.24.15-.21.15-.4-.16,0-.13-.23-.39-.08,0-.07.07-.16.12-.23-.19-.06-.39-.58-.57-.27v0h0c-.5-.27-.38-1-.74-1.32l.08-.05c-.25-.19-.39-.52-.68-.59,0-.07.05-.27.17-.3-.18-.15-.29-.11-.32-.47.27.1.09-.15.23.13-.08-.29,0-.43-.37-.56.27,0,.16-.35,0-.43l-.05.27a1,1,0,0,1-.22-.37l.32-.11c0-.72-1.14-.56-.79-1.3-.28,0,0,.36-.28.38-.1-.25.16-.74.11-.82,0-.41-.59,0-.69-.44a.41.41,0,0,1-.57.11c-.1-.25.26-.54.43-.44a.07.07,0,0,1,0,.11c.08.05.18.13.24,0l-.12,0c0-.18-.17-.49,0-.52-.2-.12-.21,0-.19.19,0-.39-.28-.47-.36-.84,0,.08-.12.2-.15.15-.15-.53-.31-.08-.54-.36.05-.27.4-.16.09-.4,0-.25.24-.2.37-.17-.36-.17-.19-.61-.25-.79l.17.1a.54.54,0,0,1-.19-.21l-.15.21c0-.11-.06-.18,0-.23-.19,0-.3.27-.59.2,0-.18-.32-.28-.08-.49.13.42.25-.2.48.08a.29.29,0,0,1-.13-.22s.06,0,.09,0c0-.49-.4,0-.61-.34.18,0,.24-.26.17-.3.08.15-.21.23-.41.16,0-.3-.24-.2-.3-.33l0,.18c-.18,0-.23-.09-.38-.22.11-.09.17.1.19,0-.38,0,0-.57-.3-.72,0-.17.28-.18.29-.32-.37-.17,0-.43-.32-.63-.15.21-.09.19-.42.11l.44.39-.49-.13c.09.15.32.23.34.34-.26-.05-.2-.06-.33.11.19-.38-.42-.29-.35-.64l.51-.3c0-.49-.63-.46-.78-1v.19c-.23.07-.19-.26-.36-.35.17-.09.18-.22.25-.35-.12.09-.19-.34-.55-.17l.1-.34c-.13-.42-.74-.12-.89-.51.25,0,.27-.24.54-.08-.07-.12-.1-.24-.22-.17.07-.14-.42-.19-.32-.4-.11,0-.3.09-.36-.05a.12.12,0,0,1,.08-.05c-.08.05-.23-.14-.35.09.31-.68-.65-1-.39-1.57a6.35,6.35,0,0,1-.6-.72c.06,0,.08-.05.09,0,0-.41-.6.1-.65-.37.16-.35.27.1.3-.08.53-.38-.34-.39-.16-.83l.07,0c.07-.3-.49-.33-.64-.66a.28.28,0,0,0,.09-.05,1.86,1.86,0,0,1-1-.63c.27,0,.19.07.38-.12-.11-.12-.33.25-.55,0,.07-.16.06-.42.28-.58l.16.24c.11-.16.06-.24,0-.3s-.15,0-.15-.08L20.3,12c-.13-.13-.56-.08-.7-.36l-.13,0c-.59-.23.2-.09-.27-.32a5,5,0,0,1,.51.09l0,0a.39.39,0,0,1,0-.5c.14.25.13.43.28.55.07,0,.18-.13,0-.28,0,0,.06.12,0,.1-.25-.22-.17-.43.08-.56a.74.74,0,0,0,.3.25c.08,0,.12,0,.26,0s.51-.24.76,0c.4-.53,1.11-.46,1.71-.83-.5-.4.17-.11-.16-.63.13-.11.19-.13.22-.1l.61.08c.19.11-.07.2,0,.31.33-.13.25.16.54.19-.15-.17,0-.34.18-.36l-.39-.11c.29-.53.62.24.92-.28L25,9.45c.17-.23.84-.45.83-1,.07,0,.21.15.13.25.58-.23,1-1.12,1.53-1.08l0,.16c.08-.1,0-.35.24-.28,0,.06,0,.15.08.13s0-.29.08-.23a1.09,1.09,0,0,0,0,.18c.09.06.09,0,.17-.26a1.82,1.82,0,0,1,.37-.61,2.45,2.45,0,0,0-.1.35l-.16.64,0,.06c0,.06.07,0,.2,0h.1l.17.16a3.8,3.8,0,0,1,.33.37c-.29.55.34,1.34.33,2,0-.12.33-.11.41,0s.44.27.06.4v-.05c-.32.26-.11.51,0,.74l.51-.17c-.47.89.89,1.45.39,2,.18.09.25.27.43.36l-.26.1a3.21,3.21,0,0,0,.4,1.1l-.22,0c.09.28.89,0,1,.28l-.36.24c.21.48.06,1.11.61,1.43-.06,0-.18.05-.22,0,.08.23.09,1,.59.68-.34.15.17.51.43.71l-.27.07c.42.08.51.05.73.32,0,.09-.18.15-.16,0,0,.3.33.09.31.44l-.21,0c.08.26.16.2.41.26s.13.5-.09.63c.16,0,.4,0,.4.21a.24.24,0,0,1-.2,0c0,.48.55.49.42.88a.35.35,0,0,0-.14.11,2.9,2.9,0,0,1-.19-.58c-.24.09-.17.38-.59.3.27.14.81.35.81.65a.23.23,0,0,1-.07.07h0c0,.07.05.11.11.14a.52.52,0,0,0,0,.25c-.18.11,0,.35.07.49.25-.12.28.07.43-.18,0,0,0,0-.09-.1a.07.07,0,0,0,0,0h0l-.15-.33c.17.05.33.12.24.32l.5,0c-.29.33-.34.76-.55.9.32.35.49.92,1.09,1,.11.09-.09.19-.15.27s-.1-.13-.18-.14c.22.18.33.67.69.58,0,.36-.38,0-.16.34h-.13c-.22,1,1.4.93,1.06,2.09a.2.2,0,0,1,.07-.16c.1,1.13,1.13,1.94,1,3.12,0,.32.24.26.48.36l-.26.18.45.16c.4.31-.4,1,.26,1.33l.17-.14c0,.2.35.55.12.6,0,0,.22,0,.15.1l-.14.06.44.36c0,.4-.6.18-.42.72.14.17.65.38.72.26a.27.27,0,0,1,.16-.3l.14.15c.45-.15.95-.19,1.07-.75L41,32.9l.17-.18.12.25c.13-.23-.08-.25-.24-.3a.44.44,0,0,0,.18-.22l-.54-.13c.16-.11.39,0,.41-.24-.25-.06-.33.29-.55.11.14-.23.32-.25.08-.35a.21.21,0,0,1,.26,0c-.19-.1-.22-.38-.48-.36.18-.25-.27-.49.14-.64a.86.86,0,0,1-.5-.27c.59.06-.19-.53.36-.68-.51,0-.47-.6-.85-.83,0,0,.13,0,.12.05,0-.21.06-.31.1-.47-.37.13-.58-.13-.87-.2.26-.37.49,0,.79-.24-.29.13-.45-.28-.67-.1.15-.27,0-.2.31-.41-.47.15-.14-.14-.48-.17.12-.34.4-.24.14-.46C39.05,26.85,39.31,27,39.31,27ZM35.8,20.7h0l.07.13Zm-.24-.56a2,2,0,0,0,.09.25c-.08.05-.18.07-.2,0S35.52,20.25,35.56,20.14Zm-1.31,1.92c-.08-.07,0-.12,0-.16l.09.15h0A.24.24,0,0,1,34.25,22.06Z"/><path class="cls-1" d="M34.65,22.08s0,0,0,0l0-.08h-.09Z"/><path class="cls-1" d="M32.36,33.06h0s0,0,0,0Z"/><polygon class="cls-1" points="32.89 12.21 32.83 12.24 32.91 12.27 32.89 12.21"/><path class="cls-1" d="M33.25,36.41a.16.16,0,0,0,0,.07S33.24,36.44,33.25,36.41Z"/><path class="cls-1" d="M34.2,38.1l.11.37C34.26,38.29,34.23,38.18,34.2,38.1Z"/><path class="cls-1" d="M35.31,38.13a.47.47,0,0,0,0-.15h0Z"/><path class="cls-1" d="M25,23.81l0,0C24.89,23.72,24.94,23.77,25,23.81Z"/><path class="cls-1" d="M28.29,28a.93.93,0,0,1-.2-.07C28.12,28,28.15,28,28.29,28Z"/><polygon class="cls-1" points="21.71 18.98 21.71 18.98 21.7 18.95 21.71 18.98"/><path class="cls-1" d="M28,27.66a.25.25,0,0,0,.12.22A.43.43,0,0,0,28,27.66Z"/><path class="cls-1" d="M39.74,35.33l0,0,0,0Z"/><path class="cls-1" d="M39.77,35.27l0-.06A0,0,0,0,0,39.77,35.27Z"/><path class="cls-1" d="M39.87,35.08l-.07.13A.1.1,0,0,0,39.87,35.08Z"/><path class="cls-1" d="M38.45,36l0,.09A.16.16,0,0,0,38.45,36Z"/><path class="cls-1" d="M38.1,36.31c.1,0,.34,0,.43-.11l0-.07C38.52,36.29,38.08,36.11,38.1,36.31Z"/><path class="cls-1" d="M35.85,36.29l.36-.14c-.12,0-.27-.13-.14-.24C35.5,35.9,36.28,36.06,35.85,36.29Z"/><path class="cls-1" d="M35.16,36.56c.1-.12,0-.18,0-.26C35.12,36.45,35.09,36.5,35.16,36.56Z"/><path class="cls-1" d="M31.2,30.71l.23-.11C31.32,30.48,31.34,30.65,31.2,30.71Z"/><polygon class="cls-1" points="29.24 30.03 29.18 30.24 29.42 30.18 29.24 30.03"/><polygon class="cls-1" points="30.31 28.28 30.38 28.32 30.17 28.14 30.31 28.28"/><path class="cls-1" d="M23,16.32l-.24.2C22.84,16.58,23.15,16.42,23,16.32Z"/><path class="cls-1" d="M19.83,11.72c.17,0,.27-.06,0-.13C19.87,11.63,19.76,11.68,19.83,11.72Z"/><polygon class="cls-1" points="29.95 11.69 29.8 11.61 29.97 11.79 29.95 11.69"/><path class="cls-1" d="M29,42.82c-.05-.09-.21-.2-.24-.1l.2.27Z"/><path class="cls-1" d="M28.05,42.92a.92.92,0,0,0,.45.62c-.16-.29,0-.23-.25-.57,0-.1.2-.06.28,0,0-.08.15-.07,0-.24-.28-.07-.39,0-.34.31C28.14,43.05,28.1,43,28.05,42.92Z"/><path class="cls-1" d="M21.53,46.4l0,.07A.11.11,0,0,0,21.53,46.4Z"/><path class="cls-1" d="M16.77,42.7c.05,0,.08,0,.1,0S16.78,42.67,16.77,42.7Z"/><path class="cls-1" d="M16.16,41.8l0,.05S16.19,41.79,16.16,41.8Z"/><path class="cls-1" d="M21.53,46.4l-.07-.17C21.39,46.31,21.48,46.34,21.53,46.4Z"/><path class="cls-1" d="M27.78,44.46a.17.17,0,0,0,0-.12.26.26,0,0,1,0,.08Z"/><path class="cls-1" d="M23.25,47.27l0,0,0-.19Z"/><path class="cls-1" d="M24.13,46.18s.16.22.24.32a.27.27,0,0,1-.07-.21Z"/><path class="cls-1" d="M26.62,44.06v0Z"/><path class="cls-1" d="M22.65,46.81l0-.09A.36.36,0,0,0,22.65,46.81Z"/><path class="cls-1" d="M27.43,39.88l0,0S27.44,39.89,27.43,39.88Z"/><polygon class="cls-1" points="28.41 42.44 28.37 42.43 28.27 42.55 28.41 42.44"/><path class="cls-1" d="M14.85,40.4h0C14.92,40.41,14.89,40.4,14.85,40.4Z"/><path class="cls-1" d="M5.55,31.27c-.31,0-.07-.45-.47-.37C5.19,30.94,5.28,31.37,5.55,31.27Z"/><path class="cls-1" d="M27.72,44.48l0,.06A.13.13,0,0,0,27.72,44.48Z"/><path class="cls-1" d="M5.08,30.9Z"/><path class="cls-1" d="M11.25,38a.93.93,0,0,0,0,.13A.28.28,0,0,0,11.25,38Z"/><path class="cls-1" d="M13.62,40.2l0-.07A.14.14,0,0,0,13.62,40.2Z"/><path class="cls-1" d="M9.66,37.3s0-.08-.08-.08v0S9.65,37.24,9.66,37.3Z"/><path class="cls-1" d="M8.25,36.27v.07l.06,0Z"/><path class="cls-1" d="M23.21,36.66a1.09,1.09,0,0,1-.1.25C23.21,36.74,23.46,36.84,23.21,36.66Z"/><path class="cls-1" d="M27.66,44.36a.17.17,0,0,1,.06.12.14.14,0,0,0,0-.06S27.69,44.36,27.66,44.36Z"/><path class="cls-1" d="M8.3,39.05l-.2-.2A.76.76,0,0,0,8.3,39.05Z"/><path class="cls-1" d="M13.4,28.86l.07,0A.06.06,0,0,0,13.4,28.86Z"/><path class="cls-1" d="M7.41,38.4a.49.49,0,0,0,0-.25l-.07,0Z"/><path class="cls-1" d="M23.11,36.91Z"/><path class="cls-1" d="M25,37.54c-.2-.18-.32.2-.5.33-.31-.12.06-.3.09-.52-.21,0-.54.13-.65,0s0-.09.1-.13c-.35.1-.49-.37-.91-.23a.29.29,0,0,1,0-.1,2.18,2.18,0,0,1-.29.42c-.1-.07-.32.05-.2-.17.05.05.12,0,.19-.06h-.16c.13-.34.21,0,.37-.19-.26-.06-.66,0-.75-.21.19-.29.41.18.41-.21l.14.28c.17-.55.12.14.32-.43-.24-.32-.44-.13-.67-.44-.19.09-.16.23-.34.33-.63-.07.2-.93-.39-.83-.22.12-.52.43-.59.07l.31-.24c-.26-.26-.51.3-.65-.14.15-.07.31.08.29,0,0-.39-.27.06-.42-.06l.18-.29c-.33-.2-.82-.27-1.2-.5.08-.06.21-.1.19-.24a2.69,2.69,0,0,1-1.16-1.24l-.34.1s0-.16.09-.17c-.09-.22-.12.14-.27.17s0-.23.1-.25c-.44,0-1.14-.23-1.24-.71l.11,0c-.16-.28-.64.26-.68-.13h.07c-.42-.5-1.14-.73-1.25-1.38-.33.27-.38-.55-.78-.11-.1-.46.05-.48-.23-.95-.09-.11-.39.15-.57.1l.19-.25-.38.11.14-.36-.18,0a.24.24,0,0,1,0,.25c-.29,0-.34-.55-.25-.67l-.63-.17c.09-.09.2-.06.31-.07-.45.05.15-.29-.25-.25,0,.08-.13.13-.18.18,0-.24-.25-.44-.49-.53l.17-.14A13.82,13.82,0,0,0,11,26.67c.07.19-.19.45-.33.39l.16-.29c-.2.1,0,.19-.26.26-.12-.14.14-.37.28-.38l-.24,0c0-.09.12-.1.21-.18-.2.1-.1-.5-.42-.31L10.4,26c-.13-.11-.48-.36-.73-.52s-.5-.32-.79-.54c-.07.31-.27.06-.44.22l-.7-.84a2.13,2.13,0,0,0-.46.51c-.2.51,0,.38,0,.71-.12-.27-.46.24-.37-.2-.2.32-.34.53-.46.76s-.13.24-.2.39l-.1.23,0,.19c.12,0,.19,0,.24.07s-.22.12-.31,0v0c0,.71-1.43.69-1.28,1.39v0l-.07.56c-.17.16-.08-.22-.3-.18,0,.69-.55.66-.58,1.18-.82-.16-.67,1-1.34,1.12l.16.08c0,.24-.23.14-.36.26.14,0,.28-.11.28,0A10.92,10.92,0,0,1,1,33.49l1,1,.57.54.56.51c.27.26.71-.62.85,0l-.31.18c.86.14,1.26.94,2.07,1.11-.08,0-.14.12-.2.07,0,.29.47.36.59.2.08.09-.09.16-.09.28s.51,0,.43.24c0,0-.08,0-.11,0,.15,0,.37.31.45,0,.15.27.51.22.6.48.3-.16.3.41.59.08-.28.35.19.59.46.52-.13.08,0,.21-.13.32.17.11.37.16.48,0,0,.66.86.09.63.78a8.92,8.92,0,0,1,1.68.59c-.28.35-.51-.32-.78.08.53.15,1,0,1.35.41.07.12-.18.11-.26.14.53.16.78.63,1.3.7a.24.24,0,0,1-.15,0c.08,0,.13.18.24,0h-.1c.06-.33.65-.29.76-.41-.47.39.28.39-.36.84a.29.29,0,0,0,.26-.14c.05.08,0,.16-.14.23.33.1.36-.14.6,0-.06.08-.13.07-.23.15.24-.07.47-.14.62.08,0,0-.07.12-.13.07.37.23.89,0,1.16.44-.36.27.05.21-.15.53l.26,0,0-.2c.17.13.49,0,.57.24l-.22,0,.37.18-.1-.25c.29,0,.26-.39.43-.14-.07,0,.18.14.14.38h0c.16,0,.32-.06.4.11s-.27.31-.3.39c.27-.19.47.23.78,0a.59.59,0,0,0-.22.23l.23-.15c0,.12,0,.16-.09.28.22.22.21-.44.38-.06,0,0-.05,0-.12,0,.23.31.67.29.86.59-.14.36-.29-.1-.38.22.43.24,1.07.23,1.4.58l-.05-.08c.37-.39.13.41.47.35-.07,0-.24.19-.19.16.21.25.61.28,1.1.43l-.13.08c.08.21.36.35.49.52.13-.08.21,0,.27-.19a.6.6,0,0,0,.21.49,1.85,1.85,0,0,0,.53.25,1.16,1.16,0,0,1,.92.76c-.07-.05-.18,0-.12.06l.41.18.1-.16c-.06-.21-.08-.16-.14-.21l-.06-.13a.2.2,0,0,1,0-.08,1.06,1.06,0,0,1,.15-.43c-.11.37.08.47.21.52,0-.07,0-.19-.06-.27.34.24-.13-.56.22-.53l0,.14c.07-.18.06-.42.18-.5.2.18,0,.22.08.43.17-.22,0-.73.27-.68,0,.11-.09.22-.1.35.36.06.36-.06.48-.12h0l.32-.16H25c-.37-.64.22-.45.09-1,.12.52.15.2.37.42.11,0,.27,0,.31,0-.09-.27.31-.07.18-.46.08,0,.12-.12.28.07.07-.2-.16-.08-.24-.17-.05-.45.78-.28.72-.92.11-.41-.09-.68,0-1,.2,0,.21.3.21.3a.39.39,0,0,0,.34-.38c0,.08.12.1.24.13.08-.13-.2-.31,0-.36a1.46,1.46,0,0,1,.2.37c.05-.19,0-.44.07-.63.16.07.12.25.17.37.07-.2.22-.49.06-.72l-.16,0c0-.07.2.12.2.19.05.27-.23.13-.31.07l0-.13c-.51-.28-.26.44-.45.61l-.25-.35.09.42c-.11,0-.31-.15-.28-.29-.27,0,0,.22-.27.19,0,0-.05,0-.05,0l0,.22c-.05-.09-.24-.17-.13-.22-.39.09-.1.6-.42.48v0c-.18.43.2.24.26.72l-.72-.32.2.23a.12.12,0,0,1-.19,0c0,.27.12.07.2.27-.35,0-.3.55-.7.27.12.21.27,0,.24.24-.44-.3-.11.26-.42.26-.17-.23.07-.28-.25-.28.27.39-.33.23-.37.41.26.25-.13.38-.23.68-.09-.09-.41.17-.56.15l0-.07c.14.4,0,.49-.11.7a2,2,0,0,1,0-.58l-.07.08a1.23,1.23,0,0,1,0,.29,0,0,0,0,1-.05,0v-.35c-.08,0-.26.22-.39-.1-.11.23,0,.9-.32.85,0-.14.1-.38.18-.4s-.11.06-.13,0a1.29,1.29,0,0,0,.17-.16c-.06-.17-.12.16-.19.08.08-.19,0-.18.08-.31s0,.12.08.06a.43.43,0,0,1,0-.4c-.06.1-.14.23-.21.21s.07-.24,0-.41c-.13.08-.18-.13-.36.11-.05,0,0-.17,0-.25-.18,0-.51-.32-.58,0l0,0h0c-.51,0-.61-.66-1-.8l.06-.08c-.27-.06-.49-.28-.76-.21-.06,0,0-.25.06-.33-.2-.05-.28,0-.41-.27.26,0,0-.16.23,0-.15-.22-.1-.38-.47-.32.22-.15,0-.37-.11-.37l0,.24a.73.73,0,0,1-.3-.22l.25-.23c-.17-.63-1.15,0-1.06-.76-.25.11.13.29-.13.44-.16-.17-.08-.7-.14-.75-.15-.33-.53.22-.72-.08,0,.12-.19.4-.46.34s.06-.57.24-.56,0,.07,0,.1.2,0,.2-.13l-.1.08c0-.17-.29-.35-.11-.46-.21,0-.18.11-.11.24-.14-.32-.37-.28-.55-.56,0,.09-.05.22-.09.19-.28-.38-.29.07-.57-.07,0-.25.3-.31,0-.37-.08-.21.16-.28.28-.32-.37,0-.34-.43-.45-.56h.18a.34.34,0,0,1-.22-.09l-.07.24c-.05-.08-.11-.13-.05-.21-.16.07-.18.36-.45.43,0-.17-.36-.11-.21-.38.24.3.16-.28.44-.14a.24.24,0,0,1-.18-.14s.05,0,.08,0c-.11-.44-.34.19-.63,0,.15-.12.13-.32.06-.33.12.09-.11.28-.3.31-.11-.24-.27-.06-.36-.15l.08.14c-.14.11-.23,0-.39,0,.07-.12.18,0,.17-.08-.33.15-.14-.5-.47-.48,0-.16.19-.27.15-.4-.36,0-.1-.38-.45-.4-.07.25,0,.21-.33.27l.49.15-.46.1c.12.09.34.06.39.15-.24.07-.19,0-.25.23,0-.41-.44-.07-.49-.4l.36-.47c-.13-.42-.68-.12-1-.51l.06.17c-.19.15-.25-.14-.42-.15a.64.64,0,0,0,.11-.4c-.08.12-.26-.21-.52.09v-.33c-.23-.31-.67.2-.91-.06.21-.11.16-.32.44-.3-.09-.07-.16-.16-.24,0,0-.14-.42,0-.39-.2-.1,0-.23.2-.33.11a.19.19,0,0,1,.06-.08c-.06.08-.24,0-.28.23.07-.71-.84-.56-.79-1.17A4.4,4.4,0,0,1,7.52,36s.05-.08.08,0c-.15-.34-.5.34-.67,0,0-.37.26,0,.24-.19.34-.56-.41-.19-.39-.64h.07c0-.29-.51-.07-.73-.29a.37.37,0,0,0,.06-.08,1.55,1.55,0,0,1-1-.1c.23-.15.19,0,.3-.27-.13-.05-.21.36-.47.26A1,1,0,0,1,5,34l.21.13c.11-.36-.27-.18-.33-.31L5,33.7c-.31-.17-.63.08-.82-.08l-.06.1c-.43.16.07-.23-.3-.14a2.85,2.85,0,0,1,.33-.25,2.52,2.52,0,0,1-1-.12c.5,0,.81,0,1,0a.7.7,0,0,0-.49-.08c.08,0,.23,0,.18,0a1.81,1.81,0,0,1-.71,0,.2.2,0,0,1,.06-.19c.48,0,.61-.1.7-.19a.39.39,0,0,1,.49-.11c0-.08-.06-.09,0-.2a1.23,1.23,0,0,1,.27-.29,2.9,2.9,0,0,0,.6-.61c-.61-.18.09-.15-.43-.48,0-.14.09-.18.13-.16l.54-.13c.21,0,0,.18.15.25.22-.22.29.05.54,0-.2-.09-.19-.27,0-.36l-.37,0c0-.54.63,0,.62-.54l.08.23c0-.25.48-.66.21-1.13.08,0,.25.07.23.17.37-.39.27-1.26.75-1.42l.1.12c0-.1-.18-.24,0-.18L8,28s-.13-.27,0-.24L8,28c.09,0,.05-.07,0-.27a2.17,2.17,0,0,1,0-.67h0c.1.64.18.88.18,1v.07c0,.05.06,0,.17-.1s.11-.08.27,0a2.21,2.21,0,0,1,.42.12c0,.59.79.89,1.06,1.45,0-.12.22-.26.33-.24s.47,0,.2.29l0,0c-.17.37.1.45.26.59l.36-.39c-.05.95,1.3.68,1.1,1.41.19,0,.31.08.5.06l-.18.22a2.43,2.43,0,0,0,.75.65l-.19.1c.18.18.76-.43.95-.3l-.21.38c.36.27.48.84,1.06.82,0,0-.13.13-.2.1.16.14.46.73.76.23-.23.3.34.32.63.34l-.2.19c.38-.15.44-.22.73-.12,0,.07-.1.21-.12.1.08.25.3-.1.42.19l-.19.07c.17.17.21.08.44,0s.3.33.17.54c.12-.1.34-.18.41,0a.23.23,0,0,1-.16.11c.18.39.65.11.68.49a.31.31,0,0,0-.07.15,1.78,1.78,0,0,1-.38-.36c-.16.2,0,.39-.37.54.27,0,.8-.14.91.11a.23.23,0,0,1,0,.09h0c0,.06.08.07.14.07a.37.37,0,0,0,.11.18c-.11.18.15.27.24.35.17-.22.26-.09.29-.36,0,0,0,0-.11,0a.07.07,0,0,0-.06,0l0,0-.25-.17c.17,0,.32-.08.33.12a4.41,4.41,0,0,1,.42-.24c-.11.41,0,.78-.11,1,.39.12.76.48,1.28.21.12,0,0,.2,0,.29s-.14-.05-.21,0c.25,0,.53.35.8.1.11.3-.33.17,0,.35l-.11.06c.2.92,1.51,0,1.67,1.1a.22.22,0,0,1,0-.16c.51.84,1.68,1,2.06,1.93.13.24.3.08.54,0l-.15.27.43-.1c.46,0,.06,1,.74.92l.08-.2c.11.14.5.25.33.41,0,0,.18-.13.17,0l-.1.13.5.05c.19.3-.43.46-.07.79.18.06.69,0,.7-.17a.27.27,0,0,1,0-.32l.18,0c.32-.34.71-.64.6-1.14l-.4,0,.07-.23.2.14c0-.25-.16-.16-.31-.12a.43.43,0,0,0,.06-.27L28.1,41c.08-.17.32-.21.24-.4-.23.08-.16.4-.41.37,0-.25.16-.36-.07-.32a.23.23,0,0,1,.21-.15c-.2,0-.33-.18-.54,0,0-.29-.41-.24-.13-.58a.72.72,0,0,1-.52.05c.51-.26-.36-.32,0-.73-.43.27-.62-.23-1-.21,0,0,.11-.06.12,0-.11-.14-.06-.29-.09-.43-.26.29-.53.19-.8.29.07-.43.39-.28.57-.6-.19.25-.49,0-.6.27,0-.29,0-.18.1-.49-.33.37-.17,0-.47.12,0-.33.24-.39,0-.44C24.66,37.53,25,37.54,25,37.54Zm-5.35-3.2h0l.11.07ZM19.2,34l.16.15c0,.08-.12.15-.16.11S19.2,34.13,19.2,34Zm-.37,2.2c-.08,0-.07-.08,0-.13l.13.06,0,0A.47.47,0,0,1,18.83,36.22Z"/><path class="cls-1" d="M19.18,36h0V36l-.08,0Z"/><path class="cls-1" d="M21.56,46.48h0a.09.09,0,0,1,0,.05A.06.06,0,0,0,21.56,46.48Z"/><polygon class="cls-1" points="13.94 29.12 13.89 29.17 13.97 29.15 13.94 29.12"/><path class="cls-1" d="M23.73,48.67s0,0,.06,0A.1.1,0,0,0,23.73,48.67Z"/><path class="cls-1" d="M24.84,47.49l.19-.07A.77.77,0,0,0,24.84,47.49Z"/><path class="cls-1" d="M25.57,46.86l-.08-.09h0Z"/><path class="cls-1" d="M12.57,41.76h0C12.43,41.74,12.49,41.76,12.57,41.76Z"/><path class="cls-1" d="M16.58,43.88a.71.71,0,0,1-.2,0C16.44,44,16.48,44,16.58,43.88Z"/><polygon class="cls-1" points="8.32 39.07 8.32 39.07 8.3 39.05 8.32 39.07"/><path class="cls-1" d="M16.22,43.78a.16.16,0,0,0,.16.12S16.3,43.78,16.22,43.78Z"/><path class="cls-1" d="M28.35,43.84l0,0,0,0Z"/><path class="cls-1" d="M28.36,43.78v-.06A0,0,0,0,0,28.36,43.78Z"/><path class="cls-1" d="M28.39,43.59l0,.13A.09.09,0,0,0,28.39,43.59Z"/><path class="cls-1" d="M27.43,44.7l.07.08A.23.23,0,0,0,27.43,44.7Z"/><path class="cls-1" d="M27.21,45c.07,0,.31,0,.34-.17l-.05-.06C27.58,44.92,27.13,44.83,27.21,45Z"/><path class="cls-1" d="M25.21,45.39l.27-.19c-.12,0-.28-.07-.2-.19C24.77,45.1,25.52,45.1,25.21,45.39Z"/><path class="cls-1" d="M24.44,46c.08-.17-.12-.1-.16-.15C24.28,46,24.29,46.07,24.44,46Z"/><path class="cls-1" d="M19.89,45l.16-.19C19.93,44.74,20,44.87,19.89,45Z"/><polygon class="cls-1" points="18 45.24 18.01 45.45 18.2 45.29 18 45.24"/><polygon class="cls-1" points="18.42 43.29 18.49 43.3 18.26 43.24 18.42 43.29"/><path class="cls-1" d="M8.65,36.26l-.15.27C8.6,36.54,8.83,36.27,8.65,36.26Z"/><path class="cls-1" d="M4.34,33.5c.08-.13.13-.23,0-.15C4.33,33.39,4.29,33.51,4.34,33.5Z"/><polygon class="cls-1" points="11.28 30.23 11.13 30.25 11.34 30.3 11.28 30.23"/></svg>