<svg id="Layer_1" data-name="Layer 1" xmlns="http://www.w3.org/2000/svg" viewBox="0 0 140.2 140.2"><defs><style>.cls-1{fill:#f3765a;}</style></defs><title>Artboard 1</title><path class="cls-1" d="M87.74,112.85c0,.09.17.23.23.13l-.16-.31Z"/><path class="cls-1" d="M88.71,112.83a.89.89,0,0,0-.34-.7c.11.33,0,.25.14.63-.06.1-.22,0-.28-.06,0,.09-.18.06-.09.25.27.1.42,0,.43-.3C88.65,112.68,88.67,112.77,88.71,112.83Z"/><path class="cls-1" d="M96.66,107.25v-.09S96.66,107.23,96.66,107.25Z"/><path class="cls-1" d="M100.05,112.71a.08.08,0,0,0-.1,0S100,112.73,100.05,112.71Z"/><path class="cls-1" d="M100.39,113.87l0-.07S100.36,113.87,100.39,113.87Z"/><path class="cls-1" d="M96.66,107.25l0,.22C96.74,107.36,96.69,107.33,96.66,107.25Z"/><path class="cls-1" d="M89.32,111.24a.19.19,0,0,0,0,.13.36.36,0,0,1,0-.09Z"/><path class="cls-1" d="M95.22,108.24l0,0a1.12,1.12,0,0,0,0,.13Z"/><path class="cls-1" d="M93.52,109.78s-.12-.25-.19-.36c.06.11.07.17,0,.22A1.82,1.82,0,0,0,93.52,109.78Z"/><path class="cls-1" d="M90.45,111.77l0,.07Z"/><path class="cls-1" d="M96.07,107.59l0,.12A.37.37,0,0,0,96.07,107.59Z"/><path class="cls-1" d="M88.56,116.29l0,0S88.55,116.28,88.56,116.29Z"/><polygon class="cls-1" points="88.23 113.32 88.27 113.34 88.4 113.26 88.23 113.32"/><path class="cls-1" d="M101.25,115.83h0C101.19,115.79,101.21,115.81,101.25,115.83Z"/><path class="cls-1" d="M110.38,129.91c.28.14.08.32.43.45C110.74,130.28,110.59,130,110.38,129.91Z"/><path class="cls-1" d="M89.39,111.23l.07-.06A.14.14,0,0,0,89.39,111.23Z"/><path class="cls-1" d="M110.81,130.36h0Z"/><path class="cls-1" d="M104.08,119.79a.41.41,0,0,0,.07-.11A.26.26,0,0,0,104.08,119.79Z"/><path class="cls-1" d="M102.41,116.55l0,.09A.2.2,0,0,0,102.41,116.55Z"/><path class="cls-1" d="M105.44,121.14c0,.06,0,.09.06.13l0,0S105.44,121.21,105.44,121.14Z"/><path class="cls-1" d="M106.53,122.78a.64.64,0,0,1,0-.07l0,0Z"/><path class="cls-1" d="M92,121.15a1.16,1.16,0,0,1,.16-.21C92,121.07,91.78,120.87,92,121.15Z"/><path class="cls-1" d="M89.43,111.36c0-.06-.05-.1,0-.13l0,0S89.4,111.35,89.43,111.36Z"/><path class="cls-1" d="M107.34,120l.13.28A.88.88,0,0,0,107.34,120Z"/><path class="cls-1" d="M99.88,132.78l-.07,0A.05.05,0,0,0,99.88,132.78Z"/><path class="cls-1" d="M108,121a.56.56,0,0,0-.07.25H108Z"/><path class="cls-1" d="M92.15,120.93h0Z"/><path class="cls-1" d="M90.46,119.61c.16.25.37-.09.59-.16.28.24-.14.29-.23.5.21.13.58.08.66.22s0,.09-.13.1c.38,0,.4.56.86.58a.12.12,0,0,1-.06.08,1.67,1.67,0,0,1,.4-.31c.08.1.33.07.16.25,0-.07-.12,0-.21,0l.17,0c-.22.3-.21-.09-.42.06.24.16.66.26.69.49-.25.22-.36-.34-.46.06l-.07-.34c-.31.5-.08-.19-.43.32.16.41.41.3.56.7.21,0,.22-.18.43-.21.62.31-.45.87.18,1,.25,0,.63-.24.62.15l-.38.13c.2.36.59-.12.61.38-.17,0-.28-.19-.29-.12-.09.4.29,0,.41.22l-.25.23c.28.33.76.59,1.08,1-.1,0-.23,0-.26.18a3.33,3.33,0,0,1,.86,1.7l.37,0s-.06.16-.14.14c0,.26.16-.09.32-.06s0,.23-.16.21c.43.2,1.09.66,1.06,1.19l-.12,0c.09.34.71,0,.66.38l-.08,0c.3.67,1,1.18.91,1.89.4-.15.24.69.75.4,0,.51-.16.47,0,1.06.06.14.43,0,.59.11l-.25.17.41,0-.23.32.17.1a.23.23,0,0,1,.11-.24c.27.15.2.69.07.78l.59.41c-.11.05-.21,0-.32,0,.46.11-.24.23.18.34,0-.08.17-.08.23-.11-.07.23.14.54.35.72l-.2.08a1.06,1.06,0,0,0,.1.17l.2.29c.15.19.29.39.44.59.3.38.59.75.87,1.17-.16-.42,0-.78.18-.63l0,.31v.14c.11-.18,0-.17,0-.21s0-.09,0-.11l.12-.19c.26-.09.12.36-.1.6l.4-.35c0,.11-.08.22-.13.38.1-.17.26-.16.45-.19a.57.57,0,0,0,.5-.35l0,.09c.24-.12.44-.24.61-.34s.39-.24.43-.28.29-.22.48-.34c-.12-.25.06-.28.07-.54a3.47,3.47,0,0,0,1.1-.27c.18-.25,0-.24,0-.45.14.22.48,0,.39.27a3.88,3.88,0,0,0,.94-.81c-.1-.06-.19-.06-.2-.16s.27,0,.32.09l0,0c.42-.66,1.74-.08,2-.81l0,0,.37-.51c.24-.08,0,.24.19.29.38-.68.74-.32,1.43-1,.8.18,1.62-.54,2.33-1a1.51,1.51,0,0,1-.35-.82l-.19,0c-.35-.21,0-.24-.09-.4-.15,0-.05.22-.24.1a10.77,10.77,0,0,1-.88-1.23l-.18-.31-.1-.2-.18-.41c-.23-.55-.43-1.13-.68-1.66s-.9.3-.85-.38l.36-.06c-.8-.5-1-1.47-1.7-2,.09,0,.17,0,.22,0,.1-.28-.36-.55-.52-.45-.06-.12.13-.12.17-.24s-.51-.21-.36-.42c0,0,.09,0,.13,0-.16,0-.28-.47-.45-.22-.06-.34-.43-.44-.44-.74-.35,0-.17-.54-.57-.34.39-.23,0-.66-.28-.71.15,0,0-.22.22-.26-.13-.19-.32-.32-.49-.16.22-.65-.83-.46-.38-1a11.55,11.55,0,0,1-1.49-1.32c.39-.23.41.54.79.26-.47-.38-1-.45-1.21-1,0-.15.21,0,.31,0-.48-.38-.59-1-1.07-1.25,0,0,.1,0,.16,0s-.08-.23-.24-.11l.1,0c-.16.3-.74,0-.88.08.58-.18-.16-.51.61-.69a.28.28,0,0,0-.3,0c0-.1,0-.17.21-.18-.29-.24-.4,0-.58-.29.08,0,.15,0,.27,0-.26,0-.51-.07-.59-.35.06,0,.1-.08.15,0-.29-.39-.88-.4-1-.94.44-.11,0-.23.31-.46l-.25-.17-.09.19c-.13-.2-.47-.24-.49-.48l.23.07-.31-.35,0,.3c-.3-.11-.38.28-.47,0,.07,0-.13-.21,0-.44h0c-.17,0-.34-.07-.36-.27s.36-.2.41-.27c-.32.07-.39-.43-.75-.38a.49.49,0,0,0,.28-.14l-.27.06c0-.14,0-.18.17-.25-.15-.31-.33.35-.39-.1,0,0,.06,0,.13,0-.14-.4-.57-.57-.68-1,.26-.3.26.22.46-.06-.36-.41-1-.69-1.21-1.17v.1c-.48.23,0-.47-.35-.55.07,0,.29-.1.24-.08a.83.83,0,0,0-.15-.23,1.83,1.83,0,0,0-.27-.3c-.21-.21-.45-.39-.68-.59l.12-.06a8.45,8.45,0,0,0-.55-1.08c-.09.11-.18-.06-.17.32v-.07c-.27-.24-.71.28-1,.68s-.5.76-1,.75c0,0,.07-.23,0-.18l-.32.45c.18.15.14.06.34.12a.44.44,0,0,1-.1.42c.08-.28-.25-.28-.41-.31.06,0,.08.12.14.17-.48-.13.27.38-.2.42L94,108c-.06.14-.06.34-.2.42-.22-.16,0-.19-.1-.37-.15.16,0,.66-.31.59,0-.12.12-.2.14-.32-.37-.1-.34,0-.49,0h0l-.37.13h.12c.25.71-.33.46-.31,1,0-.56-.12-.22-.29-.47-.13,0-.3,0-.32-.07,0,.29-.35,0-.3.47-.07-.07-.14.11-.27-.1-.12.2.15.09.21.2,0,.47-.87.22-1,.89-.2.42,0,.72-.24,1.11-.2,0-.15-.34-.15-.34a.47.47,0,0,0-.44.37c0-.09-.11-.12-.22-.16-.11.13.14.34-.11.37a1.25,1.25,0,0,1-.13-.4c-.09.19-.12.46-.21.65-.15-.09-.08-.27-.1-.4-.12.2-.34.49-.21.74l.17,0c0,.07-.18-.15-.17-.22,0-.29.27-.11.34,0l-.06.14c.48.33.37-.45.61-.61l.18.39v-.45c.12,0,.31.19.24.33.29,0,0-.23.32-.17,0,0,0,0,0,.06l.08-.23c0,.1.21.2.08.24.43,0,.24-.62.54-.47v0c.28-.43-.17-.26-.12-.77l.69.4-.17-.26s.14-.08.21,0c0-.28-.11-.08-.16-.3.37,0,.43-.55.79-.21-.08-.24-.29,0-.2-.28.4.35.17-.27.5-.23.13.25-.13.28.2.31-.2-.43.4-.21.49-.4-.24-.28.21-.39.37-.69.07.11.59-.24.9-.33l0,0c-.19-.32.09-.47.21-.67a.46.46,0,0,1,.13.42l.16-.14a.36.36,0,0,1,0-.33l.14.24c.23-.21.18-.58.44-.56-.06-.29-.51-.5-.26-.94a.87.87,0,0,1,.1.48s0-.19.11-.16a1.82,1.82,0,0,0,0,.32c.13,0,0-.24.09-.3,0,.22.09.11.11.3,0,0-.08,0-.09.07.1,0,.21,0,.24.19a.79.79,0,0,1,0-.41c.14-.14.05.27.11.35,0-.21.09-.07.14-.5,0,0,0,0,0,0l0,.27c.07-.13.22.26.29-.2v-.05h0c.16,0,.27.22.33.43s.07.37.27.55l-.08.06c.25.17.4.48.69.53,0,.07-.05.27-.16.3.18.14.28.1.32.45-.27-.09-.09.14-.23-.12.08.28,0,.42.38.52-.27.06-.15.35,0,.42l0-.26a1.08,1.08,0,0,1,.22.35l-.32.12c0,.7,1.14.48.82,1.22.28,0,0-.35.27-.39.1.24-.14.74-.1.81.05.4.59,0,.69.39.08-.1.32-.32.56-.14s-.23.54-.4.45a.06.06,0,0,1,0-.11c-.08-.05-.18-.11-.23,0l.11,0c0,.18.19.47,0,.51.2.1.21,0,.18-.2,0,.38.28.45.38.8,0-.08.11-.2.14-.16.16.51.31.07.54.33,0,.26-.4.18-.08.38,0,.25-.23.21-.36.2.36.13.2.57.26.75l-.17-.09a.43.43,0,0,1,.19.19l.15-.21c0,.1.06.17,0,.23.19,0,.29-.28.57-.23,0,.17.33.26.09.47-.13-.4-.24.21-.47,0a.25.25,0,0,1,.13.21s-.06,0-.09,0c0,.48.4,0,.62.3-.18.05-.23.26-.17.29-.08-.13.21-.22.4-.17,0,.29.25.18.31.3l0-.17c.17,0,.23.07.37.19-.1.09-.17-.08-.18,0,.37,0,0,.56.31.68,0,.18-.27.2-.27.34.36.13,0,.42.32.59.15-.21.09-.2.41-.13l-.44-.36.49.1c-.09-.14-.32-.21-.34-.31.25,0,.19,0,.32-.13-.18.39.42.26.36.61l-.5.32c0,.47.64.41.79.92V119c.23-.08.2.24.37.32-.17.1-.18.23-.24.35.12-.09.19.32.55.14l-.09.33c.13.41.72.08.89.45-.25,0-.27.25-.54.11.07.11.11.23.22.16-.06.13.43.15.34.36.1,0,.28-.1.35,0a.15.15,0,0,1-.08,0c.08,0,.24.12.35-.1-.29.67.66.92.41,1.5a6.31,6.31,0,0,1,.62.67c-.06,0-.09.05-.1,0,.05.4.6-.13.65.33-.15.35-.26-.09-.29.09-.51.4.35.36.18.8l-.06,0c-.07.29.48.29.64.6a.28.28,0,0,0-.09,0,1.83,1.83,0,0,1,1,.55c-.27.06-.2,0-.38.15.11.1.32-.27.55-.06-.07.16,0,.4-.27.58l-.16-.23c-.22.32.21.3.24.46l-.14.07c.28.33.61.11.84.51l.07-.1c.46,0-.07.29.31.34l-.28.29a3.82,3.82,0,0,1,.86.48,2.67,2.67,0,0,1-.92-.27c.09.14.34.45.55.41-.07,0-.2-.05-.18-.14a.89.89,0,0,1,.81.41c-.62.44.23.69-.38.85.22.07.26.2.23.26s-.35,0-.4.07c.64.34,0,.05.49.45-.06.08-.1.09-.14.07a2.12,2.12,0,0,1-.45-.17c-.1,0-.07-.11,0-.15a.18.18,0,0,0,0-.12s-.17,0-.2-.08a.35.35,0,0,0-.25-.15c.14.17,0,.33-.17.35l.38.12c-.27.51-.61-.26-.89.26l0-.25c-.17.22-.82.43-.8,1-.07,0-.2-.16-.13-.25-.55.22-.92,1.09-1.47,1l0-.15c-.07.09,0,.34-.23.27,0-.06,0-.15-.08-.14s-.13.38-.31.37l0-.21c-.61.1-.6.78-1,1.1-.2-.38-.67-.29-.91-.25l0-.06a1.61,1.61,0,0,0-.67.57.85.85,0,0,1-.19.5c0-.15-.08-.22-.12-.24,0-.19-.15-.26-.06-.44-.06,0-.25.24-.36.16s-.48-.17-.13-.37l0,0c.27-.31,0-.5-.11-.7l-.46.26c.29-.94-1.13-1.18-.75-1.84-.19,0-.29-.21-.49-.25l.24-.16a2.9,2.9,0,0,0-.59-.95l.22,0c-.14-.25-.88.16-1-.05l.31-.31c-.29-.41-.26-1-.86-1.23.06,0,.17-.08.23,0-.12-.2-.27-.91-.71-.52.31-.21-.25-.45-.54-.58l.25-.12c-.42,0-.51.06-.77-.15,0-.08.15-.18.15-.06,0-.29-.33,0-.38-.35h.21c-.12-.23-.19-.16-.44-.16s-.22-.45,0-.62c-.15.06-.4,0-.42-.11a.19.19,0,0,1,.19,0c-.09-.47-.63-.36-.57-.76a.24.24,0,0,0,.11-.13,3,3,0,0,1,.3.52c.21-.15.09-.4.51-.42-.29-.07-.85-.16-.9-.45l0-.08h0c0-.07-.06-.1-.13-.12a.44.44,0,0,0-.06-.23c.16-.14-.08-.33-.15-.45-.23.17-.29,0-.39.27,0,0,0,0,.11.07a.09.09,0,0,0,0,0h0l.21.27c-.18,0-.35,0-.3-.25l-.49.09c.22-.37.19-.8.36-1-.36-.27-.64-.77-1.22-.7-.13-.06,0-.2.09-.28s.12.1.2.09c-.24-.12-.44-.56-.78-.4,0-.35.38,0,.1-.36l.12,0c0-1-1.52-.58-1.4-1.75a.18.18,0,0,1,0,.16c-.3-1-1.45-1.6-1.58-2.74-.08-.3-.29-.2-.54-.24l.22-.22L90.4,116c-.45-.21.2-1-.5-1.21l-.13.17c-.08-.18-.45-.45-.24-.55,0,0-.21.06-.16-.06l.13-.09L89,114c-.11-.37.56-.3.28-.77-.17-.13-.71-.22-.75-.1a.29.29,0,0,1-.09.33l-.18-.11c-.4.23-.87.38-.89.94l.41.1-.13.21-.16-.21c-.09.24.12.22.28.23a.41.41,0,0,0-.13.25h.54c-.13.13-.37.09-.34.32.25,0,.26-.35.51-.22-.09.24-.26.3,0,.34a.23.23,0,0,1-.26.07c.21.06.29.32.54.25-.13.27.35.4,0,.63a.91.91,0,0,1,.54.15c-.59.08.27.47-.23.73.5-.11.57.47,1,.61,0,0-.13,0-.13,0,.08.19,0,.31,0,.47.34-.2.58,0,.88,0-.18.41-.47.14-.73.41.26-.19.5.16.67,0-.09.28,0,.19-.22.45.42-.24.16.1.5.06,0,.35-.34.31-.06.47C90.75,119.73,90.46,119.61,90.46,119.61ZM95,124.88h0l-.09-.11Zm.33.48a1.13,1.13,0,0,0-.14-.22c.07-.07.17-.11.2,0S95.38,125.24,95.36,125.36Zm.92-2.11c.09,0,.06.11,0,.15l-.12-.11h0Z"/><path class="cls-1" d="M95.89,123.32l0,0a.24.24,0,0,0,0,.08l.09,0Z"/><path class="cls-1" d="M96.65,107.15h0a.15.15,0,0,1,0-.06Z"/><polygon class="cls-1" points="99.4 132.32 99.46 132.28 99.38 132.28 99.4 132.32"/><path class="cls-1" d="M94.15,107.48a.11.11,0,0,0-.08,0Z"/><path class="cls-1" d="M93.06,108.33l-.21.06Z"/><path class="cls-1" d="M92.16,108.92l.07.11h0Z"/><path class="cls-1" d="M103.94,115.45l0,0C104.07,115.53,104,115.48,103.94,115.45Z"/><path class="cls-1" d="M100.61,111.61a1.17,1.17,0,0,1,.2.06C100.78,111.59,100.75,111.53,100.61,111.61Z"/><polygon class="cls-1" points="107.32 119.95 107.32 119.96 107.34 119.98 107.32 119.95"/><path class="cls-1" d="M100.94,111.87a.24.24,0,0,0-.13-.2C100.84,111.75,100.86,111.83,100.94,111.87Z"/><path class="cls-1" d="M88.59,111.84l0,0,0,0Z"/><path class="cls-1" d="M88.57,111.9l0,.07S88.58,111.93,88.57,111.9Z"/><path class="cls-1" d="M88.5,112.1l0-.13A.09.09,0,0,0,88.5,112.1Z"/><path class="cls-1" d="M89.74,111l-.06-.09Z"/><path class="cls-1" d="M90,110.72c-.09,0-.33,0-.4.14l0,.07C89.64,110.77,90.08,110.91,90,110.72Z"/><path class="cls-1" d="M92.22,110.5l-.32.18c.11,0,.27.09.17.22C92.62,110.85,91.84,110.78,92.22,110.5Z"/><path class="cls-1" d="M93.17,109.9c-.12.16.1.11.13.17C93.33,109.91,93.34,109.87,93.17,109.9Z"/><path class="cls-1" d="M97.67,109.09l-.23.13C97.56,109.32,97.53,109.16,97.67,109.09Z"/><polygon class="cls-1" points="99.62 109.65 99.67 109.44 99.44 109.51 99.62 109.65"/><polygon class="cls-1" points="98.6 111.41 98.53 111.37 98.75 111.53 98.6 111.41"/><path class="cls-1" d="M106.13,122.62l.23-.21C106.26,122.36,106,122.54,106.13,122.62Z"/><path class="cls-1" d="M109.61,127.31c-.1.14-.09.33.1.33C109.65,127.52,109.68,127.34,109.61,127.31Z"/><polygon class="cls-1" points="102.36 132.2 102.51 132.23 102.31 132.1 102.36 132.2"/><path class="cls-1" d="M102.36,99.69c0,.07.24.15.26,0l-.26-.23Z"/><path class="cls-1" d="M103.26,99.29a.79.79,0,0,0-.56-.53c.22.26.09.23.35.54,0,.12-.19.13-.28,0,0,.08-.15.13,0,.28.3,0,.4-.18.3-.45C103.16,99.17,103.22,99.25,103.26,99.29Z"/><path class="cls-1" d="M110.44,97l0-.07A.1.1,0,0,0,110.44,97Z"/><path class="cls-1" d="M116.38,100.72a.07.07,0,0,0-.1,0S116.38,100.76,116.38,100.72Z"/><path class="cls-1" d="M117.23,101.65l0-.06S117.2,101.66,117.23,101.65Z"/><path class="cls-1" d="M110.44,97l.11.18C110.61,97.09,110.51,97.05,110.44,97Z"/><path class="cls-1" d="M103.3,97.53a.19.19,0,0,0,0,.13s0-.06,0-.1Z"/><path class="cls-1" d="M107.64,95.64l0,0-.11.09Z"/><path class="cls-1" d="M106.43,95.13a4.48,4.48,0,0,0-.15-.56,1.53,1.53,0,0,1,0,.32Z"/><path class="cls-1" d="M104.55,97.6v0Z"/><path class="cls-1" d="M109.07,96.56a.22.22,0,0,0,0,.1A.19.19,0,0,0,109.07,96.56Z"/><path class="cls-1" d="M104.23,102.77l0,0S104.22,102.76,104.23,102.77Z"/><polygon class="cls-1" points="102.99 99.94 103.03 99.96 103.14 99.84 102.99 99.94"/><path class="cls-1" d="M118.93,103.08h0C118.86,103.07,118.89,103.08,118.93,103.08Z"/><path class="cls-1" d="M129.22,113.08c.33,0,.06.48.48.35C129.59,113.4,129.51,112.93,129.22,113.08Z"/><path class="cls-1" d="M103.36,97.5a.36.36,0,0,1,0-.09A.12.12,0,0,0,103.36,97.5Z"/><path class="cls-1" d="M129.7,113.43Z"/><path class="cls-1" d="M123.36,105.51a.32.32,0,0,0,0-.13A.31.31,0,0,0,123.36,105.51Z"/><path class="cls-1" d="M120.33,103.25l.06.08A.18.18,0,0,0,120.33,103.25Z"/><path class="cls-1" d="M125.25,106.17s0,.08.1.09,0,0,0,0S125.27,106.23,125.25,106.17Z"/><path class="cls-1" d="M127,107.2a.13.13,0,0,0,0-.06l-.06,0Z"/><path class="cls-1" d="M109.09,106.6a1.12,1.12,0,0,1,.08-.26C109.07,106.52,108.79,106.38,109.09,106.6Z"/><path class="cls-1" d="M103.44,97.61c-.06,0-.08-.08-.08-.11l0,.06A.16.16,0,0,0,103.44,97.61Z"/><path class="cls-1" d="M126.45,104.3l.26.2A1.37,1.37,0,0,0,126.45,104.3Z"/><path class="cls-1" d="M120.37,115.85l-.08,0A.05.05,0,0,0,120.37,115.85Z"/><path class="cls-1" d="M127.55,105a.62.62,0,0,0,.06.26s0,0,.07,0Z"/><path class="cls-1" d="M109.17,106.34Z"/><path class="cls-1" d="M107.11,105.5c.23.2.34-.18.52-.31.35.16,0,.32-.06.55.24.07.59-.08.71,0,0,0,0,.09-.09.12.37-.07.56.45,1,.35a.12.12,0,0,1,0,.09,2.18,2.18,0,0,1,.29-.42c.11.09.35,0,.24.21-.06-.06-.13,0-.21,0h.18c-.12.35-.23,0-.39.17.29.09.72.08.83.29-.18.29-.47-.23-.44.18l-.17-.31c-.15.58-.13-.16-.32.43.28.36.49.18.77.54.19-.08.15-.24.35-.32.69.13-.17,1,.47.91.24-.1.55-.4.66,0l-.33.22c.3.3.53-.27.71.21-.15.07-.33-.11-.31,0,0,.42.29,0,.46.11l-.18.29c.39.25.93.38,1.36.65-.09.06-.22.08-.2.24a3.5,3.5,0,0,1,1.36,1.44l.37-.08s0,.17-.09.17c.11.24.13-.13.29-.15s0,.24-.09.26c.48.07,1.26.35,1.41.87h-.13c.19.31.69-.21.76.2h-.08c.5.58,1.31.9,1.46,1.6.36-.26.46.62.87.19.14.5,0,.5.32,1,.11.12.42-.13.61-.05l-.19.24.41-.08-.12.37.19.06a.27.27,0,0,1,0-.27.62.62,0,0,1,.32.75l.7.24c-.09.08-.21,0-.33,0,.49,0-.15.3.29.29,0-.08.14-.13.18-.17,0,.25.31.49.57.61l-.17.13c.36.37.89.61,1.33,1-.09-.21.18-.46.33-.38l-.15.29c.21-.09-.06-.21.27-.25.14.16-.13.37-.29.38l.27.07c0,.09-.13.09-.22.18.21-.09.14.53.48.36l-.05.09.34.25.48.34c.29.21.56.39.9.65.06-.31.3,0,.47-.18l.64.74a3.22,3.22,0,0,0,.64-.76c.21-.57,0-.38,0-.73.14.25.52-.36.43.11a5.1,5.1,0,0,0,.77-1.64c-.12,0-.2,0-.25,0s.23-.15.32-.07v0c.07-.8,1.52-1,1.39-1.71v0l.09-.64c.19-.2.07.24.31.17,0-.76.6-.8.65-1.38.85.08.74-1.22,1.44-1.4l-.16-.07c-.07-.22.17-.09.27-.15-.13-.07-.22,0-.25-.09a2.75,2.75,0,0,1,.32-.58,2.61,2.61,0,0,1,.19-.27l.36-.47c.48-.63,1-1.31,1.67-2.06-.43-.33-.9-.68-1.4-1-.74-.49-1.13.4-1.59-.37a1,1,0,0,1,.37-.16,2.94,2.94,0,0,0-.42-.11l-.32-.13a4.24,4.24,0,0,1-.59-.33,3.37,3.37,0,0,0-1.23-.57c.08,0,.13-.13.21-.08,0-.3-.58-.36-.69-.19-.1-.09.07-.17,0-.3s-.55,0-.52-.23c0,0,.09,0,.13,0-.17,0-.47-.31-.51,0-.22-.29-.61-.22-.75-.49-.3.18-.41-.42-.68-.07.25-.38-.31-.61-.59-.53.13-.08-.09-.22.08-.34-.21-.11-.44-.15-.52.07-.1-.69-1-.07-.84-.8a12.41,12.41,0,0,1-2-.57c.25-.38.62.32.84-.1-.61-.15-1.11,0-1.56-.39-.1-.13.17-.12.26-.16-.61-.15-1-.63-1.57-.69a.21.21,0,0,1,.16,0c-.09,0-.17-.18-.27,0h.12c0,.35-.68.33-.77.45.45-.41-.38-.39.24-.89a.29.29,0,0,0-.26.16c-.07-.08-.06-.17.11-.25-.38-.1-.37.16-.67,0,.06-.08.14-.08.23-.16-.25.08-.5.15-.71-.07.05,0,.06-.12.13-.08-.44-.22-1,0-1.36-.42.36-.29-.09-.22.08-.56l-.31,0v.22c-.22-.14-.55,0-.68-.24l.24,0-.45-.18.17.26c-.33,0-.22.42-.46.16.08,0-.22-.14-.22-.39h0c-.17,0-.35.07-.46-.1s.24-.34.25-.42c-.26.2-.56-.23-.86,0a.52.52,0,0,0,.19-.25l-.22.17a.23.23,0,0,1,0-.3c-.28-.22-.14.46-.4.07,0,0,0,0,.12,0-.31-.31-.79-.28-1.06-.59.09-.38.34.1.39-.24-.52-.23-1.24-.21-1.66-.56l.06.08c-.33.42-.21-.43-.58-.36.08,0,.23-.2.18-.16-.27-.27-.72-.28-1.29-.43l.13-.08c-.13-.21-.47-.35-.64-.53-.13.08-.24,0-.27.21-.23-1-1.41-.36-1.64-1.25.07,0,.22,0,.17,0l-.55-.17c-.08.22,0,.15,0,.37a.44.44,0,0,1-.43,0c.29,0,.18-.32.16-.48,0,.07-.09.11-.12.18-.07-.51-.27.38-.51-.08l.06-.1c-.17,0-.32.06-.46-.06,0-.33.16,0,.22-.27-.28-.15-.46.32-.66-.11.08,0,.21,0,.31,0a1.11,1.11,0,0,0-.48-.62l0,0-.5-.46.15.19a.81.81,0,0,1,0,.21,1.08,1.08,0,0,1-.14.65.91.91,0,0,0-.12.66c-.07-.79-.12-.31-.3-.62-.11,0-.28.14-.31,0,.05.43-.36.29-.26.85-.09,0-.14.24-.33.07-.06.29.18,0,.28.1.1.52-.76.57-.6,1.25,0,.48.21.7.16,1.15-.21,0-.26-.27-.26-.27a.53.53,0,0,0-.29.53c-.06-.08-.14-.07-.27-.07,0,.16.26.27,0,.4a1.56,1.56,0,0,1-.27-.34c0,.22.06.48,0,.71-.18,0-.17-.23-.24-.35,0,.24-.14.6.06.79l.16-.08c0,.08-.23-.07-.24-.15-.09-.28.21-.21.31-.18l0,.16c.58.14.2-.56.37-.81l.31.31-.16-.43c.12,0,.35.06.33.22.29-.09,0-.24.25-.29a.06.06,0,0,1,.06,0v-.24c.06.08.27.11.16.19.39-.22,0-.68.35-.65v0c.12-.53-.24-.19-.38-.7l.79.12-.25-.19s.11-.12.21,0c-.09-.27-.14,0-.26-.22.37-.09.24-.72.65-.46-.15-.22-.25.09-.26-.23.44.29.07-.33.35-.33.14.3,0,.3.21.37-.12-.24-.06-.31,0-.32s.18.07.19,0a.55.55,0,0,1,0-.47c.1,0,.22.15.33.14,0,.15.42.49.52.7l0,0c.08-.16.17-.2.26-.18s.24.09.35.11c-.12.19-.2.24-.36.26l.19.11a.4.4,0,0,1,.34-.06l-.19.21c.26.14.67,0,.9.37.15-.21.11-.76.53-.71,0,.13-.16.34-.28.33,0,0,.16,0,.19,0l-.25.12c.09.18.17-.12.28,0-.1.17,0,.17-.08.3s-.06-.13-.15-.09a.54.54,0,0,1,.19.46c.05-.1.14-.23.25-.19s0,.25.06.42c.13-.08.21.14.37-.11.07,0,0,.17,0,.25.2,0,.62.33.64,0l0,0h0c.58,0,.8.66,1.28.81l0,.08c.31,0,.6.27.88.2.08,0,.09.26,0,.34.23,0,.3,0,.5.27-.28,0,0,.17-.26,0,.2.22.18.39.58.32-.22.16,0,.39.19.39l-.09-.26a1.06,1.06,0,0,1,.37.23l-.24.24c.31.66,1.28,0,1.32.77.25-.12-.19-.3.07-.47.21.18.21.74.28.78.23.35.55-.24.82.07a.41.41,0,0,1,.45-.37c.21.18,0,.6-.16.59s-.07-.07,0-.1-.22,0-.2.14l.1-.09c0,.18.38.36.2.48.24,0,.18-.12.08-.25.21.32.47.28.72.56,0-.08,0-.23.06-.2.38.4.31-.07.65.07.08.26-.29.33.1.38.13.22-.12.3-.24.34.4,0,.45.44.59.57h-.2a.46.46,0,0,1,.27.09l0-.26c.07.09.14.14.09.22.17-.08.13-.38.42-.46,0,.18.42.1.3.4-.31-.31-.12.29-.46.15a.32.32,0,0,1,.22.14s-.05,0-.08,0c.21.45.34-.21.7,0-.13.12-.08.34,0,.34-.15-.09.08-.29.28-.33.16.26.31.06.42.15l-.11-.14c.14-.13.25,0,.44,0-.06.13-.2,0-.17.08.34-.16.24.52.6.49.06.17-.16.29-.1.42.4,0,.18.39.58.41,0-.26,0-.22.32-.29l-.58-.15.49-.11c-.14-.09-.38-.06-.45-.14.25-.08.2,0,.23-.25,0,.42.51,0,.62.4l-.31.5c.21.44.77.11,1.15.51l-.09-.18c.18-.16.3.14.49.15-.11.16-.06.28-.06.42.07-.13.33.21.57-.11l.07.35c.31.31.71-.24,1,0-.21.12-.12.33-.44.33.12.07.21.16.28,0,0,.14.46,0,.47.19.1,0,.22-.22.34-.12s0,.08,0,.08.28,0,.27-.25c0,.75,1,.56,1.08,1.21a5,5,0,0,1,.88.35c-.05,0-.05.08-.09,0,.23.34.49-.37.75,0,0,.38-.28,0-.23.21-.28.58.49.18.54.65h-.08c.08.3.59.06.87.28a.2.2,0,0,0,0,.09,1.83,1.83,0,0,1,1.18.08c-.22.16-.2,0-.28.29.15,0,.17-.38.47-.29,0,.17.15.39,0,.64l-.25-.13c0,.19.05.23.15.25s.15-.05.17,0l-.1.12c.17,0,.53-.2.78,0l.1-.08c.63-.07-.13.18.4.16l-.5.16h.05a.38.38,0,0,1,.23.44c-.25-.15-.32-.31-.51-.35,0,.07-.09.2.1.26,0,0-.11-.07,0-.1.32.08.35.31.19.54a.64.64,0,0,0-.38-.09c-.09,0-.12,0-.22.16s-.33.45-.65.39c-.09.66-.76.93-1.11,1.54.64.12-.1.18.44.48-.06.16-.1.2-.15.19l-.57.21c-.22,0,0-.2-.15-.26-.24.27-.3,0-.57.09.21.08.19.27,0,.4l.39-.09c0,.6-.66.08-.67.68l-.07-.24c0,.28-.53.79-.27,1.28-.08,0-.25,0-.23-.17-.4.48-.32,1.44-.84,1.67l-.1-.12c0,.12.13.33-.08.36,0,0-.1-.12-.14-.08s.15.25,0,.25a.86.86,0,0,0-.1-.16c-.1,0,0,.09,0,.31a1.69,1.69,0,0,1,0,.71,2,2,0,0,0-.08-.35c-.06-.23-.12-.48-.16-.64v-.08s-.06,0-.18.09l-.1,0-.23-.06a4.28,4.28,0,0,1-.46-.17c0-.62-.93-1-1.26-1.64,0,.12-.23.25-.35.21s-.52,0-.24-.33l0,0c.16-.38-.15-.49-.33-.66l-.37.38c0-1-1.47-.84-1.3-1.6-.2,0-.35-.11-.55-.11l.18-.21a3.19,3.19,0,0,0-.87-.78l.21-.09c-.22-.2-.81.39-1,.23l.2-.38c-.4-.32-.57-.94-1.21-1,0,0,.13-.13.21-.09-.18-.17-.55-.82-.85-.32.23-.3-.39-.37-.71-.42l.21-.19c-.41.13-.48.2-.8.06,0-.08.09-.21.13-.09-.11-.28-.33.07-.48-.24l.2-.07c-.19-.18-.23-.1-.48,0s-.35-.38-.22-.6c-.12.1-.37.16-.44,0a.21.21,0,0,1,.16-.1c-.22-.43-.72-.17-.78-.58a.26.26,0,0,0,.06-.16,2.52,2.52,0,0,1,.45.43c.16-.2,0-.42.37-.55-.3,0-.87.08-1-.2a.23.23,0,0,1,0-.09h0a.19.19,0,0,0-.17-.08.5.5,0,0,0-.13-.21c.11-.19-.18-.3-.28-.4-.17.23-.29.07-.3.36,0,0,0,0,.12,0s0,0,.07,0h0l.29.22c-.18,0-.34,0-.37-.17l-.44.22c.1-.42-.06-.83.05-1-.44-.16-.86-.58-1.41-.35-.14,0,0-.2,0-.3s.15.07.23,0c-.28-.05-.61-.43-.89-.18-.13-.33.36-.15,0-.38l.12,0c-.28-1-1.67-.15-1.91-1.34a.22.22,0,0,1,0,.18c-.62-1-1.91-1.17-2.39-2.26-.17-.27-.34-.11-.6-.09l.15-.27-.47.07c-.51-.09-.12-1.07-.87-1.06l-.07.21c-.13-.16-.57-.32-.4-.48,0,0-.18.12-.18,0l.1-.12-.56-.11c-.22-.34.45-.45,0-.83-.2-.09-.75,0-.76.11a.26.26,0,0,1,0,.34L103,100c-.32.33-.74.61-.58,1.16h.43l-.06.24-.22-.17c0,.27.18.19.35.16a.39.39,0,0,0-.06.28l.53-.14c-.08.16-.34.19-.23.4.24-.06.14-.41.42-.35,0,.26-.16.36.1.34a.21.21,0,0,1-.22.14c.21,0,.37.23.59.09,0,.31.47.3.18.63a.86.86,0,0,1,.57,0c-.55.23.42.38,0,.77.46-.23.7.31,1.15.33,0,0-.12,0-.13,0,.13.16.09.31.13.46.27-.28.57-.15.85-.23,0,.45-.4.26-.58.59.2-.25.54,0,.64-.23,0,.31.06.2-.07.51.33-.36.19,0,.5-.08.06.36-.24.39.09.47C107.43,105.54,107.11,105.5,107.11,105.5Zm6.09,3.93h0l-.12-.08Zm.47.38a1.2,1.2,0,0,0-.2-.18c0-.09.13-.15.17-.11S113.65,109.69,113.67,109.81Zm.25-2.32c.1,0,.09.09.06.15a.42.42,0,0,0-.15-.08h0Z"/><path class="cls-1" d="M113.55,107.66s0,0,0,0v.08l.08,0Z"/><path class="cls-1" d="M110.39,96.9v0a.09.09,0,0,1,0,0Z"/><polygon class="cls-1" points="119.77 115.53 119.81 115.48 119.73 115.49 119.77 115.53"/><path class="cls-1" d="M108,94.38a.27.27,0,0,0,0-.09A.14.14,0,0,0,108,94.38Z"/><path class="cls-1" d="M106.38,93.33l-.27-.27A3.27,3.27,0,0,0,106.38,93.33Z"/><path class="cls-1" d="M105.38,93.83a.77.77,0,0,0,.06.15h0Z"/><path class="cls-1" d="M121.22,101.59h0C121.38,101.6,121.31,101.59,121.22,101.59Z"/><path class="cls-1" d="M116.39,99.49a.51.51,0,0,1,.21,0C116.53,99.39,116.47,99.35,116.39,99.49Z"/><polygon class="cls-1" points="126.42 104.28 126.42 104.28 126.45 104.3 126.42 104.28"/><path class="cls-1" d="M116.81,99.59a.22.22,0,0,0-.21-.13A.42.42,0,0,0,116.81,99.59Z"/><path class="cls-1" d="M102.81,98.39l0,0,0,0Z"/><path class="cls-1" d="M102.81,98.46v.07S102.83,98.48,102.81,98.46Z"/><path class="cls-1" d="M102.82,98.67v-.14S102.76,98.61,102.82,98.67Z"/><path class="cls-1" d="M103.61,97.16l-.08-.06A.18.18,0,0,0,103.61,97.16Z"/><path class="cls-1" d="M103.8,96.75c-.08.09-.32.14-.34.3l.07,0C103.43,97,103.9,96.92,103.8,96.75Z"/><path class="cls-1" d="M105.78,95.71l-.25.29c.13,0,.3,0,.24.15C106.28,95.89,105.51,96.12,105.78,95.71Z"/><path class="cls-1" d="M106.26,95.14c0,.16.09.16.12.24C106.36,95.22,106.36,95.17,106.26,95.14Z"/><path class="cls-1" d="M112.52,98.43l-.15.21C112.52,98.69,112.42,98.55,112.52,98.43Z"/><polygon class="cls-1" points="114.57 98.11 114.52 97.89 114.34 98.06 114.57 98.11"/><polygon class="cls-1" points="114.45 100.15 114.37 100.15 114.64 100.2 114.45 100.15"/><path class="cls-1" d="M126.56,107.23l.12-.29C126.56,106.93,126.36,107.23,126.56,107.23Z"/><path class="cls-1" d="M131.51,109.79c-.14.11-.21.18,0,.14C131.51,109.89,131.59,109.79,131.51,109.79Z"/><polygon class="cls-1" points="122.61 114.61 122.77 114.6 122.54 114.52 122.61 114.61"/><path class="cls-1" d="M108.78,86.7c.07,0,.27.07.25,0l-.31-.14Z"/><path class="cls-1" d="M109.52,86.18a1,1,0,0,0-.69-.34c.29.19.15.18.49.39,0,.11-.14.15-.25.1.07.06-.11.14.08.24.28-.07.33-.23.16-.45C109.39,86.1,109.46,86.16,109.52,86.18Z"/><path class="cls-1" d="M113.63,80l-.06,0S113.6,80,113.63,80Z"/><path class="cls-1" d="M119.57,81.05a.08.08,0,0,0-.08.06C119.54,81.09,119.57,81.08,119.57,81.05Z"/><path class="cls-1" d="M120.53,81.55l0,0S120.52,81.57,120.53,81.55Z"/><path class="cls-1" d="M113.63,80l.14.12C113.8,80.05,113.7,80.06,113.63,80Z"/><path class="cls-1" d="M109,84.7a.18.18,0,0,0,.06.1.28.28,0,0,1,0-.09Z"/><path class="cls-1" d="M111.7,80.08v0l.11.16Z"/><path class="cls-1" d="M111.44,81.46s-.25-.12-.36-.17c.1,0,.15.1.16.14Z"/><path class="cls-1" d="M110.25,84.5l0,.06Z"/><path class="cls-1" d="M112.45,80.2v0Z"/><path class="cls-1" d="M111.51,88.57v0S111.49,88.57,111.51,88.57Z"/><polygon class="cls-1" points="109.44 86.77 109.47 86.76 109.51 86.61 109.44 86.77"/><path class="cls-1" d="M122.35,82.17h0S122.32,82.19,122.35,82.17Z"/><path class="cls-1" d="M134.86,85.82c.27-.16.27.36.59.1C135.34,85.94,135.05,85.6,134.86,85.82Z"/><path class="cls-1" d="M109.08,84.65s0-.05,0-.08A.15.15,0,0,0,109.08,84.65Z"/><path class="cls-1" d="M135.45,85.92h0l0,0Z"/><path class="cls-1" d="M126.67,82.6a.35.35,0,0,0,0-.12A.25.25,0,0,0,126.67,82.6Z"/><path class="cls-1" d="M123.52,81.76l.08,0A.18.18,0,0,0,123.52,81.76Z"/><path class="cls-1" d="M128.39,82.44s0,.07.11,0,0,0,0,0S128.43,82.5,128.39,82.44Z"/><path class="cls-1" d="M130.12,82.69l0-.07H130Z"/><path class="cls-1" d="M116.75,89.41a1.24,1.24,0,0,1,0-.27C116.71,89.34,116.44,89.37,116.75,89.41Z"/><path class="cls-1" d="M109.19,84.73c-.07,0-.1,0-.11-.08a.13.13,0,0,0,0,.06A.13.13,0,0,0,109.19,84.73Z"/><path class="cls-1" d="M128.76,80.26l.27.08A.71.71,0,0,0,128.76,80.26Z"/><path class="cls-1" d="M129.08,91.65l-.07,0A.05.05,0,0,0,129.08,91.65Z"/><path class="cls-1" d="M129.85,80.41a.45.45,0,0,0,.13.21.13.13,0,0,0,0-.06Z"/><path class="cls-1" d="M116.72,89.14Z"/><path class="cls-1" d="M114.8,89.46c.26.06.19-.33.28-.53.33,0,.09.3.17.5.21-.06.42-.37.56-.32s0,.08,0,.15c.26-.25.61.1.91-.22a.2.2,0,0,1,0,.1,1.91,1.91,0,0,1,0-.51c.12,0,.26-.19.26.06-.07,0-.09.07-.14.14l.14-.08c0,.36-.19.09-.23.34.26-.07.59-.3.75-.17,0,.34-.45,0-.26.38l-.26-.18c.12.57-.16-.07-.07.53.36.17.45-.09.8.07.12-.17,0-.28.14-.45.59-.23.26.92.73.55.14-.21.26-.62.49-.35l-.16.36c.35.11.31-.5.64-.18-.1.14-.31.07-.26.13.18.34.21-.18.4-.15l0,.34c.4,0,.86-.14,1.3-.12,0,.09-.14.18-.06.3a2.77,2.77,0,0,1,1.62.55l.25-.25s.06.14,0,.19c.18.15,0-.18.16-.28s.12.2,0,.27c.4-.18,1.11-.34,1.43,0l-.09.07c.27.17.44-.53.66-.21l-.06,0c.61.24,1.35.11,1.75.63.17-.4.6.3.74-.27.31.36.19.44.66.73.13,0,.27-.33.45-.36l-.05.31.28-.28.06.39.17,0a.24.24,0,0,1-.08-.25c.27-.09.56.32.53.48l.63-.15c0,.12-.14.15-.23.21.37-.25,0,.33.34.1,0-.08.05-.18.07-.24a.68.68,0,0,0,.68.24l-.08.2a14.08,14.08,0,0,0,1.41.16c-.16-.13-.05-.48.1-.49v.33c.12-.18-.13-.15.1-.36.18.07.06.39-.07.48l.24-.08c0,.1-.06.14-.1.26.13-.18.32.4.52.07v.1l.89.11c.31,0,.59,0,1,.1-.08-.3.21-.18.28-.4l1,.41a2.11,2.11,0,0,0,.17-.66c-.07-.55-.2-.33-.33-.64.24.18.3-.43.42,0,0-.38,0-.62.06-.89s0-.27,0-.43l0-.26,0-.19c-.11,0-.16.1-.25.06s.14-.21.26-.18l0,0c-.3-.65.93-1.28.46-1.83l0,0-.21-.53c.07-.22.17.16.35,0-.35-.59.18-.83,0-1.31.8-.24.11-1.21.66-1.62a.61.61,0,0,1-.19,0c-.14-.2.14-.24.2-.4-.14,0-.19.23-.27.09a11.82,11.82,0,0,1,.39-2.54l-1.36-.39-.75-.2-.73-.18c-.37-.1-.34.88-.76.39l.18-.31c-.81.29-1.55-.23-2.34,0,0-.07.07-.17.14-.16-.12-.26-.58-.09-.61.1-.11,0,0-.18-.06-.28s-.44.24-.49,0c0,0,.06-.08.09-.09-.12.1-.48-.1-.42.19-.26-.17-.55,0-.75-.15-.19.29-.46-.21-.56.22.08-.45-.44-.43-.65-.25.08-.12-.13-.16,0-.34-.2,0-.4,0-.39.27-.3-.58-.81.33-.92-.39a9.24,9.24,0,0,1-1.77.28c.09-.45.61,0,.65-.44-.54.11-.89.46-1.38.28-.12-.08.1-.19.16-.26-.54.12-1-.17-1.47,0,0,0,.06-.08.11-.1s-.2-.1-.22.11l.1,0c.1.32-.44.57-.48.72.23-.56-.43-.21-.09-.91a.29.29,0,0,0-.15.26c-.08-.06-.1-.14,0-.28-.34.06-.25.3-.54.25,0-.1.08-.13.12-.24-.17.17-.35.34-.58.23,0-.06,0-.14.08-.13-.43,0-.79.41-1.23.16.2-.41-.14-.16-.11-.54l-.26.08.07.19c-.22,0-.45.21-.62.06l.19-.13h-.42l.21.18c-.25.16,0,.47-.32.32.06,0-.22,0-.3-.27h0c-.12.11-.25.21-.4.1s.09-.4.08-.49c-.15.3-.53,0-.71.33a.57.57,0,0,0,.08-.31l-.13.24c-.09-.09-.1-.14-.06-.29-.3-.09,0,.48-.3.23,0,0,0,0,.09-.08-.35-.16-.72.06-1-.11-.05-.39.3,0,.24-.38-.49,0-1.06.3-1.51.15l.08,0c-.14.52-.31-.3-.58-.09.06,0,.12-.28.09-.22-.3-.13-.67,0-1.17.13l.08-.12c-.17-.15-.49-.14-.68-.23-.08.12-.19.09-.15.29a.64.64,0,0,0-.42-.33,1.63,1.63,0,0,0-.58,0,1.19,1.19,0,0,1-1.18-.24c.09,0,.16-.1.08-.11l-.44,0v.19c.15.15.14.1.22.11l.11.1a.22.22,0,0,1,0,.08,1,1,0,0,1,.07.45c-.08-.38-.3-.38-.44-.36.07.05.12.16.18.21-.41,0,.38.43.07.57l-.1-.1c0,.19.13.4.07.52-.26-.06-.08-.21-.28-.33,0,.27.38.62.09.72-.06-.1,0-.24-.08-.36-.34.12-.29.23-.36.33h0l-.21.29.1-.06c.63.39,0,.5.39.92-.35-.4-.23-.11-.52-.2-.1.07-.22.17-.3.12.21.2-.24.2.06.49-.1,0,0,.16-.28.07,0,.21.18,0,.29,0,.26.37-.55.61-.2,1.15.1.41.4.55.49.93-.18.08-.33-.17-.33-.17a.39.39,0,0,0-.12.5c-.07,0-.15,0-.27,0s.32.17.14.33a1.92,1.92,0,0,1-.35-.23c.05.19.19.39.24.59-.18,0-.23-.17-.32-.25,0,.21,0,.54.28.66l.12-.11c0,.08-.23,0-.27-.07-.16-.22.15-.22.25-.21l0,.13c.59,0,0-.51.11-.75l.38.19-.28-.33c.12,0,.36,0,.39.12.24-.13-.11-.19.15-.29,0,0,.06,0,.07,0l-.08-.2c.07,0,.29,0,.21.13.3-.26-.19-.57.14-.62l0,0c0-.47-.29-.11-.57-.51l.79-.06-.29-.11a.13.13,0,0,1,.18-.08c-.17-.21-.14,0-.31-.14.32-.15,0-.62.49-.56-.21-.13-.22.16-.32-.1.52,0,0-.29.25-.43.25.12.07.27.35.13-.42-.22.18-.36.13-.55-.35-.09-.07-.39-.12-.7.12,0,.28-.34.43-.4l0,0c-.31-.28-.2-.44-.23-.67a2.8,2.8,0,0,1,.3.49l0-.1a1.44,1.44,0,0,1-.12-.26.05.05,0,0,1,0,0l.17.3c.09,0,.12-.31.39-.08,0-.26-.45-.79-.12-.91,0,.14.09.39,0,.44s.07-.11.13,0a1.87,1.87,0,0,0-.07.22c.13.13,0-.19.13-.15,0,.2.08.15.07.31s-.07-.09-.1,0a.43.43,0,0,1,.22.34c0-.12,0-.27.09-.29.23,0,0,.25.17.37.08-.13.22,0,.26-.25.08,0,.07.15.09.23.14-.11.6,0,.5-.29l0,0h0c.46-.23.85.29,1.28.22v.1c.26-.08.56,0,.77-.18.07,0,.14.21.1.32.2-.05.23-.16.49,0-.22.15,0,.17-.22.1.24.12.27.29.57.06-.12.23.14.34.27.28l-.15-.21a1.1,1.1,0,0,1,.37.06l-.11.32c.45.48,1-.55,1.29.17.17-.21-.25-.2-.09-.45.23.08.4.58.47.6.3.22.37-.44.68-.27,0-.13,0-.45.24-.52s.22.53.06.61-.08,0-.07-.08-.19.07-.11.21l0-.12c.1.14.42.17.32.35.19-.08.1-.18,0-.26.28.21.47.07.76.23,0-.07-.07-.22,0-.21.43.21.23-.19.54-.2.15.2-.12.42.21.31.17.15,0,.32-.09.4.31-.18.5.22.65.29l-.16.07a.41.41,0,0,1,.24,0l0-.25c.08.06.15.07.14.17.11-.15,0-.4.19-.59.1.14.37-.08.37.24-.35-.16,0,.32-.32.32a.26.26,0,0,1,.22,0,.09.09,0,0,1-.05.08c.31.33.21-.33.57-.27-.07.17,0,.34.1.31-.15,0,0-.3.12-.42.21.17.27-.06.38,0l-.12-.08c.07-.17.18-.13.35-.17,0,.14-.16.08-.11.14.22-.28.35.38.63.21.1.13,0,.33.06.42.31-.18.27.29.59.14-.06-.25-.08-.19.16-.39l-.51.1.36-.31c-.14,0-.33.11-.41.06.18-.17.15-.12.11-.32.15.38.43-.15.62.12l-.09.58c.31.31.66-.21,1.09,0l-.13-.12c.09-.23.28,0,.44-.07a.66.66,0,0,0,.08.41c0-.15.33.06.42-.33l.17.29c.35.15.49-.5.83-.39-.14.2,0,.36-.25.48.11,0,.21.07.24-.07,0,.14.35-.21.44,0,.06-.08.1-.29.23-.25a.22.22,0,0,1,0,.1c0-.1.22-.11.14-.34.27.66,1,.1,1.24.66a4.49,4.49,0,0,1,.81,0c0,.06,0,.1-.05.07.29.23.27-.53.6-.28.14.35-.21.15-.11.28,0,.65.45,0,.64.39l-.07,0c.16.24.49-.18.79-.1a.19.19,0,0,0,0,.1,1.51,1.51,0,0,1,1-.4c-.13.24-.15.11-.13.38.13,0,0-.42.29-.45.06.15.24.29.22.57l-.25,0c.08.37.33,0,.45.11l0,.15c.36,0,.52-.37.76-.31V83c.31-.35.05.23.34,0-.06.12-.11.25-.18.37A2.64,2.64,0,0,1,136,83a8.31,8.31,0,0,0-.92.49.74.74,0,0,0,.47-.16c-.08,0-.2.11-.18,0a1.78,1.78,0,0,1,.65-.3s0,.1,0,.19c-.42.25-.49.38-.53.51a.4.4,0,0,1-.38.32c.06.06.09,0,.08.18a2.79,2.79,0,0,1-.1.39,2.44,2.44,0,0,0-.24.82c.62-.13,0,.18.6.22,0,.15,0,.2,0,.2l-.42.38c-.19.07-.11-.15-.25-.16-.09.3-.27.09-.46.27.22,0,.29.15.19.31l.31-.2c.26.47-.56.3-.3.77l-.17-.16c.08.23-.11.81.34,1.09-.07,0-.24.06-.27,0-.15.51.36,1.24,0,1.61l-.14-.06c0,.1.26.12.11.15l-.16,0c.05,0,.25.18.16.19a1.67,1.67,0,0,0-.16-.12c-.09,0,0,.08.09.25a1.91,1.91,0,0,1,.29.61h0c-.39-.52-.57-.7-.62-.78l0-.07s0,.06-.1.17-.06.12-.23.15a3.15,3.15,0,0,1-.42.09c-.25-.53-1.12-.41-1.62-.78.07.1-.07.34-.18.36s-.41.24-.32-.15h0c0-.41-.31-.35-.52-.4l-.13.51c-.4-.85-1.46,0-1.63-.71-.15.1-.32.07-.47.18l.06-.28a2.4,2.4,0,0,0-1-.22l.13-.18c-.25-.07-.47.74-.7.71V89c-.44-.08-.81-.53-1.32-.23,0-.06.06-.18.13-.18-.2,0-.75-.43-.78.15.07-.37-.44-.12-.71,0l.09-.26c-.27.31-.29.4-.59.45-.06,0,0-.23.06-.14-.19-.19-.22.22-.46,0l.13-.16c-.22-.06-.22,0-.38.22s-.42-.15-.41-.41c-.06.15-.22.33-.34.23a.21.21,0,0,1,.09-.17c-.35-.25-.63.22-.84-.1a.22.22,0,0,0,0-.17,2.18,2.18,0,0,1,.51.13c0-.25-.18-.34.07-.65-.23.15-.64.51-.85.34a.2.2,0,0,1,0-.09l0,0c-.05,0-.1,0-.16,0a.32.32,0,0,0-.18-.11c0-.22-.26-.17-.38-.2,0,.28-.19.2-.08.46,0,0,0,0,.11,0h.06l0,0,.31,0c-.12.12-.24.22-.35,0-.1.17-.2.34-.25.41-.1-.41-.38-.68-.38-.93-.4.09-.89-.06-1.22.42-.12,0-.1-.17-.12-.26s.14,0,.19-.09c-.24.1-.64-.06-.75.29-.24-.21.21-.3-.17-.31l.07-.1c-.61-.72-1.34.71-2-.19a.21.21,0,0,1,.07.15c-.84-.5-1.92,0-2.72-.73-.24-.15-.31.08-.5.23v-.31l-.33.29c-.42.18-.51-.85-1.08-.46l0,.21c-.17-.07-.57,0-.5-.21,0,0-.09.2-.14.08l0-.15-.47.19c-.3-.18.17-.61-.3-.73-.19,0-.59.36-.54.48a.26.26,0,0,1,.14.28l-.18.05c-.11.46-.32.9,0,1.3l.32-.23,0,.23-.23,0c.09.23.21.06.33-.05a.41.41,0,0,0,.07.27l.35-.39c0,.18-.19.33,0,.47.16-.18,0-.43.18-.52.1.23,0,.39.22.24a.24.24,0,0,1-.12.23c.16-.11.37,0,.49-.22.09.28.48,0,.39.45a.81.81,0,0,1,.43-.29c-.32.48.47.12.31.67.26-.44.66-.1,1-.3,0,0-.07.1-.09.08.16.07.19.22.28.32.09-.38.38-.42.56-.63.14.41-.21.43-.21.8,0-.31.42-.24.4-.52.12.26.12.14.14.48.12-.48.17-.06.35-.33.19.28,0,.46.26.36C115.06,89.33,114.8,89.46,114.8,89.46Zm6.23.29h0Zm.51.09-.22,0c0-.1,0-.19.09-.18S121.48,89.75,121.54,89.84Zm-.73-2.11c.09,0,.11,0,.11.09h-.15l0,0A.81.81,0,0,1,120.81,87.73Z"/><path class="cls-1" d="M120.6,88.06a.05.05,0,0,1,0,0,.43.43,0,0,0,0,.07l0-.08Z"/><path class="cls-1" d="M113.56,80h0a.05.05,0,0,1,0,0A0,0,0,0,1,113.56,80Z"/><polygon class="cls-1" points="128.49 91.68 128.5 91.61 128.44 91.66 128.49 91.68"/><path class="cls-1" d="M110.61,79.07a.08.08,0,0,0-.07,0Z"/><path class="cls-1" d="M110.2,80.63l-.14.15A.88.88,0,0,0,110.2,80.63Z"/><path class="cls-1" d="M109.85,81.53l.12,0h0Z"/><path class="cls-1" d="M123.72,79.89h0C123.85,79.84,123.79,79.85,123.72,79.89Z"/><path class="cls-1" d="M119.18,79.91l.16-.11C119.27,79.77,119.21,79.76,119.18,79.91Z"/><polygon class="cls-1" points="128.73 80.25 128.73 80.25 128.76 80.26 128.73 80.25"/><path class="cls-1" d="M119.55,79.84a.17.17,0,0,0-.21,0A.26.26,0,0,0,119.55,79.84Z"/><path class="cls-1" d="M108.82,85.52l0,0h0Z"/><path class="cls-1" d="M108.85,85.57l0,.06A.07.07,0,0,0,108.85,85.57Z"/><path class="cls-1" d="M108.91,85.75l0-.12S108.84,85.71,108.91,85.75Z"/><path class="cls-1" d="M109.23,84.32l-.1,0A.34.34,0,0,0,109.23,84.32Z"/><path class="cls-1" d="M109.28,83.94c0,.08-.26.17-.23.31l.08,0C109,84.19,109.43,84.06,109.28,83.94Z"/><path class="cls-1" d="M110.86,82.66l-.15.3c.12,0,.28-.08.27.07C111.39,82.71,110.73,83.06,110.86,82.66Z"/><path class="cls-1" d="M111.23,81.73c0,.18.16,0,.22,0S111.35,81.62,111.23,81.73Z"/><path class="cls-1" d="M115.74,80.51l0,.25C115.83,80.74,115.71,80.66,115.74,80.51Z"/><polygon class="cls-1" points="117.29 79.39 117.18 79.21 117.09 79.44 117.29 79.39"/><polygon class="cls-1" points="117.83 81.31 117.77 81.33 118 81.27 117.83 81.31"/><path class="cls-1" d="M129.77,82.89v-.32C129.68,82.61,129.61,83,129.77,82.89Z"/><path class="cls-1" d="M134.87,83.28c0,.16,0,.26.11.12S134.91,83.24,134.87,83.28Z"/><polygon class="cls-1" points="130.3 89.44 130.42 89.36 130.21 89.41 130.3 89.44"/></svg>