<?xml version="1.0" encoding="utf-8"?>
<!-- Generator: Adobe Illustrator 23.0.3, SVG Export Plug-In . SVG Version: 6.00 Build 0)  -->
<svg version="1.1" id="Layer_1" xmlns="http://www.w3.org/2000/svg" xmlns:xlink="http://www.w3.org/1999/xlink" x="0px" y="0px"
	 viewBox="0 0 145 132" style="enable-background:new 0 0 145 132;" xml:space="preserve">
<style type="text/css">
	.st0{fill:#202020;}
</style>
<image style="display:none;overflow:visible;" width="452" height="318" xlink:href="../../../../../../../../../../Desktop/Screenshot 2019-05-24 at 14.15.40.png"  transform="matrix(0.5 0 0 0.5 -53 -19)">
</image>
<g>
	<path class="st0" d="M46.4,1.3c-0.1,0-0.3,0.1-0.2,0.1L46.4,1.3L46.4,1.3z"/>
	<path class="st0" d="M45.8,1.6c0.2,0,0.5,0,0.7-0.1c-0.3,0-0.2,0-0.6,0c0,0,0.1-0.1,0.2-0.1c-0.1,0,0.1-0.1-0.1,0
		c-0.2,0.1-0.2,0.2,0,0.2C46,1.6,45.9,1.6,45.8,1.6z"/>
	<path class="st0" d="M46.1,5.1L46.1,5.1C46.1,5.1,46.1,5.1,46.1,5.1z"/>
	<path class="st0" d="M46.4,7.2C46.3,7.2,46.3,7.2,46.4,7.2C46.3,7.2,46.3,7.2,46.4,7.2z"/>
	<path class="st0" d="M46.1,7.6C46.1,7.6,46.1,7.6,46.1,7.6C46.1,7.6,46.1,7.6,46.1,7.6z"/>
	<path class="st0" d="M46.1,5.1L46.1,5.1C46.1,5.1,46.1,5.1,46.1,5.1z"/>
	<path class="st0" d="M46.7,1.9C46.7,1.9,46.7,1.9,46.7,1.9C46.6,1.9,46.7,1.9,46.7,1.9C46.7,1.9,46.7,1.9,46.7,1.9z"/>
	<path class="st0" d="M45.6,4.2L45.6,4.2c0,0-0.1,0-0.1,0L45.6,4.2z"/>
	<path class="st0" d="M45.4,3.5c0,0,0.3,0,0.4-0.1c-0.1,0-0.2,0-0.2,0C45.5,3.5,45.5,3.5,45.4,3.5z"/>
	<path class="st0" d="M45.6,2.3L45.6,2.3C45.6,2.3,45.6,2.3,45.6,2.3z"/>
	<path class="st0" d="M45.7,4.7C45.6,4.8,45.6,4.8,45.7,4.7C45.6,4.8,45.6,4.8,45.7,4.7z"/>
	<path class="st0" d="M52.1,24C52.1,24,52.1,24,52.1,24C52.1,24,52.1,24,52.1,24z"/>
	<path class="st0" d="M50.9,25.1L50.9,25.1c-0.1,0-0.1,0-0.2,0L50.9,25.1z"/>
	<path class="st0" d="M45.9,8.4C45.9,8.4,45.9,8.4,45.9,8.4C45.8,8.4,45.9,8.4,45.9,8.4z"/>
	<path class="st0" d="M47.4,14.3c0.2-0.1,0.3,0,0.6-0.1C47.9,14.2,47.5,14.2,47.4,14.3z"/>
	<path class="st0" d="M46.7,1.9C46.7,1.9,46.7,2,46.7,1.9C46.7,1.9,46.7,1.9,46.7,1.9z"/>
	<path class="st0" d="M48,14.2C48,14.2,48,14.2,48,14.2L48,14.2C48,14.2,48,14.2,48,14.2z"/>
	<path class="st0" d="M46.4,9.8c0,0,0.1,0,0.1,0C46.5,9.8,46.4,9.8,46.4,9.8z"/>
	<path class="st0" d="M46.5,8.6L46.5,8.6C46.5,8.7,46.5,8.6,46.5,8.6z"/>
	<path class="st0" d="M46.9,10.3C46.9,10.4,46.8,10.4,46.9,10.3C46.9,10.4,46.9,10.4,46.9,10.3C46.9,10.4,46.8,10.4,46.9,10.3z"/>
	<path class="st0" d="M47,10.9C47,10.9,47.1,10.9,47,10.9C47.1,10.9,47.1,10.9,47,10.9L47,10.9z"/>
	<path class="st0" d="M51.6,22.2c-0.1,0-0.2,0.1-0.2,0.1C51.5,22.2,51.6,22.3,51.6,22.2z"/>
	<path class="st0" d="M46.6,1.9c0.1,0,0.1,0,0.1,0c0,0,0,0,0,0C46.6,1.9,46.6,1.9,46.6,1.9z"/>
	<path class="st0" d="M49.1,9.9l0,0.1C49.1,9.9,49.1,9.9,49.1,9.9z"/>
	<path class="st0" d="M50.6,17.9L50.6,17.9C50.6,17.9,50.6,17.9,50.6,17.9z"/>
	<path class="st0" d="M49.1,10.3c-0.1,0-0.1,0.1-0.2,0.1c0,0,0,0,0.1,0L49.1,10.3z"/>
	<path class="st0" d="M51.3,22.3C51.3,22.3,51.3,22.3,51.3,22.3C51.3,22.3,51.3,22.3,51.3,22.3z"/>
	<path class="st0" d="M52.1,22.8c0-0.1-0.4,0-0.6,0.1c-0.1-0.1,0.3-0.1,0.4-0.2c-0.1,0-0.5,0-0.5-0.1c0.1,0,0.1,0,0.2,0
		c-0.3,0-0.1-0.2-0.4-0.2c0,0,0.1,0,0.1,0c-0.2,0.1-0.4,0.1-0.5,0.1c0,0-0.2,0,0-0.1c0,0,0.1,0,0.2,0l-0.1,0c0.3-0.1,0.1,0,0.4,0
		c-0.1-0.1-0.4-0.1-0.3-0.2c0.3-0.1,0.1,0.1,0.4,0l-0.1,0.1c0.5-0.2,0,0.1,0.5-0.1c0.1-0.2-0.2-0.1-0.1-0.3c-0.2,0-0.3,0.1-0.5,0.1
		c-0.4-0.1,0.8-0.3,0.3-0.4c-0.2,0-0.7,0.1-0.5-0.1l0.4-0.1c0-0.1-0.6,0-0.3-0.1c0.2,0,0.1,0.1,0.2,0c0.3-0.2-0.2,0-0.2-0.1l0.3-0.1
		c-0.1-0.1-0.4-0.2-0.4-0.4c0.1,0,0.2,0,0.3-0.1c-0.2-0.2,0-0.4,0.1-0.6l-0.3,0c0,0,0.1-0.1,0.2-0.1c0.1-0.1-0.2,0-0.3,0
		c0,0,0.2-0.1,0.2-0.1c-0.3-0.1-0.6-0.2-0.3-0.4l0.1,0c0.1-0.1-0.6,0-0.4-0.1l0.1,0c0.1-0.2-0.2-0.4,0.2-0.7
		c-0.4,0.1,0.1-0.3-0.4-0.1c0.3-0.2,0.4-0.2,0.5-0.4c0-0.1-0.4,0-0.4,0l0.3-0.1l-0.3,0l0.4-0.1l-0.1,0c0,0-0.1,0.1-0.2,0.1
		c-0.2-0.1,0.2-0.3,0.3-0.3l-0.3-0.1c0.1,0,0.2,0,0.3,0c-0.3,0,0.3-0.1,0-0.1c-0.1,0-0.2,0-0.2,0c0.2-0.1,0.1-0.2,0.1-0.3l0.2,0
		c0-0.2-0.2-0.3-0.2-0.5c-0.1,0.1-0.4,0.1-0.5,0.1l0.3-0.1c-0.2,0-0.1,0.1-0.4,0.1c0-0.1,0.4-0.1,0.5-0.1l-0.1-0.1
		c0.1,0,0.1,0,0.3,0c-0.2,0,0.3-0.2-0.1-0.2l0.1,0c0-0.2-0.2-0.2-0.2-0.4c-0.3,0.1-0.2,0-0.5,0c0.1-0.1,0.3-0.3,0.2-0.4
		c-0.2-0.1-0.2,0-0.4,0c0.2-0.1,0.2-0.2,0.4-0.2c-0.1-0.1-0.1-0.2-0.3-0.3c-0.1,0-0.1,0.1-0.2,0.1c0,0,0.1-0.1,0.2-0.1l0,0
		c-0.4-0.1,0.6-0.6,0.1-0.7l0,0l-0.3-0.1c0-0.1,0.2,0,0.3-0.1c-0.5-0.1,0-0.3-0.3-0.4c0.7-0.3-0.1-0.4,0.3-0.7l-0.2,0
		c-0.2,0,0.1-0.1,0.1-0.1c-0.1,0-0.1,0.1-0.2,0.1c-0.3-0.3,0.1-0.8,0.2-1.2c0-0.1-0.9,0.1-0.5-0.1l0.3,0c-0.4-0.2-0.1-0.5-0.5-0.7
		c0.1,0,0.2,0,0.2,0c0.2-0.1,0-0.2-0.2-0.2c0,0,0.2,0,0.3-0.1c0.1-0.1-0.3-0.1-0.1-0.2c0,0,0.1,0,0.1,0c-0.1,0,0-0.2-0.3-0.1
		c0.1-0.1-0.2-0.2,0-0.3c-0.3,0,0.1-0.2-0.3-0.1c0.4-0.1,0.3-0.3,0.1-0.3c0.1,0,0.1-0.1,0.3-0.1c0-0.1-0.1-0.1-0.3-0.1
		c0.5-0.2-0.5-0.2,0.2-0.4c-0.3-0.2-0.5-0.3-0.6-0.5c0.4-0.1,0.1,0.2,0.6,0.1c-0.2-0.1-0.6-0.2-0.6-0.4c0.1-0.1,0.2,0,0.3,0
		c-0.2-0.1,0-0.4-0.3-0.5c0,0,0.1,0,0.1,0c0,0,0-0.1-0.2,0l0.1,0c-0.3,0.1-0.6,0-0.8,0C48.1,8.1,47.6,8,48.3,8c0,0-0.1,0-0.3,0
		c0,0,0.1-0.1,0.3-0.1c-0.1-0.1-0.3,0-0.4-0.1c0.1,0,0.1,0,0.3,0c-0.2,0-0.4,0-0.3-0.1c0.1,0,0.1,0,0.1,0c-0.1-0.1-0.6-0.1-0.4-0.3
		c0.4,0,0.1-0.1,0.5-0.2L48,7.1l-0.2,0.1c0-0.1-0.3-0.1-0.2-0.2l0.2,0l-0.1-0.1L47.5,7c-0.2,0-0.5,0.1-0.4,0c0,0,0-0.1,0.2-0.2
		c0,0,0,0,0,0c-0.1,0-0.3,0-0.2-0.1c0.1,0,0.4-0.1,0.5-0.1c-0.3,0-0.1-0.2-0.5-0.1c0.1,0,0.3,0,0.3-0.1l-0.3,0
		c0.1-0.1,0.1-0.1,0.3-0.1c0-0.1-0.5,0.1-0.3,0c0,0,0.1,0,0.1,0c0.1-0.1-0.2-0.2-0.1-0.4c0.4-0.1,0.1,0.1,0.4,0
		c-0.1-0.2-0.5-0.2-0.5-0.4l0,0c-0.5,0.1,0.2-0.2,0-0.2c0,0,0.3,0,0.2,0C47.4,5.2,47.2,5.1,47,5l0.1,0c0.1-0.1,0-0.2,0.1-0.3
		c-0.1,0-0.1,0-0.3,0c0.7-0.4-0.5-0.3,0.1-0.7c0,0,0.1,0,0.1,0l-0.2-0.1C46.7,4,46.8,4,46.6,4.1c-0.1,0-0.3,0-0.3-0.1
		c0.2,0,0.4-0.1,0.5-0.1c-0.1,0-0.1,0-0.2,0C47,3.7,46.2,4,46.4,3.8l0.1,0c-0.1,0-0.2,0-0.2-0.1c0.3-0.1,0.1,0,0.3,0
		c0-0.1-0.5,0-0.3-0.1c0.1,0,0.1,0.1,0.2,0.1c0.3-0.1,0.2-0.1,0.3-0.2l0,0l0.1-0.1l-0.1,0c-0.7,0.1-0.2-0.1-0.6-0.2
		c0.4,0,0.2,0,0.5-0.1C46.8,3,46.9,3,47,3c-0.3,0,0.2-0.1-0.2-0.1c0.1,0,0-0.1,0.2-0.1c-0.1-0.1-0.2,0.1-0.3,0.1
		c-0.3,0,0.3-0.3-0.1-0.4c-0.2-0.1-0.5,0-0.7-0.1c0.1-0.1,0.4,0,0.4,0c0.1-0.1,0.1-0.1,0-0.2c0.1,0,0.2,0,0.3-0.1c0,0-0.4,0-0.2-0.1
		c0.1,0,0.3,0,0.4,0c-0.1,0-0.3-0.1-0.4-0.1c0.2-0.1,0.3,0,0.4,0c-0.1-0.1-0.2-0.1-0.5-0.1l-0.1,0.1c0,0,0.2-0.1,0.3-0.1
		c0.2,0-0.1,0.1-0.2,0.1l-0.1,0c-0.5,0.2,0.1,0.2,0.1,0.3l-0.4,0.1l0.4,0c-0.1,0-0.3,0.1-0.4,0.1c-0.2,0.1,0.2,0-0.1,0.1
		c0,0-0.1,0-0.1,0l0.1,0c-0.1,0-0.3,0.1-0.2,0c-0.2,0.2,0.3,0.1,0,0.2l0,0c0.2,0.1,0.3-0.1,0.7,0l-0.7,0.2l0.3-0.1
		c0,0,0,0.1-0.1,0.1c0.2,0,0.1,0,0.3,0c-0.3,0.1,0.2,0.2-0.3,0.3C45.9,3.1,45.9,3,46,3c-0.5,0.1,0.1,0.1-0.1,0.2
		c-0.3,0-0.1-0.1-0.4,0.1c0.5-0.1-0.1,0.2,0,0.2c0.4-0.1,0.2,0.1,0.3,0.2c-0.1,0-0.2,0.2-0.3,0.3l-0.1,0C46,4,45.9,4.1,46,4.1
		c-0.2,0-0.3,0.1-0.4,0l0,0.1c0.1,0,0.2,0,0.2,0l-0.3,0c0,0.1,0.4,0.1,0.2,0.3c0.3,0,0.7-0.2,0.9-0.2c-0.1,0-0.4,0.1-0.4,0.1
		c0,0,0.1,0,0.1,0l-0.2,0c-0.1,0.1,0.2,0,0.2,0c-0.2,0-0.1,0.1-0.3,0.1c0,0,0.1-0.1,0-0.1c0,0.1-0.1,0.1-0.3,0.2
		c0.1,0,0.3-0.1,0.3,0c0,0.1-0.2,0.1-0.3,0.2c0.1,0,0,0.1,0.3,0c0,0-0.1,0.1-0.2,0.1c0.1,0,0.1,0.2,0.4,0.1l0,0c0,0,0,0,0,0
		c0,0,0,0,0,0l0,0c0.3,0.1-0.1,0.3,0.1,0.5l-0.1,0c0.1,0.1,0.1,0.2,0.3,0.2c0,0-0.2,0.1-0.3,0.1c0.1,0.1,0.2,0,0.1,0.2
		c-0.2,0-0.1,0.1-0.1,0c-0.1,0.1-0.2,0.2,0.1,0.2c-0.3,0-0.3,0.1-0.2,0.2l0.2-0.1c0,0,0,0.1,0,0.1l-0.3,0c-0.4,0.3,0.7,0.2,0.1,0.4
		c0.2,0,0.1-0.1,0.4-0.1c0,0.1-0.5,0.3-0.5,0.3c-0.2,0.2,0.5,0,0.4,0.1c0.1,0,0.4-0.1,0.5-0.1c0,0.1-0.5,0.2-0.6,0.2c0,0,0,0,0.1,0
		c0,0-0.1,0-0.2,0l0.1,0c-0.1,0.1-0.1,0.2-0.3,0.2c0.1,0,0.2,0,0.2-0.1c-0.1,0.1,0,0.2-0.1,0.3c0.1,0,0.2-0.1,0.2-0.1
		c-0.1,0.2,0.2,0,0.3,0.1c-0.2,0.1-0.4,0.1-0.3,0.1c-0.1,0.1-0.3,0.1-0.4,0.1c0.2,0-0.1,0.2-0.1,0.3l-0.1,0c0.1,0,0.1,0,0.1,0.1
		L46,8.1c0,0,0,0.1-0.1,0.1c0.2,0,0.4-0.1,0.6-0.1c-0.1,0.1,0.2,0.1-0.2,0.2c0.1-0.1-0.3,0.1-0.4,0c0,0,0,0,0,0.1c0,0-0.1,0-0.1,0
		c-0.2,0.2,0.4,0,0.4,0.1c-0.2,0-0.3,0.1-0.3,0.1c0-0.1,0.3-0.1,0.4-0.1c-0.1,0.1,0.1,0.1,0.1,0.1l0.1-0.1c0.2,0,0.2,0,0.2,0.1
		c-0.1,0-0.1,0-0.2,0c0.3,0-0.3,0.2-0.1,0.3C46.5,9,46.3,9,46.2,9c0.2,0-0.2,0.2,0,0.2c0.2-0.1,0.2-0.1,0.4-0.1l-0.2-0.1l0.4,0
		C46.7,9,46.6,9,46.6,9c0.2,0,0.1,0,0.3-0.1c-0.3,0.1,0.2,0.1,0,0.2l-0.6,0.1c-0.2,0.2,0.3,0.1,0.2,0.3l0.1-0.1
		c0.2,0,0.1,0.1,0.2,0.1c-0.2,0-0.3,0.1-0.4,0.1c0.1,0,0,0.1,0.4,0L46.7,10c-0.1,0.1,0.6,0,0.5,0.2c-0.2,0-0.3,0.1-0.5,0
		c0,0,0,0.1,0.1,0.1c-0.1,0.1,0.3,0.1,0.1,0.1c0.1,0,0.3,0,0.3,0c0,0-0.1,0-0.1,0c0.1,0,0.1,0,0.3,0c-0.6,0.3,0.1,0.3-0.4,0.6
		c0.1,0.1,0.2,0.2,0.2,0.2c-0.1,0-0.1,0-0.1,0c-0.2,0.2,0.6-0.1,0.4,0.1c-0.3,0.1-0.2,0-0.3,0c-0.6,0.2,0.1,0.1-0.2,0.3l0,0
		c-0.2,0.1,0.3,0.1,0.3,0.2c0,0-0.1,0-0.1,0c0.3,0,0.5,0.1,0.6,0.2c-0.3,0-0.1,0-0.4,0.1c0,0,0.4-0.1,0.5,0
		c-0.1,0.1-0.2,0.2-0.5,0.2l0-0.1c-0.3,0.1,0,0.1,0,0.2l-0.2,0c0.1,0.1,0.5,0,0.5,0.2l0.1,0c0.4,0-0.2,0.1,0.1,0.1l-0.4,0.1
		c0.1,0,0.4,0.1,0.5,0.2c-0.3,0-0.5-0.1-0.7-0.1c0,0.1,0.1,0.2,0.3,0.2c0,0-0.1,0-0.1-0.1c0.3,0,0.5,0,0.5,0.1
		c-0.8,0.1-0.1,0.3-0.7,0.5c0.3,0.1,0,0.4,0.1,0.6c0.6-0.2,0,0.1,0.6-0.1c0,0,0,0.1,0,0.1l-0.3,0.2c-0.2,0.1-0.1,0-0.3,0
		c0,0.1-0.2,0.1-0.4,0.2c0.2-0.1,0.3,0,0.2,0l0.3-0.1c0.4,0.1-0.5,0.2-0.1,0.3l-0.2,0c0.1,0.1,0.1,0.3,0.6,0.3
		c-0.1,0-0.2,0.1-0.3,0.1c0,0.2,0.6,0.3,0.3,0.5l-0.1,0c0,0,0.3,0,0.2,0.1c-0.1,0-0.1,0-0.2,0c0.1,0,0.3,0,0.2,0.1l-0.2,0
		c-0.2,0.2,0.5,0.2,0.6,0.3c-0.4,0.1-0.5,0.3-0.6,0.4l-0.1,0c0,0.2,0.4,0.3,0.6,0.4c-0.4,0.2-0.1,0.4-0.3,0.7c0.1,0,0.3-0.1,0.4,0
		c-0.1,0.1,0.3,0.1-0.1,0.1l0,0C47.9,17.9,48,18,48,18l0.5-0.1c-0.7,0.4,0.4,0.4-0.3,0.7c0.1,0,0.2,0.1,0.3,0.1l-0.3,0.1
		c0,0.1-0.1,0.2,0,0.4l-0.2,0c0,0.1,0.8-0.1,0.9,0l-0.4,0.1c0,0.2-0.3,0.4,0.1,0.5c-0.1,0-0.2,0-0.2,0c0,0.1-0.2,0.3,0.3,0.2
		c-0.4,0.1,0,0.2,0.2,0.2l-0.3,0c0.4,0,0.5,0,0.6,0.1c0,0-0.2,0.1-0.2,0c-0.1,0.1,0.3,0,0.1,0.1l-0.2,0c0,0.1,0.1,0.1,0.3,0.1
		c0.1,0,0,0.2-0.3,0.2c0.2,0,0.4,0,0.3,0c-0.1,0-0.2,0-0.2,0c-0.2,0.2,0.4,0.1,0.1,0.3c-0.1,0-0.1,0-0.2,0.1c0-0.1,0-0.2,0-0.2
		C49,20.9,48.9,21,48.6,21c0.2,0,0.6,0.1,0.5,0.2c0,0,0,0-0.1,0l0,0c0,0,0,0,0.1,0c0,0-0.1,0.1-0.1,0.1c-0.2,0.1-0.1,0.1-0.1,0.2
		c0.3-0.1,0.2,0,0.5-0.1c0,0,0,0-0.1,0c0,0,0,0,0,0c0,0,0,0,0,0c0,0,0-0.1,0-0.1c0.1,0,0.3,0,0.1,0.1c0.2,0,0.4,0,0.5,0
		c-0.4,0.1-0.6,0.3-0.8,0.4c0.2,0.1,0.2,0.3,0.7,0.3c0.1,0-0.1,0.1-0.2,0.1c-0.1,0-0.1,0-0.1,0c0.1,0,0.1,0.2,0.5,0.1
		c-0.1,0.1-0.3,0-0.3,0.1l-0.1,0c-0.5,0.4,1,0.2,0.3,0.7c0,0,0.1,0,0.1-0.1c-0.3,0.4,0.5,0.6,0,1C49.9,24,50.1,24,50.3,24L50,24.1
		l0.4,0c0.3,0.1-0.7,0.4-0.2,0.5l0.2-0.1c0,0.1,0.2,0.2-0.1,0.2c0,0,0.2,0,0.1,0l-0.2,0l0.3,0.1C50.5,25,50,25,50,25.2
		c0.1,0,0.5,0.1,0.6,0c0,0,0.1-0.1,0.2-0.1l0.1,0c0.5-0.1,0.9-0.2,1.2-0.4l-0.3,0l0.2-0.1l0,0.1c0.2-0.1,0-0.1-0.1-0.1
		c0.1,0,0.2-0.1,0.2-0.1l-0.5,0c0.2-0.1,0.4,0,0.4-0.1c-0.2,0-0.4,0.1-0.5,0.1c0.2-0.1,0.4-0.1,0.2-0.1c0.1,0,0.2,0,0.2,0
		c-0.2,0-0.1-0.1-0.3-0.1c0.2-0.1-0.1-0.1,0.3-0.2c-0.1,0-0.4,0-0.4-0.1c0.5,0,0-0.2,0.6-0.3c-0.5,0-0.3-0.2-0.5-0.2
		c0,0,0.1,0,0.1,0c0-0.1,0.2-0.1,0.2-0.2c-0.4,0.1-0.5,0-0.7,0c0.4-0.2,0.5-0.1,0.8-0.2c-0.3,0.1-0.3-0.1-0.6,0
		c0.2-0.1,0.1-0.1,0.4-0.2c-0.5,0.1-0.1,0-0.4,0c0.2-0.1,0.4-0.1,0.3-0.2C51.9,22.7,52.1,22.8,52.1,22.8z M50.8,20.8
		C50.8,20.8,50.8,20.8,50.8,20.8C50.8,20.8,50.8,20.8,50.8,20.8C50.8,20.8,50.8,20.8,50.8,20.8z M50.8,20.6
		C50.8,20.7,50.8,20.7,50.8,20.6c-0.1,0.1-0.2,0.1-0.2,0.1C50.6,20.7,50.7,20.7,50.8,20.6z M48.9,21.4C48.9,21.4,49,21.4,48.9,21.4
		c0.1,0,0.1,0,0.1,0c0,0,0,0,0,0C49,21.4,49,21.4,48.9,21.4z"/>
	<path class="st0" d="M49.3,21.4C49.3,21.4,49.3,21.4,49.3,21.4C49.4,21.4,49.4,21.4,49.3,21.4C49.4,21.4,49.3,21.4,49.3,21.4
		C49.3,21.4,49.3,21.4,49.3,21.4z"/>
	<path class="st0" d="M46.1,5.1L46.1,5.1C46.1,5.1,46.1,5,46.1,5.1C46.1,5,46.1,5,46.1,5.1z"/>
	<polygon class="st0" points="50.7,18 50.7,18.1 50.7,18.1 	"/>
	<path class="st0" d="M46.8,3.9C46.9,3.8,46.9,3.8,46.8,3.9C46.9,3.8,46.9,3.8,46.8,3.9z"/>
	<path class="st0" d="M46.8,3.4L46.8,3.4C46.8,3.4,46.8,3.4,46.8,3.4z"/>
	<path class="st0" d="M46.9,3.1c0,0-0.1,0-0.1,0c0,0,0,0,0,0L46.9,3.1z"/>
	<path class="st0" d="M48.3,8.2C48.3,8.2,48.4,8.2,48.3,8.2C48.4,8.2,48.4,8.2,48.3,8.2z"/>
	<path class="st0" d="M47.4,6.8c0.1,0,0.1,0,0.1,0C47.5,6.8,47.5,6.8,47.4,6.8z"/>
	<polygon class="st0" points="49.1,9.9 49.1,9.9 49.1,9.9 	"/>
	<path class="st0" d="M47.5,6.9C47.6,6.8,47.5,6.8,47.5,6.9C47.5,6.8,47.5,6.9,47.5,6.9z"/>
	<path class="st0" d="M46.7,1.6L46.7,1.6C46.7,1.6,46.7,1.6,46.7,1.6L46.7,1.6z"/>
	<path class="st0" d="M46.6,1.6L46.6,1.6C46.6,1.6,46.6,1.6,46.6,1.6z"/>
	<path class="st0" d="M46.5,1.6L46.5,1.6C46.6,1.6,46.6,1.6,46.5,1.6z"/>
	<path class="st0" d="M46.6,2.1l0.1,0C46.7,2.1,46.7,2.1,46.6,2.1z"/>
	<path class="st0" d="M46.7,2.2c0,0,0.2-0.1,0.1-0.2l-0.1,0C46.9,2,46.5,2.2,46.7,2.2z"/>
	<path class="st0" d="M45.6,3l0.1-0.1c-0.1,0-0.2,0.1-0.3,0.1C45.1,3.2,45.6,2.9,45.6,3z"/>
	<path class="st0" d="M45.5,3.4c-0.1,0-0.2,0-0.2,0C45.4,3.5,45.4,3.5,45.5,3.4z"/>
	<path class="st0" d="M46.1,5.9l-0.3,0C45.9,6,45.9,5.9,46.1,5.9z"/>
	<polygon class="st0" points="47.5,6.1 47.6,6 47.4,6 	"/>
	<polygon class="st0" points="45.7,6.7 45.7,6.7 45.8,6.8 	"/>
	<path class="st0" d="M46.8,10.9l0.3-0.1C47,10.8,46.7,10.9,46.8,10.9z"/>
	<path class="st0" d="M47.5,12.6c-0.1,0.1-0.2,0.1-0.1,0.1C47.4,12.7,47.5,12.6,47.5,12.6z"/>
	<polygon class="st0" points="48.2,18.1 48.1,18.1 48.2,18.1 	"/>
</g>
<g>
	<path class="st0" d="M12.1,11.8c-0.1,0-0.2,0.2-0.1,0.2l0.3-0.2L12.1,11.8z"/>
	<path class="st0" d="M11.9,12.4c0.2-0.1,0.4-0.2,0.6-0.5c-0.3,0.2-0.2,0.1-0.5,0.3c-0.1,0,0-0.1,0.1-0.2c-0.1,0,0-0.1-0.2,0
		c-0.1,0.2-0.1,0.3,0.1,0.2C12,12.4,11.9,12.4,11.9,12.4z"/>
	<path class="st0" d="M15,16.2L15,16.2C15,16.2,15,16.2,15,16.2z"/>
	<path class="st0" d="M17.1,18.4C17.1,18.4,17,18.4,17.1,18.4C17,18.4,17.1,18.4,17.1,18.4z"/>
	<path class="st0" d="M17.2,19C17.2,19,17.2,19,17.2,19C17.2,19,17.2,19,17.2,19z"/>
	<path class="st0" d="M15,16.2l0,0.1C15.1,16.2,15.1,16.2,15,16.2z"/>
	<path class="st0" d="M12.9,12.3C12.9,12.3,12.9,12.3,12.9,12.3C12.9,12.4,12.9,12.4,12.9,12.3C12.9,12.4,12.9,12.3,12.9,12.3z"/>
	<path class="st0" d="M13.9,15.5L13.9,15.5c0,0-0.1,0-0.1,0.1L13.9,15.5z"/>
	<path class="st0" d="M13.1,14.8c0,0,0.2-0.2,0.3-0.3c-0.1,0.1-0.1,0.1-0.2,0.1C13.2,14.7,13.2,14.7,13.1,14.8z"/>
	<path class="st0" d="M12.3,13.3L12.3,13.3C12.3,13.3,12.3,13.3,12.3,13.3z"/>
	<path class="st0" d="M14.4,16C14.4,16,14.3,16.1,14.4,16C14.3,16.1,14.4,16,14.4,16z"/>
	<path class="st0" d="M36.4,34.2C36.4,34.2,36.4,34.2,36.4,34.2C36.4,34.2,36.4,34.2,36.4,34.2z"/>
	<path class="st0" d="M36.3,36L36.3,36c-0.1,0-0.1,0.1-0.1,0.1L36.3,36z"/>
	<path class="st0" d="M17.6,19.9C17.6,19.9,17.6,19.9,17.6,19.9C17.6,19.9,17.6,19.9,17.6,19.9z"/>
	<path class="st0" d="M24,25.7c0.1-0.2,0.3-0.1,0.4-0.4C24.4,25.4,24,25.5,24,25.7z"/>
	<path class="st0" d="M12.9,12.4C12.9,12.4,12.9,12.4,12.9,12.4C12.9,12.4,12.9,12.4,12.9,12.4z"/>
	<path class="st0" d="M24.4,25.3C24.4,25.3,24.4,25.3,24.4,25.3L24.4,25.3C24.5,25.3,24.5,25.3,24.4,25.3z"/>
	<path class="st0" d="M19.3,21.3c0,0,0.1-0.1,0.1-0.1C19.4,21.2,19.4,21.2,19.3,21.3z"/>
	<path class="st0" d="M18.4,19.9L18.4,19.9C18.4,19.9,18.4,19.9,18.4,19.9z"/>
	<path class="st0" d="M20.2,21.6C20.2,21.6,20.2,21.7,20.2,21.6C20.2,21.6,20.2,21.6,20.2,21.6C20.2,21.6,20.2,21.6,20.2,21.6z"/>
	<path class="st0" d="M20.8,22.2C20.8,22.2,20.9,22.2,20.8,22.2C20.9,22.1,20.8,22.1,20.8,22.2L20.8,22.2z"/>
	<path class="st0" d="M34.4,32.4c0,0.1-0.1,0.1-0.1,0.2C34.4,32.5,34.5,32.5,34.4,32.4z"/>
	<path class="st0" d="M12.8,12.4c0.1,0,0.1-0.1,0.1-0.1C12.9,12.4,12.9,12.4,12.8,12.4C12.9,12.4,12.8,12.4,12.8,12.4z"/>
	<path class="st0" d="M21.8,20l0.1,0.1C21.8,20.1,21.8,20.1,21.8,20z"/>
	<path class="st0" d="M29.9,28.1L29.9,28.1C29.9,28.1,29.9,28.1,29.9,28.1z"/>
	<path class="st0" d="M22.2,20.4c-0.1,0.1-0.1,0.1-0.1,0.2c0,0,0,0,0.1,0L22.2,20.4z"/>
	<path class="st0" d="M34.3,32.7C34.3,32.7,34.3,32.7,34.3,32.7C34.3,32.7,34.3,32.7,34.3,32.7z"/>
	<path class="st0" d="M35.4,32.8c-0.1-0.1-0.3,0.2-0.5,0.4c-0.2,0,0.1-0.2,0.2-0.4c-0.1,0-0.4,0.2-0.5,0.1c0,0,0-0.1,0.1-0.1
		c-0.3,0.1-0.2-0.2-0.6,0c0,0,0-0.1,0.1-0.1c-0.1,0.1-0.2,0.3-0.3,0.4c0,0-0.2,0.1-0.1-0.1c0,0,0.1,0,0.2-0.1l-0.1,0
		c0.2-0.3,0.1,0,0.3-0.2c-0.2,0-0.5,0.1-0.5,0c0.2-0.3,0.2,0.1,0.4-0.2l0,0.2c0.3-0.5,0,0.1,0.4-0.4c-0.1-0.2-0.3,0-0.3-0.2
		c-0.2,0.1-0.2,0.2-0.3,0.3c-0.4,0.1,0.4-0.8,0-0.6c-0.2,0.1-0.5,0.4-0.4,0.2l0.3-0.2c-0.1-0.2-0.5,0.3-0.4,0c0.1-0.1,0.2,0,0.2,0
		c0.1-0.3-0.2,0.1-0.3,0l0.2-0.3c-0.2-0.1-0.5-0.1-0.7-0.2c0.1-0.1,0.2-0.1,0.2-0.2c-0.3-0.1-0.4-0.4-0.4-0.8l-0.3,0.1
		c0,0,0.1-0.1,0.1-0.1c0-0.2-0.1,0.1-0.2,0.2c-0.1,0,0.1-0.2,0.1-0.2c-0.3,0.1-0.7,0-0.7-0.3l0.1,0c0-0.2-0.5,0.3-0.4,0l0.1,0
		c-0.1-0.3-0.6-0.4-0.5-0.9c-0.3,0.3-0.1-0.4-0.5,0.1c0.1-0.3,0.2-0.4,0.1-0.7c0-0.1-0.3,0.2-0.4,0.2l0.2-0.2l-0.3,0.2l0.2-0.3
		l-0.1,0c0,0,0,0.1-0.1,0.2c-0.2,0-0.1-0.4,0-0.5l-0.4,0c0.1-0.1,0.2-0.1,0.2-0.1c-0.3,0.1,0.2-0.3-0.1-0.1c0,0.1-0.1,0.1-0.2,0.2
		c0.1-0.2,0-0.3-0.2-0.3l0.2-0.1c-0.1-0.2-0.4-0.2-0.6-0.4c0,0.1-0.3,0.4-0.4,0.4l0.2-0.3c-0.2,0.1,0,0.1-0.3,0.3
		c0-0.1,0.2-0.3,0.3-0.4l-0.2,0c0.1-0.1,0.1-0.1,0.2-0.2c-0.2,0.1,0.1-0.4-0.2-0.2l0.1-0.1c-0.2-0.2-0.3-0.2-0.5-0.3
		c-0.2,0.2-0.2,0.1-0.4,0.2c0-0.2,0-0.4-0.2-0.5c-0.2,0-0.2,0.1-0.3,0.2c0.2-0.2,0-0.3,0.2-0.4c-0.2-0.1-0.2-0.2-0.6-0.2
		c-0.1,0.1-0.1,0.2-0.1,0.2c-0.1,0,0-0.2,0.1-0.2l0,0c-0.5,0.1,0-1-0.5-0.8l0,0l-0.4,0c-0.1-0.1,0.2-0.1,0.2-0.3
		c-0.5,0.1-0.3-0.3-0.6-0.3c0.4-0.7-0.5-0.4-0.3-0.9l-0.1,0.1c-0.2,0.1,0-0.1,0-0.2c-0.1,0.1-0.1,0.2-0.2,0.2
		c-0.5-0.2-0.6-0.9-0.8-1.4c-0.1-0.2-0.7,0.6-0.6,0.1l0.3-0.2c-0.6,0-0.6-0.6-1.1-0.6c0.1,0,0.1-0.1,0.2-0.1
		c0.1-0.2-0.2-0.2-0.3-0.1c0-0.1,0.1-0.1,0.2-0.2c0-0.2-0.4,0.1-0.2-0.1c0,0,0.1,0,0.1,0c-0.1,0-0.2-0.2-0.3,0
		c0-0.2-0.3-0.1-0.2-0.3c-0.3,0.2-0.1-0.3-0.4,0c0.3-0.3,0.1-0.4-0.1-0.3c0.1-0.1,0-0.2,0.2-0.3c-0.1-0.1-0.2-0.1-0.4,0.1
		c0.2-0.5-0.6,0.1-0.2-0.5c-0.4,0-0.7-0.1-1-0.2c0.3-0.3,0.2,0.2,0.6-0.2c-0.3,0-0.7,0.1-0.8-0.1c0-0.1,0.2-0.1,0.2-0.2
		c-0.3,0-0.3-0.4-0.7-0.4c0,0,0.1,0,0.1-0.1c0,0,0-0.1-0.2,0l0.1,0c-0.2,0.3-0.6,0.3-0.7,0.4c0.5-0.4-0.1-0.3,0.5-0.7
		c0,0-0.1,0.1-0.2,0.2c0-0.1,0-0.1,0.2-0.2c-0.2,0-0.3,0.2-0.4,0.1c0.1-0.1,0.1-0.1,0.2-0.2c-0.2,0.1-0.4,0.2-0.4,0
		c0,0,0.1-0.1,0.1-0.1c-0.2-0.1-0.6,0.1-0.7-0.2c0.3-0.3,0-0.2,0.3-0.4l-0.2,0l-0.1,0.2c-0.1-0.1-0.3,0-0.3-0.1l0.2-0.1L18,17.4
		l0,0.2c-0.2,0.1-0.3,0.3-0.4,0.2c0,0-0.1-0.1,0-0.3c0,0,0,0,0,0c-0.1,0-0.2,0.1-0.2,0c0.1-0.1,0.3-0.3,0.3-0.4
		c-0.3,0.2-0.2-0.1-0.5,0.1c0.1,0,0.2-0.2,0.2-0.2l-0.2,0.2c0-0.1,0-0.1,0.2-0.2c-0.1-0.1-0.3,0.4-0.3,0.1c0,0,0,0,0.1,0
		c-0.1-0.2-0.4-0.1-0.4-0.3c0.2-0.3,0.2,0,0.3-0.2c-0.2-0.1-0.7,0-0.8-0.2l0,0.1c-0.4,0.4,0.1-0.3-0.2-0.2c0,0,0.2-0.2,0.2-0.1
		c-0.1-0.2-0.3-0.1-0.6-0.2l0.1-0.1c0-0.2-0.1-0.2-0.2-0.3c-0.1,0.1-0.1,0-0.3,0.2c0.3-0.8-0.7-0.1-0.5-0.8c0,0,0.1,0,0.1,0
		l-0.3-0.1c-0.1,0.2-0.1,0.1-0.2,0.3c-0.1,0.1-0.2,0.1-0.3,0.1c0.2,0,0.3-0.3,0.3-0.4c0,0.1-0.1,0.1-0.2,0.2c0.2-0.4-0.3,0.3-0.3,0
		l0.1-0.1c-0.1,0-0.2,0.1-0.3,0c0.2-0.2,0.1,0,0.3-0.2c-0.1-0.1-0.5,0.2-0.4,0c0.1,0,0.1,0,0.2,0c0.1-0.3,0.1-0.2,0.1-0.3l0,0l0-0.2
		l0,0.1c-0.6,0.4-0.3-0.1-0.7,0.1c0.4-0.2,0.2-0.2,0.4-0.4c0-0.1,0-0.2,0.1-0.3c-0.2,0.1,0-0.2-0.3,0c0.1-0.1-0.1-0.1,0.1-0.2
		c-0.1,0-0.1,0.1-0.2,0.2c-0.3,0.1,0-0.5-0.5-0.4c-0.3,0-0.5,0.2-0.8,0.2c0.1-0.2,0.3-0.2,0.3-0.2c0-0.2,0-0.2-0.2-0.2
		c0.1,0,0.1-0.1,0.2-0.2c-0.1,0-0.3,0.2-0.3,0.1c0.1-0.1,0.2-0.2,0.3-0.2c-0.1,0-0.3,0.1-0.4,0.1c0.1-0.1,0.2-0.1,0.3-0.2
		c-0.1,0-0.3-0.1-0.5,0.1l0,0.1c0,0,0.1-0.2,0.2-0.2c0.2-0.1,0,0.2,0,0.2l-0.1,0c-0.3,0.5,0.2,0.1,0.3,0.2L12.3,13l0.3-0.2
		c-0.1,0.1-0.2,0.3-0.3,0.3c-0.1,0.2,0.2-0.1,0.1,0.2c0,0,0,0-0.1,0l0.2,0c-0.1,0.1-0.2,0.2-0.2,0.1c-0.1,0.3,0.4,0,0.2,0.2l0,0
		c0.3,0.1,0.2-0.2,0.6-0.3l-0.4,0.6l0.2-0.2c0,0,0,0.1-0.1,0.2c0.2-0.1,0.1-0.1,0.3-0.2c-0.1,0.3,0.3,0.1,0,0.5
		c0.2-0.1,0-0.2,0.2-0.2c-0.3,0.4,0.2,0,0.1,0.3c-0.2,0.2-0.2,0-0.3,0.2c0.4-0.3,0.1,0.2,0.2,0.2c0.3-0.3,0.2,0,0.4,0
		c-0.1,0.1,0.1,0.3,0.1,0.5l0,0c0.3-0.2,0.3-0.1,0.4-0.1c-0.2,0.2-0.2,0.2-0.3,0.2l0.1,0.1c0.1-0.1,0.2-0.1,0.2-0.1l-0.2,0.2
		c0.1,0.1,0.4-0.1,0.4,0.2c0.2-0.2,0.4-0.6,0.6-0.6c-0.1,0.1-0.3,0.3-0.3,0.3c0,0,0.1,0,0.1,0l-0.2,0.1c0,0.1,0.2-0.1,0.2-0.1
		c-0.1,0.1-0.1,0.1-0.2,0.2c0,0,0-0.1-0.1-0.1c0,0.1,0,0.2-0.1,0.3c0.1-0.1,0.2-0.2,0.2-0.2c0.1,0.1-0.1,0.2-0.2,0.3
		c0.1-0.1,0.1,0.1,0.3-0.1c0,0-0.1,0.1-0.1,0.2c0.1,0,0.2,0.2,0.4-0.1l0,0c0,0,0,0,0,0c0,0,0,0,0,0l0,0c0.4-0.1,0.2,0.4,0.4,0.5
		l-0.1,0.1c0.2,0,0.2,0.1,0.5,0.1c0,0-0.1,0.2-0.2,0.3c0.1,0,0.2-0.1,0.2,0.2c-0.2,0.1-0.1,0.1-0.2,0c0,0.1-0.1,0.3,0.2,0.2
		c-0.2,0.2-0.2,0.3-0.1,0.3l0.1-0.2c0.1,0,0.1,0.1,0.1,0.1l-0.3,0.2c-0.1,0.5,0.8-0.2,0.5,0.4c0.2-0.1,0-0.2,0.2-0.4
		c0.1,0.1-0.2,0.5-0.2,0.6c0,0.2,0.4-0.2,0.5,0c0.1-0.1,0.3-0.3,0.4-0.3c0.1,0.1-0.2,0.5-0.4,0.5c0,0,0,0,0-0.1
		c-0.1,0-0.1,0-0.2,0.1l0.1-0.1c0,0.1,0.1,0.2-0.1,0.3c0.1,0,0.2-0.1,0.2-0.2c0,0.2,0.2,0.2,0.2,0.4c0-0.1,0.1-0.2,0.1-0.2
		c0.1,0.3,0.2-0.1,0.4,0c-0.1,0.2-0.3,0.3-0.1,0.3c0,0.2-0.2,0.2-0.3,0.3c0.3-0.1,0.1,0.3,0.1,0.4l-0.1,0c0.1,0,0.1,0,0.1,0l0.1-0.2
		c0,0.1,0,0.1,0,0.2c0.1-0.1,0.2-0.3,0.5-0.4c0,0.1,0.2,0,0,0.3c-0.1-0.2-0.2,0.2-0.4,0.2c0,0,0.1,0,0.1,0.1c0,0,0,0-0.1,0
		c-0.1,0.3,0.3-0.2,0.4-0.1c-0.1,0.1-0.2,0.3-0.2,0.3c-0.1-0.1,0.2-0.2,0.3-0.3c0,0.2,0.2,0,0.2,0.1l0-0.1c0.1-0.1,0.2-0.1,0.3,0
		c-0.1,0.1-0.1,0-0.1,0.1c0.3-0.2-0.1,0.4,0.2,0.3c0,0.1-0.2,0.2-0.2,0.3c0.3-0.1-0.1,0.3,0.2,0.2c0.1-0.2,0.1-0.2,0.3-0.3l-0.3,0
		l0.4-0.1c-0.1-0.1-0.2,0-0.2-0.1c0.2-0.1,0.1-0.1,0.3-0.2c-0.2,0.3,0.3,0,0.2,0.2l-0.4,0.4c-0.1,0.3,0.4,0,0.5,0.3l0-0.1
		c0.2-0.1,0.1,0.1,0.2,0.1c-0.1,0.1-0.2,0.2-0.2,0.3c0.1-0.1,0.1,0.1,0.4-0.1l-0.1,0.3c0.1,0.2,0.5-0.3,0.6-0.1
		c-0.2,0.1-0.2,0.3-0.4,0.3c0,0,0.1,0.1,0.1,0c-0.1,0.1,0.3-0.1,0.2,0.1c0.1,0,0.2-0.2,0.3-0.1c0,0-0.1,0.1-0.1,0.1
		c0.1-0.1,0.2,0,0.3-0.2c-0.3,0.6,0.4,0.3,0.1,0.8c0.1,0,0.3,0.1,0.4,0.2c0,0-0.1,0.1-0.1,0c0,0.2,0.5-0.3,0.5-0.1
		c-0.2,0.3-0.2,0.1-0.2,0.2c-0.4,0.5,0.2,0.1,0,0.4l0,0c-0.1,0.2,0.3,0,0.4,0.1c0,0,0,0-0.1,0.1c0.3-0.2,0.5-0.1,0.7-0.1
		c-0.2,0.2-0.1,0.1-0.3,0.3c0.1,0,0.3-0.3,0.4-0.3c-0.1,0.1-0.1,0.3-0.3,0.5l-0.1-0.1c-0.2,0.3,0.1,0.1,0.1,0.2l-0.1,0.1
		c0.2,0.1,0.4-0.2,0.6,0l0.1-0.1c0.3-0.2-0.1,0.2,0.2,0.1L22.8,24c0.1,0,0.5-0.1,0.6-0.1c-0.3,0.2-0.5,0.2-0.7,0.2
		c0.1,0.1,0.2,0.2,0.4,0c0,0-0.1,0.1-0.1,0c0.3-0.2,0.5-0.2,0.6-0.1c-0.5,0.5,0.1,0.4-0.2,0.9c0.4,0,0.3,0.4,0.5,0.6
		c0.3-0.5,0.1,0,0.5-0.4c0.1,0,0.1,0,0.1,0.1l-0.1,0.4c-0.1,0.2-0.1,0.1-0.2,0.2c0.1,0.1-0.1,0.2-0.2,0.4c0.1-0.2,0.3-0.2,0.3-0.1
		l0.1-0.3c0.4-0.1-0.2,0.5,0.2,0.4l-0.2,0.1c0.2,0,0.3,0.3,0.7,0c0,0.1-0.1,0.2-0.2,0.2c0.1,0.2,0.8,0,0.7,0.4l-0.1,0.1
		c0.1,0,0.3-0.1,0.2,0c0,0-0.1,0.1-0.1,0.1c0.1,0,0.3-0.1,0.3,0l-0.2,0.1c0.1,0.3,0.6,0,0.8,0.1c-0.3,0.3-0.3,0.6-0.2,0.7l0,0
		c0.2,0.2,0.6,0.1,0.9,0.2c-0.2,0.5,0.3,0.6,0.3,0.9c0-0.1,0.2-0.2,0.3-0.2c0,0.1,0.3-0.1,0.1,0.2l0,0c-0.2,0.3-0.1,0.3,0,0.4
		l0.4-0.4c-0.3,0.7,0.7,0.3,0.3,0.9c0.1,0,0.2,0,0.3,0l-0.2,0.2c0.1,0.2,0.1,0.3,0.3,0.4l-0.2,0.1c0.1,0.1,0.7-0.5,0.8-0.4l-0.3,0.3
		c0.2,0.1,0.1,0.6,0.5,0.4c0,0-0.1,0.1-0.2,0.1c0.1,0.1,0.1,0.5,0.5,0c-0.3,0.3,0.1,0.2,0.3,0.1l-0.2,0.2c0.3-0.2,0.4-0.3,0.6-0.2
		c0,0-0.1,0.2-0.1,0.1c0,0.2,0.2-0.1,0.2,0.1l-0.2,0.1c0.1,0.1,0.1,0,0.3-0.1c0.1,0,0.1,0.2-0.1,0.4c0.1-0.1,0.3-0.2,0.3-0.1
		c-0.1,0.1-0.1,0.1-0.1,0.1c0,0.3,0.4,0,0.3,0.3c-0.1,0.1-0.1,0.1-0.1,0.1c-0.1-0.1-0.2-0.2-0.2-0.2c-0.2,0.2-0.1,0.3-0.4,0.5
		c0.2-0.1,0.6-0.3,0.6-0.1c0,0,0,0,0,0.1l0,0c0,0,0,0,0.1,0c0,0.1,0,0.1,0,0.1c-0.1,0.2,0,0.2,0.1,0.2c0.2-0.2,0.2-0.1,0.3-0.3
		c0,0,0,0-0.1,0c0,0,0,0,0,0c0,0,0,0,0,0c0,0-0.1-0.1-0.1-0.1c0.1-0.1,0.3-0.1,0.2,0c0.1-0.1,0.3-0.2,0.4-0.3
		c-0.2,0.3-0.2,0.6-0.4,0.8c0.2,0,0.4,0.2,0.8-0.1c0.1,0-0.1,0.2-0.1,0.2c-0.1,0-0.1,0-0.1,0c0.2,0,0.3,0.2,0.5-0.1
		c0,0.2-0.3,0.2-0.1,0.3l-0.1,0.1c-0.1,0.7,1.1-0.3,0.8,0.6c0-0.1,0-0.1,0.1-0.1c0.1,0.6,0.9,0.4,0.9,1.1c0,0.2,0.2,0,0.4-0.1
		l-0.2,0.2l0.3-0.2c0.3-0.1-0.3,0.8,0.2,0.6l0.1-0.2c0,0.1,0.3,0.1,0.1,0.3c0,0,0.2-0.1,0.1,0l-0.1,0.1l0.3,0c0,0.2-0.5,0.4-0.3,0.6
		c0.1,0,0.5-0.2,0.6-0.3c0,0,0-0.1,0.1-0.3l0.1,0c0.3-0.3,0.7-0.6,0.8-1l-0.3,0.1l0.1-0.2L37,35c0.1-0.2-0.1-0.1-0.2,0
		c0.1-0.1,0.1-0.2,0.1-0.2L36.5,35c0.1-0.1,0.3-0.2,0.3-0.4c-0.2,0.1-0.2,0.3-0.4,0.4c0.1-0.2,0.2-0.3,0-0.2
		c0.1-0.1,0.1-0.1,0.2-0.2c-0.2,0.1-0.2-0.1-0.4,0.1c0.1-0.2-0.2-0.1,0.1-0.4c-0.1,0.1-0.3,0.2-0.4,0.1c0.5-0.3-0.2-0.2,0.3-0.6
		c-0.4,0.3-0.4-0.1-0.7,0c0,0,0.1-0.1,0.1,0c0-0.1,0-0.2,0.1-0.3c-0.3,0.3-0.4,0.2-0.7,0.4c0.2-0.3,0.4-0.3,0.6-0.6
		c-0.2,0.2-0.4,0.1-0.5,0.3c0.1-0.2,0-0.1,0.2-0.4c-0.3,0.3-0.1,0-0.4,0.2c0.1-0.3,0.3-0.4,0.1-0.3C35.2,32.9,35.4,32.8,35.4,32.8z
		 M32.6,31.3C32.6,31.3,32.6,31.3,32.6,31.3C32.6,31.3,32.6,31.3,32.6,31.3C32.6,31.3,32.6,31.3,32.6,31.3z M32.4,31.1
		C32.4,31.1,32.4,31.2,32.4,31.1c0,0.2-0.1,0.2-0.1,0.2C32.4,31.3,32.4,31.2,32.4,31.1z M31.4,32.9C31.4,32.9,31.4,32.8,31.4,32.9
		C31.5,32.8,31.5,32.8,31.4,32.9c0.1-0.1,0.1-0.1,0.1-0.1C31.5,32.8,31.5,32.9,31.4,32.9z"/>
	<path class="st0" d="M31.7,32.7C31.7,32.7,31.8,32.7,31.7,32.7C31.8,32.7,31.8,32.6,31.7,32.7C31.8,32.6,31.7,32.7,31.7,32.7
		C31.7,32.7,31.7,32.7,31.7,32.7z"/>
	<path class="st0" d="M15,16.1L15,16.1C15.1,16.1,15.1,16.1,15,16.1C15.1,16.1,15.1,16.1,15,16.1z"/>
	<polygon class="st0" points="30.2,28.2 30.1,28.3 30.2,28.3 	"/>
	<path class="st0" d="M14.7,14.4C14.7,14.4,14.7,14.4,14.7,14.4C14.7,14.4,14.7,14.4,14.7,14.4z"/>
	<path class="st0" d="M14.3,14l0-0.1C14.3,13.9,14.3,13.9,14.3,14z"/>
	<path class="st0" d="M14,13.5C14,13.6,14,13.6,14,13.5C13.9,13.6,13.9,13.6,14,13.5L14,13.5z"/>
	<path class="st0" d="M19.7,18.5C19.7,18.5,19.7,18.5,19.7,18.5C19.8,18.5,19.8,18.5,19.7,18.5z"/>
	<path class="st0" d="M17.6,17.4c0.1,0,0.1,0,0.1,0C17.8,17.3,17.7,17.3,17.6,17.4z"/>
	<path class="st0" d="M21.8,20C21.8,20,21.8,20,21.8,20C21.8,20,21.8,20,21.8,20L21.8,20z"/>
	<path class="st0" d="M17.9,17.5C17.9,17.4,17.8,17.4,17.9,17.5C17.8,17.4,17.8,17.5,17.9,17.5z"/>
	<path class="st0" d="M12.6,12L12.6,12C12.6,12,12.6,12,12.6,12L12.6,12z"/>
	<path class="st0" d="M12.6,12L12.6,12C12.6,12,12.6,12,12.6,12z"/>
	<path class="st0" d="M12.5,12.1L12.5,12.1C12.5,12,12.5,12,12.5,12.1z"/>
	<path class="st0" d="M13,12.6L13,12.6C13.1,12.5,13,12.5,13,12.6z"/>
	<path class="st0" d="M13.2,12.7c0,0,0.1-0.2,0-0.2l-0.1,0.1C13.2,12.4,13,12.8,13.2,12.7z"/>
	<path class="st0" d="M12.9,14.1L12.8,14c-0.1,0.1-0.1,0.2-0.2,0.2C12.5,14.5,12.7,13.9,12.9,14.1z"/>
	<path class="st0" d="M13.1,14.6c-0.1,0-0.1,0.1-0.2,0.2C13.1,14.7,13.1,14.7,13.1,14.6z"/>
	<path class="st0" d="M15.7,17.1l-0.2,0.2C15.6,17.3,15.6,17.2,15.7,17.1z"/>
	<polygon class="st0" points="17.1,16.6 17.2,16.4 17,16.6 	"/>
	<polygon class="st0" points="16.1,18.2 16.1,18.2 16.2,18.2 	"/>
	<path class="st0" d="M20.6,22.3l0.2-0.2C20.7,22,20.4,22.3,20.6,22.3z"/>
	<path class="st0" d="M22.6,23.8c-0.1,0.1-0.1,0.3,0,0.2C22.7,24,22.7,23.8,22.6,23.8z"/>
	<polygon class="st0" points="27.9,29.6 27.8,29.6 27.9,29.6 	"/>
</g>
<g>
	<path class="st0" d="M2.2,46.6c0,0.1,0,0.3,0,0.2L2.2,46.6L2.2,46.6z"/>
	<path class="st0" d="M2.4,47.2c0.1-0.2,0.1-0.4,0.1-0.7c-0.1,0.3-0.1,0.2-0.1,0.6c0,0-0.1-0.1,0-0.2c0,0.1-0.1-0.1-0.1,0.1
		c0,0.3,0.1,0.3,0.2,0.1C2.4,47.1,2.4,47.2,2.4,47.2z"/>
	<path class="st0" d="M5.8,48L5.8,48C5.8,47.9,5.8,48,5.8,48z"/>
	<path class="st0" d="M8,48.3C8,48.3,8,48.3,8,48.3C8,48.3,8,48.3,8,48.3z"/>
	<path class="st0" d="M8.4,48.7C8.3,48.6,8.3,48.6,8.4,48.7C8.3,48.7,8.3,48.7,8.4,48.7z"/>
	<path class="st0" d="M5.8,48l0.1,0.1C5.9,48,5.9,48,5.8,48z"/>
	<path class="st0" d="M2.9,46.5C2.9,46.5,2.9,46.5,2.9,46.5C2.9,46.5,2.9,46.5,2.9,46.5C2.9,46.5,2.9,46.5,2.9,46.5z"/>
	<path class="st0" d="M4.9,48.2L4.9,48.2c0,0,0,0.1,0,0.1L4.9,48.2z"/>
	<path class="st0" d="M4.1,48.2c0,0,0-0.3,0.1-0.4c0,0.1,0,0.2,0,0.2C4.1,48,4.1,48.1,4.1,48.2z"/>
	<path class="st0" d="M3,47.6L3,47.6C3,47.6,3,47.6,3,47.6z"/>
	<path class="st0" d="M5.4,48.3c0,0,0,0.1,0,0.1C5.4,48.3,5.4,48.3,5.4,48.3z"/>
	<path class="st0" d="M26.1,47.4C26.1,47.4,26.1,47.5,26.1,47.4C26.1,47.5,26.1,47.4,26.1,47.4z"/>
	<path class="st0" d="M26.9,48.9L26.9,48.9c0,0.1,0,0.1,0,0.2L26.9,48.9z"/>
	<path class="st0" d="M9,49.1C9,49.1,9,49.1,9,49.1C9,49.1,9,49.1,9,49.1z"/>
	<path class="st0" d="M15.3,49.2c-0.1-0.3,0.1-0.3,0-0.6C15.3,48.8,15.2,49.1,15.3,49.2z"/>
	<path class="st0" d="M2.9,46.5C2.9,46.5,2.9,46.5,2.9,46.5C2.9,46.5,2.9,46.5,2.9,46.5z"/>
	<path class="st0" d="M15.3,48.6C15.3,48.6,15.3,48.6,15.3,48.6L15.3,48.6C15.3,48.6,15.3,48.6,15.3,48.6z"/>
	<path class="st0" d="M10.6,49c0,0,0-0.1,0-0.1C10.6,48.9,10.6,48.9,10.6,49z"/>
	<path class="st0" d="M9.4,48.5L9.4,48.5C9.5,48.5,9.5,48.5,9.4,48.5z"/>
	<path class="st0" d="M11.2,48.6C11.2,48.7,11.2,48.7,11.2,48.6C11.3,48.6,11.3,48.6,11.2,48.6C11.2,48.7,11.2,48.7,11.2,48.6z"/>
	<path class="st0" d="M11.8,48.7C11.8,48.6,11.8,48.6,11.8,48.7C11.8,48.6,11.8,48.6,11.8,48.7L11.8,48.7z"/>
	<path class="st0" d="M24.2,47.4c0,0.1,0,0.2,0,0.3C24.2,47.5,24.3,47.4,24.2,47.4z"/>
	<path class="st0" d="M2.9,46.6c0-0.1,0-0.1,0-0.1c0,0,0,0,0,0C2.9,46.6,2.9,46.6,2.9,46.6z"/>
	<path class="st0" d="M11.4,46.4L11.4,46.4C11.5,46.4,11.4,46.4,11.4,46.4z"/>
	<path class="st0" d="M19.6,47.2L19.6,47.2C19.7,47.2,19.7,47.2,19.6,47.2z"/>
	<path class="st0" d="M11.8,46.4c0,0.1,0,0.2,0,0.2c0,0,0,0,0-0.1L11.8,46.4z"/>
	<path class="st0" d="M24.2,47.7C24.2,47.7,24.2,47.7,24.2,47.7C24.2,47.7,24.2,47.7,24.2,47.7z"/>
	<path class="st0" d="M24.9,47.1c-0.1,0-0.1,0.4-0.1,0.6c-0.1,0.1,0-0.3-0.1-0.5c-0.1,0.1-0.2,0.4-0.2,0.4c0-0.1,0-0.1,0-0.2
		c-0.1,0.3-0.2,0-0.3,0.4c0,0,0-0.1,0-0.1c0,0.2,0,0.4,0,0.5c0,0-0.1,0.2-0.1,0c0,0,0-0.1,0.1-0.2l-0.1,0.1c0-0.3,0.1-0.1,0.1-0.4
		c-0.1,0.1-0.2,0.4-0.3,0.3c0-0.3,0.2-0.1,0.1-0.4l0.1,0.1c0-0.5,0.1,0,0-0.5c-0.1-0.1-0.2,0.2-0.3,0.1c0,0.2,0,0.3,0,0.5
		c-0.2,0.3-0.1-0.9-0.3-0.4c-0.1,0.2-0.1,0.7-0.2,0.4l0.1-0.4c-0.1,0-0.1,0.5-0.2,0.3c0-0.1,0.1-0.1,0.1-0.2
		c-0.1-0.3-0.1,0.2-0.1,0.2l0-0.3c-0.1,0-0.3,0.3-0.5,0.3c0-0.1,0-0.2,0-0.3c-0.2,0.2-0.4-0.1-0.6-0.3l-0.1,0.3c0,0,0-0.1,0-0.2
		c-0.1-0.1,0,0.2-0.1,0.3c0,0,0-0.2,0-0.3c-0.1,0.2-0.4,0.5-0.5,0.2l0-0.1c-0.1-0.1-0.2,0.6-0.2,0.3l0-0.1c-0.2-0.1-0.5,0.1-0.6-0.3
		c-0.1,0.4-0.2-0.2-0.3,0.4c-0.1-0.3-0.1-0.4-0.2-0.6c0,0-0.1,0.4-0.2,0.4l0-0.3l-0.1,0.3l0-0.4l-0.1,0.1c0,0,0,0.1,0,0.2
		c-0.1,0.1-0.2-0.2-0.2-0.4l-0.2,0.2c0-0.1,0.1-0.2,0.1-0.2c-0.1,0.3,0-0.3-0.1,0c0,0.1,0,0.2,0,0.2c0-0.2-0.2-0.2-0.3-0.1l0-0.2
		c-0.2-0.1-0.3,0.1-0.5,0.1c0.1,0.1,0,0.5,0,0.5l0-0.3c0,0.2,0,0.1,0,0.4c-0.1,0,0-0.4,0-0.5l-0.1,0.1c0-0.1,0-0.1,0-0.3
		c0,0.2-0.1-0.3-0.2,0l0-0.1c-0.2,0-0.3,0.1-0.4,0.1c0,0.3-0.1,0.2-0.1,0.4c-0.1-0.1-0.2-0.3-0.3-0.3c-0.1,0.1,0,0.2-0.1,0.4
		c0-0.3-0.1-0.2,0-0.4c-0.2,0-0.2,0-0.4,0.2c0,0.1,0,0.2,0,0.2c0,0-0.1-0.1-0.1-0.2l0,0c-0.2,0.4-0.5-0.8-0.7-0.3l0,0l-0.2,0.3
		c-0.1,0,0.1-0.2,0-0.4c-0.2,0.4-0.3-0.1-0.5,0.2c-0.1-0.8-0.4,0-0.6-0.5l0,0.2c-0.1,0.2,0-0.1-0.1-0.1c0,0.1,0,0.2,0,0.3
		c-0.4,0.2-0.7-0.3-1.1-0.5c-0.1-0.1-0.1,0.9-0.3,0.5l0.1-0.3c-0.3,0.4-0.6,0-0.9,0.3c0-0.1,0-0.2,0.1-0.2c0-0.2-0.2,0-0.2,0.2
		c0,0,0-0.2,0-0.3c0-0.1-0.2,0.3-0.2,0.1c0,0,0-0.1,0-0.1c0,0.1-0.2,0-0.2,0.2c-0.1-0.1-0.2,0.1-0.3-0.1c-0.1,0.3-0.2-0.2-0.2,0.3
		c0-0.5-0.2-0.4-0.2-0.2c0-0.1,0-0.1,0-0.3c-0.1,0-0.1,0.1-0.1,0.3c-0.1-0.5-0.3,0.4-0.3-0.3c-0.2,0.2-0.4,0.4-0.6,0.5
		c0-0.4,0.2,0,0.2-0.5c-0.2,0.2-0.3,0.6-0.5,0.4c0-0.1,0-0.2,0.1-0.3c-0.2,0.2-0.4-0.1-0.5,0.2c0,0,0-0.1,0-0.1c0,0-0.1-0.1-0.1,0.1
		l0-0.1c0,0.3-0.2,0.6-0.2,0.8c0.1-0.6-0.2-0.2,0-0.9c0,0-0.1,0.1-0.1,0.3c0,0,0-0.1,0-0.3c-0.1,0.1-0.1,0.3-0.2,0.3
		c0-0.1,0-0.1,0-0.3C9,46.8,9,47,8.9,46.9c0-0.1,0-0.1,0-0.1c-0.2,0-0.3,0.5-0.5,0.3c0.1-0.4,0-0.1,0-0.5l-0.1,0.1l0,0.2
		c-0.1,0-0.2,0.3-0.2,0.1l0.1-0.1L8,46.9l0.1,0.1c-0.1,0.2,0,0.5-0.1,0.4c0,0-0.1,0-0.1-0.2c0,0,0,0,0,0c0,0.1-0.1,0.2-0.1,0.1
		c0-0.1,0-0.4,0-0.5c-0.1,0.3-0.2,0.1-0.3,0.4c0-0.1,0-0.3,0-0.3l0,0.3c0-0.1,0-0.1,0-0.3c-0.1-0.1,0,0.5-0.1,0.3c0,0,0-0.1,0-0.1
		c-0.1-0.1-0.3,0.1-0.4,0c0-0.4,0.1-0.1,0.1-0.4c-0.2,0.1-0.4,0.4-0.6,0.3l0,0c-0.1,0.5-0.1-0.3-0.2,0c0,0,0-0.3,0-0.2
		c-0.1-0.1-0.2,0.1-0.4,0.3l0-0.1c-0.1-0.1-0.2-0.1-0.2-0.1c0,0.1-0.1,0.1-0.1,0.3c-0.2-0.8-0.5,0.4-0.6-0.3c0,0,0.1-0.1,0-0.1
		l-0.2,0.1c0,0.2,0,0.1,0,0.3c0,0.1-0.1,0.2-0.1,0.2c0.1-0.1,0-0.4,0-0.5c0,0.1,0,0.1,0,0.2c-0.1-0.4,0,0.5-0.1,0.2l0-0.1
		c0,0.1-0.1,0.2-0.1,0.2c0-0.3,0.1-0.1,0.1-0.3c-0.1,0-0.2,0.5-0.2,0.2c0-0.1,0.1-0.1,0.1-0.1c0-0.3-0.1-0.2-0.1-0.3l0,0l-0.1-0.1
		l0,0.1c-0.1,0.7-0.2,0.1-0.3,0.6c0.1-0.4,0-0.2,0.1-0.6c0-0.1-0.1-0.2,0-0.3c-0.1,0.2-0.1-0.2-0.2,0.2c0-0.1-0.1,0,0-0.3
		c-0.1,0.1,0,0.2,0,0.3c-0.1,0.3-0.2-0.4-0.4,0c-0.1,0.2-0.2,0.5-0.3,0.7C3,47.2,3.1,47,3.1,47C3,46.9,3,46.9,2.9,47
		c0-0.1,0-0.2,0-0.3c-0.1,0-0.1,0.4-0.1,0.2c0-0.1,0-0.3,0.1-0.4c-0.1,0.1-0.1,0.3-0.2,0.3c0-0.2,0.1-0.3,0.1-0.4
		c-0.1,0.1-0.2,0.1-0.2,0.4l0,0.1c0,0,0-0.2,0-0.3c0.1-0.2,0.1,0.1,0.1,0.2l0,0.1c0,0.6,0.2-0.1,0.3,0l-0.1,0.4L2.9,47
		c0,0.1,0,0.3,0,0.4C2.9,47.7,3,47.3,3,47.5c0,0,0,0.1,0,0.1l0.1-0.1c0,0.1,0,0.3,0,0.2c0.1,0.2,0.2-0.3,0.2,0l0,0
		c0.2-0.1,0-0.3,0.2-0.7l0,0.8l0-0.3c0,0,0,0,0,0.2c0.1-0.2,0-0.1,0-0.3c0.1,0.3,0.2-0.1,0.2,0.4c0-0.2-0.1-0.2,0-0.3
		c0,0.5,0.1-0.1,0.2,0.2c0,0.3-0.1,0.1,0,0.4c0.1-0.5,0.1,0.1,0.2,0c0-0.4,0.1-0.1,0.3-0.3c0,0.1,0.2,0.2,0.3,0.3l0,0.1
		c0-0.4,0.1-0.3,0.2-0.4c0,0.2,0,0.3-0.1,0.4l0.1,0c0-0.1,0-0.2,0.1-0.2l0,0.3c0.1,0,0.2-0.3,0.3-0.1c0-0.3,0-0.7,0.1-0.9
		c0,0.1,0,0.4,0,0.4c0,0,0-0.1,0.1-0.1l-0.1,0.2c0,0.1,0-0.2,0.1-0.2c0,0.2,0,0.1,0,0.3c0,0,0-0.1-0.1,0c0,0,0.1,0.2,0.1,0.3
		c0-0.1,0-0.3,0.1-0.3c0.1,0,0,0.2,0.1,0.3c0-0.1,0.1,0,0.1-0.3c0,0,0,0.1,0,0.2c0.1-0.1,0.2,0,0.2-0.3l0,0c0,0,0,0,0,0c0,0,0,0,0,0
		h0c0.2-0.3,0.3,0.2,0.5,0.1l0,0.1c0.1-0.1,0.2-0.1,0.3-0.3c0,0,0.1,0.2,0,0.3c0.1-0.1,0.1-0.2,0.2,0c-0.1,0.2,0,0.2-0.1,0.1
		c0.1,0.1,0.1,0.2,0.2,0c0,0.3,0,0.3,0.1,0.2l-0.1-0.2c0.1,0,0.1,0,0.1,0l0,0.3c0.2,0.4,0.4-0.7,0.5,0c0.1-0.2-0.1-0.2,0-0.4
		c0.1,0.1,0.1,0.5,0.2,0.5c0.1,0.2,0.1-0.5,0.3-0.3c0-0.1,0-0.4,0.1-0.5c0.1,0,0.1,0.5,0,0.6c0,0,0,0,0-0.1c0,0-0.1,0.1,0,0.2l0-0.1
		c0,0.1,0.2,0.1,0.1,0.3c0.1-0.1,0-0.2,0-0.3c0.1,0.2,0.2,0,0.3,0.1c0-0.1,0-0.2,0-0.2c0.2,0.2,0.1-0.2,0.2-0.3
		c0.1,0.2,0,0.4,0.1,0.3c0.1,0.1,0,0.3,0,0.4c0.1-0.2,0.2,0.2,0.2,0.2l-0.1,0.1c0-0.1,0.1-0.1,0.1,0l0-0.2c0,0,0.1,0,0,0.1
		c0-0.2,0-0.4,0.1-0.6c0,0.1,0.1-0.1,0.1,0.2c-0.1-0.1,0,0.3-0.1,0.4c0,0,0.1,0,0.1,0c0,0,0,0.1,0,0.1c0.1,0.3,0.1-0.4,0.2-0.3
		c0,0.2,0,0.3,0,0.3c-0.1,0,0-0.3,0-0.4c0.1,0.1,0.1-0.1,0.1-0.1l0-0.1c0-0.2,0.1-0.2,0.1-0.2c0,0.1-0.1,0.1,0,0.2
		c0.1-0.3,0.1,0.3,0.2,0.1c0,0.1,0,0.3,0,0.4c0.1-0.2,0.1,0.2,0.2,0.1c0-0.2,0-0.2,0.1-0.4l-0.2,0.2l0.1-0.3c-0.1,0-0.1,0.1-0.2,0.1
		c0.1-0.2,0.1-0.1,0-0.3c0.1,0.4,0.2-0.2,0.2,0l0,0.6c0.1,0.3,0.2-0.3,0.4-0.1l0-0.1c0-0.2,0.1,0,0.2-0.1c0,0.2,0,0.3,0,0.4
		c0-0.1,0.1,0,0.2-0.4l0.1,0.3c0.1,0.1,0.2-0.6,0.3-0.5c-0.1,0.2,0,0.4-0.1,0.5c0,0,0.1,0,0.1-0.1c0,0.1,0.1-0.3,0.2-0.1
		c0-0.1,0-0.3,0.1-0.3c0,0,0,0.1,0,0.1c0-0.1,0.1-0.1,0.1-0.3c0.1,0.6,0.4,0,0.4,0.5c0.1-0.1,0.2-0.1,0.3-0.1c0,0.1,0,0.1,0,0.1
		c0.1,0.2,0.1-0.6,0.2-0.3c0,0.3-0.1,0.2,0,0.3c0,0.6,0.2-0.1,0.2,0.3l0,0c0.1,0.2,0.2-0.2,0.3-0.2c0,0,0,0.1,0,0.1
		c0.1-0.3,0.2-0.4,0.4-0.5c0,0.3-0.1,0.1-0.1,0.4c0.1,0,0-0.4,0.1-0.5c0,0.1,0.1,0.3,0.1,0.5l-0.1,0c0,0.4,0.1,0,0.2,0.1l0,0.2
		c0.1,0,0.2-0.4,0.3-0.4l0-0.1c0.1-0.4,0.1,0.2,0.2-0.1l0,0.4c0.1-0.1,0.2-0.4,0.3-0.4c-0.1,0.3-0.2,0.4-0.3,0.6
		c0.1,0,0.2,0,0.2-0.2c0,0-0.1,0.1-0.1,0.1c0.1-0.3,0.2-0.5,0.3-0.4c-0.1,0.8,0.3,0.2,0.3,0.8c0.2-0.3,0.4,0.1,0.6,0.1
		c0-0.6,0.1,0,0.1-0.6c0.1,0,0.1,0,0.1,0l0.1,0.4c0,0.2-0.1,0.1-0.1,0.3c0.1,0.1,0,0.3,0.1,0.4c0-0.2,0.1-0.3,0.1-0.2l-0.1-0.3
		c0.2-0.3,0.1,0.5,0.3,0.2l-0.1,0.2c0.1-0.1,0.3,0,0.4-0.5c0,0.1,0,0.2,0,0.3c0.2,0.1,0.5-0.5,0.6-0.2l0,0.1c0,0,0.1-0.3,0.1-0.1
		c0,0.1,0,0.1,0,0.2c0-0.1,0.1-0.3,0.2-0.2l-0.1,0.2c0.2,0.2,0.3-0.4,0.5-0.5c0,0.4,0.1,0.6,0.2,0.7l0,0.1c0.2,0.1,0.4-0.3,0.6-0.5
		c0.1,0.5,0.4,0.2,0.6,0.5c0-0.1,0-0.3,0.1-0.4c0,0.1,0.1-0.3,0.1,0.1l0,0c0,0.4,0.1,0.3,0.2,0.3l0-0.5c0.2,0.8,0.5-0.2,0.6,0.4
		c0.1-0.1,0.1-0.1,0.2-0.3l0,0.3c0.1,0.1,0.2,0.1,0.4,0.1l0,0.2c0.1,0,0.2-0.8,0.3-0.8l0,0.4c0.2,0,0.3,0.4,0.5,0c0,0.1,0,0.2,0,0.2
		c0.1,0,0.3,0.3,0.3-0.3c0,0.4,0.2,0,0.3-0.1l0,0.3c0.1-0.4,0.1-0.4,0.2-0.5c0,0,0,0.2,0,0.2c0.1,0.2,0.1-0.3,0.2-0.1l0,0.2
		c0.1,0,0.1-0.1,0.1-0.3c0.1-0.1,0.2,0.1,0.2,0.3c0-0.2,0.1-0.4,0.1-0.3c0,0.1,0,0.2,0,0.2c0.1,0.2,0.2-0.3,0.3,0c0,0.1,0,0.1,0,0.2
		c-0.1,0-0.2,0-0.2-0.1c0,0.3,0.1,0.3,0,0.7c0.1-0.2,0.2-0.6,0.3-0.5c0,0,0,0,0,0.1l0,0c0,0,0,0,0.1,0c0,0,0,0.1,0.1,0.1
		c0,0.2,0.1,0.1,0.1,0.1c0-0.3,0.1-0.2,0-0.5c0,0,0,0,0,0c0,0,0,0,0,0c0,0,0,0,0,0c0,0-0.1,0-0.1,0c0-0.1,0.1-0.3,0.1-0.1
		c0-0.2,0.1-0.4,0.1-0.4c0,0.4,0.1,0.6,0.1,0.9c0.1-0.1,0.3-0.1,0.4-0.6c0-0.1,0,0.2,0,0.2c0,0.1-0.1,0-0.1,0.1
		c0.1-0.1,0.2,0,0.3-0.4c0.1,0.2-0.1,0.3,0.1,0.3l0,0.1c0.2,0.6,0.5-0.9,0.7-0.1c0,0,0-0.1,0-0.1c0.3,0.4,0.7-0.3,1,0.3
		c0.1,0.1,0.1-0.1,0.2-0.3l0,0.3l0.1-0.3c0.2-0.2,0.2,0.8,0.4,0.3l0-0.2c0.1,0,0.2-0.1,0.2,0.1c0,0,0-0.2,0.1-0.1l0,0.2l0.2-0.3
		c0.1,0.1-0.1,0.6,0.1,0.7c0.1-0.1,0.2-0.4,0.2-0.6c0,0-0.1-0.1-0.1-0.3l0.1-0.1c0-0.5,0.1-0.9,0-1.3l-0.1,0.3l0-0.2l0.1,0
		c0-0.2-0.1,0-0.1,0.1c0-0.1,0-0.2,0-0.3l-0.1,0.4c0-0.2,0.1-0.4,0-0.5c-0.1,0.2,0,0.4-0.1,0.5c0-0.2,0-0.4-0.1-0.2
		c0-0.1,0-0.2,0-0.2c-0.1,0.1-0.1,0.1-0.2,0.3c0-0.3-0.2,0.1-0.1-0.4c0,0.1-0.1,0.3-0.2,0.4c0.1-0.5-0.2,0-0.1-0.6
		c-0.1,0.5-0.2,0.2-0.4,0.5c0,0,0-0.1,0-0.1c-0.1,0-0.1-0.2-0.1-0.3c0,0.4-0.1,0.5-0.2,0.7c-0.1-0.4,0.1-0.5,0.1-0.8
		c0,0.3-0.2,0.3-0.1,0.6c0-0.2,0-0.1-0.1-0.4c0,0.5-0.1,0.1-0.1,0.4c-0.1-0.2,0-0.5-0.1-0.3C24.8,47.2,24.9,47.1,24.9,47.1z
		 M22.6,47.8C22.6,47.8,22.6,47.8,22.6,47.8C22.6,47.8,22.6,47.8,22.6,47.8C22.6,47.8,22.6,47.8,22.6,47.8z M22.4,47.8
		C22.4,47.8,22.5,47.8,22.4,47.8c0.1,0.1,0.1,0.2,0,0.2C22.5,47.9,22.4,47.9,22.4,47.8z M22.7,49.7C22.7,49.8,22.7,49.7,22.7,49.7
		c0-0.1,0-0.1,0-0.1c0,0,0,0,0,0C22.7,49.7,22.7,49.7,22.7,49.7z"/>
	<path class="st0" d="M22.8,49.4C22.8,49.4,22.8,49.4,22.8,49.4C22.8,49.3,22.8,49.3,22.8,49.4C22.8,49.3,22.8,49.4,22.8,49.4
		C22.8,49.4,22.8,49.4,22.8,49.4z"/>
	<path class="st0" d="M5.8,47.9L5.8,47.9C5.8,47.9,5.8,47.9,5.8,47.9C5.8,47.9,5.8,47.9,5.8,47.9z"/>
	<polygon class="st0" points="19.9,47.1 19.9,47.1 19.9,47.1 	"/>
	<path class="st0" d="M4.8,46.9C4.8,46.9,4.8,46.8,4.8,46.9C4.8,46.8,4.8,46.9,4.8,46.9z"/>
	<path class="st0" d="M4.4,46.8l-0.1-0.1C4.4,46.7,4.4,46.8,4.4,46.8z"/>
	<path class="st0" d="M4.1,46.6c0,0,0,0.1,0,0.1c0,0,0,0,0,0L4.1,46.6z"/>
	<path class="st0" d="M9.5,46.6C9.5,46.6,9.5,46.6,9.5,46.6C9.6,46.6,9.6,46.6,9.5,46.6z"/>
	<path class="st0" d="M7.9,47.2c0,0,0-0.1,0.1-0.1C7.9,47,7.9,47,7.9,47.2z"/>
	<path class="st0" d="M11.4,46.4C11.4,46.4,11.4,46.4,11.4,46.4C11.4,46.4,11.4,46.4,11.4,46.4L11.4,46.4z"/>
	<path class="st0" d="M8,47.1C8,47,8,47,8,47.1C8,47.1,8,47.1,8,47.1z"/>
	<path class="st0" d="M2.6,46.4L2.6,46.4C2.6,46.4,2.6,46.4,2.6,46.4L2.6,46.4z"/>
	<path class="st0" d="M2.6,46.4L2.6,46.4C2.6,46.5,2.6,46.5,2.6,46.4z"/>
	<path class="st0" d="M2.5,46.5L2.5,46.5C2.5,46.5,2.5,46.5,2.5,46.5z"/>
	<path class="st0" d="M3,46.6l0-0.1C3,46.5,3,46.5,3,46.6z"/>
	<path class="st0" d="M3.2,46.5c0,0-0.1-0.2-0.1-0.2l0,0.1C3.1,46.3,3.1,46.7,3.2,46.5z"/>
	<path class="st0" d="M3.7,47.8l-0.1-0.1c0,0.1,0,0.3,0,0.3C3.7,48.4,3.5,47.8,3.7,47.8z"/>
	<path class="st0" d="M4,48c-0.1,0,0,0.2,0,0.2C4.1,48.1,4.1,48.1,4,48z"/>
	<path class="st0" d="M6.6,48.2l0,0.3C6.6,48.4,6.6,48.3,6.6,48.2z"/>
	<polygon class="st0" points="7.2,46.9 7.2,46.7 7.1,47 	"/>
	<polygon class="st0" points="7.4,48.7 7.3,48.8 7.4,48.7 	"/>
	<path class="st0" d="M11.7,48.9l0-0.3C11.7,48.7,11.7,49,11.7,48.9z"/>
	<path class="st0" d="M13.6,48.7c0,0.2,0.1,0.3,0.1,0.1C13.7,48.8,13.6,48.7,13.6,48.7z"/>
	<polygon class="st0" points="19.2,49.6 19.2,49.7 19.2,49.6 	"/>
</g>
</svg>
