<svg id="Layer_1" data-name="Layer 1" xmlns="http://www.w3.org/2000/svg" viewBox="0 0 33.95 23.26"><defs><style>.cls-1{fill:#202020;}</style></defs><title>Artboard 1</title><path class="cls-1" d="M16.65.47c-.09,0-.28,0-.25,0l.34,0Z"/><path class="cls-1" d="M16,.68a3.13,3.13,0,0,0,.75,0c-.32,0-.19,0-.56-.08,0,0,.1-.06.22-.05-.08,0,.08,0-.13-.06s-.27.09-.06.14Z"/><path class="cls-1" d="M15.52,3.65l0,0Z"/><path class="cls-1" d="M15.34,5.5l-.07,0Z"/><path class="cls-1" d="M15,5.81h0S15,5.81,15,5.81Z"/><path class="cls-1" d="M15.52,3.65l-.11.05C15.52,3.71,15.49,3.68,15.52,3.65Z"/><path class="cls-1" d="M16.83,1.09l-.08,0,0,0Z"/><path class="cls-1" d="M15.25,2.84h0l-.14,0Z"/><path class="cls-1" d="M15.2,2.22a2.87,2.87,0,0,0,.39,0l-.19,0Z"/><path class="cls-1" d="M15.69,1.23l0,0A.05.05,0,0,1,15.69,1.23Z"/><path class="cls-1" d="M15.19,3.29h0Z"/><path class="cls-1" d="M17.3,20.75h0Z"/><path class="cls-1" d="M15.91,21.47h0Z"/><path class="cls-1" d="M14.61,6.39h0S14.59,6.38,14.61,6.39Z"/><path class="cls-1" d="M14.82,11.68c.25-.06.32.1.6,0C15.31,11.7,15,11.61,14.82,11.68Z"/><path class="cls-1" d="M16.8,1.1v0A0,0,0,0,0,16.8,1.1Z"/><path class="cls-1" d="M15.42,11.69Z"/><path class="cls-1" d="M14.78,7.72h0Z"/><path class="cls-1" d="M15.18,6.73l0,0Z"/><path class="cls-1" d="M15.18,8.23s-.06,0,0,0h0S15.13,8.25,15.18,8.23Z"/><path class="cls-1" d="M15.18,8.77h.06l0,0Z"/><path class="cls-1" d="M17.17,19.12l-.26,0C17.11,19.14,17.18,19.22,17.17,19.12Z"/><path class="cls-1" d="M16.67,1.09h.11A.2.2,0,0,0,16.67,1.09Z"/><path class="cls-1" d="M17.39,8.25l0,.09A.1.1,0,0,0,17.39,8.25Z"/><path class="cls-1" d="M17.13,15.29h0S17.16,15.29,17.13,15.29Z"/><path class="cls-1" d="M17.39,8.59l-.19.05h.07Z"/><path class="cls-1" d="M16.91,19.15Z"/><path class="cls-1" d="M17.58,19.71c0-.08-.36,0-.58-.06s.28,0,.47-.08c-.1-.06-.44-.1-.43-.15a.85.85,0,0,1,.16,0c-.29-.06,0-.19-.38-.26H16.4s-.23-.07,0-.08c0,0,.09,0,.17,0l-.11,0c.35,0,.12.06.38.06-.11-.08-.4-.16-.3-.22.34,0,.11.13.41.06l-.13.08c.54-.06,0,.06.54,0,.1-.12-.17-.13-.07-.25-.19,0-.28,0-.47,0s.85-.13.4-.25c-.23,0-.66,0-.43-.13l.38,0c0-.11-.55-.06-.29-.18s.13.09.17.07c.31-.07-.21-.05-.21-.11h.34c-.06-.12-.3-.25-.37-.38a.86.86,0,0,0,.32,0c-.17-.16,0-.35.24-.51l-.29-.06s.13,0,.19,0-.19,0-.31,0,.17,0,.26,0c-.25-.11-.54-.32-.22-.43l.09,0c.12-.09-.61-.1-.33-.19l.05,0c.13-.2-.14-.42.3-.57-.42,0,.19-.19-.4-.2.29-.12.4-.08.59-.24,0,0-.36-.06-.42-.12h.3l-.32-.07.37,0-.08,0a.43.43,0,0,1-.23,0c-.14-.07.22-.18.37-.19L17,15a1,1,0,0,1,.25.06c-.31-.09.32,0,0-.1a2,2,0,0,1-.25,0c.19-.05.19-.15.11-.22h.21c.06-.13-.1-.28-.1-.43a.94.94,0,0,1-.5,0l.33,0c-.2,0-.13,0-.37,0,0-.06.37,0,.47,0l-.11-.07.27,0c-.2,0,.33-.12,0-.16h.1c0-.16-.11-.22-.13-.35-.28,0-.22,0-.45-.08.09-.09.32-.19.29-.3s-.24,0-.4-.06c.25,0,.23-.11.41-.06,0-.13-.05-.16-.26-.33a.66.66,0,0,1-.23,0c-.05,0,.1-.07.23-.07h0c-.38-.18.75-.42.22-.57h0l-.28-.16c.05-.07.2.05.35,0-.42-.16.07-.26-.22-.39.76-.11-.05-.38.43-.52h-.18c-.17,0,.1,0,.15-.07-.14,0-.16,0-.26,0-.22-.32.26-.65.42-1,0-.11-.92-.06-.5-.21l.33,0c-.39-.23,0-.48-.32-.71.08,0,.18,0,.18,0,.24-.05,0-.18-.19-.18,0,0,.18,0,.28,0S17.07,9,17.31,9a.15.15,0,0,1,.1,0c-.12,0,0-.15-.25-.12.13-.08-.12-.16,0-.23-.31-.05.15-.15-.29-.16.45,0,.37-.15.15-.21.14,0,.15,0,.33,0,0-.07-.09-.12-.32-.11.54-.12-.43-.23.26-.3a2,2,0,0,1-.51-.52c.45,0,0,.18.51.17-.18-.15-.57-.24-.46-.4s.2,0,.27,0c-.18-.16,0-.31-.2-.45l.12,0s.07-.06-.14-.06l.06,0a2.9,2.9,0,0,1-.78-.12c.59.05.15-.14.89-.06a.72.72,0,0,0-.27,0s.12,0,.27,0c-.11-.1-.33-.06-.32-.15a2.42,2.42,0,0,1,.25,0c-.19,0-.39-.1-.3-.17s.14,0,.13,0c0-.13-.51-.23-.32-.37.43,0,.14,0,.51-.06l-.11-.07-.18,0c0-.07-.27-.13-.14-.19l.15.05-.07-.12-.14.07c-.2-.07-.48,0-.37-.08s0-.07.22-.11h0c-.11,0-.24-.06-.15-.11s.42,0,.5,0c-.32,0-.09-.16-.42-.2h.31l-.25,0a.64.64,0,0,1,.27,0c.05-.09-.47,0-.27-.08,0,0,.06,0,.1,0s-.16-.21,0-.32c.38,0,.1.09.41.06-.06-.15-.45-.31-.36-.45l0,0c-.53,0,.26-.1,0-.18a.81.81,0,0,0,.24,0c.08-.1-.13-.2-.3-.35l.14,0c.12-.06.07-.15.13-.21-.14,0-.12-.06-.31,0,.77-.19-.42-.36.23-.54,0,0,.12.05.12,0l-.13-.15a1.26,1.26,0,0,0-.32,0c-.14,0-.24-.06-.24-.09a1,1,0,0,0,.5,0h-.22c.41-.07-.47,0-.19-.11h.12c-.06,0-.22-.07-.19-.11.27,0,.13,0,.35,0,0-.06-.51-.12-.24-.17.07,0,.07.06.15.09.31-.06.23-.07.28-.11h0l.15-.1-.09,0c-.7-.08-.13-.15-.58-.25.43.1.25,0,.55,0A.8.8,0,0,1,16.87,2c-.24,0,.2-.08-.16-.15.1,0,0,0,.25,0-.07-.06-.17,0-.29,0-.33-.09.41-.22-.05-.35-.19-.12-.52-.14-.68-.25a.72.72,0,0,1,.35,0c.15-.06.12-.1,0-.16a.8.8,0,0,0,.26,0s-.35,0-.21-.08l.4,0A3.92,3.92,0,0,1,16.39.9a1.15,1.15,0,0,1,.36,0,.55.55,0,0,0-.42-.17l-.09,0s.23,0,.28,0c.21.05-.1.08-.2.08l-.06,0c-.57,0,.09.16.06.23l-.42,0,.35.08a.88.88,0,0,1-.4,0c-.21.06.14.05-.08.1h-.08l.13.05c-.09,0-.3,0-.24,0-.24.09.32.15,0,.19h0c.15.14.31,0,.67.12l-.75.07h.3s0,0-.16,0c.21.05.14,0,.33,0-.27.07.13.19-.35.2.23,0,.18-.06.34,0-.52,0,.09.08-.15.14s-.13-.07-.37,0c.46,0-.1.12,0,.17.36,0,.15.11.27.2-.12,0-.2.17-.33.25h-.06c.37,0,.3.1.37.16a1.24,1.24,0,0,1-.4,0v.06a.41.41,0,0,1,.22.06H15.2c0,.08.32.15.14.25.25,0,.71-.08.88,0a1.77,1.77,0,0,1-.43,0s.11,0,.05,0l-.23,0c-.1,0,.2,0,.17.06-.19,0-.14,0-.29,0s.08,0,0,0a.54.54,0,0,1-.3.11.58.58,0,0,1,.29,0c0,.07-.24,0-.34.07.14,0,0,.07.29.07,0,0-.14,0-.22,0,.13,0,0,.19.35.14h0c.29.13-.17.27,0,.4h-.1c.11.07.06.17.28.22a.73.73,0,0,1-.3,0c.07,0,.18.06,0,.15-.17-.06-.15,0-.13-.07-.08.08-.24.1,0,.18-.25,0-.32.06-.24.09l.18-.05s0,.08,0,.11l-.33,0c-.41.16.69.28,0,.4.23,0,.16-.08.44,0-.05.07-.53.14-.53.16-.18.1.49.1.36.2a1.14,1.14,0,0,1,.55,0,1,1,0,0,1-.59,0s0,0,.07,0a.35.35,0,0,0-.23,0h.12c-.12,0-.11.14-.3.11a.22.22,0,0,0,.25,0c-.17.09,0,.14-.12.24a.6.6,0,0,1,.21,0c-.15.14.22.06.27.16-.18,0-.43,0-.28.07a.64.64,0,0,1-.41,0c.23.09-.15.16-.19.21l-.1,0c.06,0,.06,0,.06.07l.24,0a.17.17,0,0,1-.14,0,4.62,4.62,0,0,1,.6,0c-.12,0,.13.1-.18.12.1-.12-.32,0-.37-.09s0,0,0,.07a.11.11,0,0,1-.08,0c-.28.11.36.05.35.16-.18,0-.34,0-.3,0s.3,0,.43,0c-.13.08.11.08.09.12l.07,0c.17,0,.15,0,.21.1-.14,0-.1,0-.16,0,.31,0-.32.12-.11.2-.12,0-.34,0-.42,0,.23.08-.24.09,0,.18a.64.64,0,0,1,.41,0L15,7.06l.35.1s-.15-.1-.11-.12a.63.63,0,0,0,.33,0c-.35.06.21.12,0,.19h-.59c-.26.1.3.19.15.33l.11,0c.23,0,0,.09.13.13a1.87,1.87,0,0,0-.4,0c.15,0,0,.1.38.11L15,7.88c-.1.11.57.13.5.24A1.88,1.88,0,0,1,15,8.06s0,.07.1.07c-.12,0,.27.1.08.13.09,0,.29,0,.28.06h-.1c.1,0,.13.07.35,0-.62.11,0,.31-.48.41a.87.87,0,0,1,.14.24c-.06,0-.1,0-.08,0-.18.1.57.06.36.17s-.17-.06-.29,0c-.65,0,.09.13-.29.21l0,0c-.22.06.25.14.2.23h-.1a1,1,0,0,1,.54.28,1.08,1.08,0,0,0-.4,0s.42,0,.49.06a2.16,2.16,0,0,1-.54.1V9.9c-.36,0,0,.1-.05.14H15c.05.12.45.12.42.25h.12c.39.07-.22.05.07.12l-.4,0a2.51,2.51,0,0,1,.46.24,2.65,2.65,0,0,1-.62-.2c0,.05,0,.16.23.18,0,0-.14,0-.08-.06.31.06.46.13.46.22-.77,0-.2.23-.79.3.28.15-.12.31-.08.5.6-.07,0,.05.63,0,0,0,0,.06,0,.06l-.36.13c-.18,0-.14,0-.27,0s-.26,0-.43.11c.22,0,.32,0,.23.08l.29-.07c.32.13-.52.11-.2.24l-.19,0c.12.07,0,.25.49.32a.66.66,0,0,1-.28,0c-.08.16.52.36.22.49l-.15,0s.28.06.13.09-.15,0-.16,0,.26.08.18.12l-.17,0c-.2.16.41.25.51.38a.86.86,0,0,0-.66.19h-.06c0,.19.37.32.54.49-.48.1-.2.36-.47.53a.82.82,0,0,1,.39,0c-.09,0,.3.11-.1.11v0c-.4,0-.29.12-.3.18h.53c-.77.17.28.44-.41.53.13,0,.13.09.26.13h-.28c-.07.11-.11.17,0,.31l-.2,0c0,.08.81.1.83.17l-.42,0c0,.14-.37.28,0,.41-.07,0-.19,0-.21,0s-.28.25.3.23c-.38,0,0,.14.13.22l-.28,0c.36.07.45.07.55.15s-.22,0-.15,0c-.15.06.26.05.11.13l-.17,0c0,.07.07.07.28.11s-.07.13-.32.14c.15,0,.36.05.28.09a.39.39,0,0,1-.18,0c-.19.12.32.18,0,.26h-.17c0-.09,0-.17.05-.16a2.31,2.31,0,0,1-.66,0c.19.06.61.16.49.24h-.11s0,0,0,0-.08,0-.08.07c-.21,0-.12.08-.13.12.29,0,.24.05.47,0,0,0,0,0,0,0l0,0h0a.64.64,0,0,1,0-.09c.15,0,.27.06.11.1l.45.06c-.39.05-.6.15-.84.16.16.12.1.27.63.35.07,0-.15,0-.23,0s-.05,0-.12-.06c.13.07.05.2.42.21-.17.09-.34,0-.28.07h-.11c-.59.22.94.36.18.61a.28.28,0,0,1,.13,0c-.33.28.31.58-.22.86-.1.08.13.09.31.14h-.3l.35.09c.25.11-.74.2-.26.35l.2,0c0,.05.12.17-.11.16,0,0,.21,0,.1,0h-.15l.27.13c-.12.1-.63,0-.66.13a1.29,1.29,0,0,0,.56.14s.1-.06.26-.06l.08.05a3.9,3.9,0,0,0,1.27-.07l-.28-.09.22,0,0,.07c.21,0,0-.06-.11-.09a.9.9,0,0,0,.25,0l-.44-.08a1.61,1.61,0,0,0,.46,0c-.21,0-.41,0-.55,0,.22,0,.39,0,.21-.08a.77.77,0,0,1,.25,0c-.15-.05-.06-.12-.31-.14.26,0-.07-.15.37-.14a1.07,1.07,0,0,1-.36-.12c.52.07,0-.15.59-.13-.47-.05-.21-.19-.47-.29,0,0,.11,0,.09,0s.18-.07.27-.1a2.6,2.6,0,0,1-.72-.14,5.55,5.55,0,0,1,.82,0c-.32,0-.32-.11-.58-.09a1.82,1.82,0,0,1,.44-.07c-.49,0-.08-.05-.39-.09.25-.07.46,0,.31-.1A.7.7,0,0,1,17.58,19.71Zm-.85-1.89h0v0Zm0-.16a.08.08,0,0,0,0,.07c-.1,0-.2,0-.2,0S16.64,17.68,16.73,17.66Zm-2,.33s0,0,.07,0l0,0h-.11Z"/><path class="cls-1" d="M15.15,18s0,0,0,0l.06,0h-.09Z"/><path class="cls-1" d="M15.56,3.63Z"/><polygon class="cls-1" points="17.26 15.46 17.19 15.46 17.25 15.48 17.26 15.46"/><path class="cls-1" d="M16.53,2.76l.07,0Z"/><path class="cls-1" d="M16.59,2.38l.1-.06Z"/><path class="cls-1" d="M16.73,2.09h0Z"/><path class="cls-1" d="M17.06,6.71h0C17.13,6.75,17.11,6.73,17.06,6.71Z"/><path class="cls-1" d="M16.4,5.33l.14,0S16.56,5.33,16.4,5.33Z"/><polygon class="cls-1" points="17.4 8.25 17.39 8.24 17.39 8.26 17.4 8.25"/><path class="cls-1" d="M16.53,5.44c.06,0,0,0,0-.06S16.49,5.42,16.53,5.44Z"/><path class="cls-1" d="M16.86.83v0h-.05Z"/><path class="cls-1" d="M16.82.81h0S16.79.81,16.82.81Z"/><path class="cls-1" d="M16.72.76l.07,0S16.8.77,16.72.76Z"/><path class="cls-1" d="M16.73,1.21h0Z"/><path class="cls-1" d="M16.76,1.33s.22-.07.15-.11h-.08C17,1.24,16.59,1.3,16.76,1.33Z"/><path class="cls-1" d="M15.5,1.82l.08-.1c-.11,0-.26,0-.28,0C15,1.84,15.54,1.69,15.5,1.82Z"/><path class="cls-1" d="M15.34,2.12c-.05-.05-.16,0-.22,0A.24.24,0,0,0,15.34,2.12Z"/><path class="cls-1" d="M15.34,4.32h-.26S15.18,4.31,15.34,4.32Z"/><polygon class="cls-1" points="16.66 4.74 16.82 4.7 16.59 4.68 16.66 4.74"/><polygon class="cls-1" points="14.84 4.99 14.8 4.97 14.9 5.04 14.84 4.99"/><path class="cls-1" d="M14.93,8.67h.32C15.19,8.63,14.83,8.63,14.93,8.67Z"/><path class="cls-1" d="M15.25,10.27c-.16,0-.26.06-.1.08S15.29,10.28,15.25,10.27Z"/><polygon class="cls-1" points="14.74 15.04 14.63 15.01 14.72 15.07 14.74 15.04"/><path class="cls-1" d="M1.53,6.31c-.08,0-.27.07-.22.08l.32-.07Z"/><path class="cls-1" d="M1,6.64a3.29,3.29,0,0,0,.73-.18c-.31.07-.19,0-.56.1,0,0,.09-.07.21-.1-.09,0,.06-.06-.15,0s-.23.15,0,.13A1.66,1.66,0,0,1,1,6.64Z"/><path class="cls-1" d="M1.18,9.06l0,0Z"/><path class="cls-1" d="M1.43,10.53h0Z"/><path class="cls-1" d="M1.16,10.87v0S1.13,10.88,1.16,10.87Z"/><path class="cls-1" d="M1.18,9.06l-.09.07C1.2,9.1,1.17,9.09,1.18,9.06Z"/><path class="cls-1" d="M1.85,6.72H1.8Z"/><path class="cls-1" d="M.74,8.52h0l-.13,0Z"/><path class="cls-1" d="M.55,8.06.93,8C.81,8,.76,8,.74,8Z"/><path class="cls-1" d="M.79,7.16h0Z"/><path class="cls-1" d="M.78,8.88l-.09,0Z"/><path class="cls-1" d="M6.82,21.63h0Z"/><path class="cls-1" d="M5.65,22.58h0l-.15,0Z"/><path class="cls-1" d="M.94,11.42h0Z"/><path class="cls-1" d="M2.36,15.41c.22-.12.33,0,.57-.17A2.12,2.12,0,0,0,2.36,15.41Z"/><path class="cls-1" d="M1.82,6.75h0Z"/><path class="cls-1" d="M2.93,15.24h0Z"/><path class="cls-1" d="M1.41,12.39l.11-.05Z"/><path class="cls-1" d="M1.57,11.51l0,0A.07.07,0,0,0,1.57,11.51Z"/><path class="cls-1" d="M1.91,12.67s-.06,0,0,0h0S1.87,12.69,1.91,12.67Z"/><path class="cls-1" d="M2,13.07l.05,0h0Z"/><path class="cls-1" d="M6.31,20.42l-.23.1C6.27,20.45,6.35,20.49,6.31,20.42Z"/><path class="cls-1" d="M1.7,6.77c.07,0,.1,0,.12,0h0Z"/><path class="cls-1" d="M4,12.05l0,.07A.1.1,0,0,0,4,12.05Z"/><path class="cls-1" d="M5.39,17.5h0S5.42,17.5,5.39,17.5Z"/><path class="cls-1" d="M4.11,12.3a.57.57,0,0,0-.17.1l.07,0Z"/><path class="cls-1" d="M6.07,20.52h0Z"/><path class="cls-1" d="M6.84,20.75c0-.06-.35.08-.56.13s.25-.12.42-.2c-.1,0-.44.05-.44,0l.16-.05c-.3,0-.06-.14-.43-.09l.08,0a5,5,0,0,1-.48.15s-.24,0,0-.06c0,0,.09,0,.17,0H5.64c.32-.13.12,0,.37-.07-.13,0-.42,0-.34-.08.32-.11.14.07.41-.08l-.1.11c.5-.21,0,.05.51-.16.07-.12-.2,0-.13-.17-.18,0-.26.09-.45.12-.36,0,.79-.34.33-.3-.23,0-.64.15-.44,0l.37-.09c0-.09-.54.11-.32-.05s.14,0,.18,0c.27-.14-.22,0-.23,0l.32-.11c-.08-.07-.34-.1-.43-.19A.81.81,0,0,0,6,19.43c-.2-.08,0-.28.12-.46l-.3,0s.12-.06.18-.07-.18,0-.29.06.15-.08.24-.09c-.27,0-.59-.09-.32-.26H5.7c.1-.11-.6.09-.35-.05H5.4c.08-.19-.23-.28.16-.52-.41.1.13-.21-.43-.05.25-.17.36-.17.51-.35s-.37.06-.44,0l.3-.09-.33,0,.35-.14H5.43a.53.53,0,0,1-.21.09c-.15,0,.16-.2.31-.25l-.29-.06a.6.6,0,0,1,.25,0c-.32,0,.31-.11,0-.09a1,1,0,0,1-.23.06c.16-.08.14-.16.05-.2L5.53,17c0-.12-.17-.18-.2-.3a1,1,0,0,1-.48.14l.31-.11c-.2,0-.11.08-.36.1a1.25,1.25,0,0,1,.46-.14l-.13,0,.27-.07c-.2,0,.28-.18-.06-.11l.09,0c0-.12-.16-.14-.2-.23a2.07,2.07,0,0,1-.45.07C4.85,16.18,5,16,5,16s-.23.06-.4.08c.24-.08.19-.16.38-.17-.07-.08-.08-.11-.32-.18a.64.64,0,0,1-.22.09s.09-.08.2-.11h0c-.41,0,.62-.54.07-.5h0l-.3,0c0-.07.19,0,.33-.11-.44,0,0-.22-.3-.24.7-.3-.14-.27.29-.52l-.17.06c-.17,0,.09-.06.12-.1-.13,0-.14.08-.24.09-.28-.18.1-.56.18-.85,0-.11-.89.21-.52,0l.33-.06C4,13.31,4.38,13,4,12.92c.08,0,.17,0,.18,0,.22-.11,0-.14-.22-.09,0,0,.17-.05.26-.1s-.32,0-.1-.09a.12.12,0,0,1,.1,0c-.12,0,0-.13-.27,0,.11-.11-.15-.09,0-.19-.31,0,.11-.16-.32-.05.44-.12.32-.22.1-.2.14,0,.13-.07.31-.11,0,0-.11-.07-.33,0,.49-.25-.47-.05.18-.3a1.76,1.76,0,0,1-.61-.26c.43-.12.08.13.53,0-.21-.07-.6,0-.53-.18s.19,0,.27-.05c-.22-.06,0-.24-.3-.28h.12s.05-.07-.14,0h0a3.41,3.41,0,0,1-.77.13c.58-.13.11-.15.84-.3a.72.72,0,0,0-.27.05.59.59,0,0,1,.26-.09c-.13,0-.33.05-.34,0a1.37,1.37,0,0,1,.25-.05c-.2,0-.4,0-.33,0s.13-.05.13,0-.54,0-.4-.18c.43-.1.13-.08.48-.2l-.12,0-.17.07s-.28,0-.18-.1h.16l-.09-.08-.12.1c-.2,0-.45.14-.38,0s0-.05.2-.14h0c-.12,0-.25,0-.17,0s.39-.11.47-.14c-.31.06-.12-.1-.45,0a2.25,2.25,0,0,0,.3-.09l-.25.06a.64.64,0,0,1,.26-.11c0-.08-.44.16-.28,0s.06,0,.1,0-.2-.12-.1-.24c.35-.13.1.05.4-.07-.1-.1-.5-.11-.45-.24l0,0c-.52.14.22-.16,0-.14L2.42,9c.05-.1-.18-.12-.37-.19l.14,0c.1-.08,0-.14.07-.2a.79.79,0,0,0-.3.06c.7-.37-.49-.16.09-.48,0,0,.13,0,.13,0L2,8.13a1,1,0,0,0-.29.13c-.14,0-.25,0-.26,0a1,1,0,0,0,.47-.16l-.21.06c.38-.18-.45.12-.2,0l.11,0c-.07,0-.23,0-.2,0C1.69,8,1.56,8,1.78,8c0,0-.52.06-.27-.06.07,0,.08,0,.16,0,.29-.13.21-.11.25-.16h0L2,7.67,2,7.71c-.69.15-.16-.08-.62,0,.44-.05.25-.06.54-.14a.68.68,0,0,1,.24-.12c-.25,0,.16-.11-.19-.06.09,0,0,0,.23-.11-.09,0-.16.06-.28.1-.34,0,.34-.29-.13-.26-.21,0-.53,0-.71,0A.83.83,0,0,1,1.38,7c.12-.09.09-.12,0-.13a.76.76,0,0,0,.25-.09s-.35.08-.22,0a2.33,2.33,0,0,1,.38-.08c-.1,0-.28,0-.38,0a1.56,1.56,0,0,1,.37-.07.76.76,0,0,0-.45,0l-.08.06s.22-.08.27-.08c.21,0-.07.08-.17.11H1.25c-.54.2.13.1.11.17L1,7l.35,0A1.11,1.11,0,0,1,.92,7c-.19.1.15,0-.06.1l-.07,0H.92c-.08,0-.27.09-.23,0-.2.15.34,0,.05.15h0c.17.07.3-.07.66-.1l-.7.27L1,7.45s0,0-.14.08c.21,0,.13,0,.32-.08-.25.13.17.1-.29.25.23,0,.15-.1.33-.09-.5.17.1,0-.12.16s-.14,0-.35.09c.44-.1-.07.12,0,.13.34-.1.17,0,.3.08-.12,0-.15.18-.26.28l-.06,0c.36-.09.31,0,.4,0a1.56,1.56,0,0,1-.4.09v0A.37.37,0,0,1,1,8.5L.7,8.57s.34,0,.19.15a3.25,3.25,0,0,1,.85-.24,1.53,1.53,0,0,1-.42.11s.12,0,.07,0l-.23,0c-.09.06.19,0,.17,0-.18,0-.12.06-.28.1s.08-.05,0,0a.77.77,0,0,1-.27.17.66.66,0,0,1,.29-.06S.85,8.91.76,9c.14,0,0,0,.29,0,0,0-.12.06-.2.09.14,0,.08.13.37,0h0c.31,0-.1.26.05.32l-.09,0c.13,0,.1.11.32.09a.76.76,0,0,1-.28.12c.09,0,.2,0,.06.11s-.14.06-.14,0c-.06.08-.21.14.07.12C1,9.85,1,9.94,1,9.94l.16-.09s0,.06,0,.09L.89,10c-.36.24.72,0,.1.3.23,0,.14-.11.41-.16,0,.07-.47.26-.47.28-.15.13.49-.07.39.05a1.25,1.25,0,0,1,.54-.12,1.21,1.21,0,0,1-.56.2s0,0,.06,0a.37.37,0,0,0-.22.05l.12,0c-.11.06-.08.14-.27.17a.28.28,0,0,0,.24-.08c-.14.12,0,.11-.06.21l.19-.07c-.1.15.23,0,.31,0-.17.1-.42.11-.26.14a.82.82,0,0,1-.39.11c.24,0-.11.17-.14.22H.78c.06,0,.06,0,.07,0l.22-.09s0,0-.12.08c.15,0,.37-.13.59-.15-.11.06.14.05-.15.15.07-.12-.3.1-.38,0s.05,0,0,.05a.13.13,0,0,1-.08,0c-.24.16.36-.07.37,0-.17,0-.31.12-.27.12a1,1,0,0,1,.42-.11c-.12.1.11,0,.11.06l.05,0c.17,0,.16,0,.22,0-.13,0-.1,0-.15,0,.31,0-.28.19-.07.19-.1.06-.31.1-.39.15.25,0-.21.14,0,.15a.78.78,0,0,1,.4-.09l-.2-.07.36,0s-.17,0-.13-.07A.63.63,0,0,0,2,11.66c-.33.15.23,0,0,.16L1.43,12c-.23.16.33.06.22.21l.09-.07c.23-.05.05.06.15.07a2.08,2.08,0,0,0-.37.14c.14,0,0,.08.4,0l-.24.12c-.08.12.57-.06.53,0a2.2,2.2,0,0,1-.5.1s0,.07.11,0c-.11.05.28,0,.11.08.08,0,.28-.07.27,0l-.09,0a1.15,1.15,0,0,0,.34-.08c-.56.26.12.23-.37.45a.47.47,0,0,1,.2.15H2.2c-.15.13.56-.12.39,0s-.18,0-.29.06c-.62.2.12.08-.23.25H2c-.2.11.27,0,.24.13l-.09,0a1,1,0,0,1,.57.06,1.34,1.34,0,0,0-.38.1s.4-.13.48-.09a2.38,2.38,0,0,1-.49.22l0-.05c-.33.13,0,.07,0,.12l-.15,0c.08.08.46,0,.46.07l.11,0c.39-.06-.2.1.09.07l-.37.13a2.63,2.63,0,0,1,.49,0,3.76,3.76,0,0,1-.63,0s.06.11.25.07c0,0-.14,0-.08,0,.31,0,.47,0,.48,0-.73.21-.13.23-.68.45.31,0,0,.28,0,.41.56-.22,0,0,.61-.15,0,0,0,0,0,.05l-.32.21c-.17.07-.14,0-.27.05s-.24.1-.38.19c.2-.07.3-.06.24,0l.25-.13c.34,0-.47.23-.13.24l-.19,0c.12,0,0,.2.54.11a1.08,1.08,0,0,1-.27.07c0,.15.58.13.32.31l-.14,0s.28,0,.14,0-.14,0-.15.05.27,0,.2,0l-.17,0c-.15.18.45.07.57.14A1.05,1.05,0,0,0,2.6,17l-.06,0c0,.16.42.13.63.22-.44.21-.11.33-.33.54a1,1,0,0,1,.38-.09c-.08.06.32,0-.07.11h0c-.37.13-.25.17-.25.22l.51-.15c-.69.35.37.26-.26.53.13,0,.14,0,.28,0l-.27.08c-.05.11-.07.16,0,.25l-.2,0c0,.06.8-.16.83-.11l-.4.14c0,.1-.28.31.12.3a.63.63,0,0,1-.2,0c0,.05-.22.27.33.09-.36.11,0,.12.17.12l-.27.08a1.44,1.44,0,0,1,.57,0s-.21.08-.15,0c-.12.09.27,0,.14.07l-.17,0c0,.06.08,0,.29,0s0,.12-.28.2c.15,0,.36-.07.3,0a1.63,1.63,0,0,1-.18,0c-.16.14.35,0,.11.18A.58.58,0,0,0,4,20c0-.08,0-.14,0-.14a2.65,2.65,0,0,1-.62.2c.2,0,.62-.05.53,0l-.09,0h0s0,0,0,0-.06.05-.06.07c-.2.07-.09.1-.09.13a2,2,0,0,0,.45-.13s0,0,0,0h0l0-.07c.15,0,.27,0,.13,0l.45-.09c-.37.15-.55.29-.78.37a.84.84,0,0,0,.69.08c.07,0-.14.07-.21.11s-.06,0-.13,0c.14,0,.09.13.45,0-.14.11-.34.06-.25.13l-.11,0c-.52.34,1,0,.31.42l.12-.06c-.25.31.43.35,0,.72-.08.09.15,0,.33,0l-.29.1.36,0c.27,0-.67.37-.17.34l.19-.07c0,.05.15.09-.07.15,0,0,.2,0,.11,0l-.15.05.28,0c-.08.11-.6.17-.59.29a1.44,1.44,0,0,0,.57-.06s.08-.07.23-.12l.09,0a4.91,4.91,0,0,0,1.2-.42H6.54l.21-.08,0,.05c.19-.09,0-.06-.13-.05L6.88,22l-.44.06a2,2,0,0,0,.44-.15c-.21,0-.39.15-.53.14.19-.1.36-.14.18-.12a1.17,1.17,0,0,1,.24-.06c-.15,0-.09-.07-.33,0,.24-.11-.1-.09.33-.22a1,1,0,0,1-.38,0c.52-.1,0-.12.54-.27-.46.1-.24-.09-.52-.08,0,0,.12,0,.1,0s.15-.11.23-.16a3.5,3.5,0,0,1-.72.11A6.34,6.34,0,0,1,6.81,21c-.3.1-.33,0-.58.1a3.66,3.66,0,0,1,.41-.18c-.47.14-.09,0-.39,0,.21-.13.43-.15.27-.17A.83.83,0,0,1,6.84,20.75ZM5.6,19.55h0l0,0Zm0-.12a.13.13,0,0,0,0,.06.53.53,0,0,1-.19,0C5.44,19.52,5.48,19.47,5.55,19.43Zm-1.78.82s0,0,.06-.05l0,0h0Z"/><path class="cls-1" d="M4.13,20.18h0l.06,0-.09,0Z"/><path class="cls-1" d="M1.22,9h0l0,0Z"/><polygon class="cls-1" points="5.57 17.6 5.5 17.62 5.56 17.61 5.57 17.6"/><path class="cls-1" d="M1.94,8.09l.07,0Z"/><path class="cls-1" d="M1.92,7.78,2,7.71A.31.31,0,0,0,1.92,7.78Z"/><path class="cls-1" d="M2,7.52l-.11,0h0Z"/><path class="cls-1" d="M3.36,11h0Z"/><path class="cls-1" d="M2.42,10.1h.13S2.57,10.05,2.42,10.1Z"/><polygon class="cls-1" points="4.04 12.04 4.03 12.04 4.04 12.04 4.04 12.04"/><path class="cls-1" d="M2.56,10.14s0-.05,0-.05S2.52,10.14,2.56,10.14Z"/><path class="cls-1" d="M1.82,6.52v0h0Z"/><path class="cls-1" d="M1.78,6.51h0Z"/><path class="cls-1" d="M1.67,6.51h.08S1.75,6.49,1.67,6.51Z"/><path class="cls-1" d="M1.78,6.85l.1,0Z"/><path class="cls-1" d="M1.84,6.93S2,6.81,2,6.8l-.08,0C2,6.79,1.67,7,1.84,6.93Z"/><path class="cls-1" d="M.74,7.67l.06-.1c-.1,0-.24.1-.27.07C.25,7.83.75,7.55.74,7.67Z"/><path class="cls-1" d="M.66,7.94C.6,7.92.51,8,.45,8A.26.26,0,0,0,.66,7.94Z"/><path class="cls-1" d="M1.16,9.62l-.24.07S1,9.66,1.16,9.62Z"/><polygon class="cls-1" points="2.53 9.56 2.67 9.49 2.44 9.54 2.53 9.56"/><polygon class="cls-1" points="0.84 10.28 0.8 10.28 0.9 10.3 0.84 10.28"/><path class="cls-1" d="M1.77,13.07l.3-.1C2,13,1.67,13.07,1.77,13.07Z"/><path class="cls-1" d="M2.44,14.2c-.14.06-.23.12-.07.1C2.38,14.26,2.49,14.2,2.44,14.2Z"/><polygon class="cls-1" points="3.05 18 2.94 18 3.04 18.03 3.05 18"/><path class="cls-1" d="M33.45,9.43c-.07,0-.24-.14-.22-.11l.28.18Z"/><path class="cls-1" d="M32.84,9.25a3.45,3.45,0,0,0,.64.4c-.27-.18-.15-.12-.47-.33,0,0,.11,0,.22.09-.07-.05.08,0-.1-.11s-.26-.07-.09.06Z"/><path class="cls-1" d="M31.38,10.81h0Z"/><path class="cls-1" d="M30.59,11.84s0,0-.05,0Z"/><path class="cls-1" d="M30.17,11.86h0S30.15,11.84,30.17,11.86Z"/><path class="cls-1" d="M31.38,10.81l-.11,0C31.37,10.84,31.35,10.81,31.38,10.81Z"/><path class="cls-1" d="M33.4,9.89l-.07-.06,0,0Z"/><path class="cls-1" d="M31.42,10.18h0l-.12-.08Z"/><path class="cls-1" d="M31.59,9.78l.33.21a.58.58,0,0,1-.15-.12Z"/><path class="cls-1" d="M32.36,9.42l0,0Z"/><path class="cls-1" d="M31.22,10.43l-.09,0Z"/><path class="cls-1" d="M27.12,22.07l0,0Z"/><path class="cls-1" d="M25.66,21.83h0l-.14-.08Z"/><path class="cls-1" d="M29.66,12Z"/><path class="cls-1" d="M28,15.35c.24.09.25.22.52.3A2.3,2.3,0,0,0,28,15.35Z"/><path class="cls-1" d="M33.36,9.88v0S33.37,9.89,33.36,9.88Z"/><path class="cls-1" d="M28.56,15.65Z"/><path class="cls-1" d="M29.35,12.92l.12.05Z"/><path class="cls-1" d="M30,12.52h0Z"/><path class="cls-1" d="M29.52,13.43s-.05,0,0,0h0S29.48,13.41,29.52,13.43Z"/><path class="cls-1" d="M29.34,13.75l.06,0v0Z"/><path class="cls-1" d="M27.55,21l-.22-.11C27.5,21,27.54,21.09,27.55,21Z"/><path class="cls-1" d="M33.26,9.81l.1.07h0Z"/><path class="cls-1" d="M31.45,14.52l-.06,0A.09.09,0,0,0,31.45,14.52Z"/><path class="cls-1" d="M28.83,18.67l0,0Z"/><path class="cls-1" d="M31.34,14.73l-.19-.07.06,0Z"/><path class="cls-1" d="M27.32,20.91h0Z"/><path class="cls-1" d="M27.71,21.58s-.3-.2-.48-.32.26.11.43.18c-.06-.09-.34-.28-.32-.3a.5.5,0,0,1,.14.08c-.23-.18.06-.12-.24-.35l.08,0-.44-.24s-.18-.16,0-.05c0,0,.07.06.13.1L27,20.65c.31.15.08.09.31.22-.08-.1-.3-.3-.19-.28.3.15.05.13.34.23h-.14c.49.23-.05,0,.47.26.12,0-.11-.16,0-.18-.16-.11-.25-.14-.41-.24-.24-.27.79.34.44,0-.19-.13-.56-.35-.33-.29l.32.21c.08-.05-.46-.31-.19-.26s.08.12.13.13c.29.1-.17-.14-.15-.17l.3.16c0-.1-.18-.3-.19-.41a1.43,1.43,0,0,0,.27.15c-.09-.18.16-.2.39-.2l-.23-.18a1,1,0,0,1,.17.09c.11,0-.17-.09-.26-.17s.17.06.24.11c-.18-.19-.36-.45-.05-.37l.07.06c.13,0-.49-.36-.23-.28l0,0c.18-.06,0-.32.46-.2-.36-.22.23,0-.28-.32a2,2,0,0,0,.6.15s-.3-.22-.34-.28l.27.15-.25-.2.33.15,0-.07a.56.56,0,0,1-.21-.08c-.1-.12.25,0,.39.06l-.17-.23a.83.83,0,0,1,.19.15c-.24-.21.29.15.07,0l-.21-.13c.18.06.21,0,.17-.08l.18.11c.09-.05,0-.22.06-.31a1,1,0,0,1-.43-.25l.29.15c-.17-.11-.13,0-.32-.19a1.49,1.49,0,0,1,.42.23L29.2,18a2,2,0,0,1,.23.14c-.16-.12.33.09,0-.11l.08.05c.05-.09,0-.19,0-.27a2,2,0,0,1-.36-.27c.11,0,.33,0,.35,0s-.2-.13-.33-.24c.22.12.24.05.38.17,0-.1,0-.13-.11-.33a.9.9,0,0,1-.22-.1s.12,0,.22.08h0c-.27-.3.8.11.38-.24l0,0-.19-.23c.07,0,.16.12.31.16-.31-.31.15-.12-.06-.35.7.31.08-.25.55-.1l-.16-.08c-.14-.11.11,0,.15,0a1.24,1.24,0,0,1-.23-.11c-.08-.29.45-.26.7-.38.08,0-.78-.49-.36-.37l.27.19c-.26-.34.18-.29,0-.59.06,0,.15.09.14.1.23.09.07-.1-.1-.2,0,0,.16.09.25.12s-.22-.22,0-.12a.14.14,0,0,1,.07.06c-.09-.08.08-.08-.17-.19.14,0-.05-.17.11-.13-.25-.18.18,0-.2-.24.4.23.37.09.21-.05.11.08.14,0,.3.15,0,0,0-.12-.25-.23.51.2-.3-.35.33,0a1.76,1.76,0,0,1-.27-.57c.39.23,0,.14.39.36-.11-.18-.42-.43-.27-.47s.16.11.23.15c-.11-.18.14-.16,0-.37a.87.87,0,0,1,.1.08s.08,0-.1-.1l0,0a3.75,3.75,0,0,1-.64-.45c.49.32.17,0,.79.4a.67.67,0,0,0-.22-.16.56.56,0,0,1,.24.13c-.06-.11-.26-.2-.23-.25l.21.14c-.15-.12-.3-.25-.2-.25s.12.06.11.08-.38-.39-.16-.39c.36.24.14,0,.47.22l-.08-.1-.16-.07s-.19-.21-.07-.18l.12.1,0-.11-.15,0c-.14-.14-.41-.23-.29-.23s0,0,.23,0h0c-.09-.07-.19-.16-.09-.14s.36.21.43.24c-.26-.17,0-.14-.3-.32l.27.15-.21-.14a.77.77,0,0,1,.25.12c.07,0-.42-.21-.21-.18l.08.06c.13,0-.07-.21.08-.21.34.16.05.1.34.23,0-.12-.29-.4-.17-.45h0c-.46-.27.26.06.07-.11,0,0,.25.16.2.13.11,0-.05-.19-.14-.36l.11.08c.13,0,.11-.06.19-.07a1.05,1.05,0,0,0-.26-.17c.74.26-.24-.43.38-.21,0,0,.09.08.1.07l-.06-.15a2.65,2.65,0,0,0-.3-.12c-.11-.08-.19-.16-.18-.18a1.28,1.28,0,0,0,.45.23c-.07,0-.13-.08-.19-.11.38.15-.41-.24-.13-.16l.11.06c0-.06-.17-.16-.13-.16.24.12.1.08.29.19,0,0-.41-.32-.15-.22.05.05,0,.07.1.13.29.11.22.07.28.07h.15l-.08,0c-.58-.38-.06-.15-.43-.44a1.81,1.81,0,0,0,.48.29,1.06,1.06,0,0,1,.25.09c-.2-.14.19,0-.1-.16.09,0,0,0,.24.1,0-.08-.16-.08-.26-.14-.26-.22.43.06.07-.24-.12-.17-.4-.34-.51-.49a1.17,1.17,0,0,1,.3.2c.15,0,.14,0,.06-.1a1.07,1.07,0,0,0,.24.12s-.3-.19-.15-.16l.32.22c-.06-.07-.2-.19-.26-.27a1.49,1.49,0,0,1,.31.21.77.77,0,0,0-.31-.31l-.1,0,.25.14c.16.14-.11,0-.2,0l0-.06c-.51-.25,0,.14,0,.18l-.35-.23.27.22a1.33,1.33,0,0,1-.34-.2c-.2-.07.11.1-.11,0l-.06,0,.09.09c-.07,0-.26-.13-.2-.12-.24-.06.22.24-.07.11l0,0c.08.16.27.16.54.4L32,9.55l.27.16s0,0-.15-.05c.16.13.12.06.28.17-.27-.09,0,.18-.38-.05.19.13.18.05.29.17-.46-.24.05.09-.18,0s-.08-.1-.31-.18c.38.24-.13,0-.07.09.31.18.09.15.17.26-.11-.06-.23,0-.38,0l0,0c.32.18.23.2.27.28a1.44,1.44,0,0,1-.33-.23l0,0a.43.43,0,0,1,.17.15l-.24-.15c0,.06.23.25,0,.22a4,4,0,0,1,.76.45,2.56,2.56,0,0,1-.37-.22s.09.07,0,.06l-.19-.14c-.1,0,.17.11.14.12s-.14-.05-.27-.13.08,0,0,0a.66.66,0,0,1-.3-.08.8.8,0,0,1,.24.16c0,.05-.21-.1-.32-.13.12.08,0,0,.23.19a.72.72,0,0,1-.2-.09c.1.09,0,.13.26.26h0c.21.23-.24.09-.17.23L31.2,11c.07.1,0,.13.17.27a1,1,0,0,1-.28-.12c.05.07.14.13,0,.1s-.14-.06-.09-.1-.24-.06,0,.12c-.22-.14-.3-.12-.25-.06l.18.06s0,.05-.05.06l-.28-.17c-.41-.1.5.51-.13.25.19.14.17,0,.4.18a3.54,3.54,0,0,1-.51-.15c-.2,0,.39.29.24.29A1.59,1.59,0,0,1,31,12a1.53,1.53,0,0,1-.53-.26s0,0,.07,0a.35.35,0,0,0-.19-.13l.1.07c-.11,0-.14,0-.3-.08a.37.37,0,0,0,.23.11c-.18,0-.05.09-.19.09a.67.67,0,0,1,.19.09c-.18,0,.17.14.19.23-.18-.06-.37-.23-.27-.09a1.14,1.14,0,0,1-.36-.21c.17.16-.19,0-.24,0l-.07-.07s0,.06,0,.07l.21.1s-.05,0-.14,0a5.72,5.72,0,0,1,.52.32c-.12,0,.08.13-.2,0,.13,0-.28-.15-.3-.23s0,0,0,0L29.66,12c-.28-.07.29.21.25.27-.15-.1-.3-.15-.28-.12s.27.13.37.22c-.14,0,.07.1,0,.12h.07c.15.1.12.11.15.16-.12-.06-.07-.07-.13-.09.26.19-.32-.08-.16.07-.12,0-.3-.16-.38-.18.17.16-.24-.06-.11.08a.91.91,0,0,1,.35.22l-.09-.17.27.23s-.1-.13-.06-.13a.88.88,0,0,0,.29.18c-.34-.14.14.17-.1.1l-.51-.29c-.27-.07.2.26,0,.27l.11,0c.19.12,0,.06.06.14a2.64,2.64,0,0,0-.35-.17c.12.07,0,.06.29.26l-.25-.09c-.13,0,.45.35.35.38a2.54,2.54,0,0,1-.42-.28s-.06,0,.06.09c-.11,0,.2.19,0,.12.07.05.25.16.23.17l-.09,0c.09,0,.09.1.3.18-.58-.23-.07.21-.56,0a.45.45,0,0,1,0,.21c-.05,0-.09,0-.06,0-.2,0,.47.31.25.28s-.13-.12-.24-.16c-.58-.31,0,.13-.33,0l0,0c-.21-.08.17.2.1.24l-.09,0a1,1,0,0,1,.37.43,1.85,1.85,0,0,0-.33-.21s.36.2.4.28a2.8,2.8,0,0,1-.5-.2v-.06c-.32-.15,0,.07-.09.06l-.13-.08c0,.1.34.29.28.35l.11.05c.31.24-.22-.07,0,.11l-.35-.18a3.52,3.52,0,0,1,.32.37,3.62,3.62,0,0,1-.47-.42s0,.11.13.22c0,0-.1-.09,0-.07.25.18.36.3.32.35-.66-.38-.24,0-.79-.2.2.23-.21.13-.23.26.54.25,0,0,.53.34q0,.06,0,0l-.36-.1c-.17-.07-.1-.09-.23-.16s-.24-.1-.4-.14c.2.1.26.17.17.17l.27.09c.24.24-.48-.18-.25.05l-.15-.12c.08.1-.09.16.32.44a1,1,0,0,1-.25-.14c-.12.06.34.47,0,.4l-.13-.08s.23.17.09.12l-.14-.08s.2.18.11.16l-.14-.1c-.22,0,.28.35.32.48a1.11,1.11,0,0,0-.63-.21l-.06,0c-.11.09.21.37.31.56-.46-.17-.3.12-.59.09a1,1,0,0,1,.32.21c-.09,0,.23.22-.12,0h0c-.36-.17-.3-.07-.33,0l.46.27c-.73-.28.1.4-.54.12.11.09.09.12.19.21l-.25-.14c-.1,0-.15,0-.14.17l-.16-.12c-.05,0,.67.46.66.51l-.37-.19c0,.09-.41,0-.13.26a.82.82,0,0,1-.16-.12s-.34,0,.18.28c-.33-.18-.08.07,0,.2l-.24-.15c.29.22.37.26.43.36s-.2-.09-.13-.07c-.15,0,.21.16.05.13l-.14-.1s0,.07.21.2-.11.05-.33-.07c.13.08.3.2.22.19a.76.76,0,0,1-.16-.1c-.2,0,.23.27,0,.19l-.15-.08c0-.05.08-.09.09-.08a2.76,2.76,0,0,1-.57-.31c.14.13.48.4.34.39l-.08,0,0,0s0,0,0,.05-.08,0-.09,0c-.19-.1-.13,0-.15,0a3.63,3.63,0,0,0,.41.23.05.05,0,0,1,0-.05l0,0h0a.14.14,0,0,1,0-.06c.11.08.21.16.06.11l.37.26c-.36-.17-.57-.21-.79-.32.1.15,0,.22.43.52.05.05-.14-.05-.22-.08s0-.05-.09-.09c.1.1,0,.14.3.33-.17,0-.28-.19-.27-.1l-.09-.06c-.59-.15.7.68-.05.46l.13.05c-.39,0,.07.5-.48.42-.12,0,.08.11.22.23l-.27-.14.27.22c.19.2-.71-.24-.34.09l.18.09c-.05,0,.05.16-.15,0,0,0,.18.11.08.07l-.14-.07.19.21c-.13,0-.54-.32-.62-.24a2.09,2.09,0,0,0,.45.36s.1,0,.24.09l.06.07a5.2,5.2,0,0,0,1.13.57l-.22-.19.21.09v.06c.19.07,0,0-.06-.11a1,1,0,0,0,.23.09l-.36-.26a1.77,1.77,0,0,0,.41.21,5.3,5.3,0,0,1-.47-.28c.2.08.35.17.2.05a.57.57,0,0,1,.21.14c-.11-.1,0-.1-.22-.24.24.1,0-.12.38.1a1.22,1.22,0,0,1-.28-.25c.43.3.07-.07.56.21-.39-.26-.12-.22-.31-.4l.07.05a1,1,0,0,1,.27.08,4.06,4.06,0,0,1-.59-.44,7.11,7.11,0,0,1,.72.41c-.28-.15-.24-.22-.48-.34a2.42,2.42,0,0,1,.4.18c-.42-.25-.05-.07-.3-.24.24.07.41.21.3.09A.75.75,0,0,1,27.71,21.58ZM27.62,20h0v0Zm.05-.1s0,0,0,0a.67.67,0,0,1-.17-.1A1,1,0,0,0,27.67,19.91Zm-1.81-.74s0,0,.07,0,0,0,0,0l0,0Z"/><path class="cls-1" d="M26.16,19.37l0,0,.06,0-.08-.05Z"/><path class="cls-1" d="M31.43,10.82h0Z"/><polygon class="cls-1" points="28.89 18.84 28.82 18.81 28.87 18.85 28.89 18.84"/><path class="cls-1" d="M32.57,10.76l.06,0Z"/><path class="cls-1" d="M32.75,10.56l.11,0Z"/><path class="cls-1" d="M33,10.45l-.1-.06h0Z"/><path class="cls-1" d="M31.69,13.42h0C31.73,13.48,31.72,13.46,31.69,13.42Z"/><path class="cls-1" d="M31.58,12.26l.1.1S31.72,12.34,31.58,12.26Z"/><polygon class="cls-1" points="31.46 14.52 31.45 14.52 31.45 14.52 31.46 14.52"/><path class="cls-1" d="M31.66,12.39c.05,0,.05,0,0,0S31.63,12.36,31.66,12.39Z"/><path class="cls-1" d="M33.51,9.75h0a.05.05,0,0,1,0,0Z"/><path class="cls-1" d="M33.49,9.72l0,0Z"/><path class="cls-1" d="M33.41,9.64l.05.06S33.48,9.68,33.41,9.64Z"/><path class="cls-1" d="M33.27,9.92l.09.05Z"/><path class="cls-1" d="M33.25,10s.22.07.17,0l-.06,0C33.48,10.05,33.11,9.9,33.25,10Z"/><path class="cls-1" d="M32,9.68l.1,0c-.1,0-.23-.1-.24-.14C31.52,9.44,32.07,9.63,32,9.68Z"/><path class="cls-1" d="M31.75,9.79s-.14-.07-.19-.11A.29.29,0,0,0,31.75,9.79Z"/><path class="cls-1" d="M31,11.13,30.78,11S30.86,11.05,31,11.13Z"/><polygon class="cls-1" points="32.01 12.03 32.16 12.08 31.96 11.96 32.01 12.03"/><polygon class="cls-1" points="30.34 11.29 30.31 11.26 30.37 11.35 30.34 11.29"/><path class="cls-1" d="M29.16,13.57l.28.15S29.09,13.5,29.16,13.57Z"/><path class="cls-1" d="M28.9,14.7c-.15-.07-.25-.09-.12,0S28.93,14.73,28.9,14.7Z"/><polygon class="cls-1" points="26.82 17.35 26.74 17.28 26.8 17.36 26.82 17.35"/></svg>