<svg id="Layer_1" data-name="Layer 1" xmlns="http://www.w3.org/2000/svg" viewBox="0 0 130 140"><defs><style>.cls-1{fill:#fff;}.cls-2{fill:#f5876f;}.cls-3{fill:#f3765a;}</style></defs><title>title_3</title><path class="cls-1" d="M19.72,38.54C16.24,41,17.82,49.7,22.08,49.79l26.4-1s4.8.2,6.2-5.85,6.77-8.68,16.16-6.66c9.07,1.95,14.65,13.81,14.65,13.81l-31.27,24s1,6.4,7.14,6.37S80.79,82.63,82,88.14c1.82,8.23-10.39,29.65-10.39,29.65S59.69,107.14,56.26,104s-5.89-13-5.89-13,.09-3.26-7.18-3.49S24.1,115,24.1,115s16.45,24,51.47,18.88,41.21-24.06,41.31-35.8-6.13-24.84-24.11-32c4.07-1.83,20.81-9.89,20.64-26.88S104.05,13.63,86.75,8.32C70.63,3.39,32.6,29.35,19.72,38.54Z"/><path class="cls-2" d="M19.34,38c-.2.25.05.31.72-.22l.31-.62Z"/><path class="cls-2" d="M24.39,35.2c.74-.71,1.53-1.59.82-1.48-.63.83-.91.86-1.57,1.78-.68.52-1.29.77-1.24.58-.2.24-1.13.71-1.39,1.14A11.53,11.53,0,0,0,24.32,35C24.62,34.86,24.42,35.11,24.39,35.2Z"/><path class="cls-2" d="M99.47,14.29,99,14Z"/><path class="cls-2" d="M104.37,57.7c.26-.28.36-.42.35-.45C104.48,57.52,104.29,57.74,104.37,57.7Z"/><path class="cls-2" d="M97.24,62.59l.45-.25A1.44,1.44,0,0,0,97.24,62.59Z"/><path class="cls-2" d="M99.47,14.29c.37.27.76.51,1.1.81.07,0-.06-.13-.28-.29Z"/><path class="cls-2" d="M33.53,28.13a5.49,5.49,0,0,0-.59.48l.58-.41A.2.2,0,0,1,33.53,28.13Z"/><path class="cls-2" d="M78.29,8.76l-.41.06a2.32,2.32,0,0,0-.31.19A7.61,7.61,0,0,1,78.29,8.76Z"/><path class="cls-2" d="M61.91,14.13c.36-.16.37-.46.46-.64a2.38,2.38,0,0,1-.7.53C61.68,14.07,61.76,14.11,61.91,14.13Z"/><path class="cls-2" d="M37.45,27l-.4.3Z"/><path class="cls-2" d="M90.15,10.3a.39.39,0,0,0,.11.15S90.23,10.37,90.15,10.3Z"/><path class="cls-2" d="M28.52,50.87s0,0,0,0S28.39,50.87,28.52,50.87Z"/><path class="cls-2" d="M19.77,38.6l-.2.2a.34.34,0,0,0,.06.15Z"/><path class="cls-2" d="M101.29,72.09l-.05,0C100.88,71.83,101.08,72,101.29,72.09Z"/><path class="cls-2" d="M26,115.52c.43.7-.07.25-.49-.14a.7.7,0,0,0-.21-.17.31.31,0,0,0-.13,0s0,0,0,.11a1.14,1.14,0,0,0,.06.14c0,.08.11.2.19.33C25.3,115.5,27.13,117.18,26,115.52Z"/><path class="cls-2" d="M33.93,27.92l.6-.39C34.25,27.7,34.07,27.82,33.93,27.92Z"/><path class="cls-2" d="M25.35,115.74h0l.15.22Z"/><path class="cls-2" d="M115.29,102.85a1.13,1.13,0,0,0,.18-.35S115.4,102.59,115.29,102.85Z"/><path class="cls-2" d="M108.55,77.74l.41.53Z"/><path class="cls-2" d="M110.43,115.77a4.88,4.88,0,0,0-.62.76l.12-.1A2.65,2.65,0,0,1,110.43,115.77Z"/><path class="cls-2" d="M99.54,125.4l.27-.08.41-.23Z"/><path class="cls-2" d="M67.39,36.91a2.32,2.32,0,0,1-.63-.3C67,36.83,64.87,36.75,67.39,36.91Z"/><path class="cls-2" d="M33.62,28.26c0-.11.12-.21.31-.34l-.41.28C33.5,28.26,33.52,28.3,33.62,28.26Z"/><path class="cls-2" d="M111.84,117.57c-.52.64-1,1.3-1.57,1.92C110.74,119,111.29,118.26,111.84,117.57Z"/><path class="cls-2" d="M79.42,98l.13-.51A2,2,0,0,0,79.42,98Z"/><path class="cls-2" d="M104.92,124.51c-.41.19-.84.39-1.25.63a1.81,1.81,0,0,0-.2.22C104,125.08,104.44,124.81,104.92,124.51Z"/><path class="cls-2" d="M66.75,36.61h0Z"/><path class="cls-2" d="M56.23,43.33c.27-1,.26-1.18.17-1.26s-.29,0-.31-.21a3.85,3.85,0,0,1,.5-1.1c.13-.19.21-.25.27-.26s.19.16.49-.1a6.14,6.14,0,0,1,2.42-2.64c.1,0,.3,0,.11.13a6.58,6.58,0,0,1,3-1.07c1.25-.19,2.57-.22,3.59-.32a.66.66,0,0,1,.25.11c-.31-.21-.35-.4-.27-.53,1,.05,1.87,0,2.21.25a2.06,2.06,0,0,0-1,0l1,0c.88.47-1.43-.07-1.45.19l1.56.1,1.58.17a8.26,8.26,0,0,1,2.63.77c.06.24-.73-.17-1.39-.28s-1.08-.27-.17.15c-.36-.12-.71-.27-1.09-.36l-1.17-.29c1.7.87-1.42-.31.13.57l1,.22c.3.06.54.15.78.21a8,8,0,0,1,1.25.36,9.38,9.38,0,0,1,2.77,1.45c.67.23,0-.37.65-.12a6.78,6.78,0,0,1,2.71,2.64,7,7,0,0,0,1.82,2.3,5.26,5.26,0,0,1,2.4,2.6l-.76-.46a10.12,10.12,0,0,0,1.49,1.92,3.08,3.08,0,0,1,.52.66,1.79,1.79,0,0,1,.18.33c0,.06.05.12.08.19l0,.11s-.07.05-.11.08a.32.32,0,0,1,0-.09l-.11-.13L84,49.44l-.21-.33c-.06-.1-.08-.12,0,0l.12.31v.09a.33.33,0,0,0,0,.12c0,.07.12.12.18.17s.1.2-.26.48l-.47-.07C80.75,52.28,78,54.72,75.08,57c.1-.2.54-.67-.21-.23-3.6,3-7.93,6-11.62,8.62l-1.19,1.28c-.32.24-.67.35-.36,0-1.46,1,0,.2-.56.81-.78.62-1.15.67-.7.21-1.15,1-2.82,2.49-4.55,3.9l-1.29,1c-.25.2-.67.49-1,.75l-.23.19c-.05.07-.2.11-.14.23l.1.59a11.45,11.45,0,0,0,.28,1.12c.08.26.17.52.26.76a13.23,13.23,0,0,0,.59,1.36c-.14-.2-.3-.38-.43-.59a5,5,0,0,0,2,2.29,25.31,25.31,0,0,0,2.49,1.4l-.49-.13c.36.14.72.29,1.1.4a11.64,11.64,0,0,0,1.15.22c.39,0,.8.06,1.16.07l1,0c1.37,0,2.76.17,4.09.34a27.49,27.49,0,0,1,7,1.73,7.31,7.31,0,0,1,2.82.88c1.14.52,2.11,1.13,2.4,1a5.38,5.38,0,0,1,1.6,1.93,4,4,0,0,1,.33,1,8.19,8.19,0,0,1,.07,2.08,20.84,20.84,0,0,1,.07,3l-.31,0c0,.64,0,1.29-.11,1.94-.21.31-.41.61-.63.9s-.19.87-.31,1.31c.19-.51.46-1,.52-1a14.3,14.3,0,0,1-2,4.78c-.52,1.59-1.09,3.16-1.69,4.73a6.7,6.7,0,0,1,.42-1.58c-.78,2.58-.48.31-1.23,2.67.2-.27.1.24.13.32a59.88,59.88,0,0,0-2.77,5.42v-.45l-1.34,2.54-.17.32,0,.08v0l0,.09s-.05.18-.11.1l-.2-.15-1.17-1-2.37-2.09c1.07,1.09.56,1.13-.39.33L66.9,112c-.73-.39.88.95-.5,0-1.15-1.08-.55-1,.2-.46l-1.5-1.19c0-.15.35.11.52.1-.72-.38-2.25-2.46-3.33-3l0-.15c-1.57-1.41-2.73-2.41-3.82-3.35l-.81-.69-.4-.35-.32-.31a8.87,8.87,0,0,1-1.25-1.63c-.28.11-.86-1-1.48-1.82a67.59,67.59,0,0,1-2.47-7.81,6.69,6.69,0,0,0-.25-.66l0,.29a1.6,1.6,0,0,0-.1-.53.63.63,0,0,0-.09-.2c-.05-.09-.07-.08-.1-.07s-.08,0-.36-.4c.1-.16-.44-1.11-1-1.56s-.92-.72,0-.27A7.76,7.76,0,0,0,47.27,87a11.64,11.64,0,0,0-2.08-.36,9.11,9.11,0,0,0-1.06-.08h-.57a3.25,3.25,0,0,0-.68,0,6,6,0,0,0-3.14,1.39c.53-.23,1.07-.51.85-.27-.78.5-1.71,1.13-1.7.95l.16-.17a60.22,60.22,0,0,0-5.7,6.6,31.52,31.52,0,0,0-4,6.63l.09-.22c-.61,1.31-1.21,2.63-1.78,4-.94,1.75.37-1.15-.44.09-.77,1.93-1.49,3.45-2.18,4.86-.35.71-.68,1.39-1,2.08-.16.35-.32.69-.48,1l-.71,1.69.61.8c.21.26.46.56.57.68a19.58,19.58,0,0,0,4.62,5.29l1.61,1.38,1.64,1.26c1,.86,2.07,1.56,2.84,2.24l-.1-.28c1,.44,1,.82,1.64,1.25,0-.15-.88-.75-.28-.47a72.7,72.7,0,0,0,12.33,5.84l3.32,1,.84.26.85.19L55,135l1.7.37.85.18.86.1,3.43.39a5,5,0,0,0,2.74-.26,7.54,7.54,0,0,1,3.37-.12l-1.19.33c6.71-.53,13.71-1.14,19.94-3.26a3,3,0,0,1-1,.42,13.42,13.42,0,0,0,4.87-1.66c1-.3.29.09.92,0,1.4-.25,3.14-1.59,3.92-1.64.14,0-.33.23-.55.35.39-.24,1.37-.65,2.14-1s1.27-.72.83-.62C99,128,100,127.44,101,126.88s1.8-1.26,2.68-1.74a6.26,6.26,0,0,1,.94-.78l1.13-.91c.74-.6,1.4-1.14,1.41-1.43,0,.11.29,0,.64-.24a16.75,16.75,0,0,0,1.23-1.16,17.49,17.49,0,0,0,1.36-1.51c.38-.53.7-1,.9-1.36-.22.5,1-1,.73-.4a12.34,12.34,0,0,0,1.28-2c.27-.54.38-.87.2-.79a8.24,8.24,0,0,0,1.33-2.11,13.76,13.76,0,0,0,.87-2.2c.22-.71.43-1.38.67-2a5.28,5.28,0,0,1,.69-1.53,35.72,35.72,0,0,0,.08-15,5.68,5.68,0,0,1,.64,2.63c.17,1.27.2,2.51.43,2.4a28.72,28.72,0,0,0-.4-3.12c-.21-.95-.4-1.83-.65-2.7a56.53,56.53,0,0,0-1.87-5.53c-.39-1.11.43.54.66.88a31.92,31.92,0,0,0-7-10.74s.36.27.66.56c-.51-.62-1.25-1.38-1.32-1.18l.59.51c.67,1.1-2.64-1.82-2.9-1.7,1.41.42-2.93-2.65-.83-1.86-.42-.33-1-.6-1-.43-.6-.49-.76-.7,0-.36-2.38-1.58-1.67-.82-3.85-2.17.06-.08.52.16.81.2-.61-.26-1.21-.53-1.9-.85A22.57,22.57,0,0,1,96.74,67c.14,0,0-.18.53.12l-.56-.28-.28-.13-.16-.07-.59-.2L95,66.25l-.36-.12-.19-.06-.1,0h0l0,0c.33-.21.77-.47,1.31-.79l1.07-.59,1.39-.75c-.81,1,1.25-.61,1.63-.42.6-.43,1.17-.89,1.76-1.34l-.83.36c1.59-1.08,2.73-2.38,4-3.38l-1,1,1.34-1.21c.43-.42.84-.87,1.25-1.3-.52.44-1,.92-1.55,1.33,1.27-1.48-.46-.19,1.41-1.9-.18.18.19-.12.63-.62A13.62,13.62,0,0,1,108.28,55h0c.25-.41.47-.85.75-1.3s.66-.93,1-1.53c.29-.26.21.47.39.31a5.73,5.73,0,0,1,.44-1.06,15.85,15.85,0,0,0,.71-1.48,8.76,8.76,0,0,0,.89-2.8c0,.4.14.49.22.37v-.83c.34-.83.41-1,.52-.77a2.36,2.36,0,0,0,.22-1c0-.1-.09,0-.15,0s-.22.19.16-1.35a4.14,4.14,0,0,1,0,.66,16.19,16.19,0,0,0,.39-2.33c0-.78,0-1.54.07-2.3s-.08-1.49-.1-2.23,0-1.46-.12-2.19c.13-.45.23.19.32.81s.08,1.23.21.72a29.86,29.86,0,0,0-.42-3.2c-.18-1.07-.51-2.13-.76-3.18a39.63,39.63,0,0,0-2.37-5.93l.32.69c-.37-.13-.67-.82-1-1.71a10.12,10.12,0,0,0-1.65-2.66c.37.37.63.37.51.29a24.41,24.41,0,0,0-7.45-6.61l.51.19a32.63,32.63,0,0,0-5.22-3.2c-.52-.13-1.43-.56-1-.13a25,25,0,0,0-7.24-3,22.91,22.91,0,0,0-3.69-.82c-1.24-.17-2.47-.25-3.7-.35C81.62,7.07,82.45,7,82,7c-.7,0-1.39.11-2.09.17s-1.38.21-2.06.32c.36.19.56.07,1.44.13a21.75,21.75,0,0,1-2.62.66c1.78-.5-.08-.36-.9-.34.14,0-.11.18,0,.23-2.18.12-.25.5-3.14,1L72.69,9c-1,.36-2,.81-3.07,1.16-.55-.1,1.06-.49,1.06-.72C69.1,10,67.76,11,66.27,11.26c.62-.33,1.58-.67,2.21-1a11.91,11.91,0,0,0-2.94.81l.11,0c-.89.3-1.78.6-2.65.94l.69-.21c-1.64,1.46-3.83,1.8-6.14,3.44,2.25-1.56.29-.42.35-.78-.68.23-1.7.63-1.46.42-1.07.81-2.07.81-3.55,2-.12-.05-1.26.65-1.11.29-1.48.88.44,0,.37.14-2.18,1.53-5.66,2.62-8.71,5-2.72,1.83-3.06,2.44-5.56,4.17-1,.41.53-.74.53-.74a23.52,23.52,0,0,0-3.78,2.38c.22-.25-.09-.13-.55,0-1,.7-.51.75-2,1.53a5.87,5.87,0,0,1,.83-1c-1.19.88-2.31,1.83-3.53,2.75-.43.09.63-.72,1-1.11a25.47,25.47,0,0,0-3.9,3.12l1-.54c-.51.36-.4,0,0-.31,1.1-1,1.81-1.1,1.94-1.07l-.87.66C29.76,32,32.1,29.62,34,28.46l-.54.84,1.7-1.5c.46-.17.86-.15,0,.49,1.43-.67,1.1-.87,2.36-1.4.14-.05.09,0,0,.09l1.23-.91c-.21.23.37.12-.46.56,2.46-1.25,3.61-2.58,4.66-2.84l-.18.13c3.2-2.06.15-.45,2.44-2.21l2-.31.18-.45c.34-.18,1-.54,1-.36,1.17-.9-.28,0,.36-.59,1.78-.69,4.52-2.61,5.13-2.37.49-.52-1.68.69,0-.4.75.2,2-1.14,3.69-1.69-.36.46-1.88,1.08-.23.52.74-.87,3.07-1.37,4.36-2-.09-.37,2.82-1.42,5-2.42a16.49,16.49,0,0,0,2.42-.72l2.19-.64c.73-.2,1.43-.36,2-.49l0,.08c.32-.49,2.6-1,4.26-1.36,0,.23-.32.38-1.19.64l1.55-.29a7.35,7.35,0,0,1,1.84-.47l-.36.32c2-.22,4.23-.64,6.76.17.24-.2-2-1.22.93-.67.06.18.1.4-.65.27a4.91,4.91,0,0,1,1.34.36l-1.17-.14c1.16.48.68,0,1.62.35-.08.18.66.36.48.47a8.67,8.67,0,0,0-1.19-.4,12.56,12.56,0,0,1,2.67,1.22c-.05-.14.09-.25.87,0,2,.74.6.47,1.71,1,.52.08,1.69.75,1.85.49a1.74,1.74,0,0,1,.79.59c.52.19,1.66.76,2.55,1.18s1.48.79,1,.33l-.24-.16.16.08h0c3.29,1.56,6.08,4.38,8.35,7.06l-.08.06.54.6.49.68c.32.46.65.92,1,1.38.52,1,1.1,1.82,1.46,2.5s.4,1.44.19,1.23a11.47,11.47,0,0,1,.68,1.66c.09.26.17.54.27.9A7.63,7.63,0,0,1,112,31.3c-.25-.78-.26-.63-.26-.57s0,.05-.28-1a17.82,17.82,0,0,1,.43,2.3c.12.65.31,1.3.55,2.41-.17-.37-.2,0-.17.65s.13,1.44.17,1.93a14.46,14.46,0,0,0,.07-1.47,25.89,25.89,0,0,1,.18,3.09l-.36-.53c0,1.08-.12,2.06-.13,3a20.41,20.41,0,0,1-.17,2.75,11,11,0,0,1-.17,1.3c-.1.42-.21.82-.34,1.22a10.76,10.76,0,0,1-.41,1.17,10.07,10.07,0,0,1-.65,1c-.23,1.12,1-2,.92-1A16.84,16.84,0,0,1,110,50c-.52.66-1,1.17-1.1,1.43-1.59,2.09-.94,2.36-2.87,4.43.16-.1.36-.16.35,0s-.21.6-.94,1.38a3.56,3.56,0,0,1-1.5,1.06c-.24,0-.18-.19.25-.64s.51-.48.53-.43c.42-.49,1-1.11.33-.65l-.1.26c-.73.65-2.79,2.39-2.43,1.84-1.07,1-.35.57.52-.11a46,46,0,0,1-5.35,3.75c.38-.17.78-.25.43,0a11,11,0,0,0-2.21,1.39,2.78,2.78,0,0,1-.34.32,12.54,12.54,0,0,1-1.42.83c-2.14.81.1-.52-3.27,1.21h0c.29.21.61.35.68.42s.06.1-.07.08A12,12,0,0,1,90,66.07l.37-.23-.42.23c1.91.77,3.43,1.47,4.88,2.19l.54.26.2.11.14.09.52.34q.51.33.93.57L96,69.14c.68.29,1.21.57,1.76.86l-.51-.54c.62.38,1.17.66,1.11.75.72.26-.3-.65,1.09,0a17.76,17.76,0,0,0,1.61,1c.56.35,1,.73,1.07.95-1.21-.95-1.21-.81-1.14-.65s.18.36-.94-.3a7.68,7.68,0,0,1,1.53,1c.07.1-.12,0-.29-.1,2.17,1.94,1.34.42,3.66,2.38-.42-.11.33.69.7,1-.44-.42-.52-.54-.34-.52a2.59,2.59,0,0,1,1,.58,10.77,10.77,0,0,0,1.36,1.35,8.71,8.71,0,0,1,.87.86l-.72-.92a10.71,10.71,0,0,1,1.94,1.94c0,.17-.87-.88-.6-.48,1.23,1,1.81,2.91,3,4.6.34.92-.24.24.07,1a13.91,13.91,0,0,1,.7,1.23c.14.36.23.67.32,1,.19.62.4,1.23.84,2.37,0-.74-.09-.85.67.73l-.7-1.9-.85-1.84c.41.76.92,1.49,1.27,2.3a11.39,11.39,0,0,0-.72-1.71l-.63-1.34c.7,1,.57,1,.53.34.34,1.69,1.47,3.05,1.72,5l-.59.09c.24,1.43.53,2.67.79,4a18.13,18.13,0,0,1,.3,4.78c0-.4.12-.81.13-1.21a3.74,3.74,0,0,1,.07,1.52l-.06,1c0,.35-.07.7-.08,1-.19-.13-.35.62-.52,1.12.15,0-.49,2.71-.24,3.13l-.7,1.55a19.71,19.71,0,0,0-.9,3.14,12.09,12.09,0,0,1-1.2,3c.26-.87-.49.23.25-1.59-.22.43-.42.85-.58,1.15s-.27.5-.21.54c-.41.41-1.19,2.48-2,3a4.13,4.13,0,0,1-.81,1.49c-.1.07-.07-.07-.07-.07s-1.09,1.36-.24.81a17.63,17.63,0,0,0-2,1.74c-.73.66-1.57,1.31-2.35,2a17.47,17.47,0,0,1-2.44,1.77,9,9,0,0,1-2.16,1.15l-3,1.73c-1,.55-2.1,1-3,1.39.09-.11,0-.09.32-.22a5.33,5.33,0,0,0-2,1.06,6.19,6.19,0,0,1-2.35,1c-1.61.2,1.51-.69.53-.49-.31-.24-1.18.08-2.25.49a11.55,11.55,0,0,1-3.41.89l.48-.16a14.43,14.43,0,0,0-2.77.74,21.63,21.63,0,0,1-3.54.85s.12-.08,0-.1a27.66,27.66,0,0,1-3.46,1c-1.37.21-2.83.41-4.09.58.76-.33,1.13-.25.63-.46-1.12.15.37.38-1.87.68a6.81,6.81,0,0,1-2.59-.45c.7,0,1.41,0,2.11-.06a20.63,20.63,0,0,0-3.85,0l.14-.16a34.56,34.56,0,0,1-6.76,0l.34.15c-1.95.23-1.56-.37-3.48-.43l-.49-.49c-.62-.09-1.73-.15-2.94-.35S50,132,48.9,131.68a24.17,24.17,0,0,1,2.64.39c.5.09,1,.2,1.5.28l1.38.12c-1.24-.13-4.08-1-4.77-1a8.38,8.38,0,0,1,1.59.38,20.4,20.4,0,0,1-2.65-.4,28.68,28.68,0,0,1-3.21-1.07c.65-.43-5.87-2.77-7-4.35-3.87-2-7.11-4.94-10.61-8.54.79,1.73-1-1.06-1.25-.43a8.45,8.45,0,0,1-1.13-1.33l-.18-.28-.1-.2a2.15,2.15,0,0,1-.17-.34l.19-.29c.06-.1.1-.14.21-.34l.57-1c.52-.71-.34,1.09-.17,1,1.12-2.36.69-.89,1.56-2.39-.35.23.1-1,.82-2.27l-1.16,1.78c1.29-3.45,1.82-2.63,3.21-6.06l-.36,1.13c.73-1.76,3.27-6.13,3.84-7.94.24-.25.61-.54.22.19,1.19-1.89,2.45-4.05,3.84-5.93a18.11,18.11,0,0,1,2.16-2.51A6,6,0,0,1,42,88.91l-.18.26c.14-.08.27-.19.4-.26l.39-.19a1.71,1.71,0,0,1,1.06,0c-.06.06-.33.13,0,.16a8,8,0,0,1,3.09.31,8.31,8.31,0,0,0-.87,0,8.37,8.37,0,0,1,2.33.91,2.81,2.81,0,0,1,.68.55,2.32,2.32,0,0,1,.21.29c0,.06.09.26.11.16l0,.29c.54,1.57,1.14,3,1.81,4.73-.45.14.66,3.55,1.49,5.22l-.08,0a13.79,13.79,0,0,0,2.26,3.3,16,16,0,0,0,1.35,1.19l1.27,1c1.68,1.35,3.34,2.64,5.19,4.17a53.51,53.51,0,0,0,4.82,4.74l4.07,3.68.34.3.08.08s0,0,.06-.06l.12-.2.44-.77.89-1.53.62-1.09q.24-.42.48-.81c-.42.62-.25-.26.1-1,.61-1,1.14-2.92,1.42-2.58l-.19.36c.74-.59,1.67-2.73,2.42-4.39l-.36-.49a31.24,31.24,0,0,0,3.33-7.65c.87-2.74,1.39-5.29,1.93-6.57a15.86,15.86,0,0,0-.06-4l.29,0a9.25,9.25,0,0,0-.19-1.3,5.29,5.29,0,0,0-.46-1.25,7,7,0,0,0-1.43-1.84A13.71,13.71,0,0,0,77,82l.85.16c-2.16-1-3-.31-5-.86l-.5-.57c-1.91-.46-3.83-.9-5.78-1.18a26.13,26.13,0,0,0-2.94-.29c-.49,0-1,0-1.47,0l-1.37.06c.07-.06.12-.16.71-.16-.25,0-.44,0-.72,0A4.36,4.36,0,0,1,60,79a5.89,5.89,0,0,1-1.63-.67c-.94-.6-1.54-1.36-1.6-1,.13-.13-.39-.77-.89-1.75-.11-.23-.25-.55-.33-.74a2.29,2.29,0,0,1-.16-.35c0-.11.12-.18.19-.28l.08-.08L55.8,74l.3-.27-.08.41a17.74,17.74,0,0,1,3-3c.48-.32.54-.13-.11.28,1.61-1,1-1.12,3-2.42l-.58.67a8.83,8.83,0,0,0,2.14-2,12.19,12.19,0,0,1,3.41-2.21,6,6,0,0,1,1.82-1.76c.18,0-.12.28-.27.44,2.74-1.87,3.71-3.26,5.68-4.43a.55.55,0,0,0,.41-.1c-2.09,1.59-3.78,2.87-3.64,2.74.16.2,1.87-1.06.75.25a44,44,0,0,1,5-4.47A1,1,0,0,1,76.9,58l-.16.15a8.13,8.13,0,0,0,1-.83c.55-.37.9-.6,1.41-1a17.45,17.45,0,0,0,2.84-2c-.24-.17.89-1-.28-.38.15-.08-.14.15-.69.59-.12.11-.27.22-.34.3l0-.06-2.08,1.62a8.8,8.8,0,0,1,2.23-1.85c.32-.47.68-1,.89-1.26A24.23,24.23,0,0,0,84.23,52c.64-.32,2-1.22,2.33-1.35l.19-.17.1-.08.05,0,0-.06-.25-.47-.51-.95c-.17-.32-.37-.67-.46-.81l-.36-.59c-.49-.78-1-1.56-1.56-2.28A14.31,14.31,0,0,0,80.61,42a3,3,0,0,1-.81-1.2c.43.34.85.84,1.11,1a34.91,34.91,0,0,0-2.64-2.41,5.61,5.61,0,0,0-2.16-1.27c-2-1.38,1.38.37-1.53-1.23L75,37a11.53,11.53,0,0,0-2.1-1.12,14.56,14.56,0,0,0-2.16-.59A22.39,22.39,0,0,0,66.69,35a24.92,24.92,0,0,0-4.2.38,14.67,14.67,0,0,0-4.68,1.57c.46-.25.68-.38.81-.37a8.24,8.24,0,0,0-3.22,3c-.19.32-.36.65-.54,1s-.27.69-.41,1c-.22.71-.4,1.43-.57,2a7,7,0,0,1-2,3.3,5.27,5.27,0,0,1-3.42,1.4h0c-2.52.1-5,.14-7.43.07a13.33,13.33,0,0,0-3.81.45l-.48-.28-2.32.43c-3.28.38-5.68-.52-9.83.12l.53.18c-.74,0-1.93.08-2.89.12S20.81,49,21,48.93a1.06,1.06,0,0,1-.8-.48l.08-.14a6.42,6.42,0,0,1-1.79-2.86c-.23-1.35,0-1.26.12-1.33s.13-.1.18-.39A15.25,15.25,0,0,1,18.91,42a6.08,6.08,0,0,1,.58-2.21,4.84,4.84,0,0,1,.44-.71c.09-.16.12-.25,0-.18-.45.31-1,1-1.18,1a3.92,3.92,0,0,1,.81-1.09c-.06-.27.08-.69-.15-.78s-.34,0-.76.26A4.36,4.36,0,0,0,17.21,40a8.17,8.17,0,0,0-.27,2.75,6.56,6.56,0,0,0-.23.87,9.94,9.94,0,0,1,.16-2.3,4.73,4.73,0,0,0,0,3,2.64,2.64,0,0,0-.06,1.16,9.93,9.93,0,0,0,1.34,2.35c0,.19-.23,0-.35-.11s-.21,0,.27.87c.47.5.36.17.33-.05s-.06-.32.66.45a4.7,4.7,0,0,0,.75,1,2.32,2.32,0,0,0,1.37.6c.22.16-.18.21-.88-.07l.64.21a5.18,5.18,0,0,0,.72.11l.38,0,.29,0,.55,0a6.37,6.37,0,0,0,1.7-.26c1.2.22,4.08-.22,4,.23a20.71,20.71,0,0,1,3.24-.49c-2,.61,4.16-.13,3.63.46,1.49-.53,5.42-.41,8.08-.78a2.44,2.44,0,0,1-.68.12,28.1,28.1,0,0,1,2.91.16c.14-.31,1.59-.49,2.81-.69h-.07a4,4,0,0,0,1.11-.25c1-.05.79.12.31.36s-1.22.4-.83.55c-.07-.15.91-.32,1.7-.7s1.41-.86,1-.78A6.16,6.16,0,0,0,53,48.1c.2-.15.38-.19.77-.41-.16-.52,1-1.26,1.2-2.6a6.35,6.35,0,0,1,.76-1.26,4.25,4.25,0,0,0,.39-1.37c.2-.42.22-.2.19.12S56.23,43.32,56.23,43.33ZM75.13,57.1h0l.86-.68ZM71.6,59.82l1.54-1.17c.18,0,.11.16-.25.43C73.05,58.88,72.18,59.48,71.6,59.82Zm8.66-4.19c-.54.46-.76.56-.87.57l1-.78,0-.08A.79.79,0,0,1,80.26,55.63Z"/><path class="cls-2" d="M81,54.56a2.33,2.33,0,0,1,.22-.19l-.37.2-.15.23Z"/><path class="cls-2" d="M99,13.93,99,14l-.15-.14Z"/><polygon class="cls-2" points="80.53 93.29 80.6 93.3 80.61 92.92 80.53 93.29"/><path class="cls-2" d="M75.74,7.92a1.17,1.17,0,0,0-.34,0A1.13,1.13,0,0,0,75.74,7.92Z"/><path class="cls-2" d="M65.54,11.08l-1.44.47C64.73,11.36,65.18,11.21,65.54,11.08Z"/><path class="cls-2" d="M58,14.26a.41.41,0,0,0-.09.18h0Z"/><path class="cls-2" d="M109.59,76.07l.22.24C110.35,76.85,110,76.47,109.59,76.07Z"/><path class="cls-2" d="M108.27,55c-.23.34-.45.69-.71,1C108,55.55,108.39,55.14,108.27,55Z"/><path class="cls-2" d="M112,117.35h0l-.17.22Z"/><path class="cls-2" d="M106.33,57.42a7.13,7.13,0,0,0,1.23-1.35Z"/><path class="cls-2" d="M27.44,32.12l-.34.21s0,0,0,.06Z"/><path class="cls-2" d="M27.09,32.39l-.34.28A1.69,1.69,0,0,0,27.09,32.39Z"/><path class="cls-2" d="M26,33.24l.72-.57A3,3,0,0,0,26,33.24Z"/><path class="cls-2" d="M36.56,26.32l0-.15A.14.14,0,0,0,36.56,26.32Z"/><path class="cls-2" d="M39.33,24.56a29,29,0,0,0-2.68,1.49l0,.12C37,25.76,38.79,25.1,39.33,24.56Z"/><path class="cls-2" d="M51.8,18.8l-2.44,1.25c.47-.14,1.09-.32,0,.31C52.56,19,48.63,20.48,51.8,18.8Z"/><path class="cls-2" d="M59.44,15.11c-1.3.68.08.13,0,.22C60.28,14.85,60.47,14.73,59.44,15.11Z"/><path class="cls-2" d="M110.92,28l-.29-.05C111.05,28.93,110.74,27.88,110.92,28Z"/><path class="cls-2" d="M114.08,39.29c.06-.38.08-.75.12-1.13l-.25-.53C114,38.18,114.06,38.73,114.08,39.29Z"/><polygon class="cls-2" points="111.33 45.82 111.44 45.36 111 47.12 111.33 45.82"/><path class="cls-2" d="M101.61,123.79l.45.08C102.66,123.4,102.58,123,101.61,123.79Z"/><path class="cls-2" d="M59.51,133.47a9,9,0,0,0-2.44-.41A13.28,13.28,0,0,0,59.51,133.47Z"/><polygon class="cls-2" points="79.2 105.23 78.93 106.1 79.53 104.49 79.2 105.23"/><path class="cls-3" d="M61.89,128.51q-15.82.77-27-4.8a41.18,41.18,0,0,1-17.12-15.15,38.5,38.5,0,0,1-6-20.45l33.74-1.65Q45.57,95.29,51,99a19.23,19.23,0,0,0,12.23,3.4A21.25,21.25,0,0,0,74.59,98.9q4.56-3.21,4.53-10.34,0-6.47-5.76-10.43T53.57,74.85l0-6.13,0-10.2,0-4.08q9.84-.48,15.89-5t6-10.33a8.68,8.68,0,0,0-3.11-7q-3.09-2.57-9.41-2.26A16.23,16.23,0,0,0,52.34,34a12.32,12.32,0,0,0-4.18,9.47L16.88,45a37.14,37.14,0,0,1,5.54-20.08A41.46,41.46,0,0,1,38.35,10.3Q48.7,4.69,62.76,4,77.68,3.28,88,7.19t15.69,11.14a27.32,27.32,0,0,1,5.43,16.73,23.19,23.19,0,0,1-5.55,15.83A42.35,42.35,0,0,1,88.67,61.57q11.43,3.18,17.79,10.18T112.87,90a31.73,31.73,0,0,1-5.9,18.82q-5.94,8.46-17.34,13.69T61.89,128.51Z"/></svg>