<svg xmlns="http://www.w3.org/2000/svg" viewBox="0 0 360 160"><defs><style>.cls-1{fill:#fff;}.cls-2{fill:#f5876f;}.cls-3{fill:#f3765a;}</style></defs><title>title_go</title><g id="Layer_2" data-name="Layer 2"><path class="cls-1" d="M118,29.89s16.1,10.83,21.46,18.2c.88,1,5.49,4.55-2.87,8.56S117,65.58,113,67.58s-7-3-11-7-16-7-26.71-3C53.47,65.62,47.89,84,50.78,97.06a103.71,103.71,0,0,0,9.61,25L40.5,106.52s-25.74-43-2.9-55.41S118,29.89,118,29.89Z"/><path class="cls-2" d="M118.11,30.55c.17-.11,0-.29-.46-.17l-.31.38Z"/><path class="cls-2" d="M114.6,30.5c-.58.26-1.22.65-.78.89.54-.42.7-.31,1.28-.79.5-.12.9,0,.84.09.16-.11.8-.05,1-.3a4.12,4.12,0,0,0-2.38.33C114.4,30.68,114.56,30.57,114.6,30.5Z"/><path class="cls-2" d="M65.19,40.54l.32,0Z"/><path class="cls-2" d="M35.82,51.46c.21-.14.28-.22.27-.25C35.91,51.35,35.76,51.47,35.82,51.46Z"/><path class="cls-2" d="M31.45,54.93c.09-.09.14-.18.22-.25A.56.56,0,0,0,31.45,54.93Z"/><path class="cls-2" d="M65.19,40.54l-.83.13C64.33,40.79,64.79,40.63,65.19,40.54Z"/><path class="cls-2" d="M107.89,32.47a3,3,0,0,0,.43-.17l-.41.11S107.9,32.45,107.89,32.47Z"/><path class="cls-2" d="M78.49,36.89l.25-.06.17-.18Z"/><path class="cls-2" d="M88.81,34.53c-.24,0-.26.33-.33.47a.9.9,0,0,1,.47-.29C89,34.65,88.9,34.6,88.81,34.53Z"/><path class="cls-2" d="M105.36,31.77l.28-.09Z"/><path class="cls-2" d="M71.12,38.64a.23.23,0,0,0-.12-.08S71.05,38.62,71.12,38.64Z"/><path class="cls-2" d="M127.07,38.17s0,0,0,0S127,38.12,127.07,38.17Z"/><path class="cls-2" d="M118.05,29.83l.15.09a.65.65,0,0,0,.12-.11Z"/><path class="cls-2" d="M27.16,64.24l0,0C27.2,63.92,27.17,64.07,27.16,64.24Z"/><path class="cls-2" d="M53.71,103.4c0,1-.79-1.47-.61.07C53.16,103.3,53.92,104.65,53.71,103.4Z"/><path class="cls-2" d="M107.61,32.48l-.42.08A3.53,3.53,0,0,0,107.61,32.48Z"/><path class="cls-2" d="M53.1,103.47h0l0,.15Z"/><path class="cls-2" d="M30.31,86.92a.63.63,0,0,0,.05-.26S30.31,86.74,30.31,86.92Z"/><path class="cls-2" d="M27.38,70.2l0,.42A3.4,3.4,0,0,0,27.38,70.2Z"/><path class="cls-2" d="M33.83,95a2.33,2.33,0,0,0,.22.57.33.33,0,0,0,0-.1A1,1,0,0,1,33.83,95Z"/><path class="cls-2" d="M37.75,103.2a1,1,0,0,0,0-.17l-.15-.25Z"/><path class="cls-2" d="M136.13,55.56a1.06,1.06,0,0,1,.46,0C136.39,55.48,137.46,54.83,136.13,55.56Z"/><path class="cls-2" d="M107.86,32.31a.35.35,0,0,1-.25.17l.3-.07S107.92,32.33,107.86,32.31Z"/><path class="cls-2" d="M36,94.43l.53,1.32C36.41,95.38,36.21,94.9,36,94.43Z"/><path class="cls-2" d="M78,55.53l.32-.12A.79.79,0,0,0,78,55.53Z"/><path class="cls-2" d="M38.38,99.55a3.72,3.72,0,0,0,.19.8.71.71,0,0,0,.13.12Z"/><path class="cls-2" d="M136.6,55.6h0Z"/><path class="cls-2" d="M139.33,50.28c.54.81.55.19.86.27.33.54.23.68.15.73s-.23,0-.31.2A1.66,1.66,0,0,1,139.9,53c-.07,0-.16.08-.14-.07a2.92,2.92,0,0,1-.44.67c-.23.22-.51.45-.79.68s-.64.43-.93.65a5.55,5.55,0,0,0-.82.64.44.44,0,0,1-.18,0,.53.53,0,0,1,.4.36c-.53.29-.91.72-1.22.6a.82.82,0,0,0,.45-.4l-.53.37c-.68-.06.75-.48.62-.72a22,22,0,0,1-3.18,1.85c-.33-.22,2-1.06.69-.79l1.4-.51c-1.25,0,.83-.36-.36-.43-1.8.75-1.9,1.09-3.71,1.82-.31.36.25.2-.07.55-2.37,1.47-2.34.14-4,1.4a2.61,2.61,0,0,1-1.81,1.3l.29-.56c-1.74.75-.76,1-2.67,1.54.26-.28,1.3-.73,1-.66-1.29.26-.73.58-1.64,1l-.32-.23c-1.82.89-3.74,2-5.75,3,.07-.14.37-.4-.15-.27-.62.33-1.28.66-2,1l-1,.48a6.87,6.87,0,0,1-1,.39,2.19,2.19,0,0,1-1.51,0,4.17,4.17,0,0,1-1.4-.78,7.41,7.41,0,0,1-.9-.31c-.17-.14-.22-.37,0-.25-.65-.74-.16.11-.59-.13s-.42-.65-.11-.44a32.22,32.22,0,0,1-5.17-5.15l.37.22a3.29,3.29,0,0,0-1.51-1,4.11,4.11,0,0,1-1.43-.78l.27.1a18.78,18.78,0,0,0-4.84-2.08c-1.63-.49-3.19-.84-4.46-1.24-.28.19-1.11,0-1.92-.08s-1.59-.15-1.71.15a15.73,15.73,0,0,0-4.17-.49c-.75.06-1.07.48-2,.66l-.07-.3-1.16.54-.73-.25c-.27.08-.55.19-.82.28.34-.06.74,0,.71.06a10.22,10.22,0,0,1-2.1.45,2.94,2.94,0,0,1-1.19.08,30.06,30.06,0,0,0-2.85,1.39c0-.14.48-.39.84-.62-1.43.94-.41-.18-1.72.68.22,0,0,.21,0,.28a11.6,11.6,0,0,0-3.46,1.57l.12-.3c-.53.26-1.06.53-1.6.84l-1.56,1L63.87,62l-1.54,1.23c.81-.51.85-.08.28.42l-.45-.06c-.26.46.71-.4.06.42-.78.57-.75.12-.37-.31-.29.28-.59.54-.86.83-.12,0,0-.26,0-.39-.24.47-1.74,1.19-2,1.93l-.12,0c-.24.23-.47.44-.67.65l-.53.63-.92,1.11A26.61,26.61,0,0,0,55.1,70.7c.21.2-.33.85-.51,1.49a24.42,24.42,0,0,0-2.72,4.46c-.43,1.28.05.45,0,1.06-.3,0-.9,1.79-.74.79a22.89,22.89,0,0,0-1.34,5.65c.16-.29.26-.63.31-.43,0,.52-.3,1.14-.41,1v-.14c-.12,1.61-.47,3.43-.68,5.22a19.42,19.42,0,0,0-.14,2.59,9.9,9.9,0,0,0,.33,2.2l0-.14c.22.88.49,1.74.73,2.6.2,1.2-.34-.68-.32.24,1.07,2.67,1,4.38,2,6.52-.2,2,2.11,6,2.62,8.45l.11-.2c.4.51.19.74.33,1.19.1-.12-.11-.7.13-.37,1.48,3.16,2.85,6.48,4.47,9.79l2-1.76c-1.43-1.23-2.86-2.47-4.29-3.66s-1.45,0-3.15-1.82l.76.17c-3.38-2.14-6.41-5-9.69-7.16.23.09.3,0,.6.25A6.36,6.36,0,0,0,42.94,107c-.47-.39,0-.23-.24-.53a4.56,4.56,0,0,0-1.14-.8.16.16,0,0,1-.15-.08.88.88,0,0,1-.16-.43c0-.08.18.16.27.28-.37-.39-1.18-2.17-1.17-1.59-.58-1.33-1.41-2.39-1.78-3.5-.62-.53-1-2.29-1.46-2.32.45-.1-.74-2.45-1.29-3.21.25.22-.19-.79.13-.53-.43-1-.86-1.81-1-1.55-.24-2-1.83-3.45-1.54-4.71a56.76,56.76,0,0,1-3-8.21c.44,0,.81,3,1.24,2.72a28.68,28.68,0,0,1-1.95-6.47c0-.68.24.34.37.55a55.55,55.55,0,0,1-.94-7.3,1.55,1.55,0,0,1,.14.49c-.05-.46.07-1-.14-1l0,.45c-.31.74-.58-1.83-.73-1.93.51.81.36-2.29,1-1,0-.3-.07-.68-.21-.63.08-.44.17-.56.28-.1a14.5,14.5,0,0,1,.1-2.52c.09,0,.08.32.17.49a4.34,4.34,0,0,1,0-1.19,5.81,5.81,0,0,1,.4-1.5c0,.09.15,0,0,.33.17-.5.33-1,.46-1.42a8.35,8.35,0,0,1,.46-1.33,10.3,10.3,0,0,1,.62-1.31,16.17,16.17,0,0,1,1-1.3c0,.41.12.27.31,0s.51-.47.69-.39l.75-1-.46.23c.35-.41.72-.77,1.07-1.13a4.08,4.08,0,0,1,1.13-.91,4.05,4.05,0,0,0-.56.61,12.54,12.54,0,0,1,1.66-1.2l-1.07.5c.85-.76-.37-.33,1-1-.12.09.12-.06.47-.24A4.48,4.48,0,0,1,38.81,51h0a5.63,5.63,0,0,1,1.71-1c.25,0,0,.45.19.46.35-.53,2.33-1.25,2.87-1.78-.19.16-.12.34,0,.35l.33-.41c.51-.12.6-.12.58.06,1.48-.56-.65-.25,1.17-.77-.13.07,0,.08-.32.23a25.26,25.26,0,0,0,2.53-1.06,24.6,24.6,0,0,1,2.48-.89c.61.18-1.39.59-.73.69,1.16-.45,2.34-1,3.52-1.5a27.15,27.15,0,0,1,3.56-1.27l-.45.09c.16-.6,1.8-.29,2.9-.9-.28.13-.29.4-.23.32,1.6-.43,3.22-1.07,5.59-1.93l-.26.21c1-.15,2.49-.64,3.53-.84.27-.21.86-.34.46-.44,3.34-.08,5.92-2,8.89-2-.33.08-.77.31-.5.25l2.36-.7c-.24-.18-.34-.06-.89-.12a5.07,5.07,0,0,1,1.52-.61c-1,.41.1.35.59.37-.09,0,0-.16,0-.22,1.35.12.11-.5,1.89-.62L82,37.1a12.94,12.94,0,0,1,1.88-.62c.35.2-.66.28-.65.5,1-.23,1.81-.92,2.75-.86-.4.17-1,.3-1.39.47a5.09,5.09,0,0,0,1.84-.13h-.07L88,36.26h-.44c1.08-.93,2.46-.65,4-1.44-1.51.76-.21.3-.27.62.44,0,1.09,0,.93.08.73-.41,1.34-.08,2.36-.65.07.08.84-.16.71.12,1-.28-.27-.12-.21-.26,1.5-.64,3.74-.34,5.91-1.21,1.9-.55,2.2-1,4-1.44.64,0-.43.44-.43.44a9.94,9.94,0,0,0,2.65-.47c-.18.11,0,.15.33.21.74-.16.44-.44,1.44-.48a2.54,2.54,0,0,1-.67.52c.86-.25,1.69-.57,2.58-.82.27.13-.5.35-.8.52a10.26,10.26,0,0,0,2.88-.93l-.67,0c.37-.08.23.19,0,.29-.84.36-1.28.12-1.35,0l.64-.18c-.76-.44-2.58.54-3.88.74l.46-.5-1.27.58c-.3-.06-.54-.25.1-.43-1,0-.8.3-1.64.22-.1,0-.06-.05,0-.08l-.89.29c.16-.12-.21-.27.36-.31-1.68.06-2.57.8-3.25.61l.14,0c-2.24.57-.17.34-1.8,1l-1.28-.52-.17.34c-.23,0-.7.11-.64,0-.82.38.18.1-.29.4-1.17,0-3.07.74-3.42.32-.35.3,1.11,0-.05.35-.45-.44-1.37.36-2.44.35.26-.33,1.26-.4.18-.42-.52.58-2,.33-2.86.6,0,.36-1.84.53-3.26,1,.06-.14-2.76.42-4.14.59l0-.07c-.18.43-1.58.65-2.57,1,0-.23.15-.36.67-.58l-.94.23a3,3,0,0,1-1.08.49l.17-.33a28.57,28.57,0,0,1-4.12,1.14c0,.27,1.45.38-.21,1-.1-.12-.22-.33.21-.5a2.58,2.58,0,0,1-.8.26l.62-.4c-.76.08-.33.28-.93.41,0-.19-.47,0-.42-.19a3.67,3.67,0,0,0,.74-.19,6,6,0,0,1-1.8.16c.08.09.06.25-.42.4-1.25.34-.48-.11-1.24,0-.27.21-1.11.28-1,.57a.86.86,0,0,1-.64-.06c-.61.28-3,.85-2.2.95l.17,0-.1,0h0c-2,.89-4.44,1.07-6.49,1.82l0-.1c-1.21.5-2.75.94-3.57,1.42-.36.12-.92.1-.8-.06a10.39,10.39,0,0,1-2.41.82c.89-.49-.37,0,.93-.46a8.33,8.33,0,0,0-2.8,1c.36-.39-1,0-1.58.31l.91-.14c-.64.27-1.22.45-1.8.64l.19-.42c-2.65.54-4.19,2.43-6.33,2.55-.56.5,1.4-.4.93.09-1.16.4-2.48.6-2.84.75-1.61.59-1.2,1.11-2.83,1.8.25,0,.57.16-.48,1-1.06.61-1.58.4-1-.11.26-.16.4-.21.41-.17.32-.25.75-.58.26-.43l-.08.19c-.3.12-.82.41-1.23.63s-.68.45-.57.24c-.69.71-.2.41.39,0a13.32,13.32,0,0,0-1.68,1.28c-.45.48-.88,1-1.51,1.55.24-.16.51-.25.33,0-.84.9-.91,1.2-1,1.37s0,.29-.42,1c-.6.73-.21-.52-.88,1-.6.85-.39.06-.27-.36a20.49,20.49,0,0,1-.89,2l-.44.8c-.11.25-.21.48-.28.69,0-.27.08-.54.14-.82-.09.49-.2.88-.31,1.28l.35-.39c-.17.45-.28.84-.37.81,0,.51.48-.26.43.72-.24.59-.22,1.88-.57,2,.46-1.92-.35.17-.1-1.49a5.91,5.91,0,0,1-.22,1.18c-.05.06-.05-.08-.05-.21-.56,1.85.24.92,0,2.85-.17-.26-.36.44-.32.76,0-.79.3-.36.42.36a5.89,5.89,0,0,0,.09,2l0-.74a5.09,5.09,0,0,1,.28,1.71c-.14.08-.13-.77-.18-.47.33.93-.17,2.17.17,3.47,0,.63-.32.1-.32.65.45,1.44,0,1.65.47,3.15.15-.49.08-.55.52.48-.21-.83-.46-1.65-.63-2.49.19.53.41,1,.63,1.56a19.89,19.89,0,0,1-.46-2c.31.75.24.68.38.28-.22,1.11.58,2,.57,3.25l-.59.09c.16,1.85,1,3.1,1.58,5.41l-.12-.76c.32.24.46,1.39.78,2.1-.22,0-.13.47-.14.82.12-.08.54,1.66,1,1.73l.11,1.08c.56,1.84,1.3,1.84,1.92,3.56-.41-.43-.22.4-.83-.69.22.58.41,1.1.54,1.06,0,.38.9,1.46,1,2,.18.2.4.19.66.83,0,.09-.09,0-.09,0s.57.92.52.29c.2,2,2.29,4.73,2.59,6.42l2.14,3.6c-.1-.06-.1,0-.2-.18A2.59,2.59,0,0,0,40,107a2.29,2.29,0,0,0,.4.27,2,2,0,0,0,.49.16,2.4,2.4,0,0,1,1.33.81c.56.85-.9-.48-.5,0-.19.68,1.85,1.34,2.63,2.42l-.27-.16c.63.78,2,1.27,3.25,2.29,0,0-.1,0-.07.07a26.12,26.12,0,0,1,4,2.46c-.53-.09-.63-.32-.56.06.56.4.09-.45,1.22.34.26.38,1,1.08.9,1.38l-1-.78c.31.69,1.33,1,1.83,1.49l-.17.07c1.6,1.18,1.86.88,3.52,2.21l-.1-.22c1.16.41.63.77,1.73,1.25l0,.53,1.38.82L62.52,124l-1.65-2.19a22,22,0,0,1-1.37-2,17,17,0,0,1,1.56,1.93l2.23,2.91-3.39-1.91-.81-.45.74.55,3.74,2.86-2.39-4A9.28,9.28,0,0,0,60,119.91a3.47,3.47,0,0,1,.52.84,10.32,10.32,0,0,1-2.05-3.06c.79-.08-1.51-3.65-1.36-4.9-1.31-2.34-1.89-4.92-2.92-7.83-.21,1.23-.3-.85-.82-.47a3,3,0,0,1-.31-1c-.1-.74-.21-1.46-.28-2.2,0-.55.31.62.43.52-.39-1.52.07-.71,0-1.75-.15.26-.46-.44-.59-1.32,0,.43,0,.85,0,1.28a3.93,3.93,0,0,1-.42-2,5.14,5.14,0,0,0-.33-2l.31.63c-.14-.53-.35-1.52-.52-2.52a10.61,10.61,0,0,0-.59-2.54c.07-.2.24-.46.28,0-.08-2.62-.21-6,.51-7.93l.1.22a3.6,3.6,0,0,1,.24-1.46s.1.23.16,0a5.2,5.2,0,0,1,.4-1.94l0,.58c1-2.37,1-3.87,2-5.87.19.1.57-.27,1-.77s.82-1.13,1.17-1.51l0,.07c.44-.6.83-1.17,1.19-1.73s.77-1,1.12-1.56.7-1,1.12-1.53.86-1,1.34-1.5c.76-.48,2-1.3,3.26-2.28a21.89,21.89,0,0,1,2-1.34A12.63,12.63,0,0,1,69,62c-.42.13-.11-.33.31-.6.63-.23,1.49-1.12,1.58-.72l-.21.11a2.27,2.27,0,0,0,1.23-.32c.5-.18,1-.43,1.54-.63l0-.56a10,10,0,0,0,2.27-.63c.79-.22,1.58-.57,2.36-.8a7.88,7.88,0,0,1,3.83-.58c.64-.19,1.45-.33,2.1-.47L84,57c.92,0,1.6,0,2.34,0s1.53,0,2.66.09l-.48.17c1.25.11,1.69-.65,2.88-.49l.28.48c2.22.39,4.25,1.37,6.34,1.94-.06,0-.17.12-.49,0,.22.11.56.28.91.48l1.06.64a4.63,4.63,0,0,0,.83.49c.21.09.34.1.37-.07-.06.07,0,.2.16.35s.38.33.65.59l1.73,1.45-.34.05A6.72,6.72,0,0,1,105,64.74c.21.28,0,.38-.22,0,.71,1,.8.5,1.74,1.61l-.52-.25a3,3,0,0,0,1.56,1l.59.39c.22.16.44.32.68.47.42.33.88.55.93.72a8.78,8.78,0,0,1,1.81-.09c.12.08-.18.16-.33.18a4.22,4.22,0,0,0,2.56-.82,5.59,5.59,0,0,1,1.74-.83.27.27,0,0,0,.28,0c-1.44.66-2.57,1.21-2.48,1.14.12.23,1.27-.28.53.48a14.52,14.52,0,0,1,3.41-2.16.59.59,0,0,1,.19,0l-.11.08a2.88,2.88,0,0,0,.7-.37,7.59,7.59,0,0,0,1-.36c.22.13,1.38-.5,2-.76-.17-.23.62-.54-.19-.42.1,0-.1.08-.48.26a2.21,2.21,0,0,0-.24.14l0,0-1.44.68a3.28,3.28,0,0,1,1.54-.82,9.88,9.88,0,0,1,.63-.78c1,0,2.58-.51,2.9-.39,1.71-1,4.15-2,5-3a1.08,1.08,0,0,1,.87-.14,6.43,6.43,0,0,0-.74.48c1-.59,3-1.43,3.05-1.87,1.35-.44-.57.64,1.15-.23l-.18.21A14.88,14.88,0,0,0,137.43,57c.68-.45,1.34-1,2.07-1.51a13.27,13.27,0,0,0,2.25-2.14c-.21.28-.33.39-.42.41a3.58,3.58,0,0,0,.8-1.92,4,4,0,0,0-.51-2.08,6.47,6.47,0,0,0-1.24-1.57c-.22-.23-.46-.43-.59-.6l-.6-.73c-1.63-1.91-3.43-3.6-5-5.4a5,5,0,0,0-1.94-1.3l0-.42-1.3-.64c-1.7-1.07-2.21-2.76-4.52-3.92l.14.36c-.7-.59-2.36-1.63-2.1-1.73a.77.77,0,0,1-.59-.3l.07-.15-2-1.09c-1.34-1.09.59-.35-1.45-1.84-.8-.49-2.46-1.14-2.23-.85s.74.62.67.77l-.75-.41c-.39.3-1.19.32.34,1.77l1.35.6.25.45-1-.69a2.59,2.59,0,0,0,1.39.85,1,1,0,0,0,.35.56l1.41.47c0,.25-.73-.08,0,.56.66.23-.28-.7.69-.16.44.59.17.6.93.94,0,.17-.16.13-.45,0,.67.31,1.57,1.1,2,1.13.42.64,2,1.45,1.65,1.75a7,7,0,0,1,1.74.93c-1.27-.36,1.91,1.6,1.29,1.84,1,.21,2.61,1.93,3.92,2.83a1,1,0,0,1-.36-.21,8.25,8.25,0,0,1,1.06,1.37c.34-.19,1.41.7,2.08,1.09.44,1.06-.78-.17-.82.33.2-.26,1.48,1.16,1.44.72.36.77.36.62.37,1.14.23-.09.37,0,.52.24l.13.16.06.09.15.17a1.59,1.59,0,0,0,.47.31c.32.5.26.62.27.73s.06.18.41.56c.06.24-.07.19-.19.1A2.87,2.87,0,0,1,139.33,50.28ZM116.24,65.19h0l.6-.3Zm-2.44,1.15,1.06-.49c.13.05.08.18-.17.29C114.8,66,114.2,66.24,113.8,66.34Zm6-.62c-.37.21-.52.22-.6.19l.67-.34,0,0A.53.53,0,0,1,119.78,65.72Z"/><path class="cls-2" d="M120.33,65.06l.15-.09-.26,0-.1.14Z"/><path class="cls-2" d="M65.57,40.48h.07S65.6,40.49,65.57,40.48Z"/><path class="cls-2" d="M81,54.77v.07l.24-.1Z"/><path class="cls-2" d="M80.17,37.8a.43.43,0,0,0,.21,0A.6.6,0,0,0,80.17,37.8Z"/><path class="cls-2" d="M86.42,36.46l.91-.09Z"/><path class="cls-2" d="M91.26,35.58a.3.3,0,0,0,.07-.14h0Z"/><path class="cls-2" d="M29.25,69.81a1,1,0,0,0,0,.18C29.34,70.42,29.31,70.13,29.25,69.81Z"/><path class="cls-2" d="M38.8,51a6.7,6.7,0,0,1-.6.45C38.58,51.28,38.87,51.14,38.8,51Z"/><path class="cls-2" d="M36,94.29h0l.06.14Z"/><path class="cls-2" d="M37.28,52a8.39,8.39,0,0,0,.92-.52A3.32,3.32,0,0,0,37.28,52Z"/><path class="cls-2" d="M112.21,31.74l.23,0a.08.08,0,0,1,0-.05Z"/><path class="cls-2" d="M112.46,31.66l.26-.08A.52.52,0,0,0,112.46,31.66Z"/><path class="cls-2" d="M113.25,31.42l-.53.16A1.14,1.14,0,0,0,113.25,31.42Z"/><path class="cls-2" d="M105.78,32.74l-.06.12A.14.14,0,0,0,105.78,32.74Z"/><path class="cls-2" d="M103.84,33.13a12.21,12.21,0,0,0,1.84-.18l0-.09C105.45,33.06,104.25,32.87,103.84,33.13Z"/><path class="cls-2" d="M95.49,33.46l1.64-.24c-.3,0-.7-.12,0-.3C95.05,33,97.63,33.08,95.49,33.46Z"/><path class="cls-2" d="M90.42,34.34c.86-.24,0-.15,0-.22C89.87,34.33,89.74,34.38,90.42,34.34Z"/><path class="cls-2" d="M54.36,43.6v-.27C53.72,43.57,54.39,43.43,54.36,43.6Z"/><polygon class="cls-2" points="48.09 47.19 48.78 47.11 48.99 46.79 48.09 47.19"/><polygon class="cls-2" points="43.52 47.08 43.79 46.93 42.75 47.46 43.52 47.08"/><path class="cls-2" d="M36.79,101.87l.19-.33C36.72,101.15,36.35,101.22,36.79,101.87Z"/><path class="cls-2" d="M56.7,120.1a2.41,2.41,0,0,0,1.13,1A14.32,14.32,0,0,0,56.7,120.1Z"/><polygon class="cls-2" points="74.78 59.09 74.33 59.39 75.22 58.93 74.78 59.09"/><path class="cls-1" d="M139.42,70.89s6-.37,6.18,10.34.2,30.62-10.5,43.37S116,146.72,83.27,150.82a61.88,61.88,0,0,1-53.56-19.7C28,129.22,13.11,112,10.52,92.89s56.05,35.55,56.05,35.55l43.72-23.19-26.9,1.17S79,107.64,78.32,92.25,126.16,85.27,139.42,70.89Z"/><path class="cls-2" d="M139.91,71.34c.1-.23-.13-.27-.58.24,0,.19-.07.4-.12.58C139.45,71.9,139.68,71.61,139.91,71.34Z"/><path class="cls-2" d="M136,73.73c-.57.54-1.24,1.23-.64,1.25a13.67,13.67,0,0,0,1.26-1.43c.52-.42,1-.59,1-.43.14-.22.88-.6,1-1a11.67,11.67,0,0,0-2.53,1.83C135.85,74,136,73.81,136,73.73Z"/><path class="cls-2" d="M77.93,93.4V93C77.93,93.09,77.93,93.24,77.93,93.4Z"/><path class="cls-2" d="M106.31,106.07a2.61,2.61,0,0,0-.47.09A2.23,2.23,0,0,0,106.31,106.07Z"/><path class="cls-2" d="M104.25,107.32l.17-.07C104.31,107.27,104.24,107.3,104.25,107.32Z"/><path class="cls-2" d="M77.93,93.4l0,1.08C78,94.55,77.94,93.92,77.93,93.4Z"/><path class="cls-2" d="M128.09,78a3.9,3.9,0,0,0,.54-.26l-.52.2A.42.42,0,0,0,128.09,78Z"/><path class="cls-2" d="M90.25,82.46l.32-.07a2.15,2.15,0,0,0,.24-.18Z"/><path class="cls-2" d="M103.67,80.4c-.31,0-.38.32-.48.45a1.35,1.35,0,0,1,.64-.27S103.78,80.47,103.67,80.4Z"/><path class="cls-2" d="M124.85,77.67l.36-.12Z"/><path class="cls-2" d="M80.94,85.88a.25.25,0,0,0-.17,0S80.85,85.89,80.94,85.88Z"/><path class="cls-2" d="M144.31,83.62s0,0,.05,0S144.31,83.51,144.31,83.62Z"/><path class="cls-2" d="M139.42,70.82h.22a.4.4,0,0,0,.06-.16A1.61,1.61,0,0,0,139.42,70.82Z"/><path class="cls-2" d="M94.3,112.18l.06,0C94.63,112,94.47,112.07,94.3,112.18Z"/><path class="cls-2" d="M11.68,102.68c-.17-1.33,1,1.94.62,0C12.25,102.86,11.33,101.06,11.68,102.68Z"/><path class="cls-2" d="M127.74,78.05l-.54.16A4.21,4.21,0,0,0,127.74,78.05Z"/><path class="cls-2" d="M12.3,102.64h0l0-.2Z"/><path class="cls-2" d="M69,125.8a.91.91,0,0,0,.32,0S69.2,125.75,69,125.8Z"/><path class="cls-2" d="M88.09,116.12l-.48.22A4.59,4.59,0,0,0,88.09,116.12Z"/><path class="cls-2" d="M61.38,122.62a3.35,3.35,0,0,0-.57-.53l.07.1A1.8,1.8,0,0,1,61.38,122.62Z"/><path class="cls-2" d="M52.68,115l.12.18.29.23Z"/><path class="cls-2" d="M138.43,117.35a1.68,1.68,0,0,1,.46-.35C138.64,117.06,139.34,115.57,138.43,117.35Z"/><path class="cls-2" d="M128,77.84a.53.53,0,0,1-.3.21l.37-.12C128.13,77.88,128.12,77.84,128,77.84Z"/><path class="cls-2" d="M59.55,124l-1.34-1.25C58.57,123.07,59.06,123.52,59.55,124Z"/><path class="cls-2" d="M68.44,149.75h.42A1.2,1.2,0,0,0,68.44,149.75Z"/><path class="cls-2" d="M54.1,119.14a5.65,5.65,0,0,0-.65-.83,1.65,1.65,0,0,0-.21-.09Z"/><path class="cls-2" d="M138.9,117h0Z"/><path class="cls-2" d="M142.12,105.64c-.4,1.66.17.86.29,1.27-.38,2-.5.85-.86,1.47a23.6,23.6,0,0,1-.54,3.19c-.09,0-.17.21-.17,0-.14,1.39-1.4,3.74-1.76,5.3a.79.79,0,0,1-.18.15c.28-.15.47-.1.57,0-.36.69-.47,1.39-.81,1.54a1.35,1.35,0,0,0,.19-.73l-.28.77c-.64.48.4-1,.18-1.16-.33.71-.58,1.55-1,2.26a14.66,14.66,0,0,1-1.1,1.88c-.42,0,1.4-2.45.29-1.25.36-.51.76-1,1.08-1.52-1.14,1,.56-1-.55-.11-1.36,2-1.22,2.43-2.79,4.26-.18.55.33,0,.15.58-2,2.94-2.42,1.6-3.76,3.85a3.78,3.78,0,0,1-1.52,2.35l.14-.72c-1.65,1.74-.5,1.41-2.45,3,.21-.42,1.23-1.43.94-1.2-1.35.94-.65,1-1.52,1.86l-.42-.06a53.36,53.36,0,0,1-6,5.49c.06-.18.39-.55-.2-.25a35.27,35.27,0,0,1-9.64,5l-1.11.75c-.28.1-.57.08-.28-.09-1.28.38,0,.19-.55.54-.7.29-1,.2-.58,0a39.52,39.52,0,0,1-4.21,1.75,28.17,28.17,0,0,1-4.52,1.14l.44-.21c-1.9.35-2,1.07-3.82,1.21l.33-.13c-2.07.43-4.27.79-6.34,1.17a38,38,0,0,1-5.67.56c-.57.58-4.15.18-4.38.81-2.41-.12-1.73-.17-5.09-.42-.89,0-1.34.35-2.46.4V150a13.22,13.22,0,0,1-1.52.21l-.77-.45-1,0c.41.06.86.22.79.31a14.69,14.69,0,0,1-2.58-.34,3,3,0,0,1-1.35-.51l-3.82-.46a4.5,4.5,0,0,1,1.27,0c-2.08-.1-.31-.33-2.19-.51.23.14-.18.15-.23.19a14.48,14.48,0,0,0-2-.7c-.81-.25-1.72-.44-2.47-.7l.36-.1c-1.32-.52-2.76-1-4.19-1.52l-2.16-.91a20.21,20.21,0,0,1-2.16-1c1,.63.58.84-.27.43l-.19-.47c-.63-.11.82.57-.4.2-1-.59-.54-.7.12-.47l-1.34-.58c0-.13.3,0,.43-.08-.64-.07-2-1.52-2.91-1.68l0-.12a65.67,65.67,0,0,1-6-4.06c-.22.2-1-.49-1.71-.83-1.43-1.29-2.82-2.92-4.42-4.55-1.19-1.09-.49-.19-1.11-.62.11-.25-1.4-2-.49-1.2-1.8-2.11-2.29-2.71-4.55-5.44.14.37.35.75.15.62-.41-.5-.76-1.25-.61-1.25l.12.12c-2.65-3-4.41-8-6.3-10.56l.11.15c-.62-.91-1.15-1.86-1.73-2.79-.63-1.37.57.72.22-.34a21.41,21.41,0,0,1-2-4c-.42-1.24-.88-2.39-1.44-3.72a8.37,8.37,0,0,0-.38-2.22c-.22-.86-.48-1.83-.74-2.83a24,24,0,0,1-.65-3c-.09-.49-.16-1-.21-1.4a3.55,3.55,0,0,1,0-1.06l-.18.14a.85.85,0,0,1,0-.65,4,4,0,0,1,.24-.37.29.29,0,0,0-.2.17c-.05.09-.08.14-.11,0,.12-.6.29-.76.73-.93a4.2,4.2,0,0,1,2,.13,20,20,0,0,1,4.5,2,91.3,91.3,0,0,1,8.51,5.75c2,1.49,1.69.07,4,2.28l-.91-.27c4.31,2.68,8.21,6.3,12.25,9.2a2,2,0,0,1-.72-.37,10.27,10.27,0,0,0,3.13,2.34c.58.52,0,.25.32.64.72.78,2.22,1.46,2.49,2,.05.09-.27-.13-.43-.25.6.36,2.41,2.1,2.09,1.46,1.34,1.32,2.79,2.24,3.81,3.34.93.4,2.3,2.22,2.82,2.09-.4.25,2.21,2.44,3.23,3.08-.38-.17.67.79.2.62,1,.89,2,1.66,2,1.33a10.64,10.64,0,0,0,2.2,2.15l1.08.86a15.83,15.83,0,0,1,1.45,1.38,6.07,6.07,0,0,1,1.15-.36l5.3-3.16,4.77-2.77c.1.46-3.5,1.91-3.14,2.26A87.15,87.15,0,0,1,82,121.26c.8-.36-.35.41-.58.61,2.94-1.76,5.86-3.06,8.43-4.7a1.88,1.88,0,0,1-.51.41c.52-.29,1.26-.59,1.1-.74l-.49.32c-1,.19,1.82-1.66,1.84-1.85-.63,1,2.72-1.28,1.64.13.33-.22.72-.53.58-.61.53-.24.74-.26.28.16,1.85-1.11,1.07-.94,2.79-1.85,0,.09-.28.31-.41.51a13.06,13.06,0,0,1,3.06-2c-.06.1.14.08-.29.31,1.24-.67,2.24-1.35,3.29-2l.79-.5.41-.25.49-.28c.76-.43,1.55-.84,2.55-1.31-.42.7,1.54-.66,2.68-.84l2.06-1.22-1.47.57c1.24-.65,1.95-1.15,2.73-1.62a17.67,17.67,0,0,1-1.9.08l2.15-.25-4.22.25,1.73.07a7,7,0,0,0-1.86.37,3.36,3.36,0,0,1-1.41.14c.5-.06-1.54.06-2.27-.13h0a14.23,14.23,0,0,1-3,.28c-.29-.11.21-.42,0-.49-.7.34-3.41.23-4.29.6.29-.09.3-.29.2-.32l-.59.28c-.68-.05-.78-.09-.67-.25-2,0,.66.44-1.76.34.19,0,.1-.06.49-.11-2.42,0-4.67.36-6.9.33-.67-.35,1.94-.18,1.18-.46-2.15.14-4.39.42-6.56.61h-.13a1,1,0,0,1-.46,0,2,2,0,0,1-.56-.3,2.73,2.73,0,0,1-.48-.48,2.6,2.6,0,0,1-.4-.58,2.59,2.59,0,0,0,.26.46c-.17,0-.32-.12-.45-.33a2.75,2.75,0,0,1-.36-.84c-.12-.32-.2-.7-.3-1.08a11.25,11.25,0,0,0-.39-1.11c.14.35.41.39.33.31a59.39,59.39,0,0,1-1.53-7.27c.06.13.11.26.17.38,0-.62,0-1.44-.06-2.27a5.51,5.51,0,0,1,.17-2.14c-.06-.38.23-1-.11-.71a13.69,13.69,0,0,1,9.3-5.58c-.42.11-1,.39-.63.3,1-.32,2-.6,3-.86-.29-.17-.43,0-1.11-.08a7.07,7.07,0,0,1,2-.67c-1.36.44.08.35.7.37-.11,0,.08-.16,0-.22,1.69.11.18-.52,2.45-.62l-.1.14a18.22,18.22,0,0,1,2.47-.56c.41.21-.87.25-.9.48,1.26-.2,2.43-.85,3.6-.74-.52.15-1.29.25-1.82.4a8.51,8.51,0,0,0,2.35,0h-.09l2.16-.12-.56,0c1.5-.89,3.21-.51,5.29-1.22-2,.68-.31.29-.43.61.55,0,1.39,0,1.17.13,1-.36,1.71,0,3.09-.54.08.09,1.08-.13.89.14,1.3-.24-.34-.13-.24-.26,2-.59,4.82-.23,7.66-1.18,2.46-.64,2.86-1,5.11-1.72.81,0-.55.49-.55.49a12.2,12.2,0,0,0,3.35-.84c-.21.15.05.15.44.16.93-.31.52-.52,1.79-.78a3.64,3.64,0,0,1-.81.67c1.07-.43,2.1-1,3.17-1.49.35,0-.58.51-.94.75,1.25-.51,3.18-1.49,3.42-1.93-.27.11-.55.19-.82.29.44-.22.33.1,0,.3-1,.67-1.56.58-1.66.51.26-.12.51-.26.76-.39-1-.16-3.11,1.33-4.78,1.77l.56-.61c-.52.29-1,.55-1.57.82-.39,0-.69-.16.1-.45-1.22.12-1,.43-2.06.45-.12,0-.07,0,0-.08l-1.12.39c.21-.14-.25-.24.47-.34-2.11.23-3.28,1-4.12.84l.17-.06c-2.87.65-.22.36-2.35,1.08l-1.58-.52-.24.35c-.3,0-.9.1-.81,0-1.09.36.21.1-.41.39-1.48-.06-4,.66-4.37.22-.49.3,1.41,0-.12.36-.5-.47-1.78.31-3.13.22.37-.31,1.65-.32.29-.4-.75.55-2.59.2-3.7.42,0,.37-2.42.44-4.29.8.11-.14-3.56.26-5.32.43l0-.07c-.28.41-2.09.65-3.38,1,0-.22.23-.36.92-.6l-1.23.25a5.32,5.32,0,0,1-1.42.55l.25-.34c-1.64.4-3.2,1.11-5.29,1.76,0,.28,1.83,0-.17,1-.13-.09-.31-.28.22-.56a6.11,6.11,0,0,1-1,.49l.73-.59c-.94.32-.39.38-1.1.71-.08-.18-.58.15-.56,0a6.83,6.83,0,0,0,.9-.45c-.83.34-1.83.82-2.22.93.13.05.14.2-.37.64s-.8.64-.9.63-.13-.09-.53.27c-.2.41-1,1.34-.68,1.52a2.23,2.23,0,0,1-.53.7,7.83,7.83,0,0,0-.27,2.42c.06.81.16,1.33.28.85v-.22l0,.13h0c.44,2.79.28,5.88,1.13,8.61l-.09,0c.5,1.6,1.33,3.64,2.43,4.39.34.38,1,.88.69.88a2.14,2.14,0,0,0,1.39.14l-.11,0a12.5,12.5,0,0,1,2.19,0c-1.27.23.45.14-1.3.18a13.25,13.25,0,0,0,3.79-.19c-.59.28,1.26.27,2,.16L89,106.86c.88-.08,1.65-.09,2.44-.1l-.41.35c3.39.26,6.05-1,8.65-.38.88-.27-1.84-.09-1-.39,1.55,0,3.19.38,3.67.36,1.27,0,1-.07,1.4-.22a2.66,2.66,0,0,1,1.3-.26c.13-.12.3-.45,2.06-.63.65,0,.63.12.27.26a7.69,7.69,0,0,1-1.37.38c-.22,0-.2,0-.08-.07-.42.06-.83.13-.88.26l.41-.13c.06.12.93.07-.09.3l.25,0a2.22,2.22,0,0,0,.7-.19s0,0,0-.06l.09,0c-.49.21-.68.32-.93.45a6.28,6.28,0,0,1-.93.45c.23,0,.69-.13.53,0-.8.34-.83.42-.87.53a.28.28,0,0,1-.07.19,2.55,2.55,0,0,1-.63.43c-1.11.38.17-.58-1.58.52-1.16.48-.38-.16,0-.48a22.2,22.2,0,0,1-4.13,2l.83-.54a15.38,15.38,0,0,1-1.36.78l.61-.06c-.53.24-1,.47-1,.37-.45.42.59.14-.35.88-.74.26-2,1.22-2.4,1.06,2.19-1-.39-.15,1.4-1.16a8.34,8.34,0,0,1-1.29.68c-.09,0,0-.1.17-.19-2.18.84-.77.82-2.9,1.94.19-.3-.65,0-1,.18.86-.45.55,0-.17.58a14.05,14.05,0,0,0-2.16,1.24l.85-.37a7.64,7.64,0,0,1-1.81,1.19c-.15-.07.82-.54.45-.41-.91.83-2.53,1-3.91,1.94-.73.26-.22-.26-.85,0-1.54,1.08-1.9.73-3.55,1.82.61-.06.67-.15-.44.7l2.77-1.66-1.66,1.28c.86-.46,1.74-1.1,2.27-1.34-.77.64-.71.54-.21.49-1.34.31-2.23,1.43-3.71,1.93l-.23-.54c-2.17.85-3.49,2.19-6.21,3.47l.9-.36a16.87,16.87,0,0,1-2.44,1.44c0-.22-.58,0-1,.09.11.1-2,1-2,1.49a1.88,1.88,0,0,1-.58,0l0-.08a2.71,2.71,0,0,0-.24-.24l-.46-.35c-.33-.24-.63-.42-.93-.6a9.22,9.22,0,0,1-2-1.5c.66.32,0-.5,1.23.44-.57-.53-1.07-1-1.17-.93-.25-.4-1.78-1.25-2.19-1.87a2.59,2.59,0,0,1-1.16-.66c0-.1.06-.08.06-.08s-1.11-.81-.68-.14c-1.38-2.06-5.06-4.4-6.3-6.16l-4.12-3.33c.12,0,.07-.07.28.13-1.51-1.51-1.36-.41-3.09-2.12-.75-1,1.1.69.58.1.16-.72-2.3-1.8-3.33-3.13l.33.22c-.82-1-2.51-1.73-4.08-3,0,0,.12,0,.07-.07a48.72,48.72,0,0,1-5.06-3.26c.64.17.8.43.66,0-.73-.5,0,.49-1.49-.51-.37-.46-1.31-1.31-1.29-1.63l1.34,1c-.46-.8-1.73-1.28-2.4-1.84l.19-.06c-2.1-1.45-2.35-1.16-4.59-2.72l.17.25c-1.45-.51-.92-.88-2.32-1.45l-.17-.58c-.88-.46-3.14-1.51-4.75-2.26a23.91,23.91,0,0,1,4.09,1.66,16.77,16.77,0,0,0-3.44-1.76,5.18,5.18,0,0,1,1.16.56,39,39,0,0,1-4.46-1.73c.31-.27-.83-.89-2.38-1.27a6.56,6.56,0,0,0-2.56-.19,4.07,4.07,0,0,0-2.09,1,5.49,5.49,0,0,0-.59,3.17l.07.72.1.65c.07.44.13.89.2,1.33A36.25,36.25,0,0,0,11,100.61c.14-1.54.37,1.13.89.71a6.22,6.22,0,0,1,.41,1.32c.15,1,.4,1.87.62,2.8.08.7-.44-.79-.54-.66.7,2,.07.91.41,2.26.09-.34.56.55,1,1.66l-.41-1.64c1.48,2.5.48,2.53,2.08,5l-.58-.74c.74,1.31,2.52,4.93,3.72,5.92.07.26.11.65-.27.1,1.73,3.14,4.67,6.42,6.07,8.81l-.28-.13a6.54,6.54,0,0,1,1.29,1.51c-.07,0-.27-.12-.1.13a15.25,15.25,0,0,1,1.78,2l-.61-.48c2,2.84,3.78,3.86,6,5.77-.16.16.24.73.81,1.39s1.34,1.34,1.84,1.82H35a31,31,0,0,0,4.48,3.14c1.44.9,2.95,1.6,4.59,2.51a11.68,11.68,0,0,0,1.89,1.3,27,27,0,0,0,2.66,1.44l3,1.38c1,.43,2,.79,2.85,1.19-.51-.28.21-.29.85-.11.79.43,2.41.44,2.15.79l-.3-.09c.53.56,2.32.95,3.69,1.33l.34-.45a17.12,17.12,0,0,0,3,.86c.55.12,1.11.22,1.67.31s1.13.1,1.68.15a30,30,0,0,1,5.21.6c.9-.12,2-.11,2.89-.23l-.05.28,1.68.07c.51,0,1-.05,1.49-.09,1-.07,2.08-.16,3.6-.31l-.6.25c1.74-.1,2.07-1,3.62-1.25l.53.35a50.16,50.16,0,0,0,8.81-1.46c0,.07-.09.2-.57.3,1.38-.24,5.39-.88,4.76-1.32.13.4,3-.75,4.51-1.32l-.17.33a13.83,13.83,0,0,1,3-1.51c.43-.11.44.09-.15.21,1.47-.36,1-.56,2.78-1.1l-.57.42a5.42,5.42,0,0,0,2-1.1,9.22,9.22,0,0,1,3-1,4,4,0,0,1,1.65-1.11c.15,0-.11.25-.25.34a18.51,18.51,0,0,0,2.72-1.54,12.83,12.83,0,0,1,2.14-1.33c.08.06.2,0,.34,0-.87.55-1.66,1.06-2.22,1.38s-.92.49-.85.44c.12.23,1.62-.54.62.41.56-.39,1.25-1,2-1.64.37-.3.75-.6,1.13-.87a12.83,12.83,0,0,1,1.07-.77.65.65,0,0,1,.23-.06l-.12.12a5.45,5.45,0,0,0,.81-.64,9.15,9.15,0,0,0,1.12-.76,10.62,10.62,0,0,0,2.19-1.68c-.23-.17.59-.88-.31-.35.11-.08-.08.13-.5.49a3.28,3.28,0,0,0-.26.25l0-.05L123.29,138a5.7,5.7,0,0,1,1.67-1.53l.57-1.1a15.41,15.41,0,0,0,1.88-1.09,6.88,6.88,0,0,1,1.32-.8c1.7-1.89,4-4.45,4.6-6a1.62,1.62,0,0,1,.88-.68,10,10,0,0,0-.64.94c.83-1.17,2.69-3.27,2.59-3.8,1.23-1.35-.36,1,1.12-1l-.12.33a16.23,16.23,0,0,0,3.25-5.68c.39-1,.65-2,1.09-3a31.58,31.58,0,0,1,1.46-3.4,1.84,1.84,0,0,1-.33.57,43.79,43.79,0,0,0,2.29-9.15c.47-3.13.78-6.26,1.24-9.27a7.75,7.75,0,0,0-.17-3l.31-.36L146,88.17c-.24-2.55.79-4.4.19-7.65L146,81c0-1.18-.47-3.69-.25-3.53a1.28,1.28,0,0,1-.3-.82l.15-.07a12.34,12.34,0,0,0-1.29-2.66c-.55-1-.4-1-.31-1.14s.07-.14-.07-.4a4,4,0,0,0-1.17-1.26,4.8,4.8,0,0,0-2.31-.79c-.73,0-1.31.15-1,.18.58,0,1.32.31,1.31.48a4.24,4.24,0,0,0-1.12-.13c-.12.22-.33.47-.22.68s.43.34,1.32.88a4.19,4.19,0,0,1,1.39.62,2.47,2.47,0,0,1,.18.52,4.59,4.59,0,0,0-.94-.83,6.07,6.07,0,0,0,1.29,1.11,1.49,1.49,0,0,0,.15.7,4.57,4.57,0,0,1,.56.6,4.45,4.45,0,0,1,.52.69c-.11.25-.57-.57-.32.5.44.68.16-.85.68.37,0,.89-.21.65.13,1.6-.11.16-.2,0-.32-.41a11,11,0,0,1,.33,1.51,4.29,4.29,0,0,0,.27,1.24c-.19.88.14,3.12-.3,3a11.27,11.27,0,0,1,.38,2.49c-.52-1.56-.06,3.18-.64,2.76.45,1.16.09,4.14.16,6.18a1.23,1.23,0,0,1,0-.52,13,13,0,0,1-.46,2.17c.36.18.29,2,.38,2.94-.57,1.33-.33-.9-.75-.51.32,0,0,2.44.29,2-.38,1-.25.89-.67,1.38.45.26-.1,1,0,1.91-.54,1.46-.52.29-.76,2C141.94,107.13,142.12,105.64,142.12,105.64Zm-21.79,32.54h0l.67-.5Zm-2.83,1.87,1.25-.78c.15,0,.09.17-.2.35C118.67,139.46,118,139.85,117.5,140.05Zm7.07-2.67c-.41.39-.59.47-.68.47l.73-.65,0-.07A.53.53,0,0,1,124.57,137.38Z"/><path class="cls-2" d="M125.1,136.46l.16-.16-.3.16-.09.2Z"/><path class="cls-2" d="M77.94,92.91V93c0-.06,0-.12,0-.16A.94.94,0,0,1,77.94,92.91Z"/><polygon class="cls-2" points="72.19 149.95 72.19 150.02 72.49 149.96 72.19 149.95"/><path class="cls-2" d="M92.29,83.35a.68.68,0,0,0,.26,0A.8.8,0,0,0,92.29,83.35Z"/><path class="cls-2" d="M100.36,82.2l1.16,0C101,82.16,100.65,82.18,100.36,82.2Z"/><path class="cls-2" d="M106.62,81.6a.38.38,0,0,0,.11-.14h0Z"/><path class="cls-2" d="M89.36,117.58l-.21.13C88.67,118,89,117.82,89.36,117.58Z"/><path class="cls-2" d="M105.22,105.05c.44-.07.92-.14,1.41-.19A2.7,2.7,0,0,0,105.22,105.05Z"/><path class="cls-2" d="M59.69,124.1h0l-.15-.14Z"/><path class="cls-2" d="M108.48,104.78a11.61,11.61,0,0,0-1.85.08C107.19,104.85,107.79,104.85,108.48,104.78Z"/><path class="cls-2" d="M133.47,76l.29-.12a.07.07,0,0,1,0-.06Z"/><path class="cls-2" d="M133.77,75.85l.3-.18A1.15,1.15,0,0,0,133.77,75.85Z"/><path class="cls-2" d="M134.69,75.28c-.2.13-.41.27-.62.39A1.84,1.84,0,0,0,134.69,75.28Z"/><path class="cls-2" d="M125.4,78.6l-.07.13A.16.16,0,0,0,125.4,78.6Z"/><path class="cls-2" d="M122.92,79.2a14.18,14.18,0,0,0,2.35-.38l.06-.09C125,79,123.44,78.92,122.92,79.2Z"/><path class="cls-2" d="M112.27,79.66l2.11-.2c-.38-.06-.88-.13.06-.29C111.76,79.21,115,79.34,112.27,79.66Z"/><path class="cls-2" d="M105.73,80.3c1.12-.18,0-.15,0-.22C105,80.26,104.87,80.31,105.73,80.3Z"/><path class="cls-2" d="M82.68,107l-.23.21C83.78,107.42,82.46,107.15,82.68,107Z"/><polygon class="cls-2" points="91.86 105.37 91 105.25 90.6 105.5 91.86 105.37"/><polygon class="cls-2" points="97.3 106.96 96.92 107.01 98.38 106.86 97.3 106.96"/><path class="cls-2" d="M54.4,116.13v.41C54.88,116.89,55.21,116.7,54.4,116.13Z"/><path class="cls-2" d="M27.16,94.89a3.87,3.87,0,0,0-1.57-1.17C26.23,94.17,26.81,94.7,27.16,94.89Z"/><polygon class="cls-2" points="62.83 151.28 62.11 151.26 63.44 151.42 62.83 151.28"/><path class="cls-1" d="M315.25,85.62c-.45,8.45,4.42,6.64,4.42,6.64s7.52,0,16.53,0c8.35,0,9.42-3.8,9.42-3.8s4.3-57,4.83-69.7-8.8-9.66-8.8-9.66Z"/><path class="cls-2" d="M314.62,85.4c.05.13.25.14.31-.15l-.24-.31Z"/><path class="cls-2" d="M315.85,83.72c0-.38-.18-.85-.54-.73.19.43,0,.46.28.93-.06.3-.27.46-.37.37,0,.13-.22.41-.07.63a1.47,1.47,0,0,0,.5-1.29C315.75,83.55,315.8,83.68,315.85,83.72Z"/><path class="cls-2" d="M325.75,56.61l-.1.16A.49.49,0,0,0,325.75,56.61Z"/><path class="cls-2" d="M331.75,39.77c0,.13,0,.19,0,.21S331.79,39.75,331.75,39.77Z"/><path class="cls-2" d="M333.09,37l-.08.16A.18.18,0,0,0,333.09,37Z"/><path class="cls-2" d="M325.75,56.61l.25-.42C325.91,56.13,325.85,56.4,325.75,56.61Z"/><path class="cls-2" d="M316.39,79.7a.88.88,0,0,0,0,.28l.05-.25Z"/><path class="cls-2" d="M323.43,64.15l0,.14.08.16Z"/><path class="cls-2" d="M321.51,69.89c.05-.13-.2-.27-.3-.36a.42.42,0,0,1,.09.35A.46.46,0,0,0,321.51,69.89Z"/><path class="cls-2" d="M317.91,78.79l0,.18Z"/><path class="cls-2" d="M324.9,60.08l.12,0A.17.17,0,0,0,324.9,60.08Z"/><path class="cls-2" d="M316.51,93.17s0,0,0,0S316.46,93.14,316.51,93.17Z"/><path class="cls-2" d="M315.32,85.62l0,.1a.8.8,0,0,0,.15,0Z"/><path class="cls-2" d="M335.26,31.84l0,0C335.23,32,335.25,31.93,335.26,31.84Z"/><path class="cls-2" d="M348.6,30.53c.29-.56.26,1,.6.11C349.08,30.72,348.81,29.82,348.6,30.53Z"/><path class="cls-2" d="M316.48,79.57l.08-.24A.83.83,0,0,0,316.48,79.57Z"/><path class="cls-2" d="M349.2,30.64h0l0-.08Z"/><path class="cls-2" d="M339.3,19.61a.37.37,0,0,0-.16.09S339.21,19.69,339.3,19.61Z"/><path class="cls-2" d="M335.79,28.55l.11-.21A2.21,2.21,0,0,0,335.79,28.55Z"/><path class="cls-2" d="M340.55,14.78a.71.71,0,0,0,.13-.33l-.05,0A.33.33,0,0,1,340.55,14.78Z"/><path class="cls-2" d="M342.17,10.06h-.06l0,.09Z"/><path class="cls-2" d="M332.84,93.46a.94.94,0,0,1-.24-.25C332.68,93.41,331.92,93.48,332.84,93.46Z"/><path class="cls-2" d="M316.54,79.75a.19.19,0,0,1-.06-.18l0,.16S316.51,79.78,316.54,79.75Z"/><path class="cls-2" d="M338.52,13.85l.31-.76A7,7,0,0,0,338.52,13.85Z"/><path class="cls-2" d="M348.47,65.51l0,.19A.39.39,0,0,0,348.47,65.51Z"/><path class="cls-2" d="M339.58,10.77a1.35,1.35,0,0,0,.34-.38.36.36,0,0,0,0-.11Z"/><path class="cls-2" d="M332.6,93.21Z"/><path class="cls-2" d="M327.18,93.86c.78,0,.36-.36.53-.57.94-.1.43.27.75.46.59-.09,1-.43,1.47-.42,0,.07.12.09,0,.16.62-.29,1.83,0,2.56-.38a.26.26,0,0,1,.09.1.74.74,0,0,1-.11-.51c.35,0,.65-.23.78,0-.21,0-.23.09-.33.16l.37-.1c.33.35-.5.12-.51.38a7.81,7.81,0,0,1,2.11-.3c.12.34-1.29.11-.55.41l-.85-.13c.65.54-.52,0,.08.54,1.12.1,1.25-.17,2.37-.07.25-.19-.08-.28.17-.47,1.62-.38,1.33.85,2.54.28.3-.25.36-.68,1.26-.6l-.24.43c1.16-.15.55-.65,1.78-.67-.16.2-.86.33-.67.34.85.11.49-.33,1.07-.52l.23.29a8.62,8.62,0,0,0,3.39-2.45c0,.13-.09.39.24.2.15-.21.3-.41.44-.64a4.36,4.36,0,0,0,.43-.82,3,3,0,0,0,.15-.89l.08-.64c.13-.85.29-1.69.45-2.45l-.25-.62c0-.14.15-.25.2-.09.16-.6-.18,0-.28-.35s.2-.44.28-.21a10.38,10.38,0,0,1,.09-4.19l.07.23c.18-.87-.53-1-.2-1.83l0,.16c.27-1.89.16-4,.71-5.43-.4-.31.32-1.87-.25-2a9.19,9.19,0,0,0,.76-2.26c.05-.41-.33-.64-.35-1.14h.31l-.27-.71.39-.34,0-.48c0,.19-.17.39-.26.35a2.58,2.58,0,0,1,.51-1.79l-.14-1.77c.12,0,.15.34.21.58-.25-1,.33-.15.11-1-.08.11-.18-.08-.24-.1a5.3,5.3,0,0,0,.26-2.11l.2.15c.15-1.29.1-2.74.21-4.2-.14.51-.5.37-.5-.06l.34-.15c-.19-.29-.16.44-.36-.15.07-.54.39-.34.47,0l-.06-.67c.1,0,.14.13.26.18-.18-.29.41-1.12.09-1.54l.1,0c.1-1.45,0-2.12.1-3.31-.27,0-.18-.5-.38-.87a21.79,21.79,0,0,0,.49-2.88c-.09-.74-.22-.23-.37-.57.26,0,.31-1.09.46-.53A25.48,25.48,0,0,0,350,42c-.11.17-.17.36-.25.25,0-.29.15-.65.27-.6l0,.08c-.26-1.82,1-4.08.59-5.55l0,.08-.17-1.49c.08-.68.16.42.35-.08-.32-1.62.23-2.51,0-3.85.82-1,.18-3.61.75-5l-.19.07c-.15-.37.13-.42.19-.68-.14,0-.18.37-.27.15a34.91,34.91,0,0,1,.33-4.63,29.52,29.52,0,0,0,.36-4.89,1.13,1.13,0,0,0-.5-.95.76.76,0,0,1-.25-.37,2,2,0,0,1-.11-.84l.43.36c-.27-.6-.4-1.21-.73-1.82l-.41-.91-.56-.88a5.71,5.71,0,0,0-3.35-2.36c.18,0,.22-.11.46,0a2.17,2.17,0,0,0-1.2-.46c-.46,0-.84,0-.86.12-.4-.07-.07-.2-.32-.31-.56-.19-1.37.29-1.67.09-.06,0,.14-.09.24-.11a3.06,3.06,0,0,1-.4.08c-.15,0-.33,0-.61.11-.51.13-.85.24-.53.31a4.13,4.13,0,0,0-.53.11c-.17.05-.38.05-.4.26a8.22,8.22,0,0,0-.33,1l-.21.68a2.26,2.26,0,0,1-.22.47c.15.51-.61,1.31-.24,1.58-.41-.2-.82,1.27-.8,1.84-.07-.21-.28.39-.39.13-.19.57-.29,1.13,0,1.1-.87.88-.32,2.26-1.18,2.63-.35,1.77-.74,3.4-1.17,5-.4-.21.54-1.71.07-1.79a17.78,17.78,0,0,1-.84,3.87c-.19.35-.11-.28-.14-.43-.33,1.51-1,2.78-1.22,4.15,0,0,0-.17,0-.31-.07.26-.27.57-.06.61l0-.27c.42-.31.24,1.21.37,1.31-.4-.63-.58,1.22-1,.29,0,.18,0,.42.14.43-.12.24-.23.29-.29,0-.21.94.11.69-.18,1.51-.09,0-.07-.21-.15-.34a2.78,2.78,0,0,1-.24,1.63c0-.06-.14,0-.07-.21-.39,1.21-.22,2.21-.85,3.46-.27-.53-.28.4-.66.34l-.14.74.27-.22a9.79,9.79,0,0,1-.45,1.74v-.51l-.33,1.18.36-.61c0,.69.47.09.09.88,0-.18-.22.62-.54.87h0a1.89,1.89,0,0,1-.23,1.13c-.15.08-.35-.23-.46-.18.2.4-.41,1.47-.23,2,0-.15-.21-.22-.26-.19l.15.34c-.18.26-.23.28-.36.19-.34.84.54-.12,0,.83,0-.08-.05-.06,0-.24-.46,1-.54,2-1,2.94-.45.15.2-.86-.21-.64-.41,1.38-.55,3-1.08,4.25l.12-.24c.44.36-.59.9-.58,1.64,0-.17-.2-.3-.16-.24a18.89,18.89,0,0,0-.83,3.3l-.07-.21a19.94,19.94,0,0,0-.8,1.93c.07.21-.07.53.19.4-1.34,1.51-.77,3.5-1.92,4.86.06-.19,0-.49,0-.34l-.35,1.38c.26,0,.2-.13.46-.35a1.73,1.73,0,0,1-.07,1c.06-.66-.35-.12-.56.1.08,0,.12.09.2.09-.63.57.4.27-.19,1.13l-.1-.09a4.86,4.86,0,0,1-.19,1.13c-.31.08,0-.42-.19-.51-.17.54.11,1.23-.31,1.63,0-.25.12-.58.13-.84a1.86,1.86,0,0,0-.61.9l0,0-.45.87.16-.2c.43.9-.35,1.41-.23,2.47-.11-1-.19-.22-.45-.39-.16.2-.37.53-.42.4.08.51-.43.65-.3,1.38-.1,0-.17.45-.37.28-.12.58.21-.08.31,0,0,1-1.08,1.89-1.08,3.28-.19,1.13.05,1.44-.13,2.48-.27.29-.25-.39-.25-.39a3.19,3.19,0,0,0-.5,1.46c-.05-.13-.15,0-.31.07-.12.42.24.39-.08.88a1.65,1.65,0,0,1-.23-.53c-.08.51-.07,1-.16,1.57-.21.08-.14-.39-.19-.6-.12.59-.35,1.5-.16,1.76l.22-.32c-.06.21-.26,0-.25-.14,0-.55.33-.66.43-.66l-.07.38c.67-.18.41-1.46.69-2.16l.29.43-.08-.84c.16-.13.42-.16.35.22.38-.45,0-.5.39-.87,0,0,.06,0,.06,0l.06-.54c0,.13.3,0,.14.3.54-.82.21-1.55.62-1.79v.09c.3-1.29-.25-.22-.26-1.27l.92-.39-.24-.22c.05-.13.16-.37.26-.29,0-.54-.15,0-.24-.3.47-.53.46-1.75,1-1.73-.14-.3-.37.53-.3-.18.56,0,.18-.79.6-1.28.2.26-.12.75.3.26-.31-.49.48-1.07.56-1.57-.34-.14.21-1.09.38-1.93a19.64,19.64,0,0,0,1.09-2.14l.05,0c-.3-.26,0-1,.15-1.59.2.09.25.22.24.55l.18-.52a1.15,1.15,0,0,1,0-.7l.22.22a9.3,9.3,0,0,1,.66-2.36c-.22-.13-.92.49-.75-.52.14,0,.38,0,.34.32a1.09,1.09,0,0,1,.11-.48l.09.46c.24-.38-.11-.28,0-.6.19.07.22-.19.35-.1s-.18.26-.15.41a2.3,2.3,0,0,1,.62-.86c-.11,0-.25-.09-.18-.37.23-.7.31-.16.54-.54-.07-.21.22-.61-.05-.72.07-.2.21-.2.31-.25,0-.4.55-1.7.12-1.4l-.06.09v-.06h0c.13-1.29,1-2.42,1.3-3.63l.09,0a12.28,12.28,0,0,0,.45-2.16c.07-.21.34-.43.42-.3a3,3,0,0,1,.45-1.39c0,.6.21-.13-.07.6a2.78,2.78,0,0,0,.53-1.62c.15.34.48-.42.53-.77L329,48a5.65,5.65,0,0,1,.36-1l.25.28c.88-1.29.24-2.8,1.26-3.66-.09-.46-.43.72-.57.29.27-.64,1-1.17,1-1.38.49-.84-.17-1,.28-1.9-.16.09-.5.1-.36-.64s.75-.65.7-.2c0,.16-.11.22-.14.2,0,.23-.08.52.13.3l-.09-.12c.23-.29.53-1.2.64-.92.07-.53-.11-.28-.29.07.45-.79.46-1.31.86-2.15-.1.12-.28.2-.23.07.58-1.23,0-.64.23-1.52.34-.43.35.32.5-.6.3-.49.34,0,.36.23a4.53,4.53,0,0,1,.85-1.87l-.06.45a3.06,3.06,0,0,1,.18-.68l-.31.16c.13-.23.2-.44.29-.4-.06-.3-.44.07-.47-.5.23-.29.22-1,.56-1.05-.46,1,.34,0,.09.87a1.77,1.77,0,0,1,.21-.61c.05,0,.05.05.05.13.6-.89-.18-.57.17-1.59.13.19.4-.12.43-.3-.15.41-.35.1-.35-.32.36-.61.15-.74.28-1.08l-.2.37c-.12-.19,0-.51.12-1,.15,0,0,.44.06.3-.12-.61.7-1,.75-1.81.22-.29.32.07.5-.19.05-.86.52-.77.63-1.66-.31.16-.27.22-.29-.44l-.31,1.42,0-1c-.15.41-.16.92-.29,1.15,0-.48,0-.42-.25-.29.53-.44.19-1.18.64-1.75l.55.21c.59-.89.32-1.84.9-3.06l-.24.37c-.16-.24.24-.79.29-1.24.17.11.33-.13.51-.26-.15,0,.33-.93,0-1.17l.44-.49c.46-1-.13-1.35.28-2.32.1.37.38,0,.3.68.12-.33.25-.61.13-.66.18-.16.06-1,.34-1.25,0-.16-.21-.28-.07-.64.05,0,.09,0,.09,0s.08-.62-.24-.37a4.07,4.07,0,0,0,.92-1.82c.11-.35.21-.7.34-1s.29-.6.44-.62l.06-.34a1.53,1.53,0,0,1,.32-.13,4.47,4.47,0,0,1,.92-.17c0,.06,0,.1-.12.09A.73.73,0,0,0,344,9.3a.74.74,0,0,1,.85-.11c.46.4-.55.1-.25.27,0,.33.32.34.67.35s.79,0,1,.38l-.15,0c.15.22.45.23.75.37a4.44,4.44,0,0,1,.49.19,1.88,1.88,0,0,1,.43.37s-.07,0-.08.07c.65.11,1.33,1,1.71,1.8-.34-.15-.28-.29-.46-.05.18.32.36-.27.7.41-.07.29-.06.85-.31,1l-.18-.67c-.26.44.23.86.26,1.23l-.17,0c.16,1.05.62,1,.63,2.2l.12-.13c.39.65-.21.55.08,1.2l-.39.19a13.52,13.52,0,0,1,.36,2.33,9.53,9.53,0,0,1-.52-2,4.58,4.58,0,0,0,.14,1.71,1.12,1.12,0,0,1,0-.57,4.09,4.09,0,0,1,.35,2.12c-.76-.2-.33,2.24-1,2.84.2,1.54-.3,3-.37,4.81.63-.59,0,.52.6.45,0,.42,0,.58-.05.61l-.45,1.24c-.19.29-.11-.41-.25-.38-.1.91-.28.37-.48,1,.23-.11.29.34.17.85l.33-.71c.24,1.29-.58,1.06-.34,2.37l-.17-.42c.07.66-.17,2.42.28,3.1-.08.11-.26.25-.28,0-.18,1.57.28,3.54-.11,4.74l-.14-.13c0,.29.25.53.07.88-.06,0-.14-.12-.16,0a2.62,2.62,0,0,1,.1,1.18l-.15-.34c-.3,1.52.25,2.38.26,3.67-.44,0-.67,1.16-.78,1.76l-.06,0a31.9,31.9,0,0,0,.2,4.73c-.55,1-.45,3.46-.83,5.09.09-.25.34.06.36.36s.23,1.09-.17,1v-.14c-.41.27-.36,1.07-.42,1.69l.52.14c-.88,1.57,0,4.28-.78,5.11.1.4.07.89.17,1.29l-.28,0a20.63,20.63,0,0,0-.26,3l-.18-.28c-.08.75.74,1,.71,1.71l-.44.18c-.09,1.32-.56,2.63-.27,4a.25.25,0,0,1-.18-.28c-.06.62-.47,2.38.13,2.2-.38,0-.14,1.36,0,2.08L345,81a2.52,2.52,0,0,1,.44,1.5c-.05.2-.23.16-.14-.1-.2.65.22.54,0,1.33l-.16-.31a1.25,1.25,0,0,0,.21,1c.08.43-.17,1.29-.43,1.37a.92.92,0,0,1,.22.89c-.1,0-.15-.11-.17-.18a3.66,3.66,0,0,0,0,1.38l0,.28a.49.49,0,0,1,0,.17.52.52,0,0,1-.23.3.2.2,0,0,0-.2,0,1,1,0,0,0,.23-.67c0-.29.05-.46.06-.42-.26,0-.36.71-.67.1,0,.13.09.37.14.48a.35.35,0,0,1,.14.2,1.1,1.1,0,0,1-.44.78h-.12l0-.07a.77.77,0,0,0-.23.28,3.09,3.09,0,0,0-.44.24c-.09-.07-.25,0-.42.11l-.52.29c.15.24-.27.37.2.42,0,0,0-.06.23-.17a.53.53,0,0,0,.11-.09v0c.2-.1.41-.27.68-.44a.81.81,0,0,1-.7.55,3.17,3.17,0,0,1-.23.62c-.6-.14-1.51-.08-1.69-.28-.94.44-2.37.56-3,1.12-.3.1-.36-.12-.48-.2a1.53,1.53,0,0,0,.47-.15c-.6.18-1.81.11-2,.48-.8-.17.45-.34-.65-.28l.15-.11c-2.17-.6-3.53.93-5.93.17.17,0,.25.07.28.13-2.74-.34-5.64.3-8.35-.23-.77-.11-.85.13-1.32.31l-.16-.31a1.18,1.18,0,0,1-.2.07,1.11,1.11,0,0,0-.19.09l-.18.1-.28.22a1.26,1.26,0,0,1-1.3-.33,8,8,0,0,0-1.05-.94l-.07.25c-.29-.34-.76-1.29-.5-1.29-.05,0-.25-.09-.21-.3l.15,0c-.17-.36-.33-.75-.47-1.14.05-1,.62.08.58-1.26-.05-.5-.43-1.46-.54-1.28s-.11.53-.27.55l-.07-.49c-.47-.1-.94-.54-1.28.72a7,7,0,0,0,.29.88l-.21.3c0-.25-.05-.51-.05-.75-.22.42,0,.71.16,1a.59.59,0,0,0-.22.41,7.64,7.64,0,0,0,.57.83c-.16.15-.43-.34-.42.29.28.38.33-.48.58.17-.07.48-.27.42.06.88-.09.11-.2,0-.31-.17.12.22.26.52.43.79s.33.49.52.53a1.37,1.37,0,0,0,.21.47,4.47,4.47,0,0,0,.43.44c.29.27.58.45.44.63.21.05,1.09.13,1.57.16-.5.18,0,.3.56.31s1.22-.13,1.17.17l0,0a.38.38,0,0,1,0-.1s0,0,0-.06,0,0,0,0l.13,0,.28,0,.64,0a5.86,5.86,0,0,0,1.29-.14c-.05,0-.15.11-.23.09a3.62,3.62,0,0,1,1,.27c.07-.39.87-.48,1.3-.72.64.38-.38.46-.18.82,0-.31,1.1-.31.88-.58.49.24.42.12.67.44.09-.49.45-.08.85-.38.71.24.18.46.95.31C327.86,93.69,327.18,93.86,327.18,93.86Zm18.24-3.7h0l-.3.31A4,4,0,0,0,345.42,90.16Zm.94-1.71a2.14,2.14,0,0,1-.34.88c-.11,0-.16-.1-.06-.27C346,89.19,346.28,88.79,346.36,88.45Zm-3.44,1.25c.14-.15.23-.14.28-.11l-.28.23v0A.29.29,0,0,1,342.92,89.7Z"/><path class="cls-2" d="M342.76,90.2a.22.22,0,0,1-.07.06h.15l0-.11Z"/><path class="cls-2" d="M325.64,56.8v0a.17.17,0,0,1-.06.06Z"/><polygon class="cls-2" points="348.48 67.23 348.41 67.22 348.46 67.36 348.48 67.23"/><path class="cls-2" d="M322,64.51s-.07,0-.11.08S321.91,64.55,322,64.51Z"/><path class="cls-2" d="M320.7,68l-.26.46A4.22,4.22,0,0,0,320.7,68Z"/><path class="cls-2" d="M319.65,70.57a.38.38,0,0,0,.1.09h0Z"/><path class="cls-2" d="M334,28.12a.43.43,0,0,0,0-.11C334,27.75,334,27.92,334,28.12Z"/><path class="cls-2" d="M330.22,40.93a3.39,3.39,0,0,1,0-.45C330.14,40.7,330.07,40.87,330.22,40.93Z"/><polygon class="cls-2" points="338.48 13.94 338.49 13.94 338.52 13.85 338.48 13.94"/><path class="cls-2" d="M330.44,39.9a1.34,1.34,0,0,0-.2.58A1.9,1.9,0,0,0,330.44,39.9Z"/><path class="cls-2" d="M315.55,82.07l-.06.12,0,0Z"/><path class="cls-2" d="M315.53,82.22l0,.16C315.54,82.31,315.55,82.25,315.53,82.22Z"/><path class="cls-2" d="M315.48,82.7l0-.32C315.48,82.48,315.42,82.6,315.48,82.7Z"/><path class="cls-2" d="M316.89,78.59l-.08-.08A.13.13,0,0,0,316.89,78.59Z"/><path class="cls-2" d="M317.23,77.5a3.67,3.67,0,0,0-.49,1l.07.06C316.72,78.29,317.31,77.8,317.23,77.5Z"/><path class="cls-2" d="M320,73.44l-.38.87c.15-.12.36-.28.25.14C320.52,73.43,319.52,74.61,320,73.44Z"/><path class="cls-2" d="M321.07,70.71c-.12.5.15.05.2.09C321.29,70.46,321.29,70.38,321.07,70.71Z"/><path class="cls-2" d="M328,50.6l.23.13C328.33,50.34,328.15,50.69,328,50.6Z"/><polygon class="cls-2" points="328.09 46.32 327.82 46.63 327.98 46.88 328.09 46.32"/><polygon class="cls-2" points="330.6 44.64 330.58 44.82 330.7 44.17 330.6 44.64"/><path class="cls-2" d="M342.17,10.83h-.34C341.8,11.11,342.12,11.28,342.17,10.83Z"/><path class="cls-2" d="M349.71,16.91a.81.81,0,0,0-.1.85A6,6,0,0,0,349.71,16.91Z"/><polygon class="cls-2" points="346.26 62.96 346.17 62.65 346.22 63.24 346.26 62.96"/><path class="cls-1" d="M334.69,102.69s13.88-1.72,16.23,13.41c1,10-6.06,17-14.54,18.86s-22.06.35-24.42-12.51S334.69,102.69,334.69,102.69Z"/><path class="cls-2" d="M334.86,103.33c0-.1-.05-.28-.19-.2l0,.35Z"/><path class="cls-2" d="M333.65,103.05a.67.67,0,0,0,0,.8c.08-.36.16-.25.25-.67a.21.21,0,0,1,.31.14c0-.09.26,0,.29-.22a.5.5,0,0,0-.75.17C333.62,103.22,333.65,103.11,333.65,103.05Z"/><path class="cls-2" d="M318.9,109.4l.11,0A.14.14,0,0,0,318.9,109.4Z"/><path class="cls-2" d="M312,116.81c0-.08,0-.13,0-.14S312,116.81,312,116.81Z"/><path class="cls-2" d="M311.08,118.44l.05-.1S311.06,118.41,311.08,118.44Z"/><path class="cls-2" d="M318.9,109.4l-.28.08C318.67,109.57,318.78,109.46,318.9,109.4Z"/><path class="cls-2" d="M331.82,104.51a.41.41,0,0,0,.1-.13l-.11.07Z"/><path class="cls-2" d="M322.55,106.86l.07,0v-.15Z"/><path class="cls-2" d="M325.57,105.28c-.07,0,0,.29,0,.41,0-.12,0-.2.08-.24A.77.77,0,0,0,325.57,105.28Z"/><path class="cls-2" d="M330.73,103.69l.07-.07Z"/><path class="cls-2" d="M320.4,108l-.08-.07A.27.27,0,0,0,320.4,108Z"/><path class="cls-2" d="M338.37,104.14v0S338.35,104.14,338.37,104.14Z"/><path class="cls-2" d="M334.68,102.61l.05,0v-.15Z"/><path class="cls-2" d="M310.51,121.9v0C310.47,121.79,310.49,121.84,310.51,121.9Z"/><path class="cls-2" d="M333.46,136.6c-.35-.21.5-.39,0-.6C333.5,136.1,333,136.49,333.46,136.6Z"/><path class="cls-2" d="M331.72,104.5l-.12,0A.23.23,0,0,0,331.72,104.5Z"/><path class="cls-2" d="M333.44,136h0l-.06,0Z"/><path class="cls-2" d="M313.29,129.08a.35.35,0,0,0,.06-.14A.31.31,0,0,0,313.29,129.08Z"/><path class="cls-2" d="M311.45,123.73v.14A.33.33,0,0,0,311.45,123.73Z"/><path class="cls-2" d="M315.48,131.11c0,.07,0,.12.13.16v-.05C315.56,131.23,315.51,131.2,315.48,131.11Z"/><path class="cls-2" d="M317.81,133.05a.24.24,0,0,0,0-.08l-.08,0Z"/><path class="cls-2" d="M345.53,107.38a1.07,1.07,0,0,1,.09-.27C345.51,107.29,345.2,107.06,345.53,107.38Z"/><path class="cls-2" d="M331.76,104.36c0,.07,0,.11,0,.14l.09,0S331.79,104.37,331.76,104.36Z"/><path class="cls-2" d="M317.13,129.62l.26.32A2.29,2.29,0,0,0,317.13,129.62Z"/><path class="cls-2" d="M348.14,125.12V125A.09.09,0,0,0,348.14,125.12Z"/><path class="cls-2" d="M318.36,130.7a.48.48,0,0,0,.07.3l.08,0Z"/><path class="cls-2" d="M345.62,107.11Z"/><path class="cls-2" d="M343,106c.32.2.34-.22.52-.36.47.16.05.34.08.59.31,0,.68-.08.84.07,0,.06,0,.11-.08.14.41,0,.74.54,1.25.53a.17.17,0,0,1,0,.1,1.48,1.48,0,0,1,.31-.42c.13.14.4.09.28.32-.07-.09-.15,0-.23,0l.2.07c-.12.37-.26-.11-.44.08.33.19.85.31,1,.59-.21.27-.55-.41-.51.07l-.21-.41c-.15.62-.15-.21-.35.41.3.48.58.31.85.82.22,0,.19-.21.42-.22.75.48-.32,1,.39,1.25.27,0,.7-.19.7.32l-.4.07c.22.51.63,0,.67.66-.18,0-.31-.33-.31-.23-.1.48.31.13.45.4l-.28.2a9.08,9.08,0,0,1,1.06,1.66c-.1,0-.24-.08-.29.1a4.37,4.37,0,0,1,.43,2.56l.36.25a.11.11,0,0,1-.18.08c0,.33.19,0,.34.12s-.12.26-.23.16a2.48,2.48,0,0,1,.41,1,1.58,1.58,0,0,1-.06,1.1l-.08-.12c-.14.45.58.54.28,1l-.05-.09a6.48,6.48,0,0,0-.07.77l-.11.75a2.06,2.06,0,0,1-.52,1.27c.37.24-.42.89.13,1.12-.48.45-.53.26-1,.93-.1.18.24.43.17.7l-.28-.13.13.46h-.41l0,.26a.26.26,0,0,1,.29-.08.89.89,0,0,1-.34.53c-.18.11-.36.17-.43.13l-.26.91c-.09-.09-.05-.24-.05-.39,0,.59-.32-.1-.31.43.09,0,.14.13.18.17a1.54,1.54,0,0,0-.75.81l-.12-.19-.66.82a5.17,5.17,0,0,1-.72.84c.27-.11.49.19.34.37l-.29-.17c0,.24.26-.07.21.31-.24.17-.4-.14-.35-.33l-.18.32c-.08-.06,0-.16-.12-.26,0,.24-.64.15-.57.54l-.08-.06c-.6.44-.78.77-1.29,1.11.15.24-.09.32-.13.61-.22.09-.46.16-.71.24a2.74,2.74,0,0,0-.75.28c-.28.31,0,.27-.07.5-.14-.22-.62.07-.45-.24a8.61,8.61,0,0,0-1.44.92c.12.07.24.07.22.17a.26.26,0,0,1-.39-.1l0,0a2.22,2.22,0,0,1-1.52.34c-.55,0-1.05,0-1.36.3l0,0-.72.42c-.37,0,.17-.23-.12-.34-.76.6-1.33.15-2,.52-.31-.33-.78-.29-1.28-.21a1.92,1.92,0,0,1-1.39-.06l0,.18c-.18.18-.23-.1-.36-.14,0,.14.2.16.08.26-1.61.25-3.3-.41-4.82-.85-.56-.17-.52.83-1.16.25l.28-.27a4,4,0,0,1-1.78-.31,10.82,10.82,0,0,0-1.71-.52c.09,0,.13-.13.24-.09-.12-.32-.83-.35-.91-.2-.14-.11.05-.18,0-.32s-.68,0-.67-.3c0-.05.09,0,.14,0-.19,0-.62-.38-.63-.08-.31-.31-.74-.37-.93-.69-.37.11-.5-.55-.83-.26.3-.32-.3-.79-.65-.82.16,0-.07-.27.14-.33-.22-.2-.48-.34-.61-.14,0-.78-1.06-.63-.71-1.3a4.82,4.82,0,0,1-1-.94,7,7,0,0,1-.8-1c.39-.15.48.8.88.54a3.5,3.5,0,0,1-1.26-1.65c0-.21.23,0,.33.08-.52-.66-.44-1.46-.85-2.09,0,0,.1,0,.15.12,0-.14,0-.33-.21-.27l.09.12c-.23.29-.74-.42-.91-.42.32.06.31-.12.33-.29s.1-.31.49-.19a.27.27,0,0,0-.29-.14c0-.13.09-.18.26-.08-.16-.45-.36-.26-.41-.7.1,0,.15.08.27.11a.77.77,0,0,1-.31-.8c.06,0,.14,0,.14.09,0-.31-.14-.59-.19-.89a1.21,1.21,0,0,1,.09-.94c.36.3.2-.21.56-.14v-.4l-.21.1c.08-.32,0-.69.18-.92l.05.29c.06-.2.1-.41.17-.61a3.44,3.44,0,0,0-.27.27c0-.4-.46-.15-.17-.54,0,.1.17-.32.45-.38h0c0-.2-.07-.44.16-.61.14,0,.32.26.42.26-.18-.3.35-.72.2-1.09a.38.38,0,0,0,.23.22l-.12-.26c.16-.08.21-.08.32,0,.33-.36-.48-.16,0-.5,0,0,0,0,0,.15.42-.4.61-1,1-1.3.38.14-.24.42.11.5A7.51,7.51,0,0,1,317.2,112l-.14.06c-.27-.47.59-.18.73-.6,0,.09.09.3.08.24a7.38,7.38,0,0,0,1.28-1.35v.17a11.1,11.1,0,0,0,1-.54c0-.17.17-.26,0-.36,1.26.1,1.44-1.39,2.57-1.29-.1.06-.17.24-.09.19l.61-.48c-.16-.17-.15-.07-.38-.15a.67.67,0,0,1,.33-.46c-.24.3.18.32.37.37-.05,0,0-.15-.09-.21.55.18-.16-.44.47-.45l0,.12c.16-.15.26-.38.47-.45.21.19-.14.21-.05.41.27-.15.33-.73.7-.62-.08.13-.26.21-.35.34a.71.71,0,0,0,.65,0h0l.54-.1-.15,0c.05-.81.67-.45,1-1.09-.3.61,0,.26.11.56.15,0,.38,0,.36.12.13-.32.46,0,.64-.46.05.09.25-.09.29.15.27-.19-.13-.12-.16-.25.34-.5,1.24-.08,1.75-.76.51-.41.5-.75,1-1.11.24.08,0,.39,0,.39a1,1,0,0,0,.8-.28c0,.1.06.14.18.22.22-.11,0-.39.38-.36a1.6,1.6,0,0,1-.1.45c.24-.18.44-.44.69-.62.12.14-.09.3-.15.44.29-.18.75-.41.77-.7l-.23,0c.11,0,.13.2.06.28-.2.29-.41,0-.46,0l.18-.13c-.39-.47-.76.36-1.17.47l0-.46-.29.47c-.12-.07-.26-.26-.09-.39-.35-.09-.2.23-.52.1,0,0,0-.05,0-.07l-.24.22c0-.11-.15-.26,0-.27-.58,0-.69.59-1,.37l0,0c-.64.4,0,.31-.34.85l-.62-.56,0,.31c-.07,0-.22.05-.24-.07-.18.3.1.1,0,.35-.45-.13-.88.5-1.14.09,0,.26.39,0,.09.33-.3-.44-.37.25-.77.17,0-.29.33-.29-.08-.37,0,.5-.63.18-.85.38.13.33-.5.4-.87.71,0-.13-.89.22-1.34.3l0-.06c.09.36-.34.52-.6.74a.4.4,0,0,1,0-.47l-.27.15a.53.53,0,0,1-.22.37l-.07-.28c-.36.21-.57.7-1.13.8.11.24.73.41.33.83-.09-.1-.23-.3-.13-.42,0,0-.09.18-.2.18l.07-.31c-.26,0,0,.23-.18.31-.1-.17-.2,0-.26-.19s.19,0,.22-.13a.88.88,0,0,1-.65,0c.07.09.14.23,0,.33-.34.24-.24-.12-.51-.08,0,.17-.31.2-.15.45-.11.07-.2,0-.28-.08-.11.23-.83.6-.44.72h.05l0,0h0c-.4.64-1.29.71-1.76,1.26l-.06-.07c-.27.34-.69.65-.77,1-.09.08-.34.06-.37-.07-.2.27-.15.37-.59.59.11-.36-.19,0,.15-.33-.36.24-.54.2-.67.71-.08-.29-.46,0-.54.21l.34-.1a2.46,2.46,0,0,1-.43.47l-.17-.3a1.35,1.35,0,0,0-.7,1c-.12.39-.24.71-.7.82.07.32.4-.32.51,0-.25.31-.89.42-1,.53-.46.41.17.71-.22,1.17.14,0,.46.07.37.49s-.64.27-.63,0c0-.1.08-.13.11-.11,0-.15,0-.32-.15-.23l.09.1c-.19.14-.39.69-.52.5,0,.34.14.19.28,0-.37.44-.3.79-.54,1.31.08-.08.24-.12.21,0-.34.75.12.39.09.93-.22.27-.41-.18-.33.39-.17.33-.33,0-.4-.11.13.54-.22,1-.27,1.28l-.09-.28a1.48,1.48,0,0,1,.05.45l.24-.17c-.05.17-.05.31-.15.31.16.16.4-.14.61.17-.1.22.2.61-.1.72,0-.67-.31.11-.43-.46a.68.68,0,0,1,0,.41s-.06,0-.09,0c-.19.68.37.26.48.9-.19,0-.29.2-.23.3-.06-.25.26-.18.45,0,0,.42.21.4.24.61v-.25c.19,0,.22.24.34.49-.13.06-.16-.22-.19-.11.37.21-.14.77.17,1.13,0,.22-.31.12-.32.31.4.39,0,.59.34,1,.17-.23.1-.23.45,0l-.47-.73.53.38c-.09-.23-.34-.44-.36-.59.28.17.21.16.36,0-.21.45.44.56.36,1l-.54.22c0,.7.73.86,1,1.61l0-.27c.26,0,.27.41.48.58-.18.08-.16.26-.21.42.1-.08.32.5.69.32v.43c.32.58.89.23,1.21.73-.28,0-.21.32-.58.1.12.17.22.33.33.23,0,.17.6.21.6.47.12,0,.29-.13.44,0,0,.05-.07.07-.07.07s.34.15.35-.15c0,.94,1.35,1,1.46,1.79.38.23.91.39,1.25.59-.05,0-.05.08-.1,0,.39.43.56-.33,1,.15.13.44-.37,0-.25.2-.22.64.72.23.95.75h-.11c.22.32.82.11,1.3.31,0,0-.05,0,0,.09a3.41,3.41,0,0,1,1.62,0c-.21.2-.25.06-.23.34.22,0,.05-.42.49-.36.11.16.39.35.37.63l-.42-.08c.12.39.54.11.74.22l-.06.14c.66.09.73-.27,1.41-.13l0-.13c.43-.33.28.26.69,0l.06.4c.27-.07.92-.23,1.36-.29a3,3,0,0,1-1.16.48c.25,0,.85.1,1-.1-.11,0-.24.12-.33.05a1.57,1.57,0,0,1,1.22-.37c-.13.77,1.27.27,1.62.84.88-.27,1.76.08,2.79,0-.41-.57.3,0,.18-.64.23-.07.32-.07.35,0l.75.28c.2.15-.2.16-.16.29.53,0,.25.23.62.35-.1-.21.14-.33.45-.3a4.81,4.81,0,0,1-.46-.22c.67-.42.71.4,1.39,0l-.19.24a7.55,7.55,0,0,1,.86-.27,1.3,1.3,0,0,0,.78-.61c.09.06.22.19.07.28.93-.14,1.79-1.11,2.56-1.08v.17c.15-.11.17-.38.43-.33,0,.07,0,.17.07.15s.31-.43.56-.44l-.11.23c.92-.18,1.05-1,1.65-1.42.22.39.9.13,1.24,0l0,.06a3.21,3.21,0,0,0,1.06-1l.82-1.12a2.34,2.34,0,0,0,1.22-.71,9.91,9.91,0,0,1,1.24-1.13c-.15.07-.24-.24-.17-.41s.13-.68.43-.41l-.05.06c.41.1.64-.34.85-.65l-.41-.34a2,2,0,0,0,1.07-1.32c.18-.56.33-1.06.76-1.16,0-.26.07-.54,0-.8l.26.11a4.74,4.74,0,0,0,.6-1.68l.15.22c.13-.45-.65-.77-.56-1.16l.44,0c.14-.76.64-1.52.32-2.33.06,0,.18,0,.19.18,0-.36.36-1.43-.23-1.31.19,0,.21-.2.16-.45a4.94,4.94,0,0,0-.31-.77l.28.05c-.37-.34-.47-.34-.59-.82,0-.12.21-.12.15,0,.12-.4-.26-.27-.21-.74l.21.14c-.06-.39-.15-.35-.4-.52a.69.69,0,0,1,.15-.85c-.16,0-.41-.19-.39-.43a.16.16,0,0,1,.2,0,1.25,1.25,0,0,0-.22-.76.73.73,0,0,1-.21-.61.23.23,0,0,0,.14-.13,2.77,2.77,0,0,1,.23.89c.25-.07.2-.51.62-.26-.28-.3-.89-.72-.91-1.15a.47.47,0,0,1,.06-.09l.05,0a.34.34,0,0,0-.13-.23,1.36,1.36,0,0,0-.05-.36c.18-.12-.06-.51-.12-.72-.25.13-.34-.14-.43.19,0,0,.05,0,.1.15s0,.06.06.07h0l.2.49c-.19-.11-.36-.22-.3-.51l-.52-.09c.23-.41.16-1,.33-1.19-.22-.26-.42-.59-.65-.87a1.24,1.24,0,0,0-.88-.49c-.16-.12,0-.26,0-.37.11.06.18.17.27.17-.32-.22-.69-.87-1-.71-.15-.48.43,0,0-.47H348a1.93,1.93,0,0,0-1.28-1.11,2,2,0,0,1-1.4-1.11c.05.1.07.15.05.21-1.13-1.21-2.9-1.42-4.22-2.34-.39-.24-.51,0-.81.09l0-.31-.53.23c-.66.09-1-.94-1.88-.58l.08.21c-.29-.07-.94,0-.87-.19,0,0-.11.2-.22.09v-.16l-.73.25c-.57-.12.09-.64-.76-.65-.31.06-.88.52-.74.61s.33.07.35.23l-.27.1c0,.48-.12,1,.49,1.24.13-.11.27-.2.41-.3l.15.22-.36,0c.21.21.33,0,.48-.11a.37.37,0,0,0,.18.25l.43-.43c.05.18-.2.35.08.46.21-.2-.18-.41.16-.54.2.22.13.4.39.23a.2.2,0,0,1-.13.24c.22-.12.57,0,.71-.24.19.27.74,0,.66.47a1,1,0,0,1,.63-.27c-.45.44.73.19.51.73a.71.71,0,0,1,.69-.16,2,2,0,0,0,.81.1s-.12.08-.15,0c.24.13.27.29.4.42.17-.37.58-.28.89-.41.15.49-.37.34-.41.72.1-.3.63-.06.64-.35.13.32.15.2.12.54.26-.42.25,0,.57-.14.19.4-.15.45.26.52C343.42,106.06,343,106,343,106Zm6.25,6.66h0l-.08-.19Zm.28.77a1.9,1.9,0,0,0-.11-.34c.09-.06.19-.06.21,0S349.61,113.33,349.57,113.47Zm1.23-2.37c.08.12.05.19,0,.23a2.29,2.29,0,0,0-.11-.23h.11Z"/><path class="cls-2" d="M350.37,111l0,0,0,.1.1,0Z"/><path class="cls-2" d="M319,109.37h0Z"/><polygon class="cls-2" points="348.4 124.27 348.46 124.3 348.44 124.21 348.4 124.27"/><path class="cls-2" d="M323.55,107.77a.19.19,0,0,0,.09,0Z"/><path class="cls-2" d="M325.38,106.91l.3,0A1.74,1.74,0,0,0,325.38,106.91Z"/><path class="cls-2" d="M326.84,106.39a.33.33,0,0,0,0-.12h0Z"/><path class="cls-2" d="M313.25,123.18l0,0C313.37,123.34,313.32,123.26,313.25,123.18Z"/><path class="cls-2" d="M313.35,116.45a1.24,1.24,0,0,1,0,.27C313.44,116.62,313.49,116.53,313.35,116.45Z"/><polygon class="cls-2" points="317.1 129.59 317.09 129.59 317.13 129.63 317.1 129.59"/><path class="cls-2" d="M313.21,117a.4.4,0,0,0,.15-.29A.62.62,0,0,0,313.21,117Z"/><path class="cls-2" d="M333.13,104.09l.07,0v0Z"/><path class="cls-2" d="M333.2,104l.07-.06S333.2,104,333.2,104Z"/><path class="cls-2" d="M333.41,103.85l-.14.12C333.32,104,333.4,103.94,333.41,103.85Z"/><path class="cls-2" d="M331.15,104.63l0,.11A.26.26,0,0,0,331.15,104.63Z"/><path class="cls-2" d="M330.58,104.88c.15,0,.42.07.6-.06v-.08C331.13,104.91,330.65,104.67,330.58,104.88Z"/><path class="cls-2" d="M327.68,104.68l.52-.13c-.13-.07-.3-.15-.08-.27C327.37,104.24,328.34,104.45,327.68,104.68Z"/><path class="cls-2" d="M326.1,105.2c.24-.17-.07-.15-.08-.21C325.9,105.16,325.87,105.2,326.1,105.2Z"/><path class="cls-2" d="M315.94,111.53l-.15-.21C315.64,111.5,315.85,111.4,315.94,111.53Z"/><polygon class="cls-2" points="315.31 114.07 315.56 114.02 315.45 113.79 315.31 114.07"/><polygon class="cls-2" points="313.04 113.99 313.07 113.89 312.91 114.26 313.04 113.99"/><path class="cls-2" d="M317.23,132.93l.13-.3C317.2,132.59,317,132.85,317.23,132.93Z"/><path class="cls-2" d="M325.6,136a.32.32,0,0,0,.48.17C325.89,136.08,325.71,135.94,325.6,136Z"/><polygon class="cls-2" points="349.54 127.45 349.53 127.67 349.64 127.33 349.54 127.45"/><path class="cls-1" d="M168.16,105.5c14.74,32.24,48.44,38.77,70.2,35.09s27.94-8.62,42.9-24.48c13.5-14.31,20-54.16.53-74.92-26.27-28-55.7-27.69-55.7-27.69L264,61.75l-12.78,50.1Z"/><path class="cls-2" d="M168.22,104.84c-.26.06-.13.27.56.28l.51-.29Z"/><path class="cls-2" d="M172.8,105.8c.82-.09,1.78-.3,1.28-.65-.83.26-1,.11-1.91.42-.69,0-1.19-.2-1.06-.31-.25.07-1.07-.15-1.46,0a7.51,7.51,0,0,0,3.22.3C173.12,105.68,172.86,105.75,172.8,105.8Z"/><path class="cls-2" d="M240.06,111.46l-.43-.07A3.87,3.87,0,0,0,240.06,111.46Z"/><path class="cls-2" d="M259.42,82.28c-.07.31-.07.45-.05.47C259.42,82.46,259.46,82.22,259.42,82.28Z"/><path class="cls-2" d="M261.54,75.45l-.13.41A1.13,1.13,0,0,0,261.54,75.45Z"/><path class="cls-2" d="M240.06,111.46l1.11.19C241.26,111.55,240.6,111.53,240.06,111.46Z"/><path class="cls-2" d="M182.14,105.72a2.88,2.88,0,0,0-.61,0h.57A.1.1,0,0,1,182.14,105.72Z"/><path class="cls-2" d="M221.66,110.32l-.34,0-.29.11Z"/><path class="cls-2" d="M207.55,109.3c.32,0,.45-.24.58-.35a1.53,1.53,0,0,1-.71.14S207.45,109.21,207.55,109.3Z"/><path class="cls-2" d="M185.22,107.09h0Z"/><path class="cls-2" d="M231.75,111.16a.32.32,0,0,0,.12.11S231.83,111.19,231.75,111.16Z"/><path class="cls-2" d="M175.82,120.21s0,0,0,0S175.75,120.12,175.82,120.21Z"/><path class="cls-2" d="M168.23,105.47l.11.2a.47.47,0,0,0,.17,0Z"/><path class="cls-2" d="M265.11,62.88l0,.06C265,63.28,265.08,63.09,265.11,62.88Z"/><path class="cls-2" d="M276.78,37.85c-.78-1.14,1.78,1.31.53-.32C277.37,37.74,275.71,36.55,276.78,37.85Z"/><path class="cls-2" d="M182.5,105.78l.58,0A5.07,5.07,0,0,0,182.5,105.78Z"/><path class="cls-2" d="M277.31,37.53h0l-.13-.17Z"/><path class="cls-2" d="M246.84,38a1,1,0,0,0,.09.32S246.93,38.19,246.84,38Z"/><path class="cls-2" d="M260.38,55.86l-.32-.46A4.41,4.41,0,0,0,260.38,55.86Z"/><path class="cls-2" d="M239.33,29.06a3.7,3.7,0,0,0-.48-.66.31.31,0,0,0,.05.12A1.67,1.67,0,0,1,239.33,29.06Z"/><path class="cls-2" d="M231.84,19.53l.1.21.25.29Z"/><path class="cls-2" d="M207.13,140a2.13,2.13,0,0,1-.48-.4C206.78,139.8,205,139.36,207.13,140Z"/><path class="cls-2" d="M182.14,105.87a.54.54,0,0,1,.36-.09h-.4S182.05,105.84,182.14,105.87Z"/><path class="cls-2" d="M237.28,30l-1.15-1.54C236.44,28.94,236.86,29.5,237.28,30Z"/><path class="cls-2" d="M285.32,112.8l-.22.39A1.77,1.77,0,0,0,285.32,112.8Z"/><path class="cls-2" d="M232.56,24a6,6,0,0,0-.51-1,1,1,0,0,0-.2-.13Z"/><path class="cls-2" d="M206.65,139.55h0Z"/><path class="cls-2" d="M194.4,135.41c1.67.88.95.07,1.4.07,2.06.86.82.68,1.43,1.18,1.31.49,2.43.59,3.39,1,0,.09.23.18,0,.17,1.47.26,4.1,1.5,5.86,1.59a.74.74,0,0,1,.19.15c-.21-.25-.2-.45-.11-.56.8.23,1.54.21,1.78.51a1.65,1.65,0,0,0-.81,0l.87.12c.67.53-1.18-.18-1.25,0,1.68.36,3.66.54,4.91.89.2.39-3-.53-1.37.13-.65-.18-1.28-.41-1.93-.61,1.37.9-1.18-.33.06.57a16.6,16.6,0,0,0,2.76.61c.74.12,1.48.22,2.78.5.62-.08-.15-.31.47-.39,3.76.23,2.83,1.28,5.65,1.13a4.62,4.62,0,0,1,3-.23l-.69.35c2.57.15,1.48-.46,4.17-.17-.48.15-2,.1-1.64.15,1.75.32,1.24-.18,2.58-.2l.28.34a68.14,68.14,0,0,0,8.75-1c-.15.13-.65.31.07.31,3.76-.76,8-1.33,11.65-2.08.44-.21.87-.41,1.29-.64s.63-.05.3.11c1.42-.3,0-.2.65-.51s1.09-.14.62.09c.6-.23,1.31-.52,2.09-.86s1.63-.64,2.46-1c1.69-.72,3.36-1.53,4.63-2-.13.11-.28.21-.42.31a6.27,6.27,0,0,0,1.84-1.25,6.47,6.47,0,0,1,1.73-1.18l-.28.24c4-2.3,7.54-5.81,10.3-7.87.2-.73,3.32-3,3.09-3.6a38.26,38.26,0,0,0,4.19-3.5A24.09,24.09,0,0,0,282.6,116l.25.18a16.47,16.47,0,0,0,.81-1.49l.83-.47c.23-.32.41-.66.61-1-.28.37-.67.72-.7.61a17.94,17.94,0,0,1,2.7-3.49l.89-1.91.8-2a4.84,4.84,0,0,1-.37,1.33c.68-2.17.5-.22,1.08-2.22-.17.22-.11-.21-.15-.28a19.54,19.54,0,0,0,1.93-4.68l.1.39a64.89,64.89,0,0,0,2.51-9.71c-.33,1.21-.63.85-.48-.15l.39-.34c-.07-.68-.31,1-.31-.35.28-1.26.53-.79.5,0,.05-.53.13-1,.16-1.58.11-.07.11.3.21.42-.11-.67.76-2.65.49-3.63l.11-.08a65.15,65.15,0,0,0,.4-7.88c-.28-.06-.21-1.17-.43-2a45.05,45.05,0,0,0-.16-6.88c-.34-1.74-.3-.49-.55-1.25.24-.16-.18-2.63.21-1.38-.24-1.49-.46-2.42-.71-3.46-.11-.52-.26-1-.46-1.69s-.39-1.37-.73-2.26c0,.42.11.88,0,.67-.24-.65-.35-1.53-.21-1.47l.08.17c-.77-2-1.5-4.35-2.32-6.59a18.51,18.51,0,0,0-3-5.57l.13.14-1.1-1.4-1.19-1.34c-.95-1.33.75.67.14-.4-1.37-1.37-2.37-2.52-3.36-3.51a33.81,33.81,0,0,0-3.08-3c-.55-1.17-2.23-2.52-4-4s-3.66-2.79-4.82-4l.05.26c-.78-.37-.76-.7-1.23-1.1,0,.16.64.67.16.44-5.89-4-12.31-8.14-19.12-11-2.5-1-1.75.33-4.79-1.2h1c-5.27-1.36-10.6-3.09-16.11-3.3a.94.94,0,0,0,.27,0l.16,0a1.27,1.27,0,0,1,.5,0l-.49-.12-.35-.06-.58-.07c-.81-.09-1.64-.09-2.4-.1-1.54,0-2.52.11-2.37.2-.83-.1-.41.15-.6.06s-.25-.14-.1.16.52.78.86,1.23l.52.68.61.7c.39.45.75.86,1,1.22.15.17.27.34.38.49l.14.22a.35.35,0,0,1,0,.13s0,0-.15-.1l-.46-.53c.12.13.27.3.43.5l.33.39.66.82c.42.51.74.87.64.52,1.11,1.62,2.41,2.87,3.25,4.2.87.61,1.95,2.73,2.5,2.71-.45.17,1.83,2.93,2.76,3.77-.36-.24.56.93.11.67.87,1.11,1.74,2.07,1.77,1.74,1.18,2.38,3.58,3.84,3.94,5.42,2.78,3.16,5.31,6.11,7.73,9-.44.17-2.62-3.26-2.89-2.84,2.36,2.7,3.94,4.09,6.05,7,.52.76-.48-.29-.73-.49,2.36,2.7,4.24,5.47,6.4,7.83a2.76,2.76,0,0,1-.51-.46c.4.48.85,1.19,1,1l-.43-.45c-.38-1,2,1.58,2.23,1.57-1.12-.48,1.82,2.56.19,1.69.29.31.68.65.72.47.16.26.08.3-.19.2l.15.13c0,.14,0,.18,0,.35s0,.36,0,.52a7.31,7.31,0,0,1-.29,1.53c-.09,0,0-.44-.09-.67a14.75,14.75,0,0,1-.64,3.75c0-.12-.16.06,0-.44-.7,2.87-.75,5-1.73,8.11-.18-1-.41,1-.81,1.1L258.87,78l.35-.63c-.38,1.48-.45,2.85-.9,4.1l.14-1.14-.64,2.79.53-1.54c-.19,1.55.5,0-.1,1.9.06-.4-.38,1.48-.79,2.2h0a10,10,0,0,1-.51,2.61c-.19.26-.35-.33-.47-.16.12.8-.8,3.49-.71,4.48,0-.32-.18-.38-.25-.29l.09.67c-.25.66-.32.75-.44.6-.57,2,.63-.54-.19,1.86a2.18,2.18,0,0,1,0-.52c-.73,2.43-1.06,4.79-1.75,7-.54.57.41-2-.09-1.32-.38,1.64-.7,3.36-1,5.05-.18.85-.35,1.69-.53,2.52-.09.41-.19.82-.29,1.23l-.3,1.13.18-.52c.21.34,0,.92-.29,1.41l-.85-.19-.51,0a5.61,5.61,0,0,0-.58,0c.4,0,.55-.25.43-.2-2.21-.25-4.55-.22-7.93-.31l.43-.1c-1.3-.22-3.44-.33-4.85-.5-.43.1-1.24,0-.76.25-4.3-1.11-8.35-.22-12.17-1.16.46,0,1.11,0,.74-.06l-3.3-.13c.24.25.42.17,1.1.4a8.58,8.58,0,0,1-2.19.08c1.5,0,0-.37-.61-.55.1.08-.12.14-.07.22-1.69-.54-.33.44-2.66,0l.14-.11a21.5,21.5,0,0,1-2.66,0c-.37-.3,1,0,1-.27-1.34-.09-2.67.31-3.86,0,.57,0,1.39,0,2,0a8.61,8.61,0,0,0-2.42-.47h.1l-2.25-.31.57.13c-1.72.56-3.41-.14-5.69.15,2.22-.27.38-.22.57-.51-.56-.13-1.43-.29-1.17-.36-1.08.16-1.76-.33-3.29-.08-.06-.11-1.13-.1-.87-.33-1.39,0,.31.2.18.31-2.15.17-5-.78-8.06-.56-2.65,0-3.17.28-5.63.25-.81-.22.71-.3.71-.3a16.47,16.47,0,0,0-3.6-.28c.26-.07,0-.16-.37-.3-1-.05-.7.31-2,.06a4.24,4.24,0,0,1,1-.31c-1.19,0-2.38.09-3.62.08-.31-.19.76-.2,1.21-.28a17.89,17.89,0,0,0-4.05.12l.88.16c-.5,0-.24-.25.14-.27,1.2-.12,1.7.22,1.76.33H177c.85.64,3.52.18,5.28.35l-.76.36,1.83-.21c.38.14.62.39-.25.39,1.25.3,1.13-.07,2.2.25.12,0,.06.06-.05.06l1.24,0c-.25.07.18.31-.57.2,2.2.4,3.6,0,4.41.34h-.19c3.09.09.32-.29,2.66-.47l1.49.87.33-.28c.32,0,.94.11.82.22,1.19-.12-.19-.15.51-.29,1.5.39,4.22.19,4.52.7.57-.19-1.44-.29.2-.32.43.55,1.89,0,3.27.4-.45.23-1.76,0-.38.34.87-.39,2.71.3,3.89.31.08-.36,2.57,0,4.56.07-.14.11,3.7.48,5.52.76l-.05,0c.38-.34,2.27-.12,3.66-.09-.08.21-.33.28-1.09.32l1.3.1a4.8,4.8,0,0,1,1.57-.1l-.35.24a53,53,0,0,1,5.71.3c.15-.25-1.71-.85.65-.84.08.15.15.39-.47.4a5,5,0,0,1,1.13,0l-1,.16c1,.18.55-.15,1.35-.07,0,.2.59.19.46.33a7.14,7.14,0,0,0-1-.08,10.25,10.25,0,0,1,2.35.49c-.07-.12,0-.27.69-.24,1.73.11.58.28,1.58.46.42-.11,1.52.12,1.57-.17a1.42,1.42,0,0,1,.77.27c.91-.06,4.18.29,3.2-.1l-.23,0h.15c3-.07,6.07.63,9,.72v.1l1.35,0,1.73.1c.13-.57.24-1.11.35-1.61s.13-.77.16-1.1c.13-.49.47-1.13.53-.89a16.41,16.41,0,0,1,.82-3.3c-.16,1.34.26-.4-.21,1.36a14.58,14.58,0,0,0,.95-3.85c.09.67.63-1.19.76-2l-.47,1.13c.19-.91.41-1.68.64-2.47l.21.51c1.26-3.33.91-6.35,2.23-8.79,0-1-.63,1.82-.69.94.44-1.57,1.33-3.09,1.45-3.58.73-2.12,0-2.14.74-4.37-.19.26-.56.46-.24-1.26.45-1.56,1-1.81.82-.79-.09.38-.17.55-.21.52-.09.52-.21,1.21.08.61l-.07-.23c.32-.75.86-2.93.92-2.37.19-1.22-.06-.56-.34.31.68-2,.81-3.16,1.45-5.21-.15.31-.36.58-.28.25.93-3,.13-1.4.61-3.48.47-1.13.31.53.69-1.59.45-1.25.38-.19.34.33a24.48,24.48,0,0,1,1.37-4.58l-.16,1a13.35,13.35,0,0,1,.35-1.6l-.38.51c.19-.58.32-1.08.41-1,0-.64-.5.36-.4-.89.33-.8.44-2.25.94-2.92a7.89,7.89,0,0,0-.34,1.34c0,.13.05.1.11.05s.28-.22,0,.83c0-.21.08-.43.15-.68s.18-.63.28-1c.08-.17,0,.17,0,.44.19-.58.35-1.09.45-1.46a10.71,10.71,0,0,0-.85-1l-.15-.14-.09-.06-.18-.1a4,4,0,0,1-1.24-1.22c.33.15-.1-.66-.38-1,.62.8.06.56-.62-.09a15.37,15.37,0,0,0-1.67-2l.54.8A8.47,8.47,0,0,1,259.36,55c.05-.16.71.75.51.39-1-.79-1.49-2.42-2.74-3.66-.4-.71.22-.27-.16-.87-1.38-1.4-1.11-1.82-2.53-3.32.18.62.29.66-.79-.33l2.22,2.55-1.61-1.49c.63.8,1.44,1.6,1.79,2.1-.79-.69-.68-.64-.53-.14-.58-1.31-1.87-2-2.68-3.46l.49-.32c-1.28-2.07-2.89-3.2-4.72-5.77l.55.86c-.45-.19-1.23-1.51-1.93-2.25.21,0-.13-.59-.3-1-.08.13-1.41-1.82-1.9-1.8l-.66-1.27c-1.49-2.06-2.23-1.93-3.69-3.89.62.45,0-.51,1.18.68-.5-.64-.93-1.24-1-1.17-.2-.45-1.61-1.61-1.92-2.32a2.87,2.87,0,0,1-1.07-.91c0-.1.08-.05.08-.05s-1-1-.67-.28c-1.06-2.36-4.37-5.5-5.3-7.54-.57-.69-1.21-1.44-1.82-2.17l-1.57-1.91c.1,0,.1,0,.19.11a2.55,2.55,0,0,0-1-.92,4.3,4.3,0,0,1-.64-.52,3.39,3.39,0,0,1-.34-.39l-.09-.11h.16l.41,0c1.46.39-.62.17.19.33,1.55.74,1.08-.08,3.34.56h-.41c1.24.37,3.14.17,5.21.64,0,0-.12,0,0,.1a14.46,14.46,0,0,1,2.9.28l1.68.3,1.59.39c-.68.06-.93-.13-.63.22.89.23-.14-.47,1.63,0,.54.28,1.75.79,1.82,1.13-.53-.19-1.08-.35-1.63-.5.74.56,2.11.68,2.94,1l-.16.11c2.5.8,2.66.48,5.27,1.59l-.23-.22c1.58.25,1.13.66,2.63,1.08l.26.56a42.78,42.78,0,0,1,5,2.06,21.42,21.42,0,0,1-2.05-.73L254.38,22c.91.43,3.09,1.47,3.62,1.6a7.28,7.28,0,0,1-1.19-.58,19.67,19.67,0,0,1,4.49,2c-.18.12,0,.35.42.65s1,.73,1.6,1.17a14.35,14.35,0,0,1,3.18,2.48,48,48,0,0,1,4.32,3.19c1.39,1.2,2.75,2.55,4.33,3.87-.71-1.4.93.78,1.15.16a5.62,5.62,0,0,1,1,1l1.82,2.33c.37.61-.74-.55-.77-.39,1.46,1.52.44.81,1.31,1.9-.07-.35.78.28,1.49,1.22a14.36,14.36,0,0,0-1-1.4,5.74,5.74,0,0,1,1.77,2,10.27,10.27,0,0,0,.56.89,8.94,8.94,0,0,0,1.06,1.29l-.71-.61c.25.28.58.69.95,1.16s.74,1.06,1.14,1.62a21.77,21.77,0,0,0,2.11,2.81c.05.27.06.66-.27.09,1.63,3.16,3.68,7.15,4.1,10l-.21-.22a6.66,6.66,0,0,1,.62,1.92c-.07,0-.21-.23-.15.07a11.93,11.93,0,0,1,.72,2.59l-.31-.71c.14.87.25,1.63.39,2.34s.3,1.35.44,2,.29,1.24.44,1.88.22,1.32.3,2.06c-.42,0-.44,2.8-.53,4.18l-.06,0c-.08,4.09.11,7-.25,10.81-.41,1.14-.78,3.11-1.29,5.24a44.1,44.1,0,0,1-1.82,6.17c.26-.53.29.19.11.85-.35.82-.53,2.43-.87,2.15l.12-.29a4,4,0,0,0-.88,1.46l-.88,2,.38.44c-1.14,1.53-2.19,3.71-3.33,5.62a12,12,0,0,1-3.29,4c-.49.76-1.31,1.58-1.83,2.33l-.17-.23c-1.81,1.78-2.7,2.68-4.88,4.92l.31-.59c-1.25,1.22-1,2.15-2.18,3.27l-.65,0c-2.26,2.09-4.82,3.78-7.06,5.79,0-.08,0-.24.39-.54-.56.44-1.77,1.09-2.71,1.71s-1.72,1-1.35,1.18c-.2-.29-2.76,1.44-4.25,2.18l.13-.36a8.62,8.62,0,0,1-2.95,1.72c-.45.12-.45-.08.15-.21-1.5.35-1,.67-2.89,1l.62-.36a5.67,5.67,0,0,0-2.16.92,7.83,7.83,0,0,1-3.24.47,3.81,3.81,0,0,1-1.92.7c-.14-.06.18-.19.35-.26-2.64.39-3.83,1.08-5.69,1.15-.05-.09-.18-.11-.33-.11,2.08-.37,3.77-.66,3.61-.61-.05-.26-1.73,0-.46-.59a23.8,23.8,0,0,1-5.2,1.39,1.55,1.55,0,0,1-.23-.06l.17-.05a5.17,5.17,0,0,0-1,.16l-1.37.07c-.21-.2-1.93.07-2.78.08.09.28-1,.29,0,.47-.14,0,.16,0,.72-.08l.36-.05-.06,0,2.1-.19a5.69,5.69,0,0,1-2.29.3c-.42.2-.9.41-1.16.51-1.19-.31-3.42-.5-3.73-.75-2.59.18-6.07-.12-7.75.2a1.73,1.73,0,0,1-1.09-.36,9.3,9.3,0,0,0,1.17,0c-1.48,0-4.32-.53-4.73-.24-1.8-.49,1.09-.15-1.44-.54l.36-.05A47.89,47.89,0,0,0,207,138a19.48,19.48,0,0,1-6.67-2.31c.33.19.5.29.55.38-2.88-1.34-5.85-2.71-8.68-4.33a37,37,0,0,1-7.73-5.72,10.67,10.67,0,0,0-2.48-1.81l-.07-.49c-.52-.35-1.07-.68-1.58-1a12.55,12.55,0,0,1-2.33-2.86c-.33-.52-.7-1-1.12-1.59a12.28,12.28,0,0,0-1.48-1.72l.1.47c-.73-1-2.28-3-2-3a1.19,1.19,0,0,1-.56-.67l.11-.11c-.58-.79-1.2-1.57-1.76-2.38-1-2.06.71,0-.85-2.92-.59-1.07-1.95-3-1.85-2.5s.47,1.2.35,1.3l-.58-1c-.51,0-1.34-.6-.38,2.1.38.55.73,1.12,1.15,1.64l.11.67c-.27-.49-.56-1-.8-1.47a4.4,4.4,0,0,0,1.14,1.91,1.93,1.93,0,0,0,.19.85c.43.51.92,1,1.38,1.45,0,.3-.77-.56-.16.61.65.67-.12-1,.79.25.32.92,0,.79.82,1.6,0,.2-.21,0-.51-.29.7.74,1.53,2.15,2.06,2.4.39,1,2.11,2.6,1.73,2.79a17,17,0,0,1,2,1.77c-1.53-.86,2.3,2.53,1.63,2.57,1.22.54,3.4,3,5.32,4.06a1.38,1.38,0,0,1-.5-.27c.95.79,1.13,1.14,1.72,1.68.37-.23,2,.84,3,1.19,1.06,1.13-1-.12-.83.44.12-.3,2.39,1.16,2.1.66.85.81.79.61,1.13,1.19.43-.32,1,.49,2,.68,1.36,1,.16.61,1.85,1.33.37.25.16.25-.14.17S194.4,135.41,194.4,135.41Zm42.49,6.16h0l-.88.13C236.19,141.69,236.45,141.65,236.89,141.57Zm3.58-.6-1.54.26c-.15-.07,0-.19.33-.25C239.08,141.08,239.93,141,240.47,141Zm-7.77-.9c.55-.09.74,0,.83,0l-1,.12-.06,0A.53.53,0,0,1,232.7,140.07Z"/><path class="cls-2" d="M231.72,140.52l-.23,0,.34,0,.19-.11Z"/><path class="cls-2" d="M239.56,111.38h.07l-.15,0A.15.15,0,0,1,239.56,111.38Z"/><polygon class="cls-2" points="282.91 116.19 282.85 116.14 282.68 116.43 282.91 116.19"/><path class="cls-2" d="M219.85,108.9a.89.89,0,0,0-.25-.09A1,1,0,0,0,219.85,108.9Z"/><path class="cls-2" d="M211.31,108.19l-1.2-.19Z"/><path class="cls-2" d="M204.75,107.55a.28.28,0,0,0-.14.11h0Z"/><path class="cls-2" d="M259.18,57.38l-.17-.19C258.6,56.75,258.87,57.06,259.18,57.38Z"/><path class="cls-2" d="M257.46,85.65c0-.34.06-.67.12-1C257.42,85.17,257.31,85.59,257.46,85.65Z"/><path class="cls-2" d="M237.41,30.21h0l-.14-.17Z"/><path class="cls-2" d="M257.94,83.24a7.61,7.61,0,0,0-.36,1.4A11.05,11.05,0,0,0,257.94,83.24Z"/><path class="cls-2" d="M176.29,105.24l-.32,0s0,0,0,0Z"/><path class="cls-2" d="M175.93,105.25h-.35A.91.91,0,0,0,175.93,105.25Z"/><path class="cls-2" d="M174.83,105.27h.75A2.06,2.06,0,0,0,174.83,105.27Z"/><path class="cls-2" d="M185,106l.11-.1A.16.16,0,0,0,185,106Z"/><path class="cls-2" d="M187.62,106.21a19.58,19.58,0,0,0-2.45-.34l-.09.07C185.51,105.82,187,106.34,187.62,106.21Z"/><path class="cls-2" d="M198.55,108.31l-2.2-.25c.37.14.87.32-.14.27C199,108.87,195.66,108,198.55,108.31Z"/><path class="cls-2" d="M205.41,109c-1.19,0,0,.16-.07.22C206.11,109.16,206.29,109.15,205.41,109Z"/><path class="cls-2" d="M252.79,108.24l.22.18C253.2,107.52,252.92,108.39,252.79,108.24Z"/><polygon class="cls-2" points="253.86 98.7 253.49 99.53 253.61 100 253.86 98.7"/><polygon class="cls-2" points="257.02 93.7 256.95 94.1 257.24 92.59 257.02 93.7"/><path class="cls-2" d="M233.37,21.07l-.08.41C233.72,21.93,234.08,21.82,233.37,21.07Z"/><path class="cls-2" d="M250.61,20.06a4.36,4.36,0,0,0,1.82.88C251.7,20.6,251,20.19,250.61,20.06Z"/><path class="cls-2" d="M286.06,106.8l.21-.68c-.17.41-.32.83-.51,1.23C285.87,107.17,286,107,286.06,106.8Z"/><path class="cls-1" d="M219.35,111.63s-25.42-12.7-19.58-42,34.48-25.58,41.06-21.54,15,8.28,15,8.28L225.19,21.12,173.33,56.37s10.27,55.84,13.38,55.51S219.35,111.63,219.35,111.63Z"/><path class="cls-2" d="M219.35,112.29c.17-.08.07-.28-.39-.24l-.33.33Z"/><path class="cls-2" d="M216.22,111.68c-.54.16-1.17.44-.82.74.54-.32.67-.18,1.26-.56.46,0,.81.11.73.23.16-.09.72.07,1-.14a3.45,3.45,0,0,0-2.17,0C216,111.82,216.19,111.74,216.22,111.68Z"/><path class="cls-2" d="M182.15,96.88l0,.29A.77.77,0,0,0,182.15,96.88Z"/><path class="cls-2" d="M176.47,69.34c.05.2.1.29.13.29C176.54,69.44,176.49,69.28,176.47,69.34Z"/><path class="cls-2" d="M175.91,64.55l0,.28A.48.48,0,0,0,175.91,64.55Z"/><path class="cls-2" d="M182.15,96.88l-.07-.76C182,96.1,182.09,96.52,182.15,96.88Z"/><path class="cls-2" d="M210,112.47a1.57,1.57,0,0,0,.41-.08l-.38,0Z"/><path class="cls-2" d="M185.69,108.7l.08.21a1.22,1.22,0,0,0,.19.12Z"/><path class="cls-2" d="M192.72,110.93c-.22,0-.29.27-.37.39a.88.88,0,0,1,.47-.2A.32.32,0,0,0,192.72,110.93Z"/><path class="cls-2" d="M207.83,111.34l.26,0Z"/><path class="cls-2" d="M183.83,102.21a.26.26,0,0,0,.07-.11A.13.13,0,0,0,183.83,102.21Z"/><path class="cls-2" d="M211.45,104.1s0,0,0,0S211.5,104.15,211.45,104.1Z"/><path class="cls-2" d="M219.32,111.69l-.15,0a.63.63,0,0,0-.1.12Z"/><path class="cls-2" d="M174.87,57h0S174.88,57,174.87,57Z"/><path class="cls-2" d="M236.32,35.69c-.41-.85,1.22.92.53-.31C236.85,35.55,235.7,34.73,236.32,35.69Z"/><path class="cls-2" d="M209.71,112.44h-.39A2.46,2.46,0,0,0,209.71,112.44Z"/><path class="cls-2" d="M236.85,35.38h0l-.07-.12Z"/><path class="cls-2" d="M191,45.82a.5.5,0,0,0-.24,0S190.83,45.86,191,45.82Z"/><path class="cls-2" d="M178.28,54l.33-.18Z"/><path class="cls-2" d="M197.25,41.08a1.46,1.46,0,0,0,.47-.29l-.09,0A.88.88,0,0,1,197.25,41.08Z"/><path class="cls-2" d="M204,36.5l-.16,0-.21.16Z"/><path class="cls-2" d="M200.46,83.3a1.48,1.48,0,0,1-.2.4C200.44,83.55,200.66,84.69,200.46,83.3Z"/><path class="cls-2" d="M210,112.31a.31.31,0,0,1-.25.13l.28,0A.07.07,0,0,0,210,112.31Z"/><path class="cls-2" d="M196.28,39.06l1.09-.69C197.06,38.55,196.66,38.8,196.28,39.06Z"/><path class="cls-2" d="M231.73,46.7h-.29A.56.56,0,0,0,231.73,46.7Z"/><path class="cls-2" d="M200.53,36.17a3,3,0,0,0,.71-.25c0-.05.08-.09.09-.14Z"/><path class="cls-2" d="M200.25,83.7h0Z"/><path class="cls-2" d="M203.08,91.44c-.42-1.1-.54-.38-.83-.54-.61-1.3,0-.71,0-1.23a14.23,14.23,0,0,1-1.06-2c.05-.07,0-.2.15-.07-.55-.84-.67-2.71-1.2-3.74a.4.4,0,0,1,.07-.16.52.52,0,0,1-.47.25c-.08-.54-.37-1-.16-1.21a.77.77,0,0,0,.23.49l-.18-.55c.28-.55.23.76.48.72a12.54,12.54,0,0,1-.62-3.21c.32-.19.26,2,.48.83,0,.43,0,.88,0,1.31.4-1,.07.79.52-.18,0-1.7-.37-1.88-.28-3.59-.19-.38-.27.13-.47-.25a2.81,2.81,0,0,1,.3-2.1,2,2,0,0,0,.26-1.59,2.08,2.08,0,0,1-.22-2l.34.49c.24-1.64-.41-1,.12-2.72.1.34-.09,1.32,0,1.08.49-1.06-.08-.83.07-1.69l.37-.11c.18-.86.29-1.8.47-2.74a24.4,24.4,0,0,1,.71-2.83c.06.13,0,.48.3.09a18.27,18.27,0,0,1,3.6-6.62,6.69,6.69,0,0,1,.27-.9c.13-.16.34-.23.25,0,.64-.66-.12-.15.06-.57s.55-.44.42-.13a9.22,9.22,0,0,1,.78-1.2,9.93,9.93,0,0,1,1.08-1.32,9,9,0,0,1,2.49-2l-.22.26c1.15-.65.87-1.39,2.1-1.78l-.18.16a36.49,36.49,0,0,1,4-1.93,12.41,12.41,0,0,1,3.8-.87c.32-.54,2.84-.38,2.95-.94,1.69.1,1.23.22,3.56.32.62,0,.92-.38,1.7-.42v.31c.35-.11.71-.19,1.06-.28l.54.4h.72c-.28-.05-.6-.2-.55-.28a5,5,0,0,1,2.72.7c.88.07,1.77.16,2.64.3-.08.1-.52,0-.88,0,1.45,0,.17.37,1.48.42-.15-.11.14-.15.19-.2.56.36,1.93.83,2.82,1.25l-.26.09,1.28.76c.47.28,1,.55,1.44.82l3,1.65c-.67-.5-.33-.72.28-.42l.08.42c.48,0-.56-.46.34-.23.74.45.33.6-.15.45l1,.42c0,.11-.24,0-.35.11.47,0,1.43,1.17,2.15,1.15v.12c2,1.1,3,1.48,4.69,2.34.17-.24.79.16,1.39.21l.67.41,4.06,2.46-2.89-4a34.75,34.75,0,0,0-2.31-3c-.87-.79-.41-.1-.88-.39.14-.23-1-1.47-.26-.94-1.34-1.47-1.71-1.88-3.52-3.65.1.28.27.54.1.48-.33-.32-.6-.86-.46-.89l.09.08c-2.14-1.89-3.71-5.42-5.59-6.76l.1.07-1.74-1.57c-.67-.84.57.35.17-.35-2-1.62-2.57-3-4.14-4.42-.48-1.7-3.78-4.26-4.83-6.21l-.06.21c-.49-.31-.36-.58-.6-.92-.07.14.27.57,0,.37-1.11-1.17-2.18-2.42-3.24-3.7l-1.57-1.95-.87-1.1-1.49-1.82-1.86,1.19-.69.43-.51.31-2,1.24c-1.49,1-.31,1.33-2.41,2.24l.34-.63c-2.74,2.34-6.07,4.11-8.79,6.36.13-.18.08-.26.36-.45-.74.22-2.27,1.53-2.17,1.7-.47.29-.21-.08-.54,0-.7.3-1.37,1.3-1.83,1.33-.08,0,.12-.18.23-.28-.34.37-1.89,1.25-1.35,1.22-1.16.63-2,1.52-3,2-.39.64-2,1.15-1.88,1.63-.18-.42-2.12,1-2.69,1.64.16-.27-.68.29-.51,0-.79.54-1.46,1.1-1.19,1.2-1.76.54-2.67,2.34-3.88,2.32-2.2,1.79-4.27,3.4-6.31,4.92-.18-.43,2.3-1.62,1.94-1.95a43.3,43.3,0,0,1-4.86,3.86c-.55.3.18-.36.31-.54-1.89,1.51-3.88,2.59-5.51,4,0,0,.15-.21.31-.36-.34.25-.85.5-.7.64l.31-.28c.73-.13-1,1.46-1,1.63.26-.89-1.84,1.07-1.31-.19-.21.19-.44.47-.31.55l-.23.11a.62.62,0,0,1-.19.06s0,0,0-.1a.48.48,0,0,1,.08-.11l.08-.12c-.22.17-.41.31-.56.44l-.41.34-.26.24-.09.1a.07.07,0,0,0,0,.11,8.41,8.41,0,0,1,.43,1.64c-.05,0-.09,0-.16-.17a2.52,2.52,0,0,0-.21-.4c.22.65.35.81.49,1.24a6.16,6.16,0,0,1,.32,1.41c-.07-.06-.12.09-.19-.25.4,2,1.14,3.24,1.37,5.42-.54-.55,0,.75-.34.94l.33,1.13.09-.5a25.52,25.52,0,0,1,.68,2.75l-.3-.72.45,1.87-.08-1.09c.39,1,.45-.2.61,1.16a11.27,11.27,0,0,1,.08,1.58h0a4.67,4.67,0,0,1,.5,1.73c-.08.22-.43-.07-.49.07.41.43.56,2.34,1,2.9-.12-.19-.32-.16-.34-.09l.33.37c0,.48,0,.56-.18.51.25,1.41.38-.54.52,1.17-.05-.13-.07-.06-.17-.32.24,1.69.83,3.2,1,4.76-.27.53-.37-1.33-.57-.74.53,2.2,1.41,4.49,1.79,6.65l0-.41c.58.19.09,1.65.58,2.68-.1-.25-.37-.28-.3-.22a41,41,0,0,0,1.49,5.14l-.2-.24c.09.89.47,2.28.64,3.23.2.24.31.78.42.41,0,3.06,1.8,5.33,2,8-.1-.3-.34-.68-.26-.44.26.7.53,1.4.83,2.1.15-.25,0-.33,0-.83a4.52,4.52,0,0,1,.74,1.29c-.5-.88-.36.14-.3.61,0-.1.17,0,.22,0,0,.63.2.63.36.66a.54.54,0,0,1,.28.17c.12.11.21.34.47.69l-.13,0a.59.59,0,0,0,.43.19,3.54,3.54,0,0,0,.47-.07,3.85,3.85,0,0,1,.95-.11c.28.26-.61.14-.69.38,1-.07,1.77-.58,2.61-.33-.38.09-.93.09-1.31.18a4.37,4.37,0,0,0,1.65.25h-.06l1.52.12-.39-.08c1.11-.72,2.29-.16,3.8-.63-1.47.44-.24.25-.35.55.38.08,1,.17.81.26.71-.25,1.19.18,2.2-.18,0,.1.77,0,.61.25.93-.08-.22-.17-.15-.29,1.44-.34,3.38.38,5.44-.08,1.78-.19,2.11-.52,3.76-.69.56.16-.45.36-.45.36a7.85,7.85,0,0,0,2.42,0c-.17.08,0,.16.27.27.68,0,.45-.36,1.35-.22a2.38,2.38,0,0,1-.68.4c.8-.09,1.59-.28,2.42-.36.22.17-.5.25-.79.36a8.31,8.31,0,0,0,2.71-.42l-.6-.09c.34,0,.17.23-.08.28-.8.21-1.15-.1-1.2-.2l.59-.06c-.6-.57-2.37.09-3.56.06l.49-.42-1.22.35c-.26-.11-.43-.34.15-.4-.85-.21-.75.15-1.48-.08-.09,0-.05-.06,0-.07l-.84.12c.17-.09-.14-.29.38-.23-1.5-.24-2.42.31-3,0l.12,0c-2.07.15-.2.31-1.75.67l-1-.75-.21.31c-.21,0-.64,0-.56-.15-.79.21.14.13-.32.33-1-.28-2.85.14-3.08-.34-.37.23,1,.17-.11.34-.32-.52-1.27.1-2.22-.13.29-.28,1.18-.14.24-.37-.57.46-1.84-.09-2.63,0,0,.37-1.73.17-3.06.33,0,0-.33-.08-.85-.11l-1.76,0a.78.78,0,0,1-.35-.05.72.72,0,0,1-.19-.25l.06,0c-.18.07-.35,0-.59-.45a14.37,14.37,0,0,1-.63-1.31c.22,0,.35.08.62.5l-.3-.79a2.32,2.32,0,0,1-.55-.9l.33.12a17.72,17.72,0,0,1-1.25-3.6c-.27,0-.36,1.34-1-.14.12-.1.33-.22.5.17a2.44,2.44,0,0,1-.26-.72l.4.55c-.09-.69-.29-.29-.41-.82.19,0,0-.43.2-.4s0,.48.18.66a4.42,4.42,0,0,1-.12-1.62c-.1.08-.26.07-.4-.36-.31-1.12.13-.44.06-1.13-.2-.23-.25-1-.54-.94a.71.71,0,0,1,.09-.57c-.28-.55-.7-2.72-.85-2l0,.16,0-.09h0c-.75-1.86-.78-4-1.33-5.92l.1,0a33.14,33.14,0,0,0-1-3.3c-.07-.33,0-.83.15-.71a7.17,7.17,0,0,1-.5-2.23c.36.84.08-.34.32.87a6.76,6.76,0,0,0-.59-2.61c.34.36.13-.92-.05-1.45v.84a14.85,14.85,0,0,1-.35-1.68l.39.22c-.09-2.41-1.54-4.06-1.24-6-.35-.57.1,1.3-.28.8a20,20,0,0,1,0-2.63c-.11-1.5-.75-1.27-.93-2.84-.08.22-.35.47-.69-.66-.17-1.08.23-1.41.45-.75.06.25,0,.38,0,.38.11.34.25.78.29.33l-.14-.11c0-.56-.29-2,0-1.72-.27-.79-.26-.31-.2.3-.1-1.41-.42-2.16-.58-3.6,0,.24-.12.48-.16.25-.26-2.11-.4-.87-.72-2.27,0-.84.48.2.06-1.19-.05-.89.27-.24.43.08a11.25,11.25,0,0,1-.41-3.19l.23.67a6.45,6.45,0,0,1-.26-1.08l-.16.44c0-.41-.1-.75,0-.76-.23-.38-.33.39-.69-.39a2.06,2.06,0,0,0-.09-.62c0-.05,0-.08.05-.1a.34.34,0,0,1,.12-.06.29.29,0,0,1,.24,0c-.4.17-.18.25-.1.24a.32.32,0,0,1,.28.22c0-.06-.08-.17.06-.17a.06.06,0,0,1,.05.06c.14,0,.1,0,.18,0a.8.8,0,0,0,.23-.32c.09-.21.17-.45.87-.93-.08.27.51.06.72-.13-.57.39-.43-.06,0-.52,1-.5.92-.75,1.4-1.06l-.58.31c.09-.27.55-.55,1.14-1,.13.07-.51.46-.25.36.52-.73,1.75-.8,2.6-1.64.52-.2.23.25.67.05,1-.93,1.32-.6,2.35-1.53-.46,0-.48.11.19-.63l-1.79,1.42,1-1.11c-.57.38-1.12.94-1.48,1.13.47-.55.44-.46.06-.44,1-.23,1.42-1.21,2.45-1.62l.31.5c1.49-.7,2.22-1.88,4.06-2.94l-.62.29c.1-.35,1.06-.76,1.57-1.22.06.2.46,0,.77-.05-.11-.1,1.29-.86,1.22-1.29l.93-.32c1.48-.87,1.3-1.56,2.7-2.43-.29.46.41.15-.42.9.46-.31.88-.56.81-.67.34-.08,1.11-1.08,1.64-1.21.14-.2.09-.41.6-.75.08,0,.06.09.06.09s.72-.65.15-.53c1.75-.44,3.88-2.7,5.4-3.09.95-.72,2.11-1.59,3-2.21,0,.09,0,.08-.13.18,1.35-.69.45-1,2-1.77.9-.23-.65.65-.13.44.56.41,1.65-1.23,2.81-1.56l-.2.19c.85-.31,1.63-1.41,2.84-2.18,0,0,0,.09.05.09a20.35,20.35,0,0,1,3.19-2.81c-.21.45-.44.46-.08.53.49-.38-.39-.24.59-1,.41-.11,1.22-.51,1.47-.35l-.95.67c.69,0,1.24-.86,1.78-1.15l0,.17c1.45-1,1.25-1.38,2.85-2.44l-.23,0c.65-.91.86-.32,1.55-1.14a1.54,1.54,0,0,1,.35.24,6.8,6.8,0,0,1,.5-.51,4.41,4.41,0,0,1,.63.44c.27.23.66.61.94.89a6.72,6.72,0,0,1-1-.69,5,5,0,0,0-.61-.35l-.18.22.17-.11a5,5,0,0,0,.4.38l.06.05.11.1.2.17a1.39,1.39,0,0,0,.31.21c-.19-.17-.54-.42-.6-.59A9.26,9.26,0,0,1,228,24.82c-.74.32,2.19,2.82,2.39,3.95,1.8,1.64,3.06,3.7,4.94,5.8-.21-1.15.55.61.9.07.46.47.61.67.62.74l1,1.74c.17.47-.51-.38-.57-.25.9,1.12.19.63.7,1.45,0-.29.56.17,1,.84l-.54-1c1.56,1.3.75,1.65,2.32,3l-.56-.36c.76.71,2.51,2.9,3.54,3.34.07.19.1.48-.23.16,1.57,1.92,4,3.83,5.06,5.48l-.24,0c.34.32.74.42,1,1-.07,0-.24,0-.1.12A6.86,6.86,0,0,1,250.64,52l-.47-.29c1.44,2,2.74,2.54,4.15,4-.21.17.14.82.58,1.46l1.5-1.93c-.4-.27-.84-.54-1.15-.73l.06,0c-2.47-1.33-4.39-1.88-6.76-3-1.18-1.18-4.67-2.83-6.73-4.41.29.27-.21.27-.67.06-.55-.45-1.76-.52-1.51-.85l.21.1c-.3-.57-1.61-1-2.6-1.22l-.3.46a10.56,10.56,0,0,0-4.51-1.1,13.24,13.24,0,0,1-3.72-.42c-.64.11-1.43.14-2.06.29l0-.28a20.9,20.9,0,0,0-4.85.49l.41-.27c-1.24.18-1.38,1.11-2.47,1.37l-.44-.32c-2.06.57-4.31,1-6,2.4,0-.07,0-.21.31-.38a19.71,19.71,0,0,0-2.07,1.09c-.69.44-1.17.89-.85,1-.25-.32-1.85,1.29-2.56,2.23l-.06-.34a8,8,0,0,1-1.3,2.08c-.24.22-.35.06,0-.21-.82.72-.41.77-1.3,1.71l.16-.5a2.8,2.8,0,0,0-.77,1.46c-.31.63-1.2,1.7-1.52,1.71a2.22,2.22,0,0,1-.43,1.37c-.13,0-.07-.21,0-.33a8,8,0,0,0-.63,1.07c-.13.33-.23.65-.33.94a6.75,6.75,0,0,1-.72,1.63.25.25,0,0,0-.23.14A20.94,20.94,0,0,1,202,60.18c-.23-.12-.77,1-.69-.06-.11.48-.26,1.13-.42,1.8a7.68,7.68,0,0,1-.56,1.88l-.14.11,0-.12a1.77,1.77,0,0,0-.2.71,8.2,8.2,0,0,0-.35.89c-.23.08-.53,1.28-.65,1.86.29,0,.07.76.46.11,0,.09,0-.11.07-.5,0-.09,0-.19,0-.25v0c.1-.38.24-.86.4-1.41a2.79,2.79,0,0,1-.36,1.56c.11.34.22.71.26.91-.56.68-1.12,2.15-1.37,2.33-.18,1.79-.52,4.23,0,5.38,0,.51-.18.58-.27.76a5.25,5.25,0,0,0-.08-.81c0,.52,0,1.27,0,1.93s.12,1.22.31,1.34c-.15,1.28-.35-.72-.27,1l-.12-.24a10.4,10.4,0,0,0,.58,4.58,19.89,19.89,0,0,1,1.09,4.77.91.91,0,0,1,0-.47,24.16,24.16,0,0,0,2.37,6.24c1,2,2.25,3.87,3.32,5.77.65,1.06.94,1,1.53,1.48l-.06.4,1.1.75c1.38,1.15,1.61,2.82,3.66,4l-.09-.35c.59.59,2.06,1.59,1.81,1.68a.66.66,0,0,1,.54.28l-.08.14c.59.35,1.18.68,1.79,1,1.22,1-.58.39,1.34,1.68.76.43,2.37.84,2.13.59s-.73-.52-.67-.67l.71.31c.35-.37,1-.49-.36-1.67-.41-.13-.82-.28-1.23-.43l-.22-.41.91.57A2.07,2.07,0,0,0,217,109a.94.94,0,0,0-.3-.5l-1.28-.38c0-.24.67,0,0-.54-.59-.19.21.67-.65.19-.36-.55-.11-.57-.79-.88,0-.16.16-.12.42,0-.59-.29-1.34-1-1.75-1.08-.32-.6-1.64-1.42-1.29-1.69a5.75,5.75,0,0,1-1.47-1c1.11.43-1.47-1.64-.83-1.82-.9-.27-2-2.08-3-3.08.07,0,.23.13.28.24a7,7,0,0,1-.62-1.41c-.4.13-1.11-.88-1.65-1.34-.16-1,.7.28.86-.16-.27.21-1.09-1.31-1.16-.91-.14-.76-.2-.62-.08-1.1-.5.1-.36-.58-.89-1-.22-1.07.29-.42-.27-1.45C202.54,90.55,203.08,91.44,203.08,91.44Zm-1-27.35h0l-.19.55Zm.88-2.2a6.52,6.52,0,0,0-.42.94c-.12,0-.18-.08-.09-.31C202.45,62.67,202.73,62.17,203,61.89Zm-3.56,4.2c.07-.39.16-.51.24-.54l-.17.67,0,0A.34.34,0,0,1,199.4,66.09Z"/><path class="cls-2" d="M199.56,66.86c0,.06,0,.09,0,.16a2.12,2.12,0,0,0,.11-.21l0-.15A1.94,1.94,0,0,0,199.56,66.86Z"/><path class="cls-2" d="M182.19,97.22v0a.41.41,0,0,1,0,.12Z"/><polygon class="cls-2" points="229.12 46.67 229.12 46.6 228.91 46.65 229.12 46.67"/><path class="cls-2" d="M185,110.36a.43.43,0,0,0,0,.19A.69.69,0,0,0,185,110.36Z"/><path class="cls-2" d="M190.27,112.36l.82.08C190.73,112.39,190.48,112.37,190.27,112.36Z"/><path class="cls-2" d="M194.7,112.44a.31.31,0,0,0,.09-.13h0Z"/><path class="cls-2" d="M177,52.59l.13-.11C177.4,52.21,177.19,52.38,177,52.59Z"/><path class="cls-2" d="M175.91,72c-.09-.2-.18-.41-.26-.63C175.7,71.75,175.75,72,175.91,72Z"/><polygon class="cls-2" points="196.16 39.14 196.16 39.15 196.28 39.06 196.16 39.14"/><path class="cls-2" d="M175.46,70.42a3.63,3.63,0,0,0,.19,1A4.41,4.41,0,0,0,175.46,70.42Z"/><path class="cls-2" d="M213.91,112.5h.22s0,0,0-.05Z"/><path class="cls-2" d="M214.15,112.46l.24,0A.49.49,0,0,0,214.15,112.46Z"/><path class="cls-2" d="M214.89,112.36l-.5.07A1,1,0,0,0,214.89,112.36Z"/><path class="cls-2" d="M208,112.37l-.06.1A.12.12,0,0,0,208,112.37Z"/><path class="cls-2" d="M206.26,112.4a8.11,8.11,0,0,0,1.66.15l.06-.08C207.7,112.62,206.67,112.23,206.26,112.4Z"/><path class="cls-2" d="M198.81,111.17l1.5.07c-.27-.1-.61-.25.07-.28C198.49,110.65,200.77,111.2,198.81,111.17Z"/><path class="cls-2" d="M194.17,111.05c.81-.06,0-.16,0-.22C193.69,110.94,193.57,111,194.17,111.05Z"/><path class="cls-2" d="M180.1,87l.27,0C180.2,86.41,180.27,87,180.1,87Z"/><polygon class="cls-2" points="177.48 81 177.44 81.62 177.73 81.85 177.48 81"/><polygon class="cls-2" points="178.5 76.92 178.59 77.18 178.29 76.19 178.5 76.92"/><path class="cls-2" d="M202.93,37.52l-.33-.16C202.29,37.64,202.41,38,202.93,37.52Z"/><path class="cls-2" d="M222.84,23.6a2,2,0,0,0,1.19-.68C223.57,23.21,223.05,23.41,222.84,23.6Z"/><polygon class="cls-2" points="235.81 44.95 236.34 44.97 235.38 44.84 235.81 44.95"/><path class="cls-3" d="M76.8,98.19l-.11-24.82,63.79-3.12a78.67,78.67,0,0,1-2.61,27.67,64.81,64.81,0,0,1-11.94,23.29,60.64,60.64,0,0,1-20.58,16.31Q93,143.64,76.82,144.44q-20,1-35.62-6.26A56.86,56.86,0,0,1,16.68,117q-8.94-13.92-9-33.14a63.67,63.67,0,0,1,5.16-26.27A59.92,59.92,0,0,1,27.58,37.17,71.47,71.47,0,0,1,49.93,23.58a88.29,88.29,0,0,1,27.75-5.69,69,69,0,0,1,24.09,2.65A60.48,60.48,0,0,1,120.44,30a71.09,71.09,0,0,1,14.12,14.19l-31.21,16a32.84,32.84,0,0,0-9.71-10.4q-6-4.14-15.84-3.65A38.69,38.69,0,0,0,60.51,51,32.91,32.91,0,0,0,48.08,63.2q-4.62,7.88-4.57,18.93.08,16.49,9.69,25.63t24.9,8.39q12.14-.6,19-5.94a30.85,30.85,0,0,0,10-13.5Z"/><path class="cls-3" d="M152.81,76.79a63.82,63.82,0,0,1,5-25.83A61,61,0,0,1,172,30.54a70.23,70.23,0,0,1,21.39-13.8,77.85,77.85,0,0,1,26.42-5.8,76.16,76.16,0,0,1,26.91,3.2,60.37,60.37,0,0,1,21.4,11.7,54.86,54.86,0,0,1,14.23,19,60.61,60.61,0,0,1,5.21,25.34,67.18,67.18,0,0,1-4.81,25.9,63,63,0,0,1-13.88,21,67.1,67.1,0,0,1-21.38,14.31,78.29,78.29,0,0,1-27.13,6,74.28,74.28,0,0,1-27.08-3.35,59.78,59.78,0,0,1-21.41-12.22,55.77,55.77,0,0,1-14.06-19.63A64.17,64.17,0,0,1,152.81,76.79ZM189,75q.06,14.45,8.54,23t22.7,7.9q14.24-.69,22.63-10.12T251.22,72q-.08-14.61-8.28-23.14T220,41q-14.24.7-22.63,10T189,75Z"/><path class="cls-3" d="M305.43,9.82,343,8,336.88,86.5,312.1,87.71Zm.47,107.44a15.59,15.59,0,0,1,5.22-12A20.44,20.44,0,0,1,324.46,100q8.25-.41,13.46,3.93a14.3,14.3,0,0,1,5.23,11.48,15.42,15.42,0,0,1-5.13,11.9q-5.16,4.75-13.42,5.16-8.09.39-13.38-3.85A13.93,13.93,0,0,1,305.9,117.26Z"/></g></svg>