<svg id="Layer_1" data-name="Layer 1" xmlns="http://www.w3.org/2000/svg" viewBox="0 0 130 140"><defs><style>.cls-1{fill:#fff;}.cls-2{fill:#f5876f;}.cls-3{fill:#f3765a;}</style></defs><title>title_2</title><path class="cls-1" d="M85.34,7.81s23.34,5.6,30.27,29.64c6.64,21.33-13.76,38.67-13.76,38.67l-25,20.36,38.47-5s7.93-1,8.08,5.32l.5,20.74s.43,11-10.82,11.32-100.42,7.43-100.42,7.43-15-2-6.6-9.72S81.78,48,81.78,48,80,52.34,76.17,45.38c-4.76-8.79-20.72-10.91-26-.13A37.06,37.06,0,0,0,48.78,51c0,1.49-1.09,6-7.46,6.9-9.83,1.47-19.43,1.64-26.87,2.65-5.53.76-7-1.72-4-15.14C13.05,33.31,85.34,7.81,85.34,7.81Z"/><path class="cls-2" d="M85.56,8.44c.28-.19,0-.31-.79,0l-.5.53Z"/><path class="cls-2" d="M79.65,9.93c-.94.52-2,1.21-1.24,1.25.88-.66,1.16-.62,2.09-1.37.84-.35,1.52-.44,1.42-.27.27-.19,1.34-.41,1.72-.77a12.1,12.1,0,0,0-4,1.39C79.33,10.21,79.6,10,79.65,9.93Z"/><path class="cls-2" d="M8.48,54.69l.08-.58C8.53,54.27,8.5,54.47,8.48,54.69Z"/><path class="cls-2" d="M51.17,44.87c-.19.35-.25.51-.23.54C51.11,45.08,51.24,44.81,51.17,44.87Z"/><path class="cls-2" d="M57.93,39.68l-.47.18A1.65,1.65,0,0,0,57.93,39.68Z"/><path class="cls-2" d="M8.48,54.69c-.07.49-.07,1-.11,1.5C8.49,56.29,8.42,55.41,8.48,54.69Z"/><path class="cls-2" d="M68.56,15a7.57,7.57,0,0,0,.71-.37l-.68.3A.36.36,0,0,1,68.56,15Z"/><path class="cls-2" d="M20.65,35.08l.39-.23a3.76,3.76,0,0,0,.25-.31Z"/><path class="cls-2" d="M37.09,26.46c-.38.17-.39.49-.49.67a2.29,2.29,0,0,1,.75-.56C37.33,26.51,37.26,26.48,37.09,26.46Z"/><path class="cls-2" d="M64.29,15.43l.47-.23Z"/><path class="cls-2" d="M10.24,43.69a.38.38,0,0,0-.18.12S10.15,43.77,10.24,43.69Z"/><path class="cls-2" d="M102.91,19.26s0,0,0,0S102.81,19.16,102.91,19.26Z"/><path class="cls-2" d="M85.36,7.74l.29.06s.09-.08.1-.13Z"/><path class="cls-2" d="M72.66,43.14l0,0C72.28,42.86,72.45,43,72.66,43.14Z"/><path class="cls-2" d="M31.47,136c-1.79-.11,2.86-.55.17-.62C31.9,135.47,29.25,136,31.47,136Z"/><path class="cls-2" d="M68.1,15.12l-.7.27C67.72,15.28,67.94,15.19,68.1,15.12Z"/><path class="cls-2" d="M31.64,135.38Z"/><path class="cls-2" d="M62.21,66.77a1.32,1.32,0,0,0,.37-.21S62.46,66.6,62.21,66.77Z"/><path class="cls-2" d="M80.25,50.1a2.1,2.1,0,0,0,1-.31A2.44,2.44,0,0,1,80.25,50.1Z"/><path class="cls-2" d="M52,78.05a6,6,0,0,0-.76.76l.14-.1A2.84,2.84,0,0,1,52,78.05Z"/><path class="cls-2" d="M41,89.49l.24-.17.33-.37Z"/><path class="cls-2" d="M111.75,61.44a2.87,2.87,0,0,1,.54-.53C112,61,113,59,111.75,61.44Z"/><path class="cls-2" d="M68.5,14.83a.8.8,0,0,1-.4.29l.49-.21C68.62,14.86,68.61,14.82,68.5,14.83Z"/><path class="cls-2" d="M53.15,80.05l-1.77,1.79C51.88,81.35,52.52,80.7,53.15,80.05Z"/><path class="cls-2" d="M122.54,110.42l-.05-.58A2.45,2.45,0,0,0,122.54,110.42Z"/><path class="cls-2" d="M46.24,87.26a11.19,11.19,0,0,0-1.12.89,1.21,1.21,0,0,0-.15.26Z"/><path class="cls-2" d="M112.29,60.91Z"/><path class="cls-2" d="M115.33,45.4c0,2.27.36,1.07.57,1.56-.06,2.77-.32,1.26-.61,2.17a22.54,22.54,0,0,1-.35,4.31c-.08.08-.16.32-.16,0a16.16,16.16,0,0,1-.93,3.55c-.48,1.31-1,2.64-1.35,3.69-.1.13-.16.19-.21.21.33-.23.52-.2.61-.07-.46,1-.7,1.86-1.11,2.1a2.4,2.4,0,0,0,.34-1l-.44,1c-.78.71.63-1.39.39-1.51a28.93,28.93,0,0,1-3,5.58c-.23,0,.29-.78.68-1.4s.62-1.07-.09-.22c.49-.69,1-1.39,1.44-2.11-1.45,1.41.82-1.31-.58-.06l-1.86,3a23.28,23.28,0,0,1-2.07,2.86c-.32.71.37,0,.05.69a9.33,9.33,0,0,1-2.88,2.93,7.91,7.91,0,0,0-2.34,2.09,6.37,6.37,0,0,1-2.64,2.72l.43-.84c-2.6,2.06-1.12,1.62-4,3.61.38-.51,1.94-1.74,1.53-1.46-1.94,1.19-1.1,1.17-2.44,2.26l-.5,0c-2.7,2.26-5.57,4.91-8.56,7.42.1-.21.55-.72-.22-.22-1.39,1.21-2.88,2.44-4.41,3.65l-8,6.32,6.46-.69,3.34-.72a2.08,2.08,0,0,1,.37,0,.56.56,0,0,1,.2,0c.09,0,.07.08-.15.13,1.85-.12.07-.19.94-.42,1-.16,1.4,0,.75.16a95.69,95.69,0,0,1,12.64-1.85l-.65.17c2.68-.23,2.93-1,5.43-1l-.46.11c2.9-.31,5.93-.74,8.81-1.1,1.43-.19,2.83-.35,4.14-.48l1-.09a8.11,8.11,0,0,1,2.42.21,3.85,3.85,0,0,1,2.68.72,4.59,4.59,0,0,1,1.11,1c.27.31.43.58.62.58a9,9,0,0,1,.17.89c0,.27,0,.49,0,.69,0,.36-.06.75-.09,1.12-.07.77-.12,1.7-.16,4,0,1.25.41,1.86.51,3.4l-.31,0,.38,2.09-.35,1.13.12,1.45c0-.58.11-1.23.2-1.15a21.68,21.68,0,0,1-.24,5.6l.2,2.68,0,.66a3.62,3.62,0,0,1,0,.58c0,.4,0,.82-.06,1.23a11.05,11.05,0,0,1-.1-1.58c.1,1.28-.06,1.42-.14,1.48s-.16.13-.3,1.31c.14-.29.15.22.18.29a21.28,21.28,0,0,1-1.13,2.35,9.32,9.32,0,0,1-2,2.39l.14-.39a9.56,9.56,0,0,1-4.89,2.09l-1.48.15-1.67.1-3.35.19c1.61,0,1.26.4,0,.51l-.55-.29c-.83.25,1.38,0-.34.39-1.67.06-1.15-.31-.2-.47l-2,.24c-.12-.09.35-.17.47-.31-.82.26-3.52-.09-4.7.34l-.12-.09c-4.46.3-6.47.55-10.1.83,0,.29-1.47.33-2.54.64-2.67.1-5.65.1-8.86.36-2.24.31-.64.29-1.64.53-.19-.24-3.39,0-1.74-.29-3.85.34-4.92.42-9.78,1,.54.07,1.13.07.83.18-.88.11-2,0-1.9-.09l.23,0c-5.44.8-12.68.22-17,1.1l.24-.05-4.49.63c-2.08.12,1.23-.29-.32-.33-4.84.81-7.71.55-11.7,1.15-3.16-.51-11,.92-15.24.77l.25.16a6.33,6.33,0,0,1-2.12,0c.13.13,1.19.06.53.22l-1.73.17-.72.06-.7-.11a22.5,22.5,0,0,1-3.25-.85,11.09,11.09,0,0,1-2.83-1.45,2.28,2.28,0,0,1-1.11-2,4.38,4.38,0,0,1,1.34-2.31c.7-.72,1.66-1.55,2.55-2.38,1.77-1.65,3.48-3.3,5.17-5,2.45-2.43.72-2,4.07-4.86l-.63,1.12c4.58-5.27,9.94-10.22,14.43-15.37a3.64,3.64,0,0,1-.63.9,19.33,19.33,0,0,0,3.58-4c.75-.76.3-.06.82-.46,1.1-.95,2.29-2.83,3-3.22.12-.07-.23.35-.4.55.57-.76,3.06-3.14,2.24-2.69,1.87-1.75,3.3-3.62,4.83-5,.7-1.17,3.14-3.06,3.11-3.67.2.45,3.37-3,4.34-4.3-.28.48,1.07-.92.77-.33,1.27-1.34,2.38-2.63,2-2.55,2.74-2.09,4.41-5.25,6.23-6.16,3.62-4.14,7-7.92,10.33-11.57.2.44-3.73,4-3.24,4.15,3.09-3.51,4.68-5.74,8-9,.87-.83-.33.62-.56,1,2.2-2.5,4.44-4.74,6.51-7l-1.77-1.15a2.25,2.25,0,0,1-.3.46c-.12.12-.18.2-.29.23s-.42.09-.83-.18c0,0,.33.14.51.15-.35-.07-1-.85-1.08-.63.17.13.34.28.51.39s.1.25-.11.2a1.44,1.44,0,0,1-.39-.2,2.32,2.32,0,0,1-.51-.38C77.58,47,76.89,46,76.79,46c.58.43.15-.43-.32-1.27s-.91-1.64,0-.84a5.64,5.64,0,0,0-.55-.67c-.19-.16-.34-.23-.35-.14-.53-.66-.66-.92,0-.37a7.07,7.07,0,0,0-2-1.65c-.2-.13-.39-.25-.66-.45s-.69-.42-1.27-.8c.06-.08.56.19.87.26-.67-.3-1.28-.66-2.07-.94-.39-.15-.79-.33-1.23-.52s-1-.33-1.51-.55c.16,0-.08-.17.59.06a14.26,14.26,0,0,0-2.78-.65c-.45-.07-.9-.07-1.33-.1a9.69,9.69,0,0,0-1.32,0,19.41,19.41,0,0,0-2.69.26,23.83,23.83,0,0,0-3,.64c.27-.21.32-.27.23-.29a1.24,1.24,0,0,0-.6.14c-.54.2-1.26.48-1.46.36a22,22,0,0,0-2,1.37c.29-.16.62-.25.92-.38l-.66.42c-.2.16-.38.34-.57.51-.36.35-.72.67-1,1l-.85,1.11-.44.53-.37.56c.12-.23.21-.48.35-.7l.44-.65c-.2.26-.43.5-.61.78l-.49.86-.48.86c0,.09-.1.15-.14.26l-.08.28-.13.46.19-.5a1.81,1.81,0,0,1,.14-.33l.16-.24.63-.92c-.46,1-.32,1-.26,1s0,.07-.05.25a11,11,0,0,0-.42,1.18c.12-.53-.58,1.9-1,2.88h0c-.06.5-.12,1-.15,1.6a4.24,4.24,0,0,1-.3,1.83c-.23.3-.3-.4-.45-.2a4.23,4.23,0,0,1-1.09,2.33,12.92,12.92,0,0,1-2.15,1.89c.32-.25.24-.43.11-.41-.19.18-.37.4-.58.57-.86.25-1,.23-.91,0-1.26.35-1,.37-.87.45s.28.14-1.33.32c.25-.06.13-.07.64-.21-3.25.41-6.31,1-9.34,1.15-.93-.29,2.63-.34,1.58-.56-4.35.5-9,1.19-13.26,1.46l.79,0c-.54.57-3.18,0-5.31.5.52-.1.66-.37.52-.3-.73.06-1.46.15-2.23.26a9.51,9.51,0,0,1-2.2.13,2.54,2.54,0,0,1-1.9-.89,5.08,5.08,0,0,1-.87-2.61l.19.51a28.28,28.28,0,0,1,.51-6.17c-.06-.56.16-1.59-.15-1,.44-1.37.78-2.71,1.08-4a7.27,7.27,0,0,1,1.78-3.19,19.35,19.35,0,0,1,6-4.68c-.5.33-1.12.9-.72.63,1.15-.84,2.33-1.63,3.54-2.4-.41,0-.56.16-1.42.49a12.51,12.51,0,0,1,2.3-1.67c-1.6,1.11.2.31,1,0-.16,0,.05-.2-.05-.22,2.17-.75.1-.61,2.93-1.84l-.08.18a32.35,32.35,0,0,1,3-1.77c.58,0-1,.67-1,.9,1.53-.82,2.83-2,4.37-2.48-.64.39-1.59.87-2.21,1.27a16.88,16.88,0,0,0,3-1.16l-.12.05L36,28.68l-.71.25c1.67-1.57,4-2,6.45-3.64-2.43,1.57-.33.42-.4.79.72-.23,1.8-.61,1.53-.4,1.17-.79,2.2-.77,3.85-1.88.12.05,1.37-.58,1.18-.23,1.62-.79-.46,0-.37-.16,2.42-1.42,6.17-2.2,9.7-4.14,3.13-1.48,3.6-2,6.53-3.36,1.06-.25-.7.66-.7.66a30.59,30.59,0,0,0,4.39-1.72c-.28.2.06.14.57.06,1.22-.5.69-.65,2.37-1.14a6.12,6.12,0,0,1-1.09.84c1.42-.64,2.79-1.36,4.27-2,.45,0-.82.59-1.31.9A32.92,32.92,0,0,0,77,11.24l-1.12.31c.61-.24.4.1,0,.32-1.38.74-2.13.7-2.25.64L74.64,12c-1.31-.12-4.28,1.73-6.45,2.53l.75-.73L66.86,15c-.51.08-.92,0,.12-.48-1.62.41-1.31.67-2.72,1-.16,0-.1,0,0-.09l-1.46.71c.26-.2-.36-.18.59-.49-2.79.85-4.24,2-5.37,2.15l.22-.11c-3.68,1.65-.25.43-2.91,1.91l-2.17.08-.25.44c-.39.14-1.16.44-1.06.27-1.35.8.29,0-.46.55-2,.52-5,2.29-5.63,2-.57.5,1.83-.6-.07.4-.77-.24-2.22,1.08-4,1.61.4-.48,2-1.06.27-.53-.82.87-3.29,1.38-4.65,2.12.08.35-3,1.55-5.25,2.81.09-.19-4.46,2-6.64,3.06l0-.09c-.24.55-2.46,1.68-4,2.68-.05-.23.19-.47,1-1.05L21,34.85a10,10,0,0,1-1.63,1.26l.22-.46c-1.93,1.24-3.7,2.74-6.08,4.52.06.29,2.21-1,0,1.17-.17,0-.43-.13.14-.71a12.36,12.36,0,0,1-1,1c.23-.34.49-.68.74-1-1.05.85-.39.61-1.15,1.36-.14-.16-.64.51-.66.29.16-.24.71-.65.94-1a30,30,0,0,0-2.29,2.38c.17,0,.19.11-.15,1-.2.63-.25.93-.32,1.12s-.11.25-.16.28-.16,0-.35.64c0,.56-.39,2-.1,2.06a2.51,2.51,0,0,1-.41,1c0,.59-.25,2-.32,3s0,1.85.14,1.18l0-.3v.19h0a27.22,27.22,0,0,0,.1,3,5.35,5.35,0,0,0,1,3,4,4,0,0,0,2.94,1.23,14.74,14.74,0,0,0,3-.27v.1c2.23-.39,5-.58,6.6-.92.67,0,1.6.05,1.32.19A27.77,27.77,0,0,1,28,59.81c-1.73.31.61.11-1.78.26a24.06,24.06,0,0,0,5.19-.44c-.81.32,1.72.17,2.79,0l-1.6,0c1.2-.14,2.26-.23,3.33-.32l-.54.39a30.12,30.12,0,0,0,6.33-.92,18.21,18.21,0,0,0,5.5-2.35c.41-.58-.11-.08-.7.31s-1.25.7-.82.27a10.49,10.49,0,0,0,2.61-2.08A6.38,6.38,0,0,0,49.51,53a4.89,4.89,0,0,0,.37-2c0-.25,0-.62,0-.94a8.63,8.63,0,0,1,.52-2.82c-.21.34-.64.6-.09-1.6a3.08,3.08,0,0,1,.13-.34l.18-.27.34-.45a2.19,2.19,0,0,1,.48-.45c.21-.11.22.15-.06.71s-.38.6-.41.57a3.39,3.39,0,0,0-.2.79c0,.21,0,.24.2-.14l0-.3a1.05,1.05,0,0,1,.17-.29l.31-.45L52,44c.45-.55.84-.89.71-.6.85-1.2.27-.62-.5.2.45-.45.8-.89,1.18-1.26l1.15-1a10.56,10.56,0,0,1,2.91-1.54c-.41.1-.82.12-.43,0a14.93,14.93,0,0,1,1.85-.59,2.42,2.42,0,0,0,.65-.27,4.11,4.11,0,0,1,1.69-.44c1.53.12-.52.42,2.15.25,1.61.32.31.32-.32.41a11.65,11.65,0,0,1,5.57,1.42c-.4-.12-.8-.22-1.2-.33l1,.29c.3.11.56.27.84.39l-.54-.52c.65.36,1.2.63,1.14.71.38.09.3,0,.3-.17s.11-.23.81.11c.81.58,2.54,1.73,2.52,2.23-1.08-1.11-1.11-1-1-.79s.13.37-.89-.41a10.37,10.37,0,0,1,1.4,1.16c.06.1-.12,0-.28-.13.5.51.71.9,1,1.09a2.13,2.13,0,0,0,.53.39,3.38,3.38,0,0,1,.51.45c.1.12.23.27.38.47l.25.34.3.51c-.36-.3.08.88.48,1.34-.79-1.21-.14-.72.71.27a7.45,7.45,0,0,0,.9,1.09l.39.34.4.24a3.08,3.08,0,0,0,1.79.43,2.62,2.62,0,0,1-1.65-.52c.13,0,.3.11.54.17a3,3,0,0,0,.85.15,2.38,2.38,0,0,0,2-1.21c.1,0-.09.33-.35.59s-.57.43-.23.26a5,5,0,0,0,.94-1.35L84,44.94l-2.62,2.61A35.54,35.54,0,0,0,78,50.79c-.82.68-.31-.16-1,.46-1.6,2-2.08,1.83-3.8,3.91.71-.4.76-.53-.38,1l2.93-3.31L74,55.13c.93-1,1.83-2.14,2.41-2.69-.79,1.12-.73,1-.15.65-1.52,1.07-2.34,2.76-4,4.12l-.38-.46c-2.38,2.12-3.66,4.29-6.61,7.16l1-.89c-.21.56-1.73,1.86-2.58,2.89-.06-.22-.68.33-1.16.65.15.06-2.09,2.17-2.06,2.72l-1.46,1.14c-2.37,2.33-2.21,3.13-4.46,5.39.51-.84-.59.11.77-1.54C54.63,75,54,75.71,54,75.81c-.52.37-1.85,2.32-2.66,2.9a4.72,4.72,0,0,1-1,1.49c-.12.06-.06-.07-.06-.07s-1.2,1.44-.32.84c-2.71,1.94-6.31,6.66-8.67,8.35-1.56,1.73-3.46,3.79-4.91,5.32.05-.13-.06-.07.23-.34-2.15,2-.83,1.68-3.28,3.93-1.4,1,1.1-1.39.28-.71-.79-.12-2.71,2.94-4.53,4.28l.35-.41c-1.34,1.07-2.71,3.17-4.68,5.13,0,0,.05-.13-.06-.08a75.37,75.37,0,0,1-5.31,6.26c.4-.78.75-1,.21-.79-.81.89.54,0-1.07,1.81-.65.46-1.94,1.62-2.3,1.59l1.57-1.63c-1.07.58-2,2.11-2.91,2.91v-.22c-2.4,2.51-2.14,2.83-4.78,5.45l.35-.19c-1.16,1.71-1.35,1.06-2.58,2.69l-.72.14L5,126.85a6.94,6.94,0,0,0-1.83,3.71,4.74,4.74,0,0,1,.94-2.9,29.76,29.76,0,0,1,2.05-2.5l-.92.9a13.67,13.67,0,0,0-1.13,1.24A5.44,5.44,0,0,0,3,129.69a4.29,4.29,0,0,1,.85-1.77A6,6,0,0,0,3.06,131a4.39,4.39,0,0,0,2.13,3.15c-.21.08,0,.42.63.81A10.7,10.7,0,0,0,8.3,136.1c1,.35,2.08.63,3,.86l.69.17a3,3,0,0,0,.83.12,5.83,5.83,0,0,1,1,.09c4.65-.66,9.29-.62,14.73-1.09-2-.45,1.59-.15,1.21-.73a11,11,0,0,1,1.87-.14l3.87.06c.93.11-1.19.23-1.07.36,2.79-.17,1.19.17,3,.18-.39-.18.94-.38,2.53-.42l-2.25-.11c3.86-.63,3.4.25,7.29-.38l-1.23.29c2-.27,7.42-.58,9.35-1.22.36.05.84.18,0,.29,4.81-.3,10.65-1.35,14.4-1.33l-.35.18a12.13,12.13,0,0,1,2.67-.34c0,.07-.35.18.07.16a24.61,24.61,0,0,1,3.55-.45l-1,.25c4.7-.16,7.16-1,11.08-1.34,0,.43,3.72.31,5.56.25l-.06.06c5.46-.34,9.24-1,14.28-1.53a67.11,67.11,0,0,0,7.13-.12l2.18-.08c.72,0,1.58-.11,2.35-.16a21,21,0,0,0,2.31-.49,12.68,12.68,0,0,0,2.09-.85c-.8.36,0-.35.77-.93A9.76,9.76,0,0,0,121,127a9.93,9.93,0,0,0,.76-.88c.47-.53.7-1,.83-.79l-.28.38a3.84,3.84,0,0,0,.77-.73,10.49,10.49,0,0,0,.78-1.25,14.69,14.69,0,0,0,1-3.15c-.14-.15-.3-.29-.45-.43a10.12,10.12,0,0,0,.44-2.1c0-.19,0-.42,0-.6v-1.66c0-1.49-.09-3.05-.17-4.54a34.86,34.86,0,0,1,0-7c-.16-1.2-.19-2.68-.35-3.87l.28.06c0-.84,0-1.56,0-2.25a18.09,18.09,0,0,0-.08-2.14c0-.2,0-.4-.08-.61l-.18-.63a5.32,5.32,0,0,0-.57-1.31,6.05,6.05,0,0,0-2.49-2.29c.33.11.67.24,1,.38a4.72,4.72,0,0,0-3-.9c-.83,0-1.57.13-2.7.11-.22-.14-.46-.28-.7-.41l-6.15.62a54.08,54.08,0,0,0-6,.92c.06-.07.16-.2.81-.3-1.89.23-7.35.66-6.59,1.14-.09-.37-4.15.5-6.29,1l.3-.32a20.26,20.26,0,0,1-4.37,1.12c-.61,0-.56-.16.25-.19-2,.12-1.54.46-4,.63l.88-.29a12.64,12.64,0,0,0-1.87.3,4.58,4.58,0,0,0-.49.15c-.13.06-.24.12-.45.2a7.63,7.63,0,0,1-1.64.18c-.47,0-.6-.09-.3-.26a10,10,0,0,1-1,.33c-.06-.06.18-.32.65-.66.31-.12.25,0,.24.05a9.51,9.51,0,0,0,1.73-1.48,18,18,0,0,1,2.62-2.12c.1,0,.25,0,.42-.13L81.9,93.41l-.47.37c-.09.07-.13.1-.12.08.37,0,.85-.3.79.21v0s-.06,0,.08-.12l.58-.6,1.3-1.3a26.81,26.81,0,0,1,2.78-2.42,1.57,1.57,0,0,1,.28-.12l-.15.17a9.66,9.66,0,0,0,1-.91c.57-.41.94-.66,1.46-1.08a19.26,19.26,0,0,0,3-2.24c-.25-.16.92-1.05-.3-.36.15-.1-.14.16-.71.64a4,4,0,0,0-.35.32l0-.06L89,87.71a10,10,0,0,1,2.3-2c.33-.5.7-1,.92-1.34C93.61,83.7,96,82,96.52,81.93l4.21-3.66c.71-.63,1.35-1.18,1.94-1.8A10.31,10.31,0,0,0,104,74.83a3.17,3.17,0,0,1,1.22-.91c-.35.45-.84.93-1,1.2,1.33-1.46,3.89-4.37,3.86-5,1.64-1.86-.56,1.33,1.44-1.44l-.18.44a24.86,24.86,0,0,0,4.53-7.67c1.06-2.64,1.93-5.38,3.1-9a2.85,2.85,0,0,1-.32.83,27,27,0,0,0,.32-12.92c-.2-1.08-.53-2.12-.82-3.17L115,34.19c-.18-.5-.31-1-.53-1.52l-.64-1.47-.62-1.47L113,29l-.35-.71a15.59,15.59,0,0,0-1.27-2A13.32,13.32,0,0,0,110.18,25l-.06-.59-1.75-1.79c-.6-.64-1.15-1.25-1.64-1.89s-1-1.29-1.5-1.89-1.11-1.27-1.77-1.92A22.77,22.77,0,0,0,101,15.07l.32.53c-1.2-1.06-4.17-2.84-3.84-2.86a2.28,2.28,0,0,1-1-.52l0-.16c-.58-.31-1.17-.59-1.77-.86s-1.19-.55-1.8-.79c-1.34-.7-1.17-.79-1.16-.95s-.13-.4-2.2-1.27a20,20,0,0,0-2.84-.73c-.89-.15-1.54-.18-1.24,0,.66.18,1.61.59,1.61.76-.49-.14-1-.26-1.46-.37-.19.19-.58.34-.5.58s.59.57,2.22,1.3c.81.19,1.62.4,2.43.65l.65.51-1.94-.79a8.57,8.57,0,0,0,2.6,1,2.54,2.54,0,0,0,.84.68c.81.19,1.58.49,2.38.74.17.3-1.14-.21.25.66,1.1.39-.75-.92,1-.06.91.81.52.77,1.81,1.35.1.21-.19.11-.69-.13,1.13.53,2.74,1.81,3.41,2A15.37,15.37,0,0,0,102,18c.68.57,1.14,1.11,1,1.22a12.48,12.48,0,0,1,1.15.8c.26.2.54.4.8.63s.47.46.66.68c-.88-.61-.18.2.64,1.15s1.66,2.13,1.28,2.07c1.33.92,3.39,4.41,4.69,6.81a1.93,1.93,0,0,1-.37-.59,28.29,28.29,0,0,1,1,2.8c.45,0,1.3,2.28,2,3.44.26,1.91-.82-.95-1-.27.13-.1.5.65.77,1.35s.51,1.33.56,1a4.56,4.56,0,0,1,0,2c.55.16.29,1.29.73,2.43a3.5,3.5,0,0,1-.21,1.34,4.77,4.77,0,0,0,0,1.46C115.5,47.39,115.33,45.4,115.33,45.4Zm-30,43.21h0l.88-.75Zm-3.65,3,1.59-1.28c.19,0,.12.16-.25.46C83.13,90.55,82.24,91.2,81.64,91.58Zm9-4.77c-.55.5-.78.61-.9.63l1-.84,0-.09A.72.72,0,0,1,90.6,86.81Z"/><path class="cls-2" d="M91.41,85.68l.22-.21-.38.23-.15.24Z"/><path class="cls-2" d="M8.57,54v.1a.93.93,0,0,1,0-.21C8.59,54,8.58,54,8.57,54Z"/><polygon class="cls-2" points="122.27 105.18 122.34 105.17 122.27 104.76 122.27 105.18"/><path class="cls-2" d="M23.46,34.91a.92.92,0,0,0,.33-.1A1.48,1.48,0,0,0,23.46,34.91Z"/><path class="cls-2" d="M33.37,29.79l1.47-.6C34.19,29.43,33.73,29.62,33.37,29.79Z"/><path class="cls-2" d="M41.2,26.26a.41.41,0,0,0,.11-.18h0Z"/><path class="cls-2" d="M79.88,48.21H80C80.22,48.12,80.08,48.21,79.88,48.21Z"/><path class="cls-2" d="M48.68,49.09c0-.44.11-.87.2-1.32C48.67,48.47,48.53,49,48.68,49.09Z"/><path class="cls-2" d="M53.34,79.85h0l-.19.2Z"/><path class="cls-2" d="M49.42,45.94a10.14,10.14,0,0,0-.54,1.83C49.06,47.19,49.28,46.53,49.42,45.94Z"/><path class="cls-2" d="M75.74,12.27l.39-.14s0,0,0-.06Z"/><path class="cls-2" d="M76.16,12.07l.42-.19A1.54,1.54,0,0,0,76.16,12.07Z"/><path class="cls-2" d="M77.46,11.48l-.88.4A3.83,3.83,0,0,0,77.46,11.48Z"/><path class="cls-2" d="M65.06,16.23l-.08.15C65,16.33,65.07,16.28,65.06,16.23Z"/><path class="cls-2" d="M61.86,17.54c.77-.29,2-.57,3-1.05l.07-.11C64.53,16.72,62.52,17.09,61.86,17.54Z"/><path class="cls-2" d="M48,21.9l2.71-1.06c-.51.1-1.19.22,0-.32C47.25,21.66,51.54,20.45,48,21.9Z"/><path class="cls-2" d="M39.72,25.41c1.4-.7-.09-.14,0-.23C38.82,25.69,38.62,25.81,39.72,25.41Z"/><path class="cls-2" d="M24.21,60.22l-.13.27C25.27,60.36,24.08,60.39,24.21,60.22Z"/><polygon class="cls-2" points="36.47 57.81 35.3 57.78 34.77 58.08 36.47 57.81"/><path class="cls-2" d="M44.17,58.32a4.08,4.08,0,0,1-.54.22,11.3,11.3,0,0,0,2-1A10.76,10.76,0,0,1,44.17,58.32Z"/><path class="cls-2" d="M42.81,87.29l.47-.05C43.81,86.62,43.67,86.25,42.81,87.29Z"/><path class="cls-2" d="M10.26,121.4a7.1,7.1,0,0,0-1.94,1.8C9.08,122.47,9.91,121.81,10.26,121.4Z"/><path class="cls-2" d="M125.1,117.62c0,.38.05.72.06,1.08a17,17,0,0,0-.06-1.93Z"/><path class="cls-3" d="M4.8,127.26l53.54-56Q66,62.72,70.58,56.71A21.14,21.14,0,0,0,75.1,43.57a13.57,13.57,0,0,0-3.38-9Q68.36,30.64,60.63,31a16.61,16.61,0,0,0-12.37,6.05,21.06,21.06,0,0,0-4.77,14.17L10.1,52.86A50.56,50.56,0,0,1,15.8,29,46.4,46.4,0,0,1,33,10.85Q44.52,3.74,61.56,2.91,77.38,2.14,88.3,7.39t16.58,14a33.55,33.55,0,0,1,5.7,18.42,32.41,32.41,0,0,1-4.93,17.67,62.81,62.81,0,0,1-13.2,14.85L67.23,93.94l47.09-2.3.13,30.26Z"/></svg>