<svg id="Layer_1" data-name="Layer 1" xmlns="http://www.w3.org/2000/svg" viewBox="0 0 130 140"><defs><style>.cls-1{fill:#fff;}.cls-2{fill:#f5876f;}.cls-3{fill:#f3765a;}</style></defs><title>title_1</title><path class="cls-1" d="M84.33,5s8.72-2.78,8.72,6.58,1,113,1,113,1.12,7-8.72,8.32c-10.08,1.35-24.7,2-24.7,2s-6.91.49-6.69-8,.45-82,.45-82L28.26,51.86s-8.07.35-6.27-10.14C24.44,27.43,85.88,9.73,84.33,5Z"/><path class="cls-2" d="M85,4.83c-.07-.08-.15-.07-.17,0a4.33,4.33,0,0,1-.09.8,2.64,2.64,0,0,1,0,.63A1.68,1.68,0,0,0,85,4.83Z"/><path class="cls-2" d="M82,7.59c-.46.47-1,1.07-.47,1.13.4-.59.61-.56,1-1.25.45-.32.86-.46.86-.3.11-.17.75-.5.82-.88A8.5,8.5,0,0,0,82,7.8C81.82,7.84,81.94,7.66,82,7.59Z"/><path class="cls-2" d="M33.82,29.57l.31-.14A2,2,0,0,0,33.82,29.57Z"/><path class="cls-2" d="M30,52.08c-.24.07-.33.13-.33.16C29.86,52.16,30,52.09,30,52.08Z"/><path class="cls-2" d="M35.48,51l-.32.06A.67.67,0,0,0,35.48,51Z"/><path class="cls-2" d="M33.82,29.57l-.81.37C33,30.06,33.44,29.77,33.82,29.57Z"/><path class="cls-2" d="M75.76,11.59a2.77,2.77,0,0,0,.4-.27l-.39.21A.13.13,0,0,1,75.76,11.59Z"/><path class="cls-2" d="M46.56,22.65l.24-.12c.05-.07.1-.14.14-.21Z"/><path class="cls-2" d="M56.67,18.05c-.23.09-.2.38-.24.53a1,1,0,0,1,.42-.4C56.84,18.13,56.78,18.09,56.67,18.05Z"/><path class="cls-2" d="M73,11.57l.27-.16Z"/><path class="cls-2" d="M39.38,26.11a.25.25,0,0,0-.13,0S39.31,26.11,39.38,26.11Z"/><path class="cls-2" d="M91.7,11.28h0C91.72,11.22,91.7,11.21,91.7,11.28Z"/><path class="cls-2" d="M84.31,5l.17-.06a.42.42,0,0,0,0-.16Z"/><path class="cls-2" d="M45.48,48.72h0C45.18,48.83,45.32,48.79,45.48,48.72Z"/><path class="cls-2" d="M53,129.57c0-.6.19-.14.33.24s.32.65.28-.21C53.5,129.8,52.92,128.1,53,129.57Z"/><path class="cls-2" d="M75.48,11.68l-.41.19Z"/><path class="cls-2" d="M53.58,129.6h0v0Z"/><path class="cls-2" d="M53.11,59a.54.54,0,0,0,.12-.24S53.17,58.78,53.11,59Z"/><path class="cls-2" d="M51.15,46.63l.43-.07Z"/><path class="cls-2" d="M53.46,68.08a1.86,1.86,0,0,0,0,.64,1,1,0,0,0,0-.1A1,1,0,0,1,53.46,68.08Z"/><path class="cls-2" d="M53.41,77.58s0-.12.05-.17V77.1Z"/><path class="cls-2" d="M92.11,40.12a1.55,1.55,0,0,1,.25-.44C92.16,39.82,92.08,38.43,92.11,40.12Z"/><path class="cls-2" d="M75.69,11.45c0,.09-.08.15-.21.23l.29-.15S75.76,11.45,75.69,11.45Z"/><path class="cls-2" d="M55.67,68.49,55.62,70C55.65,69.58,55.67,69,55.67,68.49Z"/><path class="cls-2" d="M92.76,108.27l0-.34A1.13,1.13,0,0,0,92.76,108.27Z"/><path class="cls-2" d="M55.64,74.48a3.91,3.91,0,0,0-.2.85.67.67,0,0,0,.07.17Z"/><path class="cls-2" d="M92.37,39.67h0Z"/><path class="cls-2" d="M91.61,29.73c0,1.44.37.68.58,1,.12,1.72-.26.8-.45,1.38.11,1.07.46,1.89.45,2.69-.06.06-.08.22-.16,0,.31,1.13,0,3.36.43,4.68a.57.57,0,0,1-.09.17.48.48,0,0,1,.5-.2c0,.64.25,1.19,0,1.44a1,1,0,0,0-.18-.61l.12.67c-.35.61-.13-.92-.39-.92a26,26,0,0,1,.34,3.86c-.34.21-.14-2.36-.43-1l.12-1.56c-.53,1.19,0-1-.54.14-.08,2.06.2,2.3.12,4.35.19.47.27-.15.47.31.36,2.92-.84,2.3-.37,4.44a2.76,2.76,0,0,1,.45,2.29l-.39-.52c0,2,.57,1.14.33,3.22-.16-.37-.14-1.56-.19-1.26-.29,1.35.23,1,.24,2l-.34.22c.07,2.12.34,4.45.42,6.8-.1-.13-.21-.53-.31,0a75.5,75.5,0,0,1-.16,9.17l.3,1.09c0,.25-.13.47-.19.2-.1,1.11.19,0,.31.59s-.16.83-.25.43a35.5,35.5,0,0,1,.29,7.66l-.09-.4c-.11,1.61.61,1.81.35,3.31l0-.29c-.1,3.5.21,7.36-.21,10,.42.51-.16,3.46.43,3.68a27.82,27.82,0,0,0-.56,4.25c0,.75.38,1.11.45,2l-.31,0,.34,1.26-.37.68.09.87c0-.35.13-.74.22-.69a7.93,7.93,0,0,1-.34,3.35l.29,3.22c-.13-.07-.17-.61-.26-1,.33,1.72-.32.32,0,1.89.07-.21.19.11.25.15a17.9,17.9,0,0,0-.07,3.89l-.22-.25c0,1.92.08,3.93.14,6.14l0,.22a4.48,4.48,0,0,1,0,1.15c.17-.76.53-.6.49.11l-.37.21c.11.47.26-.68.33.26-.27.85-.51.44-.48,0a6.9,6.9,0,0,1-.22,1c-.11,0-.07-.22-.16-.32a.94.94,0,0,1-.13.42c-.1.15-.25.32-.38.49a3,3,0,0,0-.7.95L91,129a7.62,7.62,0,0,1-2.2,1.5,10,10,0,0,1-2.43.82c0,.28-.76.37-1.36.69-1.59.12-3.37.1-5.28.32-1.33.27-.37.27-1,.5-.12-.25-2,0-1.06-.32-2.29.25-2.93.31-5.83.74.33.08.69.1.51.2-.53.08-1.21,0-1.15-.14l.14,0c-3.25.62-7.6-.25-10.18.41l.14,0-.68.11a5,5,0,0,1-.54.06,6.66,6.66,0,0,1-1.18,0c-.51-.17-.33-.18-.13-.18s.43,0,.08-.2a3.51,3.51,0,0,1-2.52-1.47,10.3,10.3,0,0,1-1.16-2.54,21.56,21.56,0,0,0,.13-4.07,25.4,25.4,0,0,1,.14-4.82l-.18.14c-.17-.66.11-.79.15-1.27-.14.07-.16.71-.26.3-.18-5.53.33-11.39.52-17,.06-2.07-.92-1.2-.48-3.8l.33.75c-.37-4.19.06-8.55-.25-12.64.07.24.17.25.17.65a7,7,0,0,0-.17-3.22c0-.63.18-.14.28-.53.15-.87-.29-2.18,0-2.64,0-.08.07.25.09.4-.11-.56,0-2.63-.23-2.09.14-1.53-.11-2.94.06-4.16-.31-.8.16-2.63-.27-2.89.45.12.38-2.69.17-3.66.13.33.15-.84.33-.46,0-1.11-.08-2.12-.31-1.93.55-2-.41-4.11.29-5.25-.23-3.3-.37-6.34-.46-9.3.45.11,0,3.27.5,3.15a60.79,60.79,0,0,1-.43-7.22c.07-.72.2.41.27.65l-.05-1V43.57s-.12,0-.18,0l-.8.21-1.58.42-1.27.35c-.62.18-1.22.37-1.81.59a1.66,1.66,0,0,1,.48-.25c-.47.14-1.12.23-1,.41l.45-.18c.83.09-1.73,1.1-1.78,1.28.66-.78-2.42.49-1.33-.57-.3.12-.67.32-.56.43-.48.09-.64,0-.21-.23-1.68.56-1,.61-2.56,1,0-.1.28-.22.41-.38a8.89,8.89,0,0,1-2.79,1.06c.06-.08-.11-.12.28-.22-2.23.62-3.69,1.51-6.19,2,.61-.61-.88.08-1.1-.24l-1.29.45.57,0c-1.16.3-2.11.83-3.14,1l.82-.38L28.74,51,30,50.82c-1.12.49.24.42-1.32.73.17-.07-.18,0-.51.07a3,3,0,0,1-1.16-.3h0a3.1,3.1,0,0,1-1.9-.52c-.13-.21.34-.28.26-.42a1.35,1.35,0,0,1-.61-.18,4.45,4.45,0,0,1-.73-.56c-.48-.43-.85-1-1.15-1.23.15.18.35.08.34,0l-.41-.3c-.13-.51-.13-.58.05-.56-.34-1.5-.35.63-.58-1.24,0,.14.05.07.17.36a13,13,0,0,1,.12-5.39c.23-.19.18.17.11.5s-.07.74.12.46c.16-2.3,1.83-4.72,3.73-6.32l-.37.29c-.11-.65,1.56-1.05,2.41-2-.22.22-.14.48-.11.38,1.41-1,2.76-2.18,4.91-3.7l-.2.28c.93-.43,2.34-1.32,3.34-1.8.21-.29.78-.57.35-.56,3.34-1,5.57-3.41,8.6-4.15-.33.16-.73.48-.47.36l2.28-1.22c-.28-.12-.37,0-.93.08a5.25,5.25,0,0,1,1.43-.94c-1,.63.17.33.68.24-.11,0,0-.17-.05-.22,1.39-.19,0-.52,1.8-1l0,.15A13.74,13.74,0,0,1,52,21c.39.12-.62.42-.57.64,1-.45,1.68-1.31,2.65-1.45-.37.25-1,.51-1.33.76a5.53,5.53,0,0,0,1.87-.52l-.08,0,1.68-.58-.45.1c.93-1.17,2.4-1.18,3.84-2.3-1.41,1.08-.16.34-.16.67.44-.1,1.11-.28,1-.12.67-.56,1.36-.37,2.3-1.16.09.06.83-.35.75-.05,1-.49-.3,0-.27-.2,1.41-1,3.78-1.16,5.81-2.53,1.84-1,2.06-1.45,3.76-2.37.65-.12-.35.54-.35.54A10.09,10.09,0,0,0,75,11.36c-.15.16.07.14.39.12.71-.35.33-.55,1.35-.85a3.11,3.11,0,0,1-.56.69c.82-.48,1.58-1,2.41-1.54.31,0-.41.49-.68.74a9.78,9.78,0,0,0,2.65-1.8L79.88,9c.35-.19.29.11.05.29-.74.62-1.25.52-1.34.46l.59-.37c-.88-.18-2.45,1.3-3.74,1.84l.35-.62-1.15.9c-.32,0-.6-.1,0-.44-1,.22-.75.49-1.62.63-.1,0-.07,0,0-.08l-.84.5c.14-.15-.26-.2.31-.39-1.69.48-2.45,1.41-3.18,1.38l.12-.08c-2.16,1.08-.09.37-1.62,1.41l-1.41-.21-.1.37c-.24.09-.7.26-.66.11-.78.56.19.06-.23.46-1.21.21-3,1.41-3.43,1.07-.31.38,1.13-.28,0,.37-.54-.34-1.33.66-2.43.87.2-.38,1.22-.66.11-.45-.43.68-2,.75-2.82,1.2.11.35-1.78.94-3.16,1.68,0-.15-2.75,1-4.12,1.49v-.07c-.1.45-1.48,1-2.43,1.53-.06-.21.08-.38.57-.71l-.92.43a3.29,3.29,0,0,1-1,.72l.11-.35a38.72,38.72,0,0,1-4,2.09c0,.27,1.56,0,0,1-.13-.09-.3-.27.11-.54a3.09,3.09,0,0,1-.76.45l.55-.54c-.76.26-.28.36-.86.63-.08-.19-.48.08-.47-.1s.53-.18.71-.36a6.47,6.47,0,0,1-1.81.59c.11.07.13.24-.33.51-1.2.65-.52,0-1.27.29-.23.27-1.06.57-.94.84a1,1,0,0,1-.66.11c-.55.45-2.84,1.68-2,1.55l.16-.08-.09.07h0c-1.84,1.42-4.18,2.38-6,3.87l-.06-.08A18.44,18.44,0,0,0,25.32,36c-.29.28-.81.56-.77.35-.67.85-.69,1-1.73,2.15.49-1-.37.2.56-1a11.6,11.6,0,0,0-1,1.24,4.13,4.13,0,0,0-.63,1.61c0-.3-.2-.07-.39.35a4.14,4.14,0,0,0-.27,1.36,7.9,7.9,0,0,1,.36-1,10.91,10.91,0,0,0-.17,1.09l-.15,1-.28-.4A7.46,7.46,0,0,0,21,46.88c.41,1.25,1,2.26,1.48,3.43.4.24.08-.09-.11-.48s-.4-.79-.09-.56A8,8,0,0,0,24.43,52a2.91,2.91,0,0,0,1.87.57h.79l1.28.06c-.18-.05-.34-.17-.23-.27a2.78,2.78,0,0,1,.35-.21,5.35,5.35,0,0,1,.71-.31c1.24-.28,1.64.08.89.38-.29.09-.45.09-.44.05-.39.14-.9.33-.38.33l.13-.16c.64,0,2.34-.51,2-.21.9-.36.35-.3-.36-.17,1.63-.26,2.47-.65,4.13-1-.28,0-.55-.07-.29-.13,2.42-.49,1-.5,2.6-1,1-.07-.22.51,1.37-.07,1-.15.29.25-.08.45a15.23,15.23,0,0,1,3.67-.78l-.76.3a9.4,9.4,0,0,1,1.23-.38l-.51-.11c.47-.08.86-.18.88-.09.43-.27-.47-.28.42-.74.64,0,1.83-.61,2.12-.37-2,.41.29.25-1.32.73a6.4,6.4,0,0,1,1.16-.3c.07,0,0,.08-.17.13,1.91-.21.75-.56,2.66-1.06-.2.23.53.21.83.09-.77.2-.44-.19.23-.51a8.67,8.67,0,0,0,1.95-.61l-.75.14a5,5,0,0,1,1.66-.66c.11.11-.75.3-.43.27a2.46,2.46,0,0,1,.73-.28,2,2,0,0,1,.56,0l.42,0c.06,0,.16,0,.2,0a.65.65,0,0,0,.05.2c-.13.4-.34.33-.42.56a.28.28,0,0,1,.06.23,4.76,4.76,0,0,1-.08.66,5.25,5.25,0,0,0,0,1.66c.24-.46.18-.54.41.59l-.15-2.64.33,1.7a12.1,12.1,0,0,0-.06-1.21l0-.53v-.23a.34.34,0,0,1,0-.1,1.29,1.29,0,0,1,.1.35.57.57,0,0,0,.06.17s.07-.08.17-.27c-.37,1.09.2,2.16,0,3.43l-.59-.05c-.28,1.9.28,3.38.12,5.84l.11-.79c.23.33,0,1.52.11,2.32-.2-.07-.27.42-.4.76.15,0,0,1.81.37,2l-.26,1.09c-.12,2,.55,2.28.47,4.19-.21-.58-.36.29-.5-1,0,.64-.05,1.21.09,1.22-.13.38.26,1.78.07,2.36a1.89,1.89,0,0,1,.27,1.08c0,.08-.1,0-.1,0s.13,1.12.35.5c-.63,2,0,5.5-.53,7.21.06,1.39.12,3.07.12,4.34,0-.09-.09,0-.07-.25-.2,1.75.56,1.08.34,3.07-.32,1-.16-1.06-.29-.43-.65.27.08,2.4-.31,3.73l0-.32c-.22,1,.24,2.49.18,4.16,0,0-.06-.08-.1,0a28.43,28.43,0,0,1,.51,4.92c-.25-.5-.13-.73-.39-.43,0,.72.41-.2.48,1.23-.14.47-.27,1.5-.55,1.64V97.7c-.36.69,0,1.75-.06,2.47l-.15-.1c0,2.08.43,2.12.39,4.35l.12-.23c.38,1.23-.23,1,0,2.24l-.39.37c.09.8.36,2.82.43,4.27a28.2,28.2,0,0,1-.6-3.57,15.28,15.28,0,0,0,.21,3.14,3.74,3.74,0,0,1-.07-1,13,13,0,0,1,.44,3.87c-.77-.3-.22,4.14-.82,5.28a30.23,30.23,0,0,1,0,4.26l-.11,2.22c0,.78-.07,1.51,0,2.44.56-1.26,0,1,.65.77a4.68,4.68,0,0,1,.15,1.17,9.38,9.38,0,0,0,.46,2.51c.12.65-.47-.69-.55-.58a7.23,7.23,0,0,1,.46,1.26c0,.15-.08.25.28.86,0-.37.65.41,1.55,1.18a7.35,7.35,0,0,1-1-1.33c1,.94,1.51,1.28,2,1.7a3.78,3.78,0,0,0,2.43.9,6.91,6.91,0,0,1-.91,0,10.27,10.27,0,0,0,1.47.2,6.29,6.29,0,0,0,1,0l.81-.07a9.65,9.65,0,0,0,2.8-.53c.22.06.51.21,0,.28,2.9-.09,6.4-.92,8.67-.79l-.21.16a4.34,4.34,0,0,1,1.6-.25c0,.06-.2.16,0,.15a9,9,0,0,1,2.13-.35l-.6.22c2.84,0,4.29-.8,6.63-1.17.06.43,2.25.35,3.43.21l0,.07a11.76,11.76,0,0,0,4.54-1.57,9.07,9.07,0,0,0,3.31-3.39,6.32,6.32,0,0,0,1.44-4.76v0c0-1.62,0-3.48.11-4.92-.07.46-.34-.08-.39-.62.08-.71-.32-2,.08-1.85v.25c.39-.53.27-2,.27-3.14L94.8,114c.74-3-.35-7.82.32-9.45-.14-.72-.14-1.62-.28-2.33l.28,0c.06-2,.08-3,0-5.46l.21.5c0-1.39-.83-1.75-.86-3l.42-.39c0-2.43.32-4.89-.08-7.29.06,0,.18.11.2.51,0-1.15.25-4.43-.33-4,.38,0,0-2.5-.16-3.81l.28.2a7.41,7.41,0,0,1-.58-2.68c0-.37.22-.33.16.16.13-1.22-.28-.95-.14-2.43l.18.55a3.69,3.69,0,0,0-.29-1.84,5.06,5.06,0,0,1,.29-2.57,2.74,2.74,0,0,1-.3-1.6c.1-.1.16.17.19.31.17-2.1-.35-3.12-.09-4.57a.27.27,0,0,0,.16-.24c0,1.66,0,3,0,2.88.25,0,.29-1.35.65-.28A18.08,18.08,0,0,1,94.48,63a.56.56,0,0,1,.09-.17l0,.13a3.71,3.71,0,0,0,0-.83A10.11,10.11,0,0,0,94.62,61c.21-.16.1-1.55.1-2.22-.28.06-.24-.82-.47,0,0-.11,0,.13,0,.57a2,2,0,0,0,0,.29l0,0,0,1.67a3.69,3.69,0,0,1-.12-1.82c-.18-.35-.37-.73-.46-.94.38-.92.58-2.69.82-2.94-.18-2-.15-4.83-.69-6.12a1.17,1.17,0,0,1,.23-.89,5.45,5.45,0,0,0,.13.92c-.15-1.17-.09-3.46-.46-3.73.16-1.47.35.82.27-1.2l.12.28c.55-4-1-6.46-.28-10.87-.05.31-.07.46-.13.52.29-5-.4-10.34.08-15.3a5.44,5.44,0,0,0-.33-2.42l.3-.31L93.46,15a9.7,9.7,0,0,1,.19-2.91,6.06,6.06,0,0,0-.34-3.48L93.19,9a2.9,2.9,0,0,0-.25-.88,6.73,6.73,0,0,0-.43-.94c-.33-.57-.62-1-.5-1a1.06,1.06,0,0,1-.59-.47l.09-.14a5.53,5.53,0,0,0-2.35-1c-.9-.31-.82-.37-.83-.55s-.15-.38-1.62-.38a6.29,6.29,0,0,0-1.81.47c-.52.23-.88.49-.66.47.41-.12,1.05-.13,1.11,0a8,8,0,0,0-.87.27c0,.24-.14.53,0,.71s.5.26,1.49.29a8.92,8.92,0,0,1,1.35-.35l.42.25a8.52,8.52,0,0,0-1.13,0,2.22,2.22,0,0,0,.82.07l.67-.11c.08.15.26.22.47.35a4.72,4.72,0,0,1,.65,0l.65.06c0,.12-.15.13-.23.18s-.06.09.2.36c.56.15-.23-.65.64-.21a2.33,2.33,0,0,1,.19.55c0,.13.16.17.4.44,0,.15-.18.06-.37-.12a3.09,3.09,0,0,1,.63.86,2.77,2.77,0,0,0,.5.79A7.53,7.53,0,0,0,92,10.41c0,.5,0,.9-.21.87a6.53,6.53,0,0,1,.41,2c-.54-1.28,0,2.63-.58,2.3.48.95.24,3.43.52,5.11a.79.79,0,0,1-.09-.42,13,13,0,0,1-.26,1.83c.39.12.5,1.6.74,2.39-.36,1.16-.46-.7-.82-.34.31-.06.33,2,.59,1.62-.22.89-.1.77-.42,1.23.49.15.09.82.39,1.56-.23,1.29-.45.33-.29,1.75C91.8,31,91.61,29.73,91.61,29.73Zm1.15,33.59h0l0-.69Zm0,2.82V64.92c.1-.1.2,0,.2.29C92.91,65.06,92.86,65.72,92.78,66.14Zm1.9-6c0,.44,0,.59-.07.65l0-.78,0,0A.45.45,0,0,1,94.68,60.17Z"/><path class="cls-2" d="M94.3,59.36c0-.06,0-.1,0-.18l-.06.27.09.15Z"/><path class="cls-2" d="M34.19,29.41l-.06,0,.13,0Z"/><polygon class="cls-2" points="92.59 105.13 92.66 105.13 92.6 104.88 92.59 105.13"/><path class="cls-2" d="M48.46,23.17a.43.43,0,0,0,.21,0A.64.64,0,0,0,48.46,23.17Z"/><path class="cls-2" d="M54.6,20.47l.9-.29Z"/><path class="cls-2" d="M59.38,18.54a.43.43,0,0,0,0-.15h0Z"/><path class="cls-2" d="M50.32,44.91l.19-.07C51,44.67,50.65,44.77,50.32,44.91Z"/><path class="cls-2" d="M27,51.32l.75,0C27.37,51.23,27.07,51.17,27,51.32Z"/><path class="cls-2" d="M55.68,68.32h0v0Z"/><path class="cls-2" d="M28.7,51.18l-.52.09-.41,0,.25,0a1.28,1.28,0,0,0,.19,0A4.19,4.19,0,0,0,28.7,51.18Z"/><path class="cls-2" d="M80,9.62l.23-.11s0,0,0,0Z"/><path class="cls-2" d="M80.2,9.46l.23-.16C80.32,9.36,80.22,9.41,80.2,9.46Z"/><path class="cls-2" d="M80.92,9l-.49.34A1.33,1.33,0,0,0,80.92,9Z"/><path class="cls-2" d="M73.67,12.41l0,.13A.13.13,0,0,0,73.67,12.41Z"/><path class="cls-2" d="M71.78,13.28a12.37,12.37,0,0,0,1.84-.64l0-.1C73.41,12.81,72.14,12.93,71.78,13.28Z"/><path class="cls-2" d="M63.31,15.53l1.63-.61c-.32,0-.75,0,0-.29C62.77,15.19,65.42,14.67,63.31,15.53Z"/><path class="cls-2" d="M58.28,17.51c.84-.42-.07-.15-.05-.22C57.72,17.61,57.6,17.69,58.28,17.51Z"/><path class="cls-2" d="M24.2,36.59l-.12-.25C23.6,36.93,24.14,36.41,24.2,36.59Z"/><path class="cls-2" d="M22.44,43.72a5.61,5.61,0,0,1,.23-.65l-.2-.34C22.46,43.06,22.43,43.39,22.44,43.72Z"/><path class="cls-2" d="M21.27,48.44l-.18-.33c.22.42.42.85.67,1.24C21.57,49.06,21.44,48.75,21.27,48.44Z"/><path class="cls-2" d="M53.17,75.89l.31-.22C53.43,75.19,53.08,75.08,53.17,75.89Z"/><path class="cls-2" d="M53.33,104.16a2.7,2.7,0,0,0-.11,1.6C53.24,105.12,53.37,104.49,53.33,104.16Z"/><polygon class="cls-2" points="95.18 112.61 95.3 113.18 95.2 112.11 95.18 112.61"/><path class="cls-3" d="M21,47.06,20.9,18.84l64.26-15,.53,121.38L53,126.77l-.38-88.39Z"/></svg>